M48
;DRILL file {KiCad 4.0.6+dfsg1-1} date Sat Feb 17 20:25:40 2018
;FORMAT={3:3/ absolute / metric / suppress leading zeros}
FMAT,2
METRIC,TZ
T1C0.762
T2C0.800
T3C0.813
T4C0.900
T5C1.000
T6C1.001
T7C1.143
T8C1.200
%
G90
G05
M71
T1
X73700Y-81500
X73700Y-84040
X73700Y-87040
X73700Y-89040
X73700Y-91040
X73700Y-93040
X73700Y-95040
X73700Y-97040
X73700Y-99040
X73700Y-101040
X73700Y-103040
X73700Y-105040
X73700Y-107040
X73700Y-109040
X73700Y-111040
X73700Y-113040
X73700Y-115040
X73700Y-117040
X73700Y-119040
X73700Y-121040
X73700Y-123040
X73700Y-125040
X73700Y-127040
X73700Y-129040
X73700Y-131040
X73700Y-133040
X73700Y-135700
X73700Y-138240
X80000Y-81500
X80000Y-86700
X80000Y-90700
X80000Y-94700
X80000Y-98700
X80000Y-102700
X80000Y-106700
X80000Y-110700
X80000Y-114700
X80000Y-118700
X80000Y-122700
X80000Y-126700
X80000Y-126700
X80000Y-130700
X80000Y-135700
X87000Y-110180
X87000Y-112720
X87000Y-115260
X87000Y-117800
X87000Y-120340
X87000Y-122880
X145420Y-110180
X145420Y-112720
X145420Y-115260
X145420Y-117800
X145420Y-120340
X145420Y-122880
X204000Y-73205
X204000Y-75745
X204000Y-78285
X204000Y-80825
X204000Y-83365
X204000Y-85905
X207000Y-113200
X207000Y-153840
X209540Y-113200
X209540Y-153840
X212080Y-113200
X212080Y-153840
X214620Y-113200
X214620Y-153840
X217160Y-113200
X217160Y-153840
X219700Y-113200
X219700Y-153840
T2
X106200Y-96700
X111200Y-96700
X124200Y-81000
X124200Y-86000
X140980Y-72720
X140980Y-75260
X140980Y-77800
X140980Y-80340
X140980Y-82880
X140980Y-85420
X140980Y-87960
X140980Y-90500
X148600Y-72720
X148600Y-75260
X148600Y-77800
X148600Y-80340
X148600Y-82880
X148600Y-85420
X148600Y-87960
X148600Y-90500
X154000Y-75000
X159000Y-75000
X160440Y-134040
X160440Y-136580
X160440Y-139120
X160440Y-141660
X161000Y-71000
X165000Y-77000
X165670Y-102000
X165670Y-109620
X166000Y-71000
X167500Y-77000
X168060Y-134040
X168060Y-136580
X168060Y-139120
X168060Y-141660
X168210Y-102000
X168210Y-109620
X170000Y-71000
X170750Y-102000
X170750Y-109620
X170800Y-132600
X170800Y-136900
X172260Y-85310
X173290Y-102000
X173290Y-109620
X175000Y-71000
X175800Y-132600
X175800Y-136900
X177260Y-85310
X180000Y-75000
X180000Y-80000
X181000Y-100750
X181000Y-105750
X183750Y-71750
X187000Y-79500
X187000Y-91000
X187000Y-100750
X187000Y-105750
X188750Y-71750
X192000Y-79500
X192000Y-91000
X198000Y-74500
X198000Y-79500
X204300Y-92300
X207760Y-142160
X207760Y-144700
X207760Y-147240
X207760Y-149780
X209300Y-92300
X209500Y-103250
X214500Y-103250
X215380Y-142160
X215380Y-144700
X215380Y-147240
X215380Y-149780
X218250Y-98250
X218250Y-103250
X218890Y-146360
X218890Y-151360
T3
X127500Y-102620
X127500Y-105160
X127500Y-107700
X127500Y-110240
X127500Y-112780
X127500Y-120400
X127500Y-122940
X127500Y-125480
X127500Y-128020
X127500Y-135640
X127500Y-138180
X127500Y-140720
X127500Y-143260
X127500Y-145800
X130040Y-102620
X130040Y-105160
X130040Y-107700
X130040Y-110240
X130040Y-112780
X130040Y-120400
X130040Y-122940
X130040Y-125480
X130040Y-128020
X130040Y-135640
X130040Y-138180
X130040Y-140720
X130040Y-143260
X130040Y-145800
X132580Y-97540
X135120Y-97540
X137660Y-97540
X137660Y-145800
X140200Y-97540
X140200Y-145800
X142740Y-97540
X142740Y-145800
X145280Y-97540
X145280Y-145800
X147820Y-97540
X147820Y-145800
X150360Y-97540
X150360Y-145800
X152900Y-145800
X155440Y-97540
X155440Y-145800
X157980Y-97540
X160520Y-97540
X160520Y-145800
X163060Y-97540
X163060Y-145800
X165600Y-97540
X165600Y-145800
X168140Y-97540
X168140Y-145800
X170680Y-97540
X170680Y-145800
X173220Y-97540
X173220Y-145800
X175760Y-145800
X178300Y-97540
X178300Y-145800
X180840Y-97540
X182364Y-145800
X183380Y-97540
X184904Y-145800
X185920Y-97540
X187444Y-145800
X188460Y-97540
X189984Y-145800
X191000Y-97540
X192524Y-145800
X195064Y-145800
X197604Y-145800
X200144Y-145800
T4
X92500Y-70960
X92500Y-73500
X92800Y-147060
X92800Y-149600
X99800Y-147060
X99800Y-149600
X107000Y-70960
X107000Y-73500
X111400Y-147060
X111400Y-149600
X121250Y-70960
X121250Y-73500
X217060Y-117590
X217060Y-122590
X219600Y-117590
X219600Y-122590
T5
X76000Y-110860
X76000Y-113400
X76990Y-118900
X76990Y-121440
X101760Y-124900
X104300Y-124900
X108160Y-128200
X110700Y-128200
X136980Y-152700
X137640Y-101000
X139520Y-152700
X140180Y-101000
X142060Y-152700
X142720Y-101000
X144600Y-152700
X145260Y-101000
X147800Y-101000
X150600Y-117790
X150600Y-120330
X150600Y-122870
X161200Y-125220
X161200Y-127760
X161200Y-130300
X167300Y-125320
X167300Y-127860
X167300Y-130400
X174680Y-152600
X177220Y-152600
X179760Y-152600
X182300Y-152600
X207570Y-97510
X210110Y-97510
T6
X87670Y-153750
X87920Y-66250
X90210Y-153750
X90460Y-66250
X92750Y-153750
X93000Y-66250
X99300Y-153800
X101840Y-153800
X102460Y-66250
X104380Y-153800
X105000Y-66250
X107540Y-66250
X110900Y-153800
X113440Y-153800
X115980Y-153800
X116710Y-66250
X119250Y-66250
X121790Y-66250
X159260Y-152700
X161800Y-152700
X164340Y-152700
T7
X169920Y-66000
X172460Y-66000
X175000Y-66000
T8
X85500Y-83750
X85500Y-96450
X90900Y-121600
X90900Y-134300
X91000Y-83750
X91000Y-96450
X91200Y-101640
X91200Y-111800
X95100Y-120800
X96250Y-83750
X96250Y-96450
X96300Y-100900
X96300Y-113600
X96850Y-124850
X96850Y-137550
X99750Y-69840
X99750Y-80000
X101600Y-101000
X101600Y-113700
X102850Y-128300
X102850Y-141000
X107000Y-103900
X107000Y-116600
X107800Y-120800
X108400Y-133140
X108400Y-143300
X112600Y-103900
X112600Y-116600
X114000Y-69750
X114000Y-79910
X114800Y-86300
X114800Y-99000
X115500Y-127900
X115500Y-138060
X119700Y-111500
X119700Y-124200
X119800Y-95000
X119800Y-107700
X126500Y-65250
X129300Y-72900
X129300Y-85600
X134100Y-72900
X134100Y-85600
X136660Y-65250
X137410Y-126530
X137410Y-139230
X141730Y-127820
X141730Y-140520
X149700Y-139900
X149700Y-152600
X154100Y-139900
X154100Y-152600
X154840Y-66000
X155000Y-79840
X155000Y-90000
X161000Y-81840
X161000Y-92000
X165000Y-66000
X170300Y-91020
X171470Y-123960
X181000Y-109500
X182300Y-85700
X183000Y-91020
X183110Y-128480
X183110Y-138640
X184170Y-123960
X189200Y-124200
X189200Y-136900
X189200Y-140000
X189200Y-152700
X191500Y-68750
X193300Y-103250
X193700Y-109500
X193900Y-124200
X193900Y-136900
X193900Y-140000
X193900Y-152700
X195000Y-85700
X198600Y-124200
X198600Y-136900
X198600Y-140000
X198600Y-152700
X199000Y-85700
X199000Y-98400
X199000Y-109500
X200970Y-120590
X203100Y-124200
X203100Y-136900
X203100Y-142800
X203100Y-155500
X204200Y-68750
X206000Y-103250
X207040Y-128000
X207040Y-132300
X208200Y-137260
X211700Y-109500
X213670Y-120590
X219740Y-128000
X219740Y-132300
X220900Y-137260
T0
M30
