G04 #@! TF.FileFunction,Soldermask,Top*
%FSLAX46Y46*%
G04 Gerber Fmt 4.6, Leading zero omitted, Abs format (unit mm)*
G04 Created by KiCad (PCBNEW 4.0.6+dfsg1-1) date Sat Feb 17 20:25:25 2018*
%MOMM*%
%LPD*%
G01*
G04 APERTURE LIST*
%ADD10C,0.100000*%
%ADD11C,2.800000*%
%ADD12O,2.800000X2.800000*%
%ADD13C,2.000000*%
%ADD14O,2.432000X2.940000*%
%ADD15R,2.800000X2.800000*%
%ADD16C,1.924000*%
%ADD17C,4.400000*%
%ADD18R,2.000000X2.000000*%
%ADD19O,2.000000X2.000000*%
%ADD20R,2.200000X2.200000*%
%ADD21C,2.200000*%
%ADD22O,1.901140X2.899360*%
%ADD23R,2.100000X2.100000*%
%ADD24O,2.100000X2.100000*%
%ADD25O,1.924000X2.940000*%
%ADD26C,2.400000*%
%ADD27R,2.800000X2.000000*%
%ADD28O,2.800000X2.000000*%
G04 APERTURE END LIST*
D10*
D11*
X90900000Y-134300000D03*
D12*
X90900000Y-121600000D03*
D11*
X193900000Y-152700000D03*
D12*
X193900000Y-140000000D03*
D13*
X124200000Y-81000000D03*
X124200000Y-86000000D03*
D14*
X172460000Y-66000000D03*
X175000000Y-66000000D03*
X169920000Y-66000000D03*
D15*
X155000000Y-79840000D03*
D12*
X155000000Y-90000000D03*
D16*
X204000000Y-73205000D03*
X204000000Y-75745000D03*
X204000000Y-78285000D03*
X204000000Y-80825000D03*
X204000000Y-83365000D03*
X204000000Y-85905000D03*
D17*
X216000000Y-91410000D03*
X216000000Y-68000000D03*
D13*
X175000000Y-71000000D03*
X170000000Y-71000000D03*
D18*
X167500000Y-77000000D03*
D13*
X165000000Y-77000000D03*
X161000000Y-71000000D03*
X166000000Y-71000000D03*
D18*
X154000000Y-75000000D03*
D13*
X159000000Y-75000000D03*
D15*
X165000000Y-66000000D03*
D12*
X154840000Y-66000000D03*
D15*
X161000000Y-81840000D03*
D12*
X161000000Y-92000000D03*
D18*
X188750000Y-71750000D03*
D13*
X183750000Y-71750000D03*
D18*
X192000000Y-79500000D03*
D13*
X187000000Y-79500000D03*
D18*
X198000000Y-79500000D03*
D13*
X198000000Y-74500000D03*
D11*
X204200000Y-68750000D03*
D12*
X191500000Y-68750000D03*
D11*
X119800000Y-95000000D03*
D12*
X119800000Y-107700000D03*
D13*
X204300000Y-92300000D03*
X209300000Y-92300000D03*
X187000000Y-91000000D03*
X192000000Y-91000000D03*
X209500000Y-103250000D03*
X214500000Y-103250000D03*
X218250000Y-103250000D03*
X218250000Y-98250000D03*
X177260000Y-85310000D03*
X172260000Y-85310000D03*
X180000000Y-80000000D03*
X180000000Y-75000000D03*
X111200000Y-96700000D03*
X106200000Y-96700000D03*
X187000000Y-105750000D03*
X187000000Y-100750000D03*
X181000000Y-105750000D03*
X181000000Y-100750000D03*
D18*
X165670000Y-109620000D03*
D19*
X173290000Y-102000000D03*
X168210000Y-109620000D03*
X170750000Y-102000000D03*
X170750000Y-109620000D03*
X168210000Y-102000000D03*
X173290000Y-109620000D03*
X165670000Y-102000000D03*
D11*
X199000000Y-98400000D03*
D12*
X199000000Y-85700000D03*
D11*
X195000000Y-85700000D03*
D12*
X182300000Y-85700000D03*
D11*
X193300000Y-103250000D03*
D12*
X206000000Y-103250000D03*
D11*
X199000000Y-109500000D03*
D12*
X211700000Y-109500000D03*
D11*
X170300000Y-91020000D03*
D12*
X183000000Y-91020000D03*
D11*
X134100000Y-85600000D03*
D12*
X134100000Y-72900000D03*
D11*
X114800000Y-86300000D03*
D12*
X114800000Y-99000000D03*
D11*
X129300000Y-72900000D03*
D12*
X129300000Y-85600000D03*
D11*
X181000000Y-109500000D03*
D12*
X193700000Y-109500000D03*
D18*
X148600000Y-90500000D03*
D19*
X140980000Y-72720000D03*
X148600000Y-87960000D03*
X140980000Y-75260000D03*
X148600000Y-85420000D03*
X140980000Y-77800000D03*
X148600000Y-82880000D03*
X140980000Y-80340000D03*
X148600000Y-80340000D03*
X140980000Y-82880000D03*
X148600000Y-77800000D03*
X140980000Y-85420000D03*
X148600000Y-75260000D03*
X140980000Y-87960000D03*
X148600000Y-72720000D03*
X140980000Y-90500000D03*
D15*
X99750000Y-69840000D03*
D12*
X99750000Y-80000000D03*
D15*
X114000000Y-69750000D03*
D12*
X114000000Y-79910000D03*
D15*
X126500000Y-65250000D03*
D12*
X136660000Y-65250000D03*
D20*
X92500000Y-70960000D03*
D21*
X92500000Y-73500000D03*
D20*
X107000000Y-70960000D03*
D21*
X107000000Y-73500000D03*
D20*
X121250000Y-70960000D03*
D21*
X121250000Y-73500000D03*
D22*
X90460000Y-66250000D03*
X87920000Y-66250000D03*
X93000000Y-66250000D03*
X105000000Y-66250000D03*
X102460000Y-66250000D03*
X107540000Y-66250000D03*
X119250000Y-66250000D03*
X116710000Y-66250000D03*
X121790000Y-66250000D03*
D11*
X85500000Y-83750000D03*
D12*
X85500000Y-96450000D03*
D11*
X96300000Y-100900000D03*
D12*
X96300000Y-113600000D03*
D11*
X95100000Y-120800000D03*
D12*
X107800000Y-120800000D03*
D11*
X91000000Y-83750000D03*
D12*
X91000000Y-96450000D03*
D11*
X101600000Y-101000000D03*
D12*
X101600000Y-113700000D03*
D11*
X112600000Y-116600000D03*
D12*
X112600000Y-103900000D03*
D11*
X96250000Y-83750000D03*
D12*
X96250000Y-96450000D03*
D11*
X107000000Y-103900000D03*
D12*
X107000000Y-116600000D03*
D11*
X119700000Y-124200000D03*
D12*
X119700000Y-111500000D03*
D15*
X91200000Y-111800000D03*
D12*
X91200000Y-101640000D03*
D20*
X92800000Y-149600000D03*
D21*
X92800000Y-147060000D03*
D20*
X99800000Y-149600000D03*
D21*
X99800000Y-147060000D03*
D20*
X111400000Y-149600000D03*
D21*
X111400000Y-147060000D03*
D22*
X90210000Y-153750000D03*
X92750000Y-153750000D03*
X87670000Y-153750000D03*
X101840000Y-153800000D03*
X104380000Y-153800000D03*
X99300000Y-153800000D03*
X113440000Y-153800000D03*
X115980000Y-153800000D03*
X110900000Y-153800000D03*
D11*
X189200000Y-152700000D03*
D12*
X189200000Y-140000000D03*
D11*
X189200000Y-136900000D03*
D12*
X189200000Y-124200000D03*
D11*
X193900000Y-136900000D03*
D12*
X193900000Y-124200000D03*
D11*
X198600000Y-152700000D03*
D12*
X198600000Y-140000000D03*
D11*
X198600000Y-136900000D03*
D12*
X198600000Y-124200000D03*
D13*
X170800000Y-132600000D03*
X175800000Y-132600000D03*
X170800000Y-136900000D03*
X175800000Y-136900000D03*
D15*
X108400000Y-143300000D03*
D12*
X108400000Y-133140000D03*
D15*
X183110000Y-138640000D03*
D12*
X183110000Y-128480000D03*
D15*
X115500000Y-127900000D03*
D12*
X115500000Y-138060000D03*
D18*
X160440000Y-134040000D03*
D19*
X168060000Y-141660000D03*
X160440000Y-136580000D03*
X168060000Y-139120000D03*
X160440000Y-139120000D03*
X168060000Y-136580000D03*
X160440000Y-141660000D03*
X168060000Y-134040000D03*
D23*
X167300000Y-125320000D03*
D24*
X167300000Y-127860000D03*
X167300000Y-130400000D03*
D23*
X161200000Y-130300000D03*
D24*
X161200000Y-127760000D03*
X161200000Y-125220000D03*
D23*
X101760000Y-124900000D03*
D24*
X104300000Y-124900000D03*
D23*
X110700000Y-128200000D03*
D24*
X108160000Y-128200000D03*
D11*
X96850000Y-124850000D03*
D12*
X96850000Y-137550000D03*
D11*
X102850000Y-128300000D03*
D12*
X102850000Y-141000000D03*
D25*
X155440000Y-145800000D03*
X152900000Y-145800000D03*
X150360000Y-145800000D03*
X147820000Y-145800000D03*
X145280000Y-145800000D03*
X142740000Y-145800000D03*
X140200000Y-145800000D03*
X137660000Y-145800000D03*
X132580000Y-97540000D03*
X135120000Y-97540000D03*
X137660000Y-97540000D03*
X140200000Y-97540000D03*
X150360000Y-97540000D03*
X155440000Y-97540000D03*
X157980000Y-97540000D03*
X147820000Y-97540000D03*
X145280000Y-97540000D03*
X142740000Y-97540000D03*
X160520000Y-97540000D03*
X163060000Y-97540000D03*
X165600000Y-97540000D03*
X173220000Y-97540000D03*
X170680000Y-97540000D03*
X168140000Y-97540000D03*
X178300000Y-97540000D03*
X180840000Y-97540000D03*
X183380000Y-97540000D03*
X188460000Y-97540000D03*
X191000000Y-97540000D03*
X160520000Y-145800000D03*
X163060000Y-145800000D03*
X165600000Y-145800000D03*
X168140000Y-145800000D03*
X170680000Y-145800000D03*
X173220000Y-145800000D03*
X175760000Y-145800000D03*
X178300000Y-145800000D03*
X182364000Y-145800000D03*
X184904000Y-145800000D03*
X187444000Y-145800000D03*
X189984000Y-145800000D03*
X192524000Y-145800000D03*
X195064000Y-145800000D03*
X197604000Y-145800000D03*
X200144000Y-145800000D03*
X185920000Y-97540000D03*
D16*
X130040000Y-143260000D03*
X127500000Y-143260000D03*
X130040000Y-140720000D03*
X127500000Y-140720000D03*
X130040000Y-138180000D03*
X127500000Y-138180000D03*
X130040000Y-135640000D03*
X127500000Y-135640000D03*
X130040000Y-145800000D03*
X127500000Y-145800000D03*
X130040000Y-128020000D03*
X127500000Y-128020000D03*
X130040000Y-125480000D03*
X127500000Y-125480000D03*
X130040000Y-122940000D03*
X127500000Y-122940000D03*
X130040000Y-120400000D03*
X127500000Y-120400000D03*
X130040000Y-112780000D03*
X127500000Y-112780000D03*
X130040000Y-110240000D03*
X127500000Y-110240000D03*
X130040000Y-107700000D03*
X127500000Y-107700000D03*
X130040000Y-105160000D03*
X127500000Y-105160000D03*
X130040000Y-102620000D03*
X127500000Y-102620000D03*
X73700000Y-81500000D03*
X80000000Y-81500000D03*
X80000000Y-90700000D03*
X80000000Y-86700000D03*
X80000000Y-94700000D03*
X80000000Y-98700000D03*
X80000000Y-102700000D03*
X80000000Y-106700000D03*
X80000000Y-110700000D03*
X80000000Y-114700000D03*
X80000000Y-118700000D03*
X80000000Y-122700000D03*
X80000000Y-126700000D03*
X80000000Y-135700000D03*
X73700000Y-133040000D03*
X73700000Y-138240000D03*
X73700000Y-135700000D03*
X73700000Y-131040000D03*
X73700000Y-129040000D03*
X73700000Y-127040000D03*
X73700000Y-125040000D03*
X73700000Y-123040000D03*
X73700000Y-121040000D03*
X73700000Y-119040000D03*
X73700000Y-117040000D03*
X73700000Y-115040000D03*
X73700000Y-113040000D03*
X73700000Y-111040000D03*
X73700000Y-109040000D03*
X73700000Y-107040000D03*
X73700000Y-105040000D03*
X73700000Y-103040000D03*
X73700000Y-101040000D03*
X73700000Y-99040000D03*
X73700000Y-97040000D03*
X73700000Y-95040000D03*
X73700000Y-93040000D03*
X73700000Y-89040000D03*
X80000000Y-126700000D03*
X80000000Y-130700000D03*
X73700000Y-91040000D03*
X73700000Y-87040000D03*
X73700000Y-84040000D03*
D26*
X76850000Y-92000000D03*
X76850000Y-80000000D03*
X76850000Y-104000000D03*
X76850000Y-116000000D03*
X76850000Y-128000000D03*
X76850000Y-140000000D03*
D16*
X87000000Y-122880000D03*
X87000000Y-120340000D03*
X87000000Y-117800000D03*
X87000000Y-115260000D03*
X87000000Y-112720000D03*
X87000000Y-110180000D03*
X145420000Y-112720000D03*
X145420000Y-122880000D03*
X145420000Y-120340000D03*
X145420000Y-117800000D03*
X145420000Y-110180000D03*
X145420000Y-115260000D03*
D23*
X147800000Y-101000000D03*
D24*
X145260000Y-101000000D03*
X142720000Y-101000000D03*
X140180000Y-101000000D03*
X137640000Y-101000000D03*
D23*
X174680000Y-152600000D03*
D24*
X177220000Y-152600000D03*
X179760000Y-152600000D03*
X182300000Y-152600000D03*
D22*
X161800000Y-152700000D03*
X164340000Y-152700000D03*
X159260000Y-152700000D03*
D11*
X149700000Y-139900000D03*
D12*
X149700000Y-152600000D03*
D11*
X154100000Y-152600000D03*
D12*
X154100000Y-139900000D03*
D11*
X184170000Y-123960000D03*
D12*
X171470000Y-123960000D03*
D27*
X207760000Y-142160000D03*
D28*
X215380000Y-149780000D03*
X207760000Y-144700000D03*
X215380000Y-147240000D03*
X207760000Y-147240000D03*
X215380000Y-144700000D03*
X207760000Y-149780000D03*
X215380000Y-142160000D03*
D23*
X144600000Y-152700000D03*
D24*
X142060000Y-152700000D03*
X139520000Y-152700000D03*
X136980000Y-152700000D03*
D13*
X218890000Y-146360000D03*
X218890000Y-151360000D03*
D23*
X150600000Y-117790000D03*
D24*
X150600000Y-120330000D03*
X150600000Y-122870000D03*
D20*
X219600000Y-117590000D03*
D21*
X217060000Y-117590000D03*
D20*
X219600000Y-122590000D03*
D21*
X217060000Y-122590000D03*
D11*
X200970000Y-120590000D03*
D12*
X213670000Y-120590000D03*
D11*
X137410000Y-139230000D03*
D12*
X137410000Y-126530000D03*
D11*
X141730000Y-140520000D03*
D12*
X141730000Y-127820000D03*
D11*
X220900000Y-137260000D03*
D12*
X208200000Y-137260000D03*
D11*
X207040000Y-128000000D03*
D12*
X219740000Y-128000000D03*
D11*
X207040000Y-132300000D03*
D12*
X219740000Y-132300000D03*
D11*
X203100000Y-142800000D03*
D12*
X203100000Y-155500000D03*
D11*
X203100000Y-124200000D03*
D12*
X203100000Y-136900000D03*
D16*
X207000000Y-113200000D03*
X209540000Y-113200000D03*
X212080000Y-113200000D03*
X214620000Y-113200000D03*
X217160000Y-113200000D03*
X219700000Y-113200000D03*
X207000000Y-153840000D03*
X209540000Y-153840000D03*
X212080000Y-153840000D03*
X214620000Y-153840000D03*
X217160000Y-153840000D03*
X219700000Y-153840000D03*
D23*
X76000000Y-110860000D03*
D24*
X76000000Y-113400000D03*
D23*
X76990000Y-118900000D03*
D24*
X76990000Y-121440000D03*
D23*
X207570000Y-97510000D03*
D24*
X210110000Y-97510000D03*
M02*
