M48
INCH,TZ
T1C0.030
T2C0.031
T3C0.032
T4C0.035
T5C0.039
T6C0.039
T7C0.045
T8C0.047
T9C0.126
%
G90
G05
T1
X29016Y-34268
X29016Y-35055
X29016Y-35843
X29016Y-36630
X29016Y-37417
X29016Y-38205
X29016Y-38992
X29016Y-39780
X29016Y-40567
X29016Y-41354
X29016Y-42142
X29016Y-42929
X29016Y-43717
X29016Y-44504
X29016Y-45291
X29016Y-46079
X29016Y-46866
X29016Y-47654
X29016Y-48441
X29016Y-49228
X29016Y-50016
X29016Y-50803
X29016Y-51591
X29016Y-52378
X31496Y-34134
X31496Y-35709
X31496Y-37283
X31496Y-38858
X31496Y-40433
X31496Y-42008
X31496Y-43583
X31496Y-45157
X31496Y-46732
X31496Y-48307
X31496Y-49882
X31496Y-49882
X31496Y-51457
X34252Y-43378
X34252Y-44378
X34252Y-45378
X34252Y-46378
X34252Y-47378
X34252Y-48378
X55201Y-28393
X55201Y-29393
X55201Y-30393
X55201Y-31393
X55201Y-32393
X55201Y-33393
X55201Y-34393
X55201Y-35393
X56201Y-27393
X56201Y-28393
X56201Y-29393
X56201Y-30393
X56201Y-31393
X56201Y-32393
X56201Y-33393
X56201Y-34393
X56201Y-35393
X57201Y-27393
X57201Y-28393
X57201Y-29393
X57201Y-30393
X57201Y-31393
X57201Y-32393
X57201Y-33393
X57201Y-34393
X57201Y-35393
X57252Y-43378
X57252Y-44378
X57252Y-45378
X57252Y-46378
X57252Y-47378
X57252Y-48378
X58201Y-27393
X58201Y-28393
X58201Y-29393
X58201Y-30393
X58201Y-31393
X58201Y-32393
X58201Y-33393
X58201Y-34393
X58201Y-35393
X59201Y-27393
X59201Y-28393
X59201Y-29393
X59201Y-30393
X59201Y-31393
X59201Y-32393
X59201Y-33393
X59201Y-34393
X59201Y-35393
X60201Y-27393
X60201Y-28393
X60201Y-29393
X60201Y-30393
X60201Y-31393
X60201Y-32393
X60201Y-33393
X60201Y-34393
X60201Y-35393
X61201Y-27393
X61201Y-28393
X61201Y-29393
X61201Y-30393
X61201Y-31393
X61201Y-32393
X61201Y-33393
X61201Y-34393
X80315Y-28821
X80315Y-29821
X80315Y-30821
X80315Y-31821
X80315Y-32821
X80315Y-33821
X81496Y-44567
X81496Y-60567
X82496Y-44567
X82496Y-60567
X83496Y-44567
X83496Y-60567
X84496Y-44567
X84496Y-60567
X85496Y-44567
X85496Y-60567
X86496Y-44567
X86496Y-60567
T2
X41811Y-38071
X43780Y-38071
X48898Y-31890
X48898Y-33858
X63165Y-52772
X63165Y-53772
X63165Y-54772
X63165Y-55772
X63346Y-27748
X63346Y-30748
X64961Y-30315
X65224Y-40157
X65224Y-43157
X65945Y-30315
X66165Y-52772
X66165Y-53772
X66165Y-54772
X66165Y-55772
X66224Y-40157
X66224Y-43157
X66929Y-27953
X67224Y-40157
X67224Y-43157
X67244Y-52205
X67244Y-53898
X67819Y-33587
X68224Y-40157
X68224Y-43157
X68898Y-27953
X69213Y-52205
X69213Y-53898
X69787Y-33587
X70866Y-29528
X70866Y-31496
X71260Y-39665
X71260Y-41634
X72087Y-25000
X72087Y-26969
X72343Y-28248
X73622Y-31299
X73622Y-35827
X73622Y-39665
X73622Y-41634
X73898Y-25472
X74311Y-28248
X75591Y-31299
X75591Y-35827
X75866Y-25472
X77953Y-29331
X77953Y-31299
X80433Y-36339
X81795Y-55969
X81795Y-56969
X81795Y-57969
X81795Y-58969
X82402Y-36339
X82480Y-40650
X84449Y-40650
X84795Y-55969
X84795Y-56969
X84795Y-57969
X84795Y-58969
X85925Y-38681
X85925Y-40650
X86177Y-57622
X86177Y-59591
T3
X50197Y-40402
X50197Y-41402
X50197Y-42402
X50197Y-43402
X50197Y-44402
X50197Y-47402
X50197Y-48402
X50197Y-49402
X50197Y-50402
X50197Y-53402
X50197Y-54402
X50197Y-55402
X50197Y-56402
X50197Y-57402
X51197Y-40402
X51197Y-41402
X51197Y-42402
X51197Y-43402
X51197Y-44402
X51197Y-47402
X51197Y-48402
X51197Y-49402
X51197Y-50402
X51197Y-53402
X51197Y-54402
X51197Y-55402
X51197Y-56402
X51197Y-57402
X52197Y-38402
X53197Y-38402
X54197Y-38402
X54197Y-57402
X55197Y-38402
X55197Y-57402
X56197Y-38402
X56197Y-57402
X57197Y-38402
X57197Y-57402
X58197Y-38402
X58197Y-57402
X59197Y-38402
X59197Y-57402
X60197Y-57402
X61197Y-38402
X61197Y-57402
X62197Y-38402
X63197Y-38402
X63197Y-57402
X64197Y-38402
X64197Y-57402
X65197Y-38402
X65197Y-57402
X66197Y-38402
X66197Y-57402
X67197Y-38402
X67197Y-57402
X68197Y-38402
X68197Y-57402
X69197Y-57402
X70197Y-38402
X70197Y-57402
X71197Y-38402
X71797Y-57402
X72197Y-38402
X72797Y-57402
X73197Y-38402
X73797Y-57402
X74197Y-38402
X74797Y-57402
X75197Y-38402
X75797Y-57402
X76797Y-57402
X77797Y-57402
X78797Y-57402
T4
X36417Y-27937
X36417Y-28937
X36535Y-57898
X36535Y-58898
X39291Y-57898
X39291Y-58898
X42126Y-27937
X42126Y-28937
X43858Y-57898
X43858Y-58898
X47736Y-27937
X47736Y-28937
X85457Y-46295
X85457Y-48264
X86457Y-46295
X86457Y-48264
T5
X29921Y-43646
X29921Y-44646
X30311Y-46811
X30311Y-47811
X40063Y-49173
X41063Y-49173
X42583Y-50472
X43583Y-50472
X53929Y-60118
X54189Y-39764
X54929Y-60118
X55189Y-39764
X55929Y-60118
X56189Y-39764
X56929Y-60118
X57189Y-39764
X58189Y-39764
X59291Y-46374
X59291Y-47374
X59291Y-48374
X63465Y-49299
X63465Y-50299
X63465Y-51299
X65866Y-49339
X65866Y-50339
X65866Y-51339
X68772Y-60079
X69772Y-60079
X70772Y-60079
X71772Y-60079
X81720Y-38390
X82720Y-38390
T6
X34516Y-60531
X34614Y-26083
X35516Y-60531
X35614Y-26083
X36516Y-60531
X36614Y-26083
X39094Y-60551
X40094Y-60551
X40339Y-26083
X41094Y-60551
X41339Y-26083
X42339Y-26083
X43661Y-60551
X44661Y-60551
X45661Y-60551
X45949Y-26083
X46949Y-26083
X47949Y-26083
X63748Y-60551
X64748Y-60551
X65748Y-60551
T7
X62976Y-26083
X63976Y-26083
X64976Y-26083
X67882Y-26083
X68882Y-26083
X69882Y-26083
T8
X29016Y-32087
X29016Y-33087
X29016Y-53425
X29016Y-54425
X31496Y-32087
X31496Y-53425
X33661Y-32972
X33661Y-37972
X35787Y-47874
X35787Y-52874
X35827Y-32972
X35827Y-37972
X35906Y-40016
X35906Y-44016
X37441Y-47559
X37894Y-32972
X37894Y-37972
X37913Y-39724
X37913Y-44724
X38130Y-49154
X38130Y-54154
X39272Y-27496
X39272Y-31496
X40000Y-39764
X40000Y-44764
X40492Y-50512
X40492Y-55512
X41496Y-32181
X41496Y-36181
X42126Y-40906
X42126Y-45906
X42441Y-47559
X42677Y-52417
X42677Y-56417
X43189Y-31157
X43189Y-35157
X44331Y-40906
X44331Y-45906
X44882Y-27461
X44882Y-31461
X45197Y-33976
X45197Y-38976
X45472Y-50354
X45472Y-54354
X47126Y-43898
X47126Y-48898
X47165Y-37402
X47165Y-42402
X49803Y-25689
X50906Y-28701
X50906Y-33701
X52795Y-28701
X52795Y-33701
X53803Y-25689
X54098Y-49815
X54098Y-54815
X55799Y-50323
X55799Y-55323
X56791Y-25689
X58937Y-55079
X58937Y-60079
X60669Y-55079
X60669Y-60079
X60791Y-25689
X63386Y-32220
X63386Y-36220
X67047Y-35835
X67508Y-48803
X71260Y-43110
X71772Y-33740
X72047Y-35835
X72091Y-50583
X72091Y-54583
X72508Y-48803
X74488Y-48898
X74488Y-53898
X74488Y-55118
X74488Y-60118
X75394Y-27441
X76102Y-40650
X76260Y-43110
X76339Y-48898
X76339Y-53898
X76339Y-55118
X76339Y-60118
X76772Y-33740
X78189Y-48898
X78189Y-53898
X78189Y-55118
X78189Y-60118
X78346Y-33740
X78346Y-38740
X78346Y-43110
X79122Y-47476
X79961Y-48898
X79961Y-53898
X79961Y-56220
X79961Y-61220
X80394Y-27441
X81102Y-40650
X81512Y-50394
X81512Y-52087
X81969Y-54039
X83346Y-43110
X84122Y-47476
X86512Y-50394
X86512Y-52087
X86969Y-54039
T9
X30827Y-28346
X30827Y-58268
T0
M30
