G04 #@! TF.FileFunction,Legend,Top*
%FSLAX46Y46*%
G04 Gerber Fmt 4.6, Leading zero omitted, Abs format (unit mm)*
G04 Created by KiCad (PCBNEW 4.0.6+dfsg1-1) date Fri Mar  9 00:23:43 2018*
%MOMM*%
%LPD*%
G01*
G04 APERTURE LIST*
%ADD10C,0.100000*%
%ADD11C,0.200000*%
%ADD12C,0.150000*%
%ADD13C,0.300000*%
%ADD14C,0.120000*%
%ADD15C,0.381000*%
%ADD16C,0.304800*%
G04 APERTURE END LIST*
D10*
D11*
X147800952Y-68665714D02*
X147800952Y-67237143D01*
X149800953Y-68332381D02*
X149229524Y-68332381D01*
X149515238Y-68332381D02*
X149515238Y-67332381D01*
X149420000Y-67475238D01*
X149324762Y-67570476D01*
X149229524Y-67618095D01*
X150181905Y-67427619D02*
X150229524Y-67380000D01*
X150324762Y-67332381D01*
X150562858Y-67332381D01*
X150658096Y-67380000D01*
X150705715Y-67427619D01*
X150753334Y-67522857D01*
X150753334Y-67618095D01*
X150705715Y-67760952D01*
X150134286Y-68332381D01*
X150753334Y-68332381D01*
X151039048Y-67332381D02*
X151372381Y-68332381D01*
X151705715Y-67332381D01*
X153039048Y-68665714D02*
X153039048Y-67237143D01*
X156610952Y-88135714D02*
X156610952Y-86707143D01*
X157658572Y-87278571D02*
X157801429Y-87326190D01*
X157849048Y-87373810D01*
X157896667Y-87469048D01*
X157896667Y-87611905D01*
X157849048Y-87707143D01*
X157801429Y-87754762D01*
X157706191Y-87802381D01*
X157325238Y-87802381D01*
X157325238Y-86802381D01*
X157658572Y-86802381D01*
X157753810Y-86850000D01*
X157801429Y-86897619D01*
X157849048Y-86992857D01*
X157849048Y-87088095D01*
X157801429Y-87183333D01*
X157753810Y-87230952D01*
X157658572Y-87278571D01*
X157325238Y-87278571D01*
X158325238Y-87421429D02*
X159087143Y-87421429D01*
X158706191Y-87802381D02*
X158706191Y-87040476D01*
X155159524Y-67352381D02*
X154683333Y-67352381D01*
X154635714Y-67828571D01*
X154683333Y-67780952D01*
X154778571Y-67733333D01*
X155016667Y-67733333D01*
X155111905Y-67780952D01*
X155159524Y-67828571D01*
X155207143Y-67923810D01*
X155207143Y-68161905D01*
X155159524Y-68257143D01*
X155111905Y-68304762D01*
X155016667Y-68352381D01*
X154778571Y-68352381D01*
X154683333Y-68304762D01*
X154635714Y-68257143D01*
X155492857Y-67352381D02*
X155826190Y-68352381D01*
X156159524Y-67352381D01*
X137401905Y-69530000D02*
X137306667Y-69482381D01*
X137163810Y-69482381D01*
X137020952Y-69530000D01*
X136925714Y-69625238D01*
X136878095Y-69720476D01*
X136830476Y-69910952D01*
X136830476Y-70053810D01*
X136878095Y-70244286D01*
X136925714Y-70339524D01*
X137020952Y-70434762D01*
X137163810Y-70482381D01*
X137259048Y-70482381D01*
X137401905Y-70434762D01*
X137449524Y-70387143D01*
X137449524Y-70053810D01*
X137259048Y-70053810D01*
X137878095Y-70482381D02*
X137878095Y-69482381D01*
X138449524Y-70482381D01*
X138449524Y-69482381D01*
X138925714Y-70482381D02*
X138925714Y-69482381D01*
X139163809Y-69482381D01*
X139306667Y-69530000D01*
X139401905Y-69625238D01*
X139449524Y-69720476D01*
X139497143Y-69910952D01*
X139497143Y-70053810D01*
X139449524Y-70244286D01*
X139401905Y-70339524D01*
X139306667Y-70434762D01*
X139163809Y-70482381D01*
X138925714Y-70482381D01*
X140163809Y-70815714D02*
X140163809Y-69387143D01*
X154169047Y-90665714D02*
X154169047Y-89237143D01*
X154835714Y-90046667D02*
X155311905Y-90046667D01*
X154740476Y-90332381D02*
X155073809Y-89332381D01*
X155407143Y-90332381D01*
X156264286Y-90332381D02*
X155692857Y-90332381D01*
X155978571Y-90332381D02*
X155978571Y-89332381D01*
X155883333Y-89475238D01*
X155788095Y-89570476D01*
X155692857Y-89618095D01*
X156883333Y-89332381D02*
X156978572Y-89332381D01*
X157073810Y-89380000D01*
X157121429Y-89427619D01*
X157169048Y-89522857D01*
X157216667Y-89713333D01*
X157216667Y-89951429D01*
X157169048Y-90141905D01*
X157121429Y-90237143D01*
X157073810Y-90284762D01*
X156978572Y-90332381D01*
X156883333Y-90332381D01*
X156788095Y-90284762D01*
X156740476Y-90237143D01*
X156692857Y-90141905D01*
X156645238Y-89951429D01*
X156645238Y-89713333D01*
X156692857Y-89522857D01*
X156740476Y-89427619D01*
X156788095Y-89380000D01*
X156883333Y-89332381D01*
X135833333Y-90096667D02*
X136309524Y-90096667D01*
X135738095Y-90382381D02*
X136071428Y-89382381D01*
X136404762Y-90382381D01*
X137261905Y-90382381D02*
X136690476Y-90382381D01*
X136976190Y-90382381D02*
X136976190Y-89382381D01*
X136880952Y-89525238D01*
X136785714Y-89620476D01*
X136690476Y-89668095D01*
X138166667Y-89382381D02*
X137690476Y-89382381D01*
X137642857Y-89858571D01*
X137690476Y-89810952D01*
X137785714Y-89763333D01*
X138023810Y-89763333D01*
X138119048Y-89810952D01*
X138166667Y-89858571D01*
X138214286Y-89953810D01*
X138214286Y-90191905D01*
X138166667Y-90287143D01*
X138119048Y-90334762D01*
X138023810Y-90382381D01*
X137785714Y-90382381D01*
X137690476Y-90334762D01*
X137642857Y-90287143D01*
X138880952Y-90715714D02*
X138880952Y-89287143D01*
X184395238Y-153485714D02*
X184395238Y-152057143D01*
X185585715Y-152152381D02*
X185109524Y-152152381D01*
X185061905Y-152628571D01*
X185109524Y-152580952D01*
X185204762Y-152533333D01*
X185442858Y-152533333D01*
X185538096Y-152580952D01*
X185585715Y-152628571D01*
X185633334Y-152723810D01*
X185633334Y-152961905D01*
X185585715Y-153057143D01*
X185538096Y-153104762D01*
X185442858Y-153152381D01*
X185204762Y-153152381D01*
X185109524Y-153104762D01*
X185061905Y-153057143D01*
X185919048Y-152152381D02*
X186252381Y-153152381D01*
X186585715Y-152152381D01*
X144533334Y-155452381D02*
X144200000Y-154976190D01*
X143961905Y-155452381D02*
X143961905Y-154452381D01*
X144342858Y-154452381D01*
X144438096Y-154500000D01*
X144485715Y-154547619D01*
X144533334Y-154642857D01*
X144533334Y-154785714D01*
X144485715Y-154880952D01*
X144438096Y-154928571D01*
X144342858Y-154976190D01*
X143961905Y-154976190D01*
X144866667Y-154452381D02*
X145533334Y-155452381D01*
X145533334Y-154452381D02*
X144866667Y-155452381D01*
X141338095Y-154452381D02*
X141909524Y-154452381D01*
X141623809Y-155452381D02*
X141623809Y-154452381D01*
X142147619Y-154452381D02*
X142814286Y-155452381D01*
X142814286Y-154452381D02*
X142147619Y-155452381D01*
X133233334Y-152052381D02*
X132757143Y-152052381D01*
X132709524Y-152528571D01*
X132757143Y-152480952D01*
X132852381Y-152433333D01*
X133090477Y-152433333D01*
X133185715Y-152480952D01*
X133233334Y-152528571D01*
X133280953Y-152623810D01*
X133280953Y-152861905D01*
X133233334Y-152957143D01*
X133185715Y-153004762D01*
X133090477Y-153052381D01*
X132852381Y-153052381D01*
X132757143Y-153004762D01*
X132709524Y-152957143D01*
X133566667Y-152052381D02*
X133900000Y-153052381D01*
X134233334Y-152052381D01*
X134804762Y-153385714D02*
X134804762Y-151957143D01*
D12*
X194352381Y-130942857D02*
X193876190Y-131276191D01*
X194352381Y-131514286D02*
X193352381Y-131514286D01*
X193352381Y-131133333D01*
X193400000Y-131038095D01*
X193447619Y-130990476D01*
X193542857Y-130942857D01*
X193685714Y-130942857D01*
X193780952Y-130990476D01*
X193828571Y-131038095D01*
X193876190Y-131133333D01*
X193876190Y-131514286D01*
X193352381Y-130085714D02*
X193352381Y-130276191D01*
X193400000Y-130371429D01*
X193447619Y-130419048D01*
X193590476Y-130514286D01*
X193780952Y-130561905D01*
X194161905Y-130561905D01*
X194257143Y-130514286D01*
X194304762Y-130466667D01*
X194352381Y-130371429D01*
X194352381Y-130180952D01*
X194304762Y-130085714D01*
X194257143Y-130038095D01*
X194161905Y-129990476D01*
X193923810Y-129990476D01*
X193828571Y-130038095D01*
X193780952Y-130085714D01*
X193733333Y-130180952D01*
X193733333Y-130371429D01*
X193780952Y-130466667D01*
X193828571Y-130514286D01*
X193923810Y-130561905D01*
X193447619Y-129609524D02*
X193400000Y-129561905D01*
X193352381Y-129466667D01*
X193352381Y-129228571D01*
X193400000Y-129133333D01*
X193447619Y-129085714D01*
X193542857Y-129038095D01*
X193638095Y-129038095D01*
X193780952Y-129085714D01*
X194352381Y-129657143D01*
X194352381Y-129038095D01*
D13*
X203180001Y-96568571D02*
X202465715Y-96568571D01*
X202394286Y-97282857D01*
X202465715Y-97211429D01*
X202608572Y-97140000D01*
X202965715Y-97140000D01*
X203108572Y-97211429D01*
X203180001Y-97282857D01*
X203251429Y-97425714D01*
X203251429Y-97782857D01*
X203180001Y-97925714D01*
X203108572Y-97997143D01*
X202965715Y-98068571D01*
X202608572Y-98068571D01*
X202465715Y-97997143D01*
X202394286Y-97925714D01*
X203680000Y-96568571D02*
X204180000Y-98068571D01*
X204680000Y-96568571D01*
X205537143Y-98568571D02*
X205537143Y-96425714D01*
X90828572Y-144078571D02*
X90828572Y-142578571D01*
X91542858Y-144078571D02*
X91542858Y-142578571D01*
X92400001Y-144078571D01*
X92400001Y-142578571D01*
X93542858Y-142578571D02*
X93542858Y-143650000D01*
X93471430Y-143864286D01*
X93328573Y-144007143D01*
X93114287Y-144078571D01*
X92971430Y-144078571D01*
X94900001Y-143078571D02*
X94900001Y-144078571D01*
X94542858Y-142507143D02*
X94185715Y-143578571D01*
X95114287Y-143578571D01*
X90428572Y-77678571D02*
X90428572Y-76178571D01*
X91142858Y-77678571D02*
X91142858Y-76178571D01*
X92000001Y-77678571D01*
X92000001Y-76178571D01*
X93142858Y-76178571D02*
X93142858Y-77250000D01*
X93071430Y-77464286D01*
X92928573Y-77607143D01*
X92714287Y-77678571D01*
X92571430Y-77678571D01*
X94642858Y-77678571D02*
X93785715Y-77678571D01*
X94214287Y-77678571D02*
X94214287Y-76178571D01*
X94071430Y-76392857D01*
X93928572Y-76535714D01*
X93785715Y-76607143D01*
X209550000Y-124178571D02*
X209550000Y-122678571D01*
X211050000Y-122750000D02*
X210907143Y-122678571D01*
X210692857Y-122678571D01*
X210478572Y-122750000D01*
X210335714Y-122892857D01*
X210264286Y-123035714D01*
X210192857Y-123321429D01*
X210192857Y-123535714D01*
X210264286Y-123821429D01*
X210335714Y-123964286D01*
X210478572Y-124107143D01*
X210692857Y-124178571D01*
X210835714Y-124178571D01*
X211050000Y-124107143D01*
X211121429Y-124035714D01*
X211121429Y-123535714D01*
X210835714Y-123535714D01*
X211764286Y-124178571D02*
X211764286Y-122678571D01*
X212621429Y-124178571D01*
X212621429Y-122678571D01*
X213264286Y-122821429D02*
X213335715Y-122750000D01*
X213478572Y-122678571D01*
X213835715Y-122678571D01*
X213978572Y-122750000D01*
X214050001Y-122821429D01*
X214121429Y-122964286D01*
X214121429Y-123107143D01*
X214050001Y-123321429D01*
X213192858Y-124178571D01*
X214121429Y-124178571D01*
X209550000Y-117978571D02*
X209550000Y-116478571D01*
X211050000Y-116550000D02*
X210907143Y-116478571D01*
X210692857Y-116478571D01*
X210478572Y-116550000D01*
X210335714Y-116692857D01*
X210264286Y-116835714D01*
X210192857Y-117121429D01*
X210192857Y-117335714D01*
X210264286Y-117621429D01*
X210335714Y-117764286D01*
X210478572Y-117907143D01*
X210692857Y-117978571D01*
X210835714Y-117978571D01*
X211050000Y-117907143D01*
X211121429Y-117835714D01*
X211121429Y-117335714D01*
X210835714Y-117335714D01*
X211764286Y-117978571D02*
X211764286Y-116478571D01*
X212621429Y-117978571D01*
X212621429Y-116478571D01*
X214121429Y-117978571D02*
X213264286Y-117978571D01*
X213692858Y-117978571D02*
X213692858Y-116478571D01*
X213550001Y-116692857D01*
X213407143Y-116835714D01*
X213264286Y-116907143D01*
X178411905Y-114930952D02*
X179245239Y-117430952D01*
X180078572Y-114930952D01*
X180911905Y-117430952D02*
X180911905Y-114930952D01*
X183530953Y-117192857D02*
X183411905Y-117311905D01*
X183054762Y-117430952D01*
X182816667Y-117430952D01*
X182459524Y-117311905D01*
X182221429Y-117073810D01*
X182102381Y-116835714D01*
X181983333Y-116359524D01*
X181983333Y-116002381D01*
X182102381Y-115526190D01*
X182221429Y-115288095D01*
X182459524Y-115050000D01*
X182816667Y-114930952D01*
X183054762Y-114930952D01*
X183411905Y-115050000D01*
X183530953Y-115169048D01*
X184602381Y-117430952D02*
X184602381Y-114930952D01*
X184602381Y-116121429D02*
X186030953Y-116121429D01*
X186030953Y-117430952D02*
X186030953Y-114930952D01*
X188769048Y-114930952D02*
X189602382Y-117430952D01*
X190435715Y-114930952D01*
X192578572Y-117430952D02*
X191150000Y-117430952D01*
X191864286Y-117430952D02*
X191864286Y-114930952D01*
X191626191Y-115288095D01*
X191388096Y-115526190D01*
X191150000Y-115645238D01*
X193650000Y-117192857D02*
X193769048Y-117311905D01*
X193650000Y-117430952D01*
X193530952Y-117311905D01*
X193650000Y-117192857D01*
X193650000Y-117430952D01*
X195316667Y-114930952D02*
X195554762Y-114930952D01*
X195792857Y-115050000D01*
X195911905Y-115169048D01*
X196030952Y-115407143D01*
X196150000Y-115883333D01*
X196150000Y-116478571D01*
X196030952Y-116954762D01*
X195911905Y-117192857D01*
X195792857Y-117311905D01*
X195554762Y-117430952D01*
X195316667Y-117430952D01*
X195078571Y-117311905D01*
X194959524Y-117192857D01*
X194840476Y-116954762D01*
X194721428Y-116478571D01*
X194721428Y-115883333D01*
X194840476Y-115407143D01*
X194959524Y-115169048D01*
X195078571Y-115050000D01*
X195316667Y-114930952D01*
X152828573Y-122978571D02*
X152828573Y-120835714D01*
X154685715Y-122478571D02*
X153828572Y-122478571D01*
X154257144Y-122478571D02*
X154257144Y-120978571D01*
X154114287Y-121192857D01*
X153971429Y-121335714D01*
X153828572Y-121407143D01*
X155257143Y-121121429D02*
X155328572Y-121050000D01*
X155471429Y-120978571D01*
X155828572Y-120978571D01*
X155971429Y-121050000D01*
X156042858Y-121121429D01*
X156114286Y-121264286D01*
X156114286Y-121407143D01*
X156042858Y-121621429D01*
X155185715Y-122478571D01*
X156114286Y-122478571D01*
X156542857Y-120978571D02*
X157042857Y-122478571D01*
X157542857Y-120978571D01*
X152842858Y-119678571D02*
X152842858Y-117535714D01*
X154628572Y-117678571D02*
X153914286Y-117678571D01*
X153842857Y-118392857D01*
X153914286Y-118321429D01*
X154057143Y-118250000D01*
X154414286Y-118250000D01*
X154557143Y-118321429D01*
X154628572Y-118392857D01*
X154700000Y-118535714D01*
X154700000Y-118892857D01*
X154628572Y-119035714D01*
X154557143Y-119107143D01*
X154414286Y-119178571D01*
X154057143Y-119178571D01*
X153914286Y-119107143D01*
X153842857Y-119035714D01*
X155128571Y-117678571D02*
X155628571Y-119178571D01*
X156128571Y-117678571D01*
X181514286Y-158735714D02*
X181442857Y-158807143D01*
X181228571Y-158878571D01*
X181085714Y-158878571D01*
X180871429Y-158807143D01*
X180728571Y-158664286D01*
X180657143Y-158521429D01*
X180585714Y-158235714D01*
X180585714Y-158021429D01*
X180657143Y-157735714D01*
X180728571Y-157592857D01*
X180871429Y-157450000D01*
X181085714Y-157378571D01*
X181228571Y-157378571D01*
X181442857Y-157450000D01*
X181514286Y-157521429D01*
X182371429Y-158878571D02*
X182228571Y-158807143D01*
X182157143Y-158735714D01*
X182085714Y-158592857D01*
X182085714Y-158164286D01*
X182157143Y-158021429D01*
X182228571Y-157950000D01*
X182371429Y-157878571D01*
X182585714Y-157878571D01*
X182728571Y-157950000D01*
X182800000Y-158021429D01*
X182871429Y-158164286D01*
X182871429Y-158592857D01*
X182800000Y-158735714D01*
X182728571Y-158807143D01*
X182585714Y-158878571D01*
X182371429Y-158878571D01*
X183514286Y-158878571D02*
X183514286Y-157878571D01*
X183514286Y-158021429D02*
X183585714Y-157950000D01*
X183728572Y-157878571D01*
X183942857Y-157878571D01*
X184085714Y-157950000D01*
X184157143Y-158092857D01*
X184157143Y-158878571D01*
X184157143Y-158092857D02*
X184228572Y-157950000D01*
X184371429Y-157878571D01*
X184585714Y-157878571D01*
X184728572Y-157950000D01*
X184800000Y-158092857D01*
X184800000Y-158878571D01*
X185514286Y-157878571D02*
X185514286Y-159378571D01*
X185514286Y-157950000D02*
X185657143Y-157878571D01*
X185942857Y-157878571D01*
X186085714Y-157950000D01*
X186157143Y-158021429D01*
X186228572Y-158164286D01*
X186228572Y-158592857D01*
X186157143Y-158735714D01*
X186085714Y-158807143D01*
X185942857Y-158878571D01*
X185657143Y-158878571D01*
X185514286Y-158807143D01*
X187514286Y-158878571D02*
X187514286Y-158092857D01*
X187442857Y-157950000D01*
X187300000Y-157878571D01*
X187014286Y-157878571D01*
X186871429Y-157950000D01*
X187514286Y-158807143D02*
X187371429Y-158878571D01*
X187014286Y-158878571D01*
X186871429Y-158807143D01*
X186800000Y-158664286D01*
X186800000Y-158521429D01*
X186871429Y-158378571D01*
X187014286Y-158307143D01*
X187371429Y-158307143D01*
X187514286Y-158235714D01*
X188014286Y-157878571D02*
X188585715Y-157878571D01*
X188228572Y-157378571D02*
X188228572Y-158664286D01*
X188300000Y-158807143D01*
X188442858Y-158878571D01*
X188585715Y-158878571D01*
X189085715Y-158878571D02*
X189085715Y-157878571D01*
X189085715Y-157378571D02*
X189014286Y-157450000D01*
X189085715Y-157521429D01*
X189157143Y-157450000D01*
X189085715Y-157378571D01*
X189085715Y-157521429D01*
X189800001Y-158878571D02*
X189800001Y-157378571D01*
X189800001Y-157950000D02*
X189942858Y-157878571D01*
X190228572Y-157878571D01*
X190371429Y-157950000D01*
X190442858Y-158021429D01*
X190514287Y-158164286D01*
X190514287Y-158592857D01*
X190442858Y-158735714D01*
X190371429Y-158807143D01*
X190228572Y-158878571D01*
X189942858Y-158878571D01*
X189800001Y-158807143D01*
X191371430Y-158878571D02*
X191228572Y-158807143D01*
X191157144Y-158664286D01*
X191157144Y-157378571D01*
X192514286Y-158807143D02*
X192371429Y-158878571D01*
X192085715Y-158878571D01*
X191942858Y-158807143D01*
X191871429Y-158664286D01*
X191871429Y-158092857D01*
X191942858Y-157950000D01*
X192085715Y-157878571D01*
X192371429Y-157878571D01*
X192514286Y-157950000D01*
X192585715Y-158092857D01*
X192585715Y-158235714D01*
X191871429Y-158378571D01*
X194228572Y-157378571D02*
X194585715Y-158878571D01*
X194871429Y-157807143D01*
X195157143Y-158878571D01*
X195514286Y-157378571D01*
X196085715Y-158878571D02*
X196085715Y-157878571D01*
X196085715Y-157378571D02*
X196014286Y-157450000D01*
X196085715Y-157521429D01*
X196157143Y-157450000D01*
X196085715Y-157378571D01*
X196085715Y-157521429D01*
X196585715Y-157878571D02*
X197157144Y-157878571D01*
X196800001Y-157378571D02*
X196800001Y-158664286D01*
X196871429Y-158807143D01*
X197014287Y-158878571D01*
X197157144Y-158878571D01*
X197657144Y-158878571D02*
X197657144Y-157378571D01*
X198300001Y-158878571D02*
X198300001Y-158092857D01*
X198228572Y-157950000D01*
X198085715Y-157878571D01*
X197871430Y-157878571D01*
X197728572Y-157950000D01*
X197657144Y-158021429D01*
X200085715Y-158807143D02*
X200300001Y-158878571D01*
X200657144Y-158878571D01*
X200800001Y-158807143D01*
X200871430Y-158735714D01*
X200942858Y-158592857D01*
X200942858Y-158450000D01*
X200871430Y-158307143D01*
X200800001Y-158235714D01*
X200657144Y-158164286D01*
X200371430Y-158092857D01*
X200228572Y-158021429D01*
X200157144Y-157950000D01*
X200085715Y-157807143D01*
X200085715Y-157664286D01*
X200157144Y-157521429D01*
X200228572Y-157450000D01*
X200371430Y-157378571D01*
X200728572Y-157378571D01*
X200942858Y-157450000D01*
X201585715Y-157878571D02*
X201585715Y-159378571D01*
X201585715Y-157950000D02*
X201728572Y-157878571D01*
X202014286Y-157878571D01*
X202157143Y-157950000D01*
X202228572Y-158021429D01*
X202300001Y-158164286D01*
X202300001Y-158592857D01*
X202228572Y-158735714D01*
X202157143Y-158807143D01*
X202014286Y-158878571D01*
X201728572Y-158878571D01*
X201585715Y-158807143D01*
X203514286Y-158807143D02*
X203371429Y-158878571D01*
X203085715Y-158878571D01*
X202942858Y-158807143D01*
X202871429Y-158664286D01*
X202871429Y-158092857D01*
X202942858Y-157950000D01*
X203085715Y-157878571D01*
X203371429Y-157878571D01*
X203514286Y-157950000D01*
X203585715Y-158092857D01*
X203585715Y-158235714D01*
X202871429Y-158378571D01*
X204800000Y-158807143D02*
X204657143Y-158878571D01*
X204371429Y-158878571D01*
X204228572Y-158807143D01*
X204157143Y-158664286D01*
X204157143Y-158092857D01*
X204228572Y-157950000D01*
X204371429Y-157878571D01*
X204657143Y-157878571D01*
X204800000Y-157950000D01*
X204871429Y-158092857D01*
X204871429Y-158235714D01*
X204157143Y-158378571D01*
X206157143Y-158878571D02*
X206157143Y-157378571D01*
X206157143Y-158807143D02*
X206014286Y-158878571D01*
X205728572Y-158878571D01*
X205585714Y-158807143D01*
X205514286Y-158735714D01*
X205442857Y-158592857D01*
X205442857Y-158164286D01*
X205514286Y-158021429D01*
X205585714Y-157950000D01*
X205728572Y-157878571D01*
X206014286Y-157878571D01*
X206157143Y-157950000D01*
X207514286Y-157878571D02*
X207514286Y-158878571D01*
X206871429Y-157878571D02*
X206871429Y-158664286D01*
X206942857Y-158807143D01*
X207085715Y-158878571D01*
X207300000Y-158878571D01*
X207442857Y-158807143D01*
X207514286Y-158735714D01*
X208228572Y-158878571D02*
X208228572Y-157878571D01*
X208228572Y-157378571D02*
X208157143Y-157450000D01*
X208228572Y-157521429D01*
X208300000Y-157450000D01*
X208228572Y-157378571D01*
X208228572Y-157521429D01*
X208942858Y-157878571D02*
X208942858Y-158878571D01*
X208942858Y-158021429D02*
X209014286Y-157950000D01*
X209157144Y-157878571D01*
X209371429Y-157878571D01*
X209514286Y-157950000D01*
X209585715Y-158092857D01*
X209585715Y-158878571D01*
X210514287Y-158878571D02*
X210371429Y-158807143D01*
X210300001Y-158735714D01*
X210228572Y-158592857D01*
X210228572Y-158164286D01*
X210300001Y-158021429D01*
X210371429Y-157950000D01*
X210514287Y-157878571D01*
X210728572Y-157878571D01*
X210871429Y-157950000D01*
X210942858Y-158021429D01*
X211014287Y-158164286D01*
X211014287Y-158592857D01*
X210942858Y-158735714D01*
X210871429Y-158807143D01*
X210728572Y-158878571D01*
X210514287Y-158878571D01*
D14*
X89520000Y-132960000D02*
X89040000Y-132960000D01*
X89040000Y-132960000D02*
X89040000Y-122940000D01*
X89040000Y-122940000D02*
X89520000Y-122940000D01*
X92280000Y-132960000D02*
X92760000Y-132960000D01*
X92760000Y-132960000D02*
X92760000Y-122940000D01*
X92760000Y-122940000D02*
X92280000Y-122940000D01*
X192520000Y-151360000D02*
X192040000Y-151360000D01*
X192040000Y-151360000D02*
X192040000Y-141340000D01*
X192040000Y-141340000D02*
X192520000Y-141340000D01*
X195280000Y-151360000D02*
X195760000Y-151360000D01*
X195760000Y-151360000D02*
X195760000Y-141340000D01*
X195760000Y-141340000D02*
X195280000Y-141340000D01*
X125860000Y-80890000D02*
X125860000Y-86110000D01*
X122540000Y-80890000D02*
X122540000Y-86110000D01*
X125860000Y-80890000D02*
X125196000Y-80890000D01*
X123204000Y-80890000D02*
X122540000Y-80890000D01*
X125860000Y-86110000D02*
X125196000Y-86110000D01*
X123204000Y-86110000D02*
X122540000Y-86110000D01*
X108320000Y-88080000D02*
X107840000Y-88080000D01*
X107840000Y-88080000D02*
X107840000Y-80360000D01*
X107840000Y-80360000D02*
X108320000Y-80360000D01*
X111080000Y-88080000D02*
X111560000Y-88080000D01*
X111560000Y-88080000D02*
X111560000Y-80360000D01*
X111560000Y-80360000D02*
X111080000Y-80360000D01*
X107840000Y-86880000D02*
X111560000Y-86880000D01*
D12*
X224000000Y-73205000D02*
X224000000Y-86205000D01*
D14*
X175110000Y-72660000D02*
X169890000Y-72660000D01*
X175110000Y-69340000D02*
X169890000Y-69340000D01*
X175110000Y-72660000D02*
X175110000Y-71996000D01*
X175110000Y-70004000D02*
X175110000Y-69340000D01*
X169890000Y-72660000D02*
X169890000Y-71996000D01*
X169890000Y-70004000D02*
X169890000Y-69340000D01*
X163944278Y-78179723D02*
G75*
G03X168555580Y-78180000I2305722J1179723D01*
G01*
X163944278Y-75820277D02*
G75*
G02X168555580Y-75820000I2305722J-1179723D01*
G01*
X163944278Y-75820277D02*
G75*
G03X163944420Y-78180000I2305722J-1179723D01*
G01*
X169700000Y-77000000D02*
X168500000Y-77000000D01*
X169100000Y-77650000D02*
X169100000Y-76350000D01*
X181440000Y-68610000D02*
X181440000Y-63390000D01*
X184760000Y-68610000D02*
X184760000Y-63390000D01*
X181440000Y-68610000D02*
X182104000Y-68610000D01*
X184096000Y-68610000D02*
X184760000Y-68610000D01*
X181440000Y-63390000D02*
X182104000Y-63390000D01*
X184096000Y-63390000D02*
X184760000Y-63390000D01*
X192505722Y-63520277D02*
G75*
G03X187894420Y-63520000I-2305722J-1179723D01*
G01*
X192505722Y-65879723D02*
G75*
G02X187894420Y-65880000I-2305722J1179723D01*
G01*
X185500000Y-64700000D02*
X186700000Y-64700000D01*
X186100000Y-64050000D02*
X186100000Y-65350000D01*
X153190000Y-66630000D02*
X153190000Y-67110000D01*
X153190000Y-67110000D02*
X145470000Y-67110000D01*
X145470000Y-67110000D02*
X145470000Y-66630000D01*
X153190000Y-63870000D02*
X153190000Y-63390000D01*
X153190000Y-63390000D02*
X145470000Y-63390000D01*
X145470000Y-63390000D02*
X145470000Y-63870000D01*
X151990000Y-67110000D02*
X151990000Y-63390000D01*
X162380000Y-83060000D02*
X162860000Y-83060000D01*
X162860000Y-83060000D02*
X162860000Y-90780000D01*
X162860000Y-90780000D02*
X162380000Y-90780000D01*
X159620000Y-83060000D02*
X159140000Y-83060000D01*
X159140000Y-83060000D02*
X159140000Y-90780000D01*
X159140000Y-90780000D02*
X159620000Y-90780000D01*
X162860000Y-84260000D02*
X159140000Y-84260000D01*
X183944278Y-72929723D02*
G75*
G03X188555580Y-72930000I2305722J1179723D01*
G01*
X183944278Y-70570277D02*
G75*
G02X188555580Y-70570000I2305722J-1179723D01*
G01*
X190950000Y-71750000D02*
X189750000Y-71750000D01*
X190350000Y-72400000D02*
X190350000Y-71100000D01*
X187194278Y-80679723D02*
G75*
G03X191805580Y-80680000I2305722J1179723D01*
G01*
X187194278Y-78320277D02*
G75*
G02X191805580Y-78320000I2305722J-1179723D01*
G01*
X194200000Y-79500000D02*
X193000000Y-79500000D01*
X193600000Y-80150000D02*
X193600000Y-78850000D01*
X196820277Y-74694278D02*
G75*
G03X196820000Y-79305580I1179723J-2305722D01*
G01*
X199179723Y-74694278D02*
G75*
G02X199180000Y-79305580I-1179723J-2305722D01*
G01*
X198000000Y-81700000D02*
X198000000Y-80500000D01*
X197350000Y-81100000D02*
X198650000Y-81100000D01*
X202860000Y-71080000D02*
X202860000Y-71560000D01*
X202860000Y-71560000D02*
X192840000Y-71560000D01*
X192840000Y-71560000D02*
X192840000Y-71080000D01*
X202860000Y-68320000D02*
X202860000Y-67840000D01*
X202860000Y-67840000D02*
X192840000Y-67840000D01*
X192840000Y-67840000D02*
X192840000Y-68320000D01*
X121180000Y-96340000D02*
X121660000Y-96340000D01*
X121660000Y-96340000D02*
X121660000Y-106360000D01*
X121660000Y-106360000D02*
X121180000Y-106360000D01*
X118420000Y-96340000D02*
X117940000Y-96340000D01*
X117940000Y-96340000D02*
X117940000Y-106360000D01*
X117940000Y-106360000D02*
X118420000Y-106360000D01*
X204190000Y-90640000D02*
X209410000Y-90640000D01*
X204190000Y-93960000D02*
X209410000Y-93960000D01*
X204190000Y-90640000D02*
X204190000Y-91304000D01*
X204190000Y-93296000D02*
X204190000Y-93960000D01*
X209410000Y-90640000D02*
X209410000Y-91304000D01*
X209410000Y-93296000D02*
X209410000Y-93960000D01*
X186890000Y-89340000D02*
X192110000Y-89340000D01*
X186890000Y-92660000D02*
X192110000Y-92660000D01*
X186890000Y-89340000D02*
X186890000Y-90004000D01*
X186890000Y-91996000D02*
X186890000Y-92660000D01*
X192110000Y-89340000D02*
X192110000Y-90004000D01*
X192110000Y-91996000D02*
X192110000Y-92660000D01*
X209390000Y-101590000D02*
X214610000Y-101590000D01*
X209390000Y-104910000D02*
X214610000Y-104910000D01*
X209390000Y-101590000D02*
X209390000Y-102254000D01*
X209390000Y-104246000D02*
X209390000Y-104910000D01*
X214610000Y-101590000D02*
X214610000Y-102254000D01*
X214610000Y-104246000D02*
X214610000Y-104910000D01*
X216590000Y-103360000D02*
X216590000Y-98140000D01*
X219910000Y-103360000D02*
X219910000Y-98140000D01*
X216590000Y-103360000D02*
X217254000Y-103360000D01*
X219246000Y-103360000D02*
X219910000Y-103360000D01*
X216590000Y-98140000D02*
X217254000Y-98140000D01*
X219246000Y-98140000D02*
X219910000Y-98140000D01*
X177370000Y-86970000D02*
X172150000Y-86970000D01*
X177370000Y-83650000D02*
X172150000Y-83650000D01*
X177370000Y-86970000D02*
X177370000Y-86306000D01*
X177370000Y-84314000D02*
X177370000Y-83650000D01*
X172150000Y-86970000D02*
X172150000Y-86306000D01*
X172150000Y-84314000D02*
X172150000Y-83650000D01*
X178340000Y-80110000D02*
X178340000Y-74890000D01*
X181660000Y-80110000D02*
X181660000Y-74890000D01*
X178340000Y-80110000D02*
X179004000Y-80110000D01*
X180996000Y-80110000D02*
X181660000Y-80110000D01*
X178340000Y-74890000D02*
X179004000Y-74890000D01*
X180996000Y-74890000D02*
X181660000Y-74890000D01*
X111310000Y-98360000D02*
X106090000Y-98360000D01*
X111310000Y-95040000D02*
X106090000Y-95040000D01*
X111310000Y-98360000D02*
X111310000Y-97696000D01*
X111310000Y-95704000D02*
X111310000Y-95040000D01*
X106090000Y-98360000D02*
X106090000Y-97696000D01*
X106090000Y-95704000D02*
X106090000Y-95040000D01*
X185340000Y-105860000D02*
X185340000Y-100640000D01*
X188660000Y-105860000D02*
X188660000Y-100640000D01*
X185340000Y-105860000D02*
X186004000Y-105860000D01*
X187996000Y-105860000D02*
X188660000Y-105860000D01*
X185340000Y-100640000D02*
X186004000Y-100640000D01*
X187996000Y-100640000D02*
X188660000Y-100640000D01*
X179340000Y-105860000D02*
X179340000Y-100640000D01*
X182660000Y-105860000D02*
X182660000Y-100640000D01*
X179340000Y-105860000D02*
X180004000Y-105860000D01*
X181996000Y-105860000D02*
X182660000Y-105860000D01*
X179340000Y-100640000D02*
X180004000Y-100640000D01*
X181996000Y-100640000D02*
X182660000Y-100640000D01*
X164280000Y-106810000D02*
X164280000Y-108580000D01*
X164280000Y-108580000D02*
X174680000Y-108580000D01*
X174680000Y-108580000D02*
X174680000Y-103040000D01*
X174680000Y-103040000D02*
X164280000Y-103040000D01*
X164280000Y-103040000D02*
X164280000Y-104810000D01*
X164280000Y-104810000D02*
G75*
G02X164280000Y-106810000I0J-1000000D01*
G01*
X197620000Y-97060000D02*
X197140000Y-97060000D01*
X197140000Y-97060000D02*
X197140000Y-87040000D01*
X197140000Y-87040000D02*
X197620000Y-87040000D01*
X200380000Y-97060000D02*
X200860000Y-97060000D01*
X200860000Y-97060000D02*
X200860000Y-87040000D01*
X200860000Y-87040000D02*
X200380000Y-87040000D01*
X193660000Y-87080000D02*
X193660000Y-87560000D01*
X193660000Y-87560000D02*
X183640000Y-87560000D01*
X183640000Y-87560000D02*
X183640000Y-87080000D01*
X193660000Y-84320000D02*
X193660000Y-83840000D01*
X193660000Y-83840000D02*
X183640000Y-83840000D01*
X183640000Y-83840000D02*
X183640000Y-84320000D01*
X194640000Y-101870000D02*
X194640000Y-101390000D01*
X194640000Y-101390000D02*
X204660000Y-101390000D01*
X204660000Y-101390000D02*
X204660000Y-101870000D01*
X194640000Y-104630000D02*
X194640000Y-105110000D01*
X194640000Y-105110000D02*
X204660000Y-105110000D01*
X204660000Y-105110000D02*
X204660000Y-104630000D01*
X200340000Y-108120000D02*
X200340000Y-107640000D01*
X200340000Y-107640000D02*
X210360000Y-107640000D01*
X210360000Y-107640000D02*
X210360000Y-108120000D01*
X200340000Y-110880000D02*
X200340000Y-111360000D01*
X200340000Y-111360000D02*
X210360000Y-111360000D01*
X210360000Y-111360000D02*
X210360000Y-110880000D01*
X171640000Y-89640000D02*
X171640000Y-89160000D01*
X171640000Y-89160000D02*
X181660000Y-89160000D01*
X181660000Y-89160000D02*
X181660000Y-89640000D01*
X171640000Y-92400000D02*
X171640000Y-92880000D01*
X171640000Y-92880000D02*
X181660000Y-92880000D01*
X181660000Y-92880000D02*
X181660000Y-92400000D01*
X132720000Y-84260000D02*
X132240000Y-84260000D01*
X132240000Y-84260000D02*
X132240000Y-74240000D01*
X132240000Y-74240000D02*
X132720000Y-74240000D01*
X135480000Y-84260000D02*
X135960000Y-84260000D01*
X135960000Y-84260000D02*
X135960000Y-74240000D01*
X135960000Y-74240000D02*
X135480000Y-74240000D01*
X116180000Y-87640000D02*
X116660000Y-87640000D01*
X116660000Y-87640000D02*
X116660000Y-97660000D01*
X116660000Y-97660000D02*
X116180000Y-97660000D01*
X113420000Y-87640000D02*
X112940000Y-87640000D01*
X112940000Y-87640000D02*
X112940000Y-97660000D01*
X112940000Y-97660000D02*
X113420000Y-97660000D01*
X130680000Y-74240000D02*
X131160000Y-74240000D01*
X131160000Y-74240000D02*
X131160000Y-84260000D01*
X131160000Y-84260000D02*
X130680000Y-84260000D01*
X127920000Y-74240000D02*
X127440000Y-74240000D01*
X127440000Y-74240000D02*
X127440000Y-84260000D01*
X127440000Y-84260000D02*
X127920000Y-84260000D01*
X182340000Y-108120000D02*
X182340000Y-107640000D01*
X182340000Y-107640000D02*
X192360000Y-107640000D01*
X192360000Y-107640000D02*
X192360000Y-108120000D01*
X182340000Y-110880000D02*
X182340000Y-111360000D01*
X182340000Y-111360000D02*
X192360000Y-111360000D01*
X192360000Y-111360000D02*
X192360000Y-110880000D01*
X101130000Y-71060000D02*
X101610000Y-71060000D01*
X101610000Y-71060000D02*
X101610000Y-78780000D01*
X101610000Y-78780000D02*
X101130000Y-78780000D01*
X98370000Y-71060000D02*
X97890000Y-71060000D01*
X97890000Y-71060000D02*
X97890000Y-78780000D01*
X97890000Y-78780000D02*
X98370000Y-78780000D01*
X101610000Y-72260000D02*
X97890000Y-72260000D01*
X115380000Y-70970000D02*
X115860000Y-70970000D01*
X115860000Y-70970000D02*
X115860000Y-78690000D01*
X115860000Y-78690000D02*
X115380000Y-78690000D01*
X112620000Y-70970000D02*
X112140000Y-70970000D01*
X112140000Y-70970000D02*
X112140000Y-78690000D01*
X112140000Y-78690000D02*
X112620000Y-78690000D01*
X115860000Y-72170000D02*
X112140000Y-72170000D01*
X127720000Y-63870000D02*
X127720000Y-63390000D01*
X127720000Y-63390000D02*
X135440000Y-63390000D01*
X135440000Y-63390000D02*
X135440000Y-63870000D01*
X127720000Y-66630000D02*
X127720000Y-67110000D01*
X127720000Y-67110000D02*
X135440000Y-67110000D01*
X135440000Y-67110000D02*
X135440000Y-66630000D01*
X128920000Y-63390000D02*
X128920000Y-67110000D01*
X92499538Y-75220000D02*
G75*
G03X94044830Y-69670000I462J2990000D01*
G01*
X92500462Y-75220000D02*
G75*
G02X90955170Y-69670000I-462J2990000D01*
G01*
X95000000Y-72230000D02*
G75*
G03X95000000Y-72230000I-2500000J0D01*
G01*
X94045000Y-69670000D02*
X90955000Y-69670000D01*
X106999538Y-75220000D02*
G75*
G03X108544830Y-69670000I462J2990000D01*
G01*
X107000462Y-75220000D02*
G75*
G02X105455170Y-69670000I-462J2990000D01*
G01*
X109500000Y-72230000D02*
G75*
G03X109500000Y-72230000I-2500000J0D01*
G01*
X108545000Y-69670000D02*
X105455000Y-69670000D01*
X121249538Y-75220000D02*
G75*
G03X122794830Y-69670000I462J2990000D01*
G01*
X121250462Y-75220000D02*
G75*
G02X119705170Y-69670000I-462J2990000D01*
G01*
X123750000Y-72230000D02*
G75*
G03X123750000Y-72230000I-2500000J0D01*
G01*
X122795000Y-69670000D02*
X119705000Y-69670000D01*
D12*
X88936000Y-63202000D02*
X88936000Y-64345000D01*
X91984000Y-63202000D02*
X91984000Y-64345000D01*
X95794000Y-64345000D02*
X95794000Y-68028000D01*
X95794000Y-68028000D02*
X85126000Y-68028000D01*
X85126000Y-68028000D02*
X85126000Y-64345000D01*
X95794000Y-63202000D02*
X95794000Y-64345000D01*
X95794000Y-64345000D02*
X85126000Y-64345000D01*
X85126000Y-64345000D02*
X85126000Y-63202000D01*
X90460000Y-63202000D02*
X85126000Y-63202000D01*
X90460000Y-63202000D02*
X95794000Y-63202000D01*
X103476000Y-63202000D02*
X103476000Y-64345000D01*
X106524000Y-63202000D02*
X106524000Y-64345000D01*
X110334000Y-64345000D02*
X110334000Y-68028000D01*
X110334000Y-68028000D02*
X99666000Y-68028000D01*
X99666000Y-68028000D02*
X99666000Y-64345000D01*
X110334000Y-63202000D02*
X110334000Y-64345000D01*
X110334000Y-64345000D02*
X99666000Y-64345000D01*
X99666000Y-64345000D02*
X99666000Y-63202000D01*
X105000000Y-63202000D02*
X99666000Y-63202000D01*
X105000000Y-63202000D02*
X110334000Y-63202000D01*
X117726000Y-63202000D02*
X117726000Y-64345000D01*
X120774000Y-63202000D02*
X120774000Y-64345000D01*
X124584000Y-64345000D02*
X124584000Y-68028000D01*
X124584000Y-68028000D02*
X113916000Y-68028000D01*
X113916000Y-68028000D02*
X113916000Y-64345000D01*
X124584000Y-63202000D02*
X124584000Y-64345000D01*
X124584000Y-64345000D02*
X113916000Y-64345000D01*
X113916000Y-64345000D02*
X113916000Y-63202000D01*
X119250000Y-63202000D02*
X113916000Y-63202000D01*
X119250000Y-63202000D02*
X124584000Y-63202000D01*
D14*
X86880000Y-85090000D02*
X87360000Y-85090000D01*
X87360000Y-85090000D02*
X87360000Y-95110000D01*
X87360000Y-95110000D02*
X86880000Y-95110000D01*
X84120000Y-85090000D02*
X83640000Y-85090000D01*
X83640000Y-85090000D02*
X83640000Y-95110000D01*
X83640000Y-95110000D02*
X84120000Y-95110000D01*
X97680000Y-102240000D02*
X98160000Y-102240000D01*
X98160000Y-102240000D02*
X98160000Y-112260000D01*
X98160000Y-112260000D02*
X97680000Y-112260000D01*
X94920000Y-102240000D02*
X94440000Y-102240000D01*
X94440000Y-102240000D02*
X94440000Y-112260000D01*
X94440000Y-112260000D02*
X94920000Y-112260000D01*
X96440000Y-119420000D02*
X96440000Y-118940000D01*
X96440000Y-118940000D02*
X106460000Y-118940000D01*
X106460000Y-118940000D02*
X106460000Y-119420000D01*
X96440000Y-122180000D02*
X96440000Y-122660000D01*
X96440000Y-122660000D02*
X106460000Y-122660000D01*
X106460000Y-122660000D02*
X106460000Y-122180000D01*
X92380000Y-85090000D02*
X92860000Y-85090000D01*
X92860000Y-85090000D02*
X92860000Y-95110000D01*
X92860000Y-95110000D02*
X92380000Y-95110000D01*
X89620000Y-85090000D02*
X89140000Y-85090000D01*
X89140000Y-85090000D02*
X89140000Y-95110000D01*
X89140000Y-95110000D02*
X89620000Y-95110000D01*
X102980000Y-102340000D02*
X103460000Y-102340000D01*
X103460000Y-102340000D02*
X103460000Y-112360000D01*
X103460000Y-112360000D02*
X102980000Y-112360000D01*
X100220000Y-102340000D02*
X99740000Y-102340000D01*
X99740000Y-102340000D02*
X99740000Y-112360000D01*
X99740000Y-112360000D02*
X100220000Y-112360000D01*
X111220000Y-115260000D02*
X110740000Y-115260000D01*
X110740000Y-115260000D02*
X110740000Y-105240000D01*
X110740000Y-105240000D02*
X111220000Y-105240000D01*
X113980000Y-115260000D02*
X114460000Y-115260000D01*
X114460000Y-115260000D02*
X114460000Y-105240000D01*
X114460000Y-105240000D02*
X113980000Y-105240000D01*
X97630000Y-85090000D02*
X98110000Y-85090000D01*
X98110000Y-85090000D02*
X98110000Y-95110000D01*
X98110000Y-95110000D02*
X97630000Y-95110000D01*
X94870000Y-85090000D02*
X94390000Y-85090000D01*
X94390000Y-85090000D02*
X94390000Y-95110000D01*
X94390000Y-95110000D02*
X94870000Y-95110000D01*
X108380000Y-105240000D02*
X108860000Y-105240000D01*
X108860000Y-105240000D02*
X108860000Y-115260000D01*
X108860000Y-115260000D02*
X108380000Y-115260000D01*
X105620000Y-105240000D02*
X105140000Y-105240000D01*
X105140000Y-105240000D02*
X105140000Y-115260000D01*
X105140000Y-115260000D02*
X105620000Y-115260000D01*
X118320000Y-122860000D02*
X117840000Y-122860000D01*
X117840000Y-122860000D02*
X117840000Y-112840000D01*
X117840000Y-112840000D02*
X118320000Y-112840000D01*
X121080000Y-122860000D02*
X121560000Y-122860000D01*
X121560000Y-122860000D02*
X121560000Y-112840000D01*
X121560000Y-112840000D02*
X121080000Y-112840000D01*
X89820000Y-110580000D02*
X89340000Y-110580000D01*
X89340000Y-110580000D02*
X89340000Y-102860000D01*
X89340000Y-102860000D02*
X89820000Y-102860000D01*
X92580000Y-110580000D02*
X93060000Y-110580000D01*
X93060000Y-110580000D02*
X93060000Y-102860000D01*
X93060000Y-102860000D02*
X92580000Y-102860000D01*
X89340000Y-109380000D02*
X93060000Y-109380000D01*
X92800462Y-145340000D02*
G75*
G03X91255170Y-150890000I-462J-2990000D01*
G01*
X92799538Y-145340000D02*
G75*
G02X94344830Y-150890000I462J-2990000D01*
G01*
X95300000Y-148330000D02*
G75*
G03X95300000Y-148330000I-2500000J0D01*
G01*
X91255000Y-150890000D02*
X94345000Y-150890000D01*
X99800462Y-145340000D02*
G75*
G03X98255170Y-150890000I-462J-2990000D01*
G01*
X99799538Y-145340000D02*
G75*
G02X101344830Y-150890000I462J-2990000D01*
G01*
X102300000Y-148330000D02*
G75*
G03X102300000Y-148330000I-2500000J0D01*
G01*
X98255000Y-150890000D02*
X101345000Y-150890000D01*
X111400462Y-145340000D02*
G75*
G03X109855170Y-150890000I-462J-2990000D01*
G01*
X111399538Y-145340000D02*
G75*
G02X112944830Y-150890000I462J-2990000D01*
G01*
X113900000Y-148330000D02*
G75*
G03X113900000Y-148330000I-2500000J0D01*
G01*
X109855000Y-150890000D02*
X112945000Y-150890000D01*
D12*
X91734000Y-156798000D02*
X91734000Y-155655000D01*
X88686000Y-156798000D02*
X88686000Y-155655000D01*
X84876000Y-155655000D02*
X84876000Y-151972000D01*
X84876000Y-151972000D02*
X95544000Y-151972000D01*
X95544000Y-151972000D02*
X95544000Y-155655000D01*
X84876000Y-156798000D02*
X84876000Y-155655000D01*
X84876000Y-155655000D02*
X95544000Y-155655000D01*
X95544000Y-155655000D02*
X95544000Y-156798000D01*
X90210000Y-156798000D02*
X95544000Y-156798000D01*
X90210000Y-156798000D02*
X84876000Y-156798000D01*
X103364000Y-156848000D02*
X103364000Y-155705000D01*
X100316000Y-156848000D02*
X100316000Y-155705000D01*
X96506000Y-155705000D02*
X96506000Y-152022000D01*
X96506000Y-152022000D02*
X107174000Y-152022000D01*
X107174000Y-152022000D02*
X107174000Y-155705000D01*
X96506000Y-156848000D02*
X96506000Y-155705000D01*
X96506000Y-155705000D02*
X107174000Y-155705000D01*
X107174000Y-155705000D02*
X107174000Y-156848000D01*
X101840000Y-156848000D02*
X107174000Y-156848000D01*
X101840000Y-156848000D02*
X96506000Y-156848000D01*
X114964000Y-156848000D02*
X114964000Y-155705000D01*
X111916000Y-156848000D02*
X111916000Y-155705000D01*
X108106000Y-155705000D02*
X108106000Y-152022000D01*
X108106000Y-152022000D02*
X118774000Y-152022000D01*
X118774000Y-152022000D02*
X118774000Y-155705000D01*
X108106000Y-156848000D02*
X108106000Y-155705000D01*
X108106000Y-155705000D02*
X118774000Y-155705000D01*
X118774000Y-155705000D02*
X118774000Y-156848000D01*
X113440000Y-156848000D02*
X118774000Y-156848000D01*
X113440000Y-156848000D02*
X108106000Y-156848000D01*
D14*
X187820000Y-151360000D02*
X187340000Y-151360000D01*
X187340000Y-151360000D02*
X187340000Y-141340000D01*
X187340000Y-141340000D02*
X187820000Y-141340000D01*
X190580000Y-151360000D02*
X191060000Y-151360000D01*
X191060000Y-151360000D02*
X191060000Y-141340000D01*
X191060000Y-141340000D02*
X190580000Y-141340000D01*
X187820000Y-135560000D02*
X187340000Y-135560000D01*
X187340000Y-135560000D02*
X187340000Y-125540000D01*
X187340000Y-125540000D02*
X187820000Y-125540000D01*
X190580000Y-135560000D02*
X191060000Y-135560000D01*
X191060000Y-135560000D02*
X191060000Y-125540000D01*
X191060000Y-125540000D02*
X190580000Y-125540000D01*
X192520000Y-135560000D02*
X192040000Y-135560000D01*
X192040000Y-135560000D02*
X192040000Y-125540000D01*
X192040000Y-125540000D02*
X192520000Y-125540000D01*
X195280000Y-135560000D02*
X195760000Y-135560000D01*
X195760000Y-135560000D02*
X195760000Y-125540000D01*
X195760000Y-125540000D02*
X195280000Y-125540000D01*
X197220000Y-151360000D02*
X196740000Y-151360000D01*
X196740000Y-151360000D02*
X196740000Y-141340000D01*
X196740000Y-141340000D02*
X197220000Y-141340000D01*
X199980000Y-151360000D02*
X200460000Y-151360000D01*
X200460000Y-151360000D02*
X200460000Y-141340000D01*
X200460000Y-141340000D02*
X199980000Y-141340000D01*
X197220000Y-135560000D02*
X196740000Y-135560000D01*
X196740000Y-135560000D02*
X196740000Y-125540000D01*
X196740000Y-125540000D02*
X197220000Y-125540000D01*
X199980000Y-135560000D02*
X200460000Y-135560000D01*
X200460000Y-135560000D02*
X200460000Y-125540000D01*
X200460000Y-125540000D02*
X199980000Y-125540000D01*
X170690000Y-130940000D02*
X175910000Y-130940000D01*
X170690000Y-134260000D02*
X175910000Y-134260000D01*
X170690000Y-130940000D02*
X170690000Y-131604000D01*
X170690000Y-133596000D02*
X170690000Y-134260000D01*
X175910000Y-130940000D02*
X175910000Y-131604000D01*
X175910000Y-133596000D02*
X175910000Y-134260000D01*
X170690000Y-135240000D02*
X175910000Y-135240000D01*
X170690000Y-138560000D02*
X175910000Y-138560000D01*
X170690000Y-135240000D02*
X170690000Y-135904000D01*
X170690000Y-137896000D02*
X170690000Y-138560000D01*
X175910000Y-135240000D02*
X175910000Y-135904000D01*
X175910000Y-137896000D02*
X175910000Y-138560000D01*
X107020000Y-142080000D02*
X106540000Y-142080000D01*
X106540000Y-142080000D02*
X106540000Y-134360000D01*
X106540000Y-134360000D02*
X107020000Y-134360000D01*
X109780000Y-142080000D02*
X110260000Y-142080000D01*
X110260000Y-142080000D02*
X110260000Y-134360000D01*
X110260000Y-134360000D02*
X109780000Y-134360000D01*
X106540000Y-140880000D02*
X110260000Y-140880000D01*
X181730000Y-137420000D02*
X181250000Y-137420000D01*
X181250000Y-137420000D02*
X181250000Y-129700000D01*
X181250000Y-129700000D02*
X181730000Y-129700000D01*
X184490000Y-137420000D02*
X184970000Y-137420000D01*
X184970000Y-137420000D02*
X184970000Y-129700000D01*
X184970000Y-129700000D02*
X184490000Y-129700000D01*
X181250000Y-136220000D02*
X184970000Y-136220000D01*
X116880000Y-129120000D02*
X117360000Y-129120000D01*
X117360000Y-129120000D02*
X117360000Y-136840000D01*
X117360000Y-136840000D02*
X116880000Y-136840000D01*
X114120000Y-129120000D02*
X113640000Y-129120000D01*
X113640000Y-129120000D02*
X113640000Y-136840000D01*
X113640000Y-136840000D02*
X114120000Y-136840000D01*
X117360000Y-130320000D02*
X113640000Y-130320000D01*
X163250000Y-132650000D02*
X161480000Y-132650000D01*
X161480000Y-132650000D02*
X161480000Y-143050000D01*
X161480000Y-143050000D02*
X167020000Y-143050000D01*
X167020000Y-143050000D02*
X167020000Y-132650000D01*
X167020000Y-132650000D02*
X165250000Y-132650000D01*
X165250000Y-132650000D02*
G75*
G02X163250000Y-132650000I-1000000J0D01*
G01*
X165970000Y-131730000D02*
X168630000Y-131730000D01*
X165970000Y-126590000D02*
X165970000Y-131730000D01*
X168630000Y-126590000D02*
X168630000Y-131730000D01*
X165970000Y-126590000D02*
X168630000Y-126590000D01*
X165970000Y-125320000D02*
X165970000Y-123990000D01*
X165970000Y-123990000D02*
X167300000Y-123990000D01*
X162530000Y-123890000D02*
X159870000Y-123890000D01*
X162530000Y-129030000D02*
X162530000Y-123890000D01*
X159870000Y-129030000D02*
X159870000Y-123890000D01*
X162530000Y-129030000D02*
X159870000Y-129030000D01*
X162530000Y-130300000D02*
X162530000Y-131630000D01*
X162530000Y-131630000D02*
X161200000Y-131630000D01*
X105630000Y-126230000D02*
X105630000Y-123570000D01*
X103030000Y-126230000D02*
X105630000Y-126230000D01*
X103030000Y-123570000D02*
X105630000Y-123570000D01*
X103030000Y-126230000D02*
X103030000Y-123570000D01*
X101760000Y-126230000D02*
X100430000Y-126230000D01*
X100430000Y-126230000D02*
X100430000Y-124900000D01*
X106830000Y-126870000D02*
X106830000Y-129530000D01*
X109430000Y-126870000D02*
X106830000Y-126870000D01*
X109430000Y-129530000D02*
X106830000Y-129530000D01*
X109430000Y-126870000D02*
X109430000Y-129530000D01*
X110700000Y-126870000D02*
X112030000Y-126870000D01*
X112030000Y-126870000D02*
X112030000Y-128200000D01*
X98230000Y-126190000D02*
X98710000Y-126190000D01*
X98710000Y-126190000D02*
X98710000Y-136210000D01*
X98710000Y-136210000D02*
X98230000Y-136210000D01*
X95470000Y-126190000D02*
X94990000Y-126190000D01*
X94990000Y-126190000D02*
X94990000Y-136210000D01*
X94990000Y-136210000D02*
X95470000Y-136210000D01*
X104230000Y-129640000D02*
X104710000Y-129640000D01*
X104710000Y-129640000D02*
X104710000Y-139660000D01*
X104710000Y-139660000D02*
X104230000Y-139660000D01*
X101470000Y-129640000D02*
X100990000Y-129640000D01*
X100990000Y-129640000D02*
X100990000Y-139660000D01*
X100990000Y-139660000D02*
X101470000Y-139660000D01*
D15*
X124960000Y-95000000D02*
X224020000Y-95000000D01*
X126230000Y-148340000D02*
X224020000Y-148340000D01*
X124960000Y-135640000D02*
X124960000Y-147070000D01*
X124960000Y-147070000D02*
X126230000Y-148340000D01*
X224020000Y-95000000D02*
X224020000Y-148340000D01*
X124960000Y-135640000D02*
X122420000Y-133100000D01*
X122420000Y-133100000D02*
X122420000Y-100080000D01*
X122420000Y-100080000D02*
X124960000Y-97540000D01*
X124960000Y-97540000D02*
X124960000Y-95000000D01*
D14*
X183630000Y-153930000D02*
X183630000Y-151270000D01*
X175950000Y-153930000D02*
X183630000Y-153930000D01*
X175950000Y-151270000D02*
X183630000Y-151270000D01*
X175950000Y-153930000D02*
X175950000Y-151270000D01*
X174680000Y-153930000D02*
X173350000Y-153930000D01*
X173350000Y-153930000D02*
X173350000Y-152600000D01*
D12*
X165984000Y-156848000D02*
X165984000Y-155705000D01*
X162936000Y-156848000D02*
X162936000Y-155705000D01*
X159126000Y-155705000D02*
X159126000Y-152022000D01*
X159126000Y-152022000D02*
X169794000Y-152022000D01*
X169794000Y-152022000D02*
X169794000Y-155705000D01*
X159126000Y-156848000D02*
X159126000Y-155705000D01*
X159126000Y-155705000D02*
X169794000Y-155705000D01*
X169794000Y-155705000D02*
X169794000Y-156848000D01*
X164460000Y-156848000D02*
X169794000Y-156848000D01*
X164460000Y-156848000D02*
X159126000Y-156848000D01*
D14*
X151080000Y-141240000D02*
X151560000Y-141240000D01*
X151560000Y-141240000D02*
X151560000Y-151260000D01*
X151560000Y-151260000D02*
X151080000Y-151260000D01*
X148320000Y-141240000D02*
X147840000Y-141240000D01*
X147840000Y-141240000D02*
X147840000Y-151260000D01*
X147840000Y-151260000D02*
X148320000Y-151260000D01*
X152720000Y-151260000D02*
X152240000Y-151260000D01*
X152240000Y-151260000D02*
X152240000Y-141240000D01*
X152240000Y-141240000D02*
X152720000Y-141240000D01*
X155480000Y-151260000D02*
X155960000Y-151260000D01*
X155960000Y-151260000D02*
X155960000Y-141240000D01*
X155960000Y-141240000D02*
X155480000Y-141240000D01*
X182830000Y-125340000D02*
X182830000Y-125820000D01*
X182830000Y-125820000D02*
X172810000Y-125820000D01*
X172810000Y-125820000D02*
X172810000Y-125340000D01*
X182830000Y-122580000D02*
X182830000Y-122100000D01*
X182830000Y-122100000D02*
X172810000Y-122100000D01*
X172810000Y-122100000D02*
X172810000Y-122580000D01*
X210570000Y-140770000D02*
X209200000Y-140770000D01*
X209200000Y-140770000D02*
X209200000Y-151170000D01*
X209200000Y-151170000D02*
X213940000Y-151170000D01*
X213940000Y-151170000D02*
X213940000Y-140770000D01*
X213940000Y-140770000D02*
X212570000Y-140770000D01*
X212570000Y-140770000D02*
G75*
G02X210570000Y-140770000I-1000000J0D01*
G01*
X135650000Y-151370000D02*
X135650000Y-154030000D01*
X143330000Y-151370000D02*
X135650000Y-151370000D01*
X143330000Y-154030000D02*
X135650000Y-154030000D01*
X143330000Y-151370000D02*
X143330000Y-154030000D01*
X144600000Y-151370000D02*
X145930000Y-151370000D01*
X145930000Y-151370000D02*
X145930000Y-152700000D01*
X220550000Y-146250000D02*
X220550000Y-151470000D01*
X217230000Y-146250000D02*
X217230000Y-151470000D01*
X220550000Y-146250000D02*
X219886000Y-146250000D01*
X217894000Y-146250000D02*
X217230000Y-146250000D01*
X220550000Y-151470000D02*
X219886000Y-151470000D01*
X217894000Y-151470000D02*
X217230000Y-151470000D01*
X149270000Y-124200000D02*
X151930000Y-124200000D01*
X149270000Y-119060000D02*
X149270000Y-124200000D01*
X151930000Y-119060000D02*
X151930000Y-124200000D01*
X149270000Y-119060000D02*
X151930000Y-119060000D01*
X149270000Y-117790000D02*
X149270000Y-116460000D01*
X149270000Y-116460000D02*
X150600000Y-116460000D01*
X215340000Y-117589538D02*
G75*
G03X220890000Y-119134830I2990000J-462D01*
G01*
X215340000Y-117590462D02*
G75*
G02X220890000Y-116045170I2990000J462D01*
G01*
X220830000Y-117590000D02*
G75*
G03X220830000Y-117590000I-2500000J0D01*
G01*
X220890000Y-119135000D02*
X220890000Y-116045000D01*
X215340000Y-122589538D02*
G75*
G03X220890000Y-124134830I2990000J-462D01*
G01*
X215340000Y-122590462D02*
G75*
G02X220890000Y-121045170I2990000J462D01*
G01*
X220830000Y-122590000D02*
G75*
G03X220830000Y-122590000I-2500000J0D01*
G01*
X220890000Y-124135000D02*
X220890000Y-121045000D01*
X202310000Y-119210000D02*
X202310000Y-118730000D01*
X202310000Y-118730000D02*
X212330000Y-118730000D01*
X212330000Y-118730000D02*
X212330000Y-119210000D01*
X202310000Y-121970000D02*
X202310000Y-122450000D01*
X202310000Y-122450000D02*
X212330000Y-122450000D01*
X212330000Y-122450000D02*
X212330000Y-121970000D01*
X136030000Y-137890000D02*
X135550000Y-137890000D01*
X135550000Y-137890000D02*
X135550000Y-127870000D01*
X135550000Y-127870000D02*
X136030000Y-127870000D01*
X138790000Y-137890000D02*
X139270000Y-137890000D01*
X139270000Y-137890000D02*
X139270000Y-127870000D01*
X139270000Y-127870000D02*
X138790000Y-127870000D01*
X140350000Y-139180000D02*
X139870000Y-139180000D01*
X139870000Y-139180000D02*
X139870000Y-129160000D01*
X139870000Y-129160000D02*
X140350000Y-129160000D01*
X143110000Y-139180000D02*
X143590000Y-139180000D01*
X143590000Y-139180000D02*
X143590000Y-129160000D01*
X143590000Y-129160000D02*
X143110000Y-129160000D01*
X219560000Y-138640000D02*
X219560000Y-139120000D01*
X219560000Y-139120000D02*
X209540000Y-139120000D01*
X209540000Y-139120000D02*
X209540000Y-138640000D01*
X219560000Y-135880000D02*
X219560000Y-135400000D01*
X219560000Y-135400000D02*
X209540000Y-135400000D01*
X209540000Y-135400000D02*
X209540000Y-135880000D01*
X208380000Y-126620000D02*
X208380000Y-126140000D01*
X208380000Y-126140000D02*
X218400000Y-126140000D01*
X218400000Y-126140000D02*
X218400000Y-126620000D01*
X208380000Y-129380000D02*
X208380000Y-129860000D01*
X208380000Y-129860000D02*
X218400000Y-129860000D01*
X218400000Y-129860000D02*
X218400000Y-129380000D01*
X208380000Y-130920000D02*
X208380000Y-130440000D01*
X208380000Y-130440000D02*
X218400000Y-130440000D01*
X218400000Y-130440000D02*
X218400000Y-130920000D01*
X208380000Y-133680000D02*
X208380000Y-134160000D01*
X208380000Y-134160000D02*
X218400000Y-134160000D01*
X218400000Y-134160000D02*
X218400000Y-133680000D01*
X204480000Y-144140000D02*
X204960000Y-144140000D01*
X204960000Y-144140000D02*
X204960000Y-154160000D01*
X204960000Y-154160000D02*
X204480000Y-154160000D01*
X201720000Y-144140000D02*
X201240000Y-144140000D01*
X201240000Y-144140000D02*
X201240000Y-154160000D01*
X201240000Y-154160000D02*
X201720000Y-154160000D01*
X204480000Y-125540000D02*
X204960000Y-125540000D01*
X204960000Y-125540000D02*
X204960000Y-135560000D01*
X204960000Y-135560000D02*
X204480000Y-135560000D01*
X201720000Y-125540000D02*
X201240000Y-125540000D01*
X201240000Y-125540000D02*
X201240000Y-135560000D01*
X201240000Y-135560000D02*
X201720000Y-135560000D01*
X74610000Y-112130000D02*
X74610000Y-114790000D01*
X74610000Y-114790000D02*
X77390000Y-114790000D01*
X77390000Y-114790000D02*
X77390000Y-112130000D01*
X77390000Y-112130000D02*
X74610000Y-112130000D01*
X74610000Y-110860000D02*
X74610000Y-109470000D01*
X74610000Y-109470000D02*
X76000000Y-109470000D01*
X75600000Y-120170000D02*
X75600000Y-122830000D01*
X75600000Y-122830000D02*
X78380000Y-122830000D01*
X78380000Y-122830000D02*
X78380000Y-120170000D01*
X78380000Y-120170000D02*
X75600000Y-120170000D01*
X75600000Y-118900000D02*
X75600000Y-117510000D01*
X75600000Y-117510000D02*
X76990000Y-117510000D01*
X208840000Y-98900000D02*
X211500000Y-98900000D01*
X211500000Y-98900000D02*
X211500000Y-96120000D01*
X211500000Y-96120000D02*
X208840000Y-96120000D01*
X208840000Y-96120000D02*
X208840000Y-98900000D01*
X207570000Y-98900000D02*
X206180000Y-98900000D01*
X206180000Y-98900000D02*
X206180000Y-97510000D01*
X104020000Y-90680000D02*
X103540000Y-90680000D01*
X103540000Y-90680000D02*
X103540000Y-82960000D01*
X103540000Y-82960000D02*
X104020000Y-82960000D01*
X106780000Y-90680000D02*
X107260000Y-90680000D01*
X107260000Y-90680000D02*
X107260000Y-82960000D01*
X107260000Y-82960000D02*
X106780000Y-82960000D01*
X103540000Y-89480000D02*
X107260000Y-89480000D01*
D12*
X167326000Y-64599000D02*
X167326000Y-68028000D01*
X157674000Y-64599000D02*
X157674000Y-68028000D01*
X167834000Y-63456000D02*
X157166000Y-63456000D01*
X164278000Y-64472000D02*
X164278000Y-63202000D01*
X160722000Y-64472000D02*
X160722000Y-63202000D01*
X157166000Y-64599000D02*
X167834000Y-64599000D01*
X167834000Y-68028000D02*
X157166000Y-68028000D01*
X157166000Y-63202000D02*
X157166000Y-68028000D01*
X167834000Y-63202000D02*
X167834000Y-68028000D01*
X167834000Y-63202000D02*
X157166000Y-63202000D01*
X179786000Y-64599000D02*
X179786000Y-68028000D01*
X170134000Y-64599000D02*
X170134000Y-68028000D01*
X180294000Y-63456000D02*
X169626000Y-63456000D01*
X176738000Y-64472000D02*
X176738000Y-63202000D01*
X173182000Y-64472000D02*
X173182000Y-63202000D01*
X169626000Y-64599000D02*
X180294000Y-64599000D01*
X180294000Y-68028000D02*
X169626000Y-68028000D01*
X169626000Y-63202000D02*
X169626000Y-68028000D01*
X180294000Y-63202000D02*
X180294000Y-68028000D01*
X180294000Y-63202000D02*
X169626000Y-63202000D01*
D14*
X159920000Y-77500000D02*
X159590000Y-77500000D01*
X159590000Y-77500000D02*
X159590000Y-71080000D01*
X159590000Y-71080000D02*
X159920000Y-71080000D01*
X161880000Y-77500000D02*
X162210000Y-77500000D01*
X162210000Y-77500000D02*
X162210000Y-71080000D01*
X162210000Y-71080000D02*
X161880000Y-71080000D01*
X146530000Y-99610000D02*
X136250000Y-99610000D01*
X136250000Y-99610000D02*
X136250000Y-102390000D01*
X136250000Y-102390000D02*
X146530000Y-102390000D01*
X146530000Y-102390000D02*
X146530000Y-99610000D01*
X147800000Y-99610000D02*
X149190000Y-99610000D01*
X149190000Y-99610000D02*
X149190000Y-101000000D01*
D12*
X88492381Y-128592857D02*
X88016190Y-128926191D01*
X88492381Y-129164286D02*
X87492381Y-129164286D01*
X87492381Y-128783333D01*
X87540000Y-128688095D01*
X87587619Y-128640476D01*
X87682857Y-128592857D01*
X87825714Y-128592857D01*
X87920952Y-128640476D01*
X87968571Y-128688095D01*
X88016190Y-128783333D01*
X88016190Y-129164286D01*
X88492381Y-127640476D02*
X88492381Y-128211905D01*
X88492381Y-127926191D02*
X87492381Y-127926191D01*
X87635238Y-128021429D01*
X87730476Y-128116667D01*
X87778095Y-128211905D01*
X87920952Y-127069048D02*
X87873333Y-127164286D01*
X87825714Y-127211905D01*
X87730476Y-127259524D01*
X87682857Y-127259524D01*
X87587619Y-127211905D01*
X87540000Y-127164286D01*
X87492381Y-127069048D01*
X87492381Y-126878571D01*
X87540000Y-126783333D01*
X87587619Y-126735714D01*
X87682857Y-126688095D01*
X87730476Y-126688095D01*
X87825714Y-126735714D01*
X87873333Y-126783333D01*
X87920952Y-126878571D01*
X87920952Y-127069048D01*
X87968571Y-127164286D01*
X88016190Y-127211905D01*
X88111429Y-127259524D01*
X88301905Y-127259524D01*
X88397143Y-127211905D01*
X88444762Y-127164286D01*
X88492381Y-127069048D01*
X88492381Y-126878571D01*
X88444762Y-126783333D01*
X88397143Y-126735714D01*
X88301905Y-126688095D01*
X88111429Y-126688095D01*
X88016190Y-126735714D01*
X87968571Y-126783333D01*
X87920952Y-126878571D01*
X194452381Y-143442857D02*
X193976190Y-143776191D01*
X194452381Y-144014286D02*
X193452381Y-144014286D01*
X193452381Y-143633333D01*
X193500000Y-143538095D01*
X193547619Y-143490476D01*
X193642857Y-143442857D01*
X193785714Y-143442857D01*
X193880952Y-143490476D01*
X193928571Y-143538095D01*
X193976190Y-143633333D01*
X193976190Y-144014286D01*
X193452381Y-142585714D02*
X193452381Y-142776191D01*
X193500000Y-142871429D01*
X193547619Y-142919048D01*
X193690476Y-143014286D01*
X193880952Y-143061905D01*
X194261905Y-143061905D01*
X194357143Y-143014286D01*
X194404762Y-142966667D01*
X194452381Y-142871429D01*
X194452381Y-142680952D01*
X194404762Y-142585714D01*
X194357143Y-142538095D01*
X194261905Y-142490476D01*
X194023810Y-142490476D01*
X193928571Y-142538095D01*
X193880952Y-142585714D01*
X193833333Y-142680952D01*
X193833333Y-142871429D01*
X193880952Y-142966667D01*
X193928571Y-143014286D01*
X194023810Y-143061905D01*
X194452381Y-141538095D02*
X194452381Y-142109524D01*
X194452381Y-141823810D02*
X193452381Y-141823810D01*
X193595238Y-141919048D01*
X193690476Y-142014286D01*
X193738095Y-142109524D01*
X121757143Y-83666666D02*
X121804762Y-83714285D01*
X121852381Y-83857142D01*
X121852381Y-83952380D01*
X121804762Y-84095238D01*
X121709524Y-84190476D01*
X121614286Y-84238095D01*
X121423810Y-84285714D01*
X121280952Y-84285714D01*
X121090476Y-84238095D01*
X120995238Y-84190476D01*
X120900000Y-84095238D01*
X120852381Y-83952380D01*
X120852381Y-83857142D01*
X120900000Y-83714285D01*
X120947619Y-83666666D01*
X120852381Y-83333333D02*
X120852381Y-82666666D01*
X121852381Y-83095238D01*
X107292381Y-84958095D02*
X106292381Y-84958095D01*
X106292381Y-84720000D01*
X106340000Y-84577142D01*
X106435238Y-84481904D01*
X106530476Y-84434285D01*
X106720952Y-84386666D01*
X106863810Y-84386666D01*
X107054286Y-84434285D01*
X107149524Y-84481904D01*
X107244762Y-84577142D01*
X107292381Y-84720000D01*
X107292381Y-84958095D01*
X106387619Y-84005714D02*
X106340000Y-83958095D01*
X106292381Y-83862857D01*
X106292381Y-83624761D01*
X106340000Y-83529523D01*
X106387619Y-83481904D01*
X106482857Y-83434285D01*
X106578095Y-83434285D01*
X106720952Y-83481904D01*
X107292381Y-84053333D01*
X107292381Y-83434285D01*
X208880952Y-77657381D02*
X208880952Y-76657381D01*
X209214286Y-77371667D01*
X209547619Y-76657381D01*
X209547619Y-77657381D01*
X210023809Y-77657381D02*
X210023809Y-76657381D01*
X210404762Y-76657381D01*
X210500000Y-76705000D01*
X210547619Y-76752619D01*
X210595238Y-76847857D01*
X210595238Y-76990714D01*
X210547619Y-77085952D01*
X210500000Y-77133571D01*
X210404762Y-77181190D01*
X210023809Y-77181190D01*
X210928571Y-76657381D02*
X211595238Y-77657381D01*
X211595238Y-76657381D02*
X210928571Y-77657381D01*
X212404762Y-76990714D02*
X212404762Y-77657381D01*
X212166666Y-76609762D02*
X211928571Y-77324048D01*
X212547619Y-77324048D01*
X212880952Y-76752619D02*
X212928571Y-76705000D01*
X213023809Y-76657381D01*
X213261905Y-76657381D01*
X213357143Y-76705000D01*
X213404762Y-76752619D01*
X213452381Y-76847857D01*
X213452381Y-76943095D01*
X213404762Y-77085952D01*
X212833333Y-77657381D01*
X213452381Y-77657381D01*
X214357143Y-76657381D02*
X213880952Y-76657381D01*
X213833333Y-77133571D01*
X213880952Y-77085952D01*
X213976190Y-77038333D01*
X214214286Y-77038333D01*
X214309524Y-77085952D01*
X214357143Y-77133571D01*
X214404762Y-77228810D01*
X214404762Y-77466905D01*
X214357143Y-77562143D01*
X214309524Y-77609762D01*
X214214286Y-77657381D01*
X213976190Y-77657381D01*
X213880952Y-77609762D01*
X213833333Y-77562143D01*
X215023809Y-76657381D02*
X215119048Y-76657381D01*
X215214286Y-76705000D01*
X215261905Y-76752619D01*
X215309524Y-76847857D01*
X215357143Y-77038333D01*
X215357143Y-77276429D01*
X215309524Y-77466905D01*
X215261905Y-77562143D01*
X215214286Y-77609762D01*
X215119048Y-77657381D01*
X215023809Y-77657381D01*
X214928571Y-77609762D01*
X214880952Y-77562143D01*
X214833333Y-77466905D01*
X214785714Y-77276429D01*
X214785714Y-77038333D01*
X214833333Y-76847857D01*
X214880952Y-76752619D01*
X214928571Y-76705000D01*
X215023809Y-76657381D01*
X215738095Y-77371667D02*
X216214286Y-77371667D01*
X215642857Y-77657381D02*
X215976190Y-76657381D01*
X216309524Y-77657381D01*
X216642857Y-77657381D02*
X216642857Y-76657381D01*
X217023810Y-76657381D01*
X217119048Y-76705000D01*
X217166667Y-76752619D01*
X217214286Y-76847857D01*
X217214286Y-76990714D01*
X217166667Y-77085952D01*
X217119048Y-77133571D01*
X217023810Y-77181190D01*
X216642857Y-77181190D01*
X218166667Y-77657381D02*
X217595238Y-77657381D01*
X217880952Y-77657381D02*
X217880952Y-76657381D01*
X217785714Y-76800238D01*
X217690476Y-76895476D01*
X217595238Y-76943095D01*
X172357143Y-73357143D02*
X172309524Y-73404762D01*
X172166667Y-73452381D01*
X172071429Y-73452381D01*
X171928571Y-73404762D01*
X171833333Y-73309524D01*
X171785714Y-73214286D01*
X171738095Y-73023810D01*
X171738095Y-72880952D01*
X171785714Y-72690476D01*
X171833333Y-72595238D01*
X171928571Y-72500000D01*
X172071429Y-72452381D01*
X172166667Y-72452381D01*
X172309524Y-72500000D01*
X172357143Y-72547619D01*
X173309524Y-73452381D02*
X172738095Y-73452381D01*
X173023809Y-73452381D02*
X173023809Y-72452381D01*
X172928571Y-72595238D01*
X172833333Y-72690476D01*
X172738095Y-72738095D01*
X173642857Y-72452381D02*
X174261905Y-72452381D01*
X173928571Y-72833333D01*
X174071429Y-72833333D01*
X174166667Y-72880952D01*
X174214286Y-72928571D01*
X174261905Y-73023810D01*
X174261905Y-73261905D01*
X174214286Y-73357143D01*
X174166667Y-73404762D01*
X174071429Y-73452381D01*
X173785714Y-73452381D01*
X173690476Y-73404762D01*
X173642857Y-73357143D01*
X165607143Y-81167143D02*
X165559524Y-81214762D01*
X165416667Y-81262381D01*
X165321429Y-81262381D01*
X165178571Y-81214762D01*
X165083333Y-81119524D01*
X165035714Y-81024286D01*
X164988095Y-80833810D01*
X164988095Y-80690952D01*
X165035714Y-80500476D01*
X165083333Y-80405238D01*
X165178571Y-80310000D01*
X165321429Y-80262381D01*
X165416667Y-80262381D01*
X165559524Y-80310000D01*
X165607143Y-80357619D01*
X166559524Y-81262381D02*
X165988095Y-81262381D01*
X166273809Y-81262381D02*
X166273809Y-80262381D01*
X166178571Y-80405238D01*
X166083333Y-80500476D01*
X165988095Y-80548095D01*
X167416667Y-80595714D02*
X167416667Y-81262381D01*
X167178571Y-80214762D02*
X166940476Y-80929048D01*
X167559524Y-80929048D01*
X186057143Y-66742857D02*
X186104762Y-66790476D01*
X186152381Y-66933333D01*
X186152381Y-67028571D01*
X186104762Y-67171429D01*
X186009524Y-67266667D01*
X185914286Y-67314286D01*
X185723810Y-67361905D01*
X185580952Y-67361905D01*
X185390476Y-67314286D01*
X185295238Y-67266667D01*
X185200000Y-67171429D01*
X185152381Y-67028571D01*
X185152381Y-66933333D01*
X185200000Y-66790476D01*
X185247619Y-66742857D01*
X186152381Y-65790476D02*
X186152381Y-66361905D01*
X186152381Y-66076191D02*
X185152381Y-66076191D01*
X185295238Y-66171429D01*
X185390476Y-66266667D01*
X185438095Y-66361905D01*
X185152381Y-64885714D02*
X185152381Y-65361905D01*
X185628571Y-65409524D01*
X185580952Y-65361905D01*
X185533333Y-65266667D01*
X185533333Y-65028571D01*
X185580952Y-64933333D01*
X185628571Y-64885714D01*
X185723810Y-64838095D01*
X185961905Y-64838095D01*
X186057143Y-64885714D01*
X186104762Y-64933333D01*
X186152381Y-65028571D01*
X186152381Y-65266667D01*
X186104762Y-65361905D01*
X186057143Y-65409524D01*
X189557143Y-61247143D02*
X189509524Y-61294762D01*
X189366667Y-61342381D01*
X189271429Y-61342381D01*
X189128571Y-61294762D01*
X189033333Y-61199524D01*
X188985714Y-61104286D01*
X188938095Y-60913810D01*
X188938095Y-60770952D01*
X188985714Y-60580476D01*
X189033333Y-60485238D01*
X189128571Y-60390000D01*
X189271429Y-60342381D01*
X189366667Y-60342381D01*
X189509524Y-60390000D01*
X189557143Y-60437619D01*
X190509524Y-61342381D02*
X189938095Y-61342381D01*
X190223809Y-61342381D02*
X190223809Y-60342381D01*
X190128571Y-60485238D01*
X190033333Y-60580476D01*
X189938095Y-60628095D01*
X191366667Y-60342381D02*
X191176190Y-60342381D01*
X191080952Y-60390000D01*
X191033333Y-60437619D01*
X190938095Y-60580476D01*
X190890476Y-60770952D01*
X190890476Y-61151905D01*
X190938095Y-61247143D01*
X190985714Y-61294762D01*
X191080952Y-61342381D01*
X191271429Y-61342381D01*
X191366667Y-61294762D01*
X191414286Y-61247143D01*
X191461905Y-61151905D01*
X191461905Y-60913810D01*
X191414286Y-60818571D01*
X191366667Y-60770952D01*
X191271429Y-60723333D01*
X191080952Y-60723333D01*
X190985714Y-60770952D01*
X190938095Y-60818571D01*
X190890476Y-60913810D01*
X147965714Y-62902381D02*
X147965714Y-61902381D01*
X148203809Y-61902381D01*
X148346667Y-61950000D01*
X148441905Y-62045238D01*
X148489524Y-62140476D01*
X148537143Y-62330952D01*
X148537143Y-62473810D01*
X148489524Y-62664286D01*
X148441905Y-62759524D01*
X148346667Y-62854762D01*
X148203809Y-62902381D01*
X147965714Y-62902381D01*
X149489524Y-62902381D02*
X148918095Y-62902381D01*
X149203809Y-62902381D02*
X149203809Y-61902381D01*
X149108571Y-62045238D01*
X149013333Y-62140476D01*
X148918095Y-62188095D01*
X150394286Y-61902381D02*
X149918095Y-61902381D01*
X149870476Y-62378571D01*
X149918095Y-62330952D01*
X150013333Y-62283333D01*
X150251429Y-62283333D01*
X150346667Y-62330952D01*
X150394286Y-62378571D01*
X150441905Y-62473810D01*
X150441905Y-62711905D01*
X150394286Y-62807143D01*
X150346667Y-62854762D01*
X150251429Y-62902381D01*
X150013333Y-62902381D01*
X149918095Y-62854762D01*
X149870476Y-62807143D01*
X164312381Y-88134286D02*
X163312381Y-88134286D01*
X163312381Y-87896191D01*
X163360000Y-87753333D01*
X163455238Y-87658095D01*
X163550476Y-87610476D01*
X163740952Y-87562857D01*
X163883810Y-87562857D01*
X164074286Y-87610476D01*
X164169524Y-87658095D01*
X164264762Y-87753333D01*
X164312381Y-87896191D01*
X164312381Y-88134286D01*
X164312381Y-86610476D02*
X164312381Y-87181905D01*
X164312381Y-86896191D02*
X163312381Y-86896191D01*
X163455238Y-86991429D01*
X163550476Y-87086667D01*
X163598095Y-87181905D01*
X163312381Y-85753333D02*
X163312381Y-85943810D01*
X163360000Y-86039048D01*
X163407619Y-86086667D01*
X163550476Y-86181905D01*
X163740952Y-86229524D01*
X164121905Y-86229524D01*
X164217143Y-86181905D01*
X164264762Y-86134286D01*
X164312381Y-86039048D01*
X164312381Y-85848571D01*
X164264762Y-85753333D01*
X164217143Y-85705714D01*
X164121905Y-85658095D01*
X163883810Y-85658095D01*
X163788571Y-85705714D01*
X163740952Y-85753333D01*
X163693333Y-85848571D01*
X163693333Y-86039048D01*
X163740952Y-86134286D01*
X163788571Y-86181905D01*
X163883810Y-86229524D01*
X185657143Y-68357143D02*
X185609524Y-68404762D01*
X185466667Y-68452381D01*
X185371429Y-68452381D01*
X185228571Y-68404762D01*
X185133333Y-68309524D01*
X185085714Y-68214286D01*
X185038095Y-68023810D01*
X185038095Y-67880952D01*
X185085714Y-67690476D01*
X185133333Y-67595238D01*
X185228571Y-67500000D01*
X185371429Y-67452381D01*
X185466667Y-67452381D01*
X185609524Y-67500000D01*
X185657143Y-67547619D01*
X186609524Y-68452381D02*
X186038095Y-68452381D01*
X186323809Y-68452381D02*
X186323809Y-67452381D01*
X186228571Y-67595238D01*
X186133333Y-67690476D01*
X186038095Y-67738095D01*
X187180952Y-67880952D02*
X187085714Y-67833333D01*
X187038095Y-67785714D01*
X186990476Y-67690476D01*
X186990476Y-67642857D01*
X187038095Y-67547619D01*
X187085714Y-67500000D01*
X187180952Y-67452381D01*
X187371429Y-67452381D01*
X187466667Y-67500000D01*
X187514286Y-67547619D01*
X187561905Y-67642857D01*
X187561905Y-67690476D01*
X187514286Y-67785714D01*
X187466667Y-67833333D01*
X187371429Y-67880952D01*
X187180952Y-67880952D01*
X187085714Y-67928571D01*
X187038095Y-67976190D01*
X186990476Y-68071429D01*
X186990476Y-68261905D01*
X187038095Y-68357143D01*
X187085714Y-68404762D01*
X187180952Y-68452381D01*
X187371429Y-68452381D01*
X187466667Y-68404762D01*
X187514286Y-68357143D01*
X187561905Y-68261905D01*
X187561905Y-68071429D01*
X187514286Y-67976190D01*
X187466667Y-67928571D01*
X187371429Y-67880952D01*
X188857143Y-76157143D02*
X188809524Y-76204762D01*
X188666667Y-76252381D01*
X188571429Y-76252381D01*
X188428571Y-76204762D01*
X188333333Y-76109524D01*
X188285714Y-76014286D01*
X188238095Y-75823810D01*
X188238095Y-75680952D01*
X188285714Y-75490476D01*
X188333333Y-75395238D01*
X188428571Y-75300000D01*
X188571429Y-75252381D01*
X188666667Y-75252381D01*
X188809524Y-75300000D01*
X188857143Y-75347619D01*
X189809524Y-76252381D02*
X189238095Y-76252381D01*
X189523809Y-76252381D02*
X189523809Y-75252381D01*
X189428571Y-75395238D01*
X189333333Y-75490476D01*
X189238095Y-75538095D01*
X190285714Y-76252381D02*
X190476190Y-76252381D01*
X190571429Y-76204762D01*
X190619048Y-76157143D01*
X190714286Y-76014286D01*
X190761905Y-75823810D01*
X190761905Y-75442857D01*
X190714286Y-75347619D01*
X190666667Y-75300000D01*
X190571429Y-75252381D01*
X190380952Y-75252381D01*
X190285714Y-75300000D01*
X190238095Y-75347619D01*
X190190476Y-75442857D01*
X190190476Y-75680952D01*
X190238095Y-75776190D01*
X190285714Y-75823810D01*
X190380952Y-75871429D01*
X190571429Y-75871429D01*
X190666667Y-75823810D01*
X190714286Y-75776190D01*
X190761905Y-75680952D01*
X194547143Y-77642857D02*
X194594762Y-77690476D01*
X194642381Y-77833333D01*
X194642381Y-77928571D01*
X194594762Y-78071429D01*
X194499524Y-78166667D01*
X194404286Y-78214286D01*
X194213810Y-78261905D01*
X194070952Y-78261905D01*
X193880476Y-78214286D01*
X193785238Y-78166667D01*
X193690000Y-78071429D01*
X193642381Y-77928571D01*
X193642381Y-77833333D01*
X193690000Y-77690476D01*
X193737619Y-77642857D01*
X193737619Y-77261905D02*
X193690000Y-77214286D01*
X193642381Y-77119048D01*
X193642381Y-76880952D01*
X193690000Y-76785714D01*
X193737619Y-76738095D01*
X193832857Y-76690476D01*
X193928095Y-76690476D01*
X194070952Y-76738095D01*
X194642381Y-77309524D01*
X194642381Y-76690476D01*
X193642381Y-76071429D02*
X193642381Y-75976190D01*
X193690000Y-75880952D01*
X193737619Y-75833333D01*
X193832857Y-75785714D01*
X194023333Y-75738095D01*
X194261429Y-75738095D01*
X194451905Y-75785714D01*
X194547143Y-75833333D01*
X194594762Y-75880952D01*
X194642381Y-75976190D01*
X194642381Y-76071429D01*
X194594762Y-76166667D01*
X194547143Y-76214286D01*
X194451905Y-76261905D01*
X194261429Y-76309524D01*
X194023333Y-76309524D01*
X193832857Y-76261905D01*
X193737619Y-76214286D01*
X193690000Y-76166667D01*
X193642381Y-76071429D01*
X197207143Y-73012381D02*
X196873809Y-72536190D01*
X196635714Y-73012381D02*
X196635714Y-72012381D01*
X197016667Y-72012381D01*
X197111905Y-72060000D01*
X197159524Y-72107619D01*
X197207143Y-72202857D01*
X197207143Y-72345714D01*
X197159524Y-72440952D01*
X197111905Y-72488571D01*
X197016667Y-72536190D01*
X196635714Y-72536190D01*
X198064286Y-72345714D02*
X198064286Y-73012381D01*
X197826190Y-71964762D02*
X197588095Y-72679048D01*
X198207143Y-72679048D01*
X199111905Y-73012381D02*
X198540476Y-73012381D01*
X198826190Y-73012381D02*
X198826190Y-72012381D01*
X198730952Y-72155238D01*
X198635714Y-72250476D01*
X198540476Y-72298095D01*
X123112381Y-101992857D02*
X122636190Y-102326191D01*
X123112381Y-102564286D02*
X122112381Y-102564286D01*
X122112381Y-102183333D01*
X122160000Y-102088095D01*
X122207619Y-102040476D01*
X122302857Y-101992857D01*
X122445714Y-101992857D01*
X122540952Y-102040476D01*
X122588571Y-102088095D01*
X122636190Y-102183333D01*
X122636190Y-102564286D01*
X122112381Y-101135714D02*
X122112381Y-101326191D01*
X122160000Y-101421429D01*
X122207619Y-101469048D01*
X122350476Y-101564286D01*
X122540952Y-101611905D01*
X122921905Y-101611905D01*
X123017143Y-101564286D01*
X123064762Y-101516667D01*
X123112381Y-101421429D01*
X123112381Y-101230952D01*
X123064762Y-101135714D01*
X123017143Y-101088095D01*
X122921905Y-101040476D01*
X122683810Y-101040476D01*
X122588571Y-101088095D01*
X122540952Y-101135714D01*
X122493333Y-101230952D01*
X122493333Y-101421429D01*
X122540952Y-101516667D01*
X122588571Y-101564286D01*
X122683810Y-101611905D01*
X122112381Y-100421429D02*
X122112381Y-100326190D01*
X122160000Y-100230952D01*
X122207619Y-100183333D01*
X122302857Y-100135714D01*
X122493333Y-100088095D01*
X122731429Y-100088095D01*
X122921905Y-100135714D01*
X123017143Y-100183333D01*
X123064762Y-100230952D01*
X123112381Y-100326190D01*
X123112381Y-100421429D01*
X123064762Y-100516667D01*
X123017143Y-100564286D01*
X122921905Y-100611905D01*
X122731429Y-100659524D01*
X122493333Y-100659524D01*
X122302857Y-100611905D01*
X122207619Y-100564286D01*
X122160000Y-100516667D01*
X122112381Y-100421429D01*
X206633334Y-89747143D02*
X206585715Y-89794762D01*
X206442858Y-89842381D01*
X206347620Y-89842381D01*
X206204762Y-89794762D01*
X206109524Y-89699524D01*
X206061905Y-89604286D01*
X206014286Y-89413810D01*
X206014286Y-89270952D01*
X206061905Y-89080476D01*
X206109524Y-88985238D01*
X206204762Y-88890000D01*
X206347620Y-88842381D01*
X206442858Y-88842381D01*
X206585715Y-88890000D01*
X206633334Y-88937619D01*
X207585715Y-89842381D02*
X207014286Y-89842381D01*
X207300000Y-89842381D02*
X207300000Y-88842381D01*
X207204762Y-88985238D01*
X207109524Y-89080476D01*
X207014286Y-89128095D01*
X189233334Y-88857143D02*
X189185715Y-88904762D01*
X189042858Y-88952381D01*
X188947620Y-88952381D01*
X188804762Y-88904762D01*
X188709524Y-88809524D01*
X188661905Y-88714286D01*
X188614286Y-88523810D01*
X188614286Y-88380952D01*
X188661905Y-88190476D01*
X188709524Y-88095238D01*
X188804762Y-88000000D01*
X188947620Y-87952381D01*
X189042858Y-87952381D01*
X189185715Y-88000000D01*
X189233334Y-88047619D01*
X189614286Y-88047619D02*
X189661905Y-88000000D01*
X189757143Y-87952381D01*
X189995239Y-87952381D01*
X190090477Y-88000000D01*
X190138096Y-88047619D01*
X190185715Y-88142857D01*
X190185715Y-88238095D01*
X190138096Y-88380952D01*
X189566667Y-88952381D01*
X190185715Y-88952381D01*
X211833334Y-100697143D02*
X211785715Y-100744762D01*
X211642858Y-100792381D01*
X211547620Y-100792381D01*
X211404762Y-100744762D01*
X211309524Y-100649524D01*
X211261905Y-100554286D01*
X211214286Y-100363810D01*
X211214286Y-100220952D01*
X211261905Y-100030476D01*
X211309524Y-99935238D01*
X211404762Y-99840000D01*
X211547620Y-99792381D01*
X211642858Y-99792381D01*
X211785715Y-99840000D01*
X211833334Y-99887619D01*
X212166667Y-99792381D02*
X212785715Y-99792381D01*
X212452381Y-100173333D01*
X212595239Y-100173333D01*
X212690477Y-100220952D01*
X212738096Y-100268571D01*
X212785715Y-100363810D01*
X212785715Y-100601905D01*
X212738096Y-100697143D01*
X212690477Y-100744762D01*
X212595239Y-100792381D01*
X212309524Y-100792381D01*
X212214286Y-100744762D01*
X212166667Y-100697143D01*
X215697143Y-100916666D02*
X215744762Y-100964285D01*
X215792381Y-101107142D01*
X215792381Y-101202380D01*
X215744762Y-101345238D01*
X215649524Y-101440476D01*
X215554286Y-101488095D01*
X215363810Y-101535714D01*
X215220952Y-101535714D01*
X215030476Y-101488095D01*
X214935238Y-101440476D01*
X214840000Y-101345238D01*
X214792381Y-101202380D01*
X214792381Y-101107142D01*
X214840000Y-100964285D01*
X214887619Y-100916666D01*
X215125714Y-100059523D02*
X215792381Y-100059523D01*
X214744762Y-100297619D02*
X215459048Y-100535714D01*
X215459048Y-99916666D01*
X174333334Y-82857143D02*
X174285715Y-82904762D01*
X174142858Y-82952381D01*
X174047620Y-82952381D01*
X173904762Y-82904762D01*
X173809524Y-82809524D01*
X173761905Y-82714286D01*
X173714286Y-82523810D01*
X173714286Y-82380952D01*
X173761905Y-82190476D01*
X173809524Y-82095238D01*
X173904762Y-82000000D01*
X174047620Y-81952381D01*
X174142858Y-81952381D01*
X174285715Y-82000000D01*
X174333334Y-82047619D01*
X175238096Y-81952381D02*
X174761905Y-81952381D01*
X174714286Y-82428571D01*
X174761905Y-82380952D01*
X174857143Y-82333333D01*
X175095239Y-82333333D01*
X175190477Y-82380952D01*
X175238096Y-82428571D01*
X175285715Y-82523810D01*
X175285715Y-82761905D01*
X175238096Y-82857143D01*
X175190477Y-82904762D01*
X175095239Y-82952381D01*
X174857143Y-82952381D01*
X174761905Y-82904762D01*
X174714286Y-82857143D01*
X177447143Y-77666666D02*
X177494762Y-77714285D01*
X177542381Y-77857142D01*
X177542381Y-77952380D01*
X177494762Y-78095238D01*
X177399524Y-78190476D01*
X177304286Y-78238095D01*
X177113810Y-78285714D01*
X176970952Y-78285714D01*
X176780476Y-78238095D01*
X176685238Y-78190476D01*
X176590000Y-78095238D01*
X176542381Y-77952380D01*
X176542381Y-77857142D01*
X176590000Y-77714285D01*
X176637619Y-77666666D01*
X176542381Y-76809523D02*
X176542381Y-77000000D01*
X176590000Y-77095238D01*
X176637619Y-77142857D01*
X176780476Y-77238095D01*
X176970952Y-77285714D01*
X177351905Y-77285714D01*
X177447143Y-77238095D01*
X177494762Y-77190476D01*
X177542381Y-77095238D01*
X177542381Y-76904761D01*
X177494762Y-76809523D01*
X177447143Y-76761904D01*
X177351905Y-76714285D01*
X177113810Y-76714285D01*
X177018571Y-76761904D01*
X176970952Y-76809523D01*
X176923333Y-76904761D01*
X176923333Y-77095238D01*
X176970952Y-77190476D01*
X177018571Y-77238095D01*
X177113810Y-77285714D01*
X108533334Y-99967143D02*
X108485715Y-100014762D01*
X108342858Y-100062381D01*
X108247620Y-100062381D01*
X108104762Y-100014762D01*
X108009524Y-99919524D01*
X107961905Y-99824286D01*
X107914286Y-99633810D01*
X107914286Y-99490952D01*
X107961905Y-99300476D01*
X108009524Y-99205238D01*
X108104762Y-99110000D01*
X108247620Y-99062381D01*
X108342858Y-99062381D01*
X108485715Y-99110000D01*
X108533334Y-99157619D01*
X109104762Y-99490952D02*
X109009524Y-99443333D01*
X108961905Y-99395714D01*
X108914286Y-99300476D01*
X108914286Y-99252857D01*
X108961905Y-99157619D01*
X109009524Y-99110000D01*
X109104762Y-99062381D01*
X109295239Y-99062381D01*
X109390477Y-99110000D01*
X109438096Y-99157619D01*
X109485715Y-99252857D01*
X109485715Y-99300476D01*
X109438096Y-99395714D01*
X109390477Y-99443333D01*
X109295239Y-99490952D01*
X109104762Y-99490952D01*
X109009524Y-99538571D01*
X108961905Y-99586190D01*
X108914286Y-99681429D01*
X108914286Y-99871905D01*
X108961905Y-99967143D01*
X109009524Y-100014762D01*
X109104762Y-100062381D01*
X109295239Y-100062381D01*
X109390477Y-100014762D01*
X109438096Y-99967143D01*
X109485715Y-99871905D01*
X109485715Y-99681429D01*
X109438096Y-99586190D01*
X109390477Y-99538571D01*
X109295239Y-99490952D01*
X184447143Y-103416666D02*
X184494762Y-103464285D01*
X184542381Y-103607142D01*
X184542381Y-103702380D01*
X184494762Y-103845238D01*
X184399524Y-103940476D01*
X184304286Y-103988095D01*
X184113810Y-104035714D01*
X183970952Y-104035714D01*
X183780476Y-103988095D01*
X183685238Y-103940476D01*
X183590000Y-103845238D01*
X183542381Y-103702380D01*
X183542381Y-103607142D01*
X183590000Y-103464285D01*
X183637619Y-103416666D01*
X184542381Y-102940476D02*
X184542381Y-102750000D01*
X184494762Y-102654761D01*
X184447143Y-102607142D01*
X184304286Y-102511904D01*
X184113810Y-102464285D01*
X183732857Y-102464285D01*
X183637619Y-102511904D01*
X183590000Y-102559523D01*
X183542381Y-102654761D01*
X183542381Y-102845238D01*
X183590000Y-102940476D01*
X183637619Y-102988095D01*
X183732857Y-103035714D01*
X183970952Y-103035714D01*
X184066190Y-102988095D01*
X184113810Y-102940476D01*
X184161429Y-102845238D01*
X184161429Y-102654761D01*
X184113810Y-102559523D01*
X184066190Y-102511904D01*
X183970952Y-102464285D01*
X178447143Y-103892857D02*
X178494762Y-103940476D01*
X178542381Y-104083333D01*
X178542381Y-104178571D01*
X178494762Y-104321429D01*
X178399524Y-104416667D01*
X178304286Y-104464286D01*
X178113810Y-104511905D01*
X177970952Y-104511905D01*
X177780476Y-104464286D01*
X177685238Y-104416667D01*
X177590000Y-104321429D01*
X177542381Y-104178571D01*
X177542381Y-104083333D01*
X177590000Y-103940476D01*
X177637619Y-103892857D01*
X178542381Y-102940476D02*
X178542381Y-103511905D01*
X178542381Y-103226191D02*
X177542381Y-103226191D01*
X177685238Y-103321429D01*
X177780476Y-103416667D01*
X177828095Y-103511905D01*
X177542381Y-102321429D02*
X177542381Y-102226190D01*
X177590000Y-102130952D01*
X177637619Y-102083333D01*
X177732857Y-102035714D01*
X177923333Y-101988095D01*
X178161429Y-101988095D01*
X178351905Y-102035714D01*
X178447143Y-102083333D01*
X178494762Y-102130952D01*
X178542381Y-102226190D01*
X178542381Y-102321429D01*
X178494762Y-102416667D01*
X178447143Y-102464286D01*
X178351905Y-102511905D01*
X178161429Y-102559524D01*
X177923333Y-102559524D01*
X177732857Y-102511905D01*
X177637619Y-102464286D01*
X177590000Y-102416667D01*
X177542381Y-102321429D01*
X163732381Y-106786190D02*
X162732381Y-106786190D01*
X163637143Y-105738571D02*
X163684762Y-105786190D01*
X163732381Y-105929047D01*
X163732381Y-106024285D01*
X163684762Y-106167143D01*
X163589524Y-106262381D01*
X163494286Y-106310000D01*
X163303810Y-106357619D01*
X163160952Y-106357619D01*
X162970476Y-106310000D01*
X162875238Y-106262381D01*
X162780000Y-106167143D01*
X162732381Y-106024285D01*
X162732381Y-105929047D01*
X162780000Y-105786190D01*
X162827619Y-105738571D01*
X163065714Y-104881428D02*
X163732381Y-104881428D01*
X162684762Y-105119524D02*
X163399048Y-105357619D01*
X163399048Y-104738571D01*
X196592381Y-92216666D02*
X196116190Y-92550000D01*
X196592381Y-92788095D02*
X195592381Y-92788095D01*
X195592381Y-92407142D01*
X195640000Y-92311904D01*
X195687619Y-92264285D01*
X195782857Y-92216666D01*
X195925714Y-92216666D01*
X196020952Y-92264285D01*
X196068571Y-92311904D01*
X196116190Y-92407142D01*
X196116190Y-92788095D01*
X196592381Y-91264285D02*
X196592381Y-91835714D01*
X196592381Y-91550000D02*
X195592381Y-91550000D01*
X195735238Y-91645238D01*
X195830476Y-91740476D01*
X195878095Y-91835714D01*
X188733334Y-83452381D02*
X188400000Y-82976190D01*
X188161905Y-83452381D02*
X188161905Y-82452381D01*
X188542858Y-82452381D01*
X188638096Y-82500000D01*
X188685715Y-82547619D01*
X188733334Y-82642857D01*
X188733334Y-82785714D01*
X188685715Y-82880952D01*
X188638096Y-82928571D01*
X188542858Y-82976190D01*
X188161905Y-82976190D01*
X189114286Y-82547619D02*
X189161905Y-82500000D01*
X189257143Y-82452381D01*
X189495239Y-82452381D01*
X189590477Y-82500000D01*
X189638096Y-82547619D01*
X189685715Y-82642857D01*
X189685715Y-82738095D01*
X189638096Y-82880952D01*
X189066667Y-83452381D01*
X189685715Y-83452381D01*
X197133334Y-102702381D02*
X196800000Y-102226190D01*
X196561905Y-102702381D02*
X196561905Y-101702381D01*
X196942858Y-101702381D01*
X197038096Y-101750000D01*
X197085715Y-101797619D01*
X197133334Y-101892857D01*
X197133334Y-102035714D01*
X197085715Y-102130952D01*
X197038096Y-102178571D01*
X196942858Y-102226190D01*
X196561905Y-102226190D01*
X197466667Y-101702381D02*
X198085715Y-101702381D01*
X197752381Y-102083333D01*
X197895239Y-102083333D01*
X197990477Y-102130952D01*
X198038096Y-102178571D01*
X198085715Y-102273810D01*
X198085715Y-102511905D01*
X198038096Y-102607143D01*
X197990477Y-102654762D01*
X197895239Y-102702381D01*
X197609524Y-102702381D01*
X197514286Y-102654762D01*
X197466667Y-102607143D01*
X205183334Y-107092381D02*
X204850000Y-106616190D01*
X204611905Y-107092381D02*
X204611905Y-106092381D01*
X204992858Y-106092381D01*
X205088096Y-106140000D01*
X205135715Y-106187619D01*
X205183334Y-106282857D01*
X205183334Y-106425714D01*
X205135715Y-106520952D01*
X205088096Y-106568571D01*
X204992858Y-106616190D01*
X204611905Y-106616190D01*
X206040477Y-106425714D02*
X206040477Y-107092381D01*
X205802381Y-106044762D02*
X205564286Y-106759048D01*
X206183334Y-106759048D01*
X176483334Y-88612381D02*
X176150000Y-88136190D01*
X175911905Y-88612381D02*
X175911905Y-87612381D01*
X176292858Y-87612381D01*
X176388096Y-87660000D01*
X176435715Y-87707619D01*
X176483334Y-87802857D01*
X176483334Y-87945714D01*
X176435715Y-88040952D01*
X176388096Y-88088571D01*
X176292858Y-88136190D01*
X175911905Y-88136190D01*
X177340477Y-87612381D02*
X177150000Y-87612381D01*
X177054762Y-87660000D01*
X177007143Y-87707619D01*
X176911905Y-87850476D01*
X176864286Y-88040952D01*
X176864286Y-88421905D01*
X176911905Y-88517143D01*
X176959524Y-88564762D01*
X177054762Y-88612381D01*
X177245239Y-88612381D01*
X177340477Y-88564762D01*
X177388096Y-88517143D01*
X177435715Y-88421905D01*
X177435715Y-88183810D01*
X177388096Y-88088571D01*
X177340477Y-88040952D01*
X177245239Y-87993333D01*
X177054762Y-87993333D01*
X176959524Y-88040952D01*
X176911905Y-88088571D01*
X176864286Y-88183810D01*
X126952381Y-79266666D02*
X126476190Y-79600000D01*
X126952381Y-79838095D02*
X125952381Y-79838095D01*
X125952381Y-79457142D01*
X126000000Y-79361904D01*
X126047619Y-79314285D01*
X126142857Y-79266666D01*
X126285714Y-79266666D01*
X126380952Y-79314285D01*
X126428571Y-79361904D01*
X126476190Y-79457142D01*
X126476190Y-79838095D01*
X125952381Y-78933333D02*
X125952381Y-78266666D01*
X126952381Y-78695238D01*
X118112381Y-92816666D02*
X117636190Y-93150000D01*
X118112381Y-93388095D02*
X117112381Y-93388095D01*
X117112381Y-93007142D01*
X117160000Y-92911904D01*
X117207619Y-92864285D01*
X117302857Y-92816666D01*
X117445714Y-92816666D01*
X117540952Y-92864285D01*
X117588571Y-92911904D01*
X117636190Y-93007142D01*
X117636190Y-93388095D01*
X117540952Y-92245238D02*
X117493333Y-92340476D01*
X117445714Y-92388095D01*
X117350476Y-92435714D01*
X117302857Y-92435714D01*
X117207619Y-92388095D01*
X117160000Y-92340476D01*
X117112381Y-92245238D01*
X117112381Y-92054761D01*
X117160000Y-91959523D01*
X117207619Y-91911904D01*
X117302857Y-91864285D01*
X117350476Y-91864285D01*
X117445714Y-91911904D01*
X117493333Y-91959523D01*
X117540952Y-92054761D01*
X117540952Y-92245238D01*
X117588571Y-92340476D01*
X117636190Y-92388095D01*
X117731429Y-92435714D01*
X117921905Y-92435714D01*
X118017143Y-92388095D01*
X118064762Y-92340476D01*
X118112381Y-92245238D01*
X118112381Y-92054761D01*
X118064762Y-91959523D01*
X118017143Y-91911904D01*
X117921905Y-91864285D01*
X117731429Y-91864285D01*
X117636190Y-91911904D01*
X117588571Y-91959523D01*
X117540952Y-92054761D01*
X137452381Y-79892857D02*
X136976190Y-80226191D01*
X137452381Y-80464286D02*
X136452381Y-80464286D01*
X136452381Y-80083333D01*
X136500000Y-79988095D01*
X136547619Y-79940476D01*
X136642857Y-79892857D01*
X136785714Y-79892857D01*
X136880952Y-79940476D01*
X136928571Y-79988095D01*
X136976190Y-80083333D01*
X136976190Y-80464286D01*
X136547619Y-79511905D02*
X136500000Y-79464286D01*
X136452381Y-79369048D01*
X136452381Y-79130952D01*
X136500000Y-79035714D01*
X136547619Y-78988095D01*
X136642857Y-78940476D01*
X136738095Y-78940476D01*
X136880952Y-78988095D01*
X137452381Y-79559524D01*
X137452381Y-78940476D01*
X137452381Y-77988095D02*
X137452381Y-78559524D01*
X137452381Y-78273810D02*
X136452381Y-78273810D01*
X136595238Y-78369048D01*
X136690476Y-78464286D01*
X136738095Y-78559524D01*
X186707143Y-107092381D02*
X186373809Y-106616190D01*
X186135714Y-107092381D02*
X186135714Y-106092381D01*
X186516667Y-106092381D01*
X186611905Y-106140000D01*
X186659524Y-106187619D01*
X186707143Y-106282857D01*
X186707143Y-106425714D01*
X186659524Y-106520952D01*
X186611905Y-106568571D01*
X186516667Y-106616190D01*
X186135714Y-106616190D01*
X187088095Y-106187619D02*
X187135714Y-106140000D01*
X187230952Y-106092381D01*
X187469048Y-106092381D01*
X187564286Y-106140000D01*
X187611905Y-106187619D01*
X187659524Y-106282857D01*
X187659524Y-106378095D01*
X187611905Y-106520952D01*
X187040476Y-107092381D01*
X187659524Y-107092381D01*
X188040476Y-106187619D02*
X188088095Y-106140000D01*
X188183333Y-106092381D01*
X188421429Y-106092381D01*
X188516667Y-106140000D01*
X188564286Y-106187619D01*
X188611905Y-106282857D01*
X188611905Y-106378095D01*
X188564286Y-106520952D01*
X187992857Y-107092381D01*
X188611905Y-107092381D01*
X103062381Y-75658095D02*
X102062381Y-75658095D01*
X102062381Y-75420000D01*
X102110000Y-75277142D01*
X102205238Y-75181904D01*
X102300476Y-75134285D01*
X102490952Y-75086666D01*
X102633810Y-75086666D01*
X102824286Y-75134285D01*
X102919524Y-75181904D01*
X103014762Y-75277142D01*
X103062381Y-75420000D01*
X103062381Y-75658095D01*
X102062381Y-74229523D02*
X102062381Y-74420000D01*
X102110000Y-74515238D01*
X102157619Y-74562857D01*
X102300476Y-74658095D01*
X102490952Y-74705714D01*
X102871905Y-74705714D01*
X102967143Y-74658095D01*
X103014762Y-74610476D01*
X103062381Y-74515238D01*
X103062381Y-74324761D01*
X103014762Y-74229523D01*
X102967143Y-74181904D01*
X102871905Y-74134285D01*
X102633810Y-74134285D01*
X102538571Y-74181904D01*
X102490952Y-74229523D01*
X102443333Y-74324761D01*
X102443333Y-74515238D01*
X102490952Y-74610476D01*
X102538571Y-74658095D01*
X102633810Y-74705714D01*
X117312381Y-75568095D02*
X116312381Y-75568095D01*
X116312381Y-75330000D01*
X116360000Y-75187142D01*
X116455238Y-75091904D01*
X116550476Y-75044285D01*
X116740952Y-74996666D01*
X116883810Y-74996666D01*
X117074286Y-75044285D01*
X117169524Y-75091904D01*
X117264762Y-75187142D01*
X117312381Y-75330000D01*
X117312381Y-75568095D01*
X116312381Y-74663333D02*
X116312381Y-73996666D01*
X117312381Y-74425238D01*
X130841905Y-62842381D02*
X130841905Y-61842381D01*
X131080000Y-61842381D01*
X131222858Y-61890000D01*
X131318096Y-61985238D01*
X131365715Y-62080476D01*
X131413334Y-62270952D01*
X131413334Y-62413810D01*
X131365715Y-62604286D01*
X131318096Y-62699524D01*
X131222858Y-62794762D01*
X131080000Y-62842381D01*
X130841905Y-62842381D01*
X131984762Y-62270952D02*
X131889524Y-62223333D01*
X131841905Y-62175714D01*
X131794286Y-62080476D01*
X131794286Y-62032857D01*
X131841905Y-61937619D01*
X131889524Y-61890000D01*
X131984762Y-61842381D01*
X132175239Y-61842381D01*
X132270477Y-61890000D01*
X132318096Y-61937619D01*
X132365715Y-62032857D01*
X132365715Y-62080476D01*
X132318096Y-62175714D01*
X132270477Y-62223333D01*
X132175239Y-62270952D01*
X131984762Y-62270952D01*
X131889524Y-62318571D01*
X131841905Y-62366190D01*
X131794286Y-62461429D01*
X131794286Y-62651905D01*
X131841905Y-62747143D01*
X131889524Y-62794762D01*
X131984762Y-62842381D01*
X132175239Y-62842381D01*
X132270477Y-62794762D01*
X132318096Y-62747143D01*
X132365715Y-62651905D01*
X132365715Y-62461429D01*
X132318096Y-62366190D01*
X132270477Y-62318571D01*
X132175239Y-62270952D01*
X90364762Y-61717619D02*
X90269524Y-61670000D01*
X90174286Y-61574762D01*
X90031429Y-61431905D01*
X89936190Y-61384286D01*
X89840952Y-61384286D01*
X89888571Y-61622381D02*
X89793333Y-61574762D01*
X89698095Y-61479524D01*
X89650476Y-61289048D01*
X89650476Y-60955714D01*
X89698095Y-60765238D01*
X89793333Y-60670000D01*
X89888571Y-60622381D01*
X90079048Y-60622381D01*
X90174286Y-60670000D01*
X90269524Y-60765238D01*
X90317143Y-60955714D01*
X90317143Y-61289048D01*
X90269524Y-61479524D01*
X90174286Y-61574762D01*
X90079048Y-61622381D01*
X89888571Y-61622381D01*
X91269524Y-61622381D02*
X90698095Y-61622381D01*
X90983809Y-61622381D02*
X90983809Y-60622381D01*
X90888571Y-60765238D01*
X90793333Y-60860476D01*
X90698095Y-60908095D01*
X104904762Y-61717619D02*
X104809524Y-61670000D01*
X104714286Y-61574762D01*
X104571429Y-61431905D01*
X104476190Y-61384286D01*
X104380952Y-61384286D01*
X104428571Y-61622381D02*
X104333333Y-61574762D01*
X104238095Y-61479524D01*
X104190476Y-61289048D01*
X104190476Y-60955714D01*
X104238095Y-60765238D01*
X104333333Y-60670000D01*
X104428571Y-60622381D01*
X104619048Y-60622381D01*
X104714286Y-60670000D01*
X104809524Y-60765238D01*
X104857143Y-60955714D01*
X104857143Y-61289048D01*
X104809524Y-61479524D01*
X104714286Y-61574762D01*
X104619048Y-61622381D01*
X104428571Y-61622381D01*
X105238095Y-60717619D02*
X105285714Y-60670000D01*
X105380952Y-60622381D01*
X105619048Y-60622381D01*
X105714286Y-60670000D01*
X105761905Y-60717619D01*
X105809524Y-60812857D01*
X105809524Y-60908095D01*
X105761905Y-61050952D01*
X105190476Y-61622381D01*
X105809524Y-61622381D01*
X119154762Y-61717619D02*
X119059524Y-61670000D01*
X118964286Y-61574762D01*
X118821429Y-61431905D01*
X118726190Y-61384286D01*
X118630952Y-61384286D01*
X118678571Y-61622381D02*
X118583333Y-61574762D01*
X118488095Y-61479524D01*
X118440476Y-61289048D01*
X118440476Y-60955714D01*
X118488095Y-60765238D01*
X118583333Y-60670000D01*
X118678571Y-60622381D01*
X118869048Y-60622381D01*
X118964286Y-60670000D01*
X119059524Y-60765238D01*
X119107143Y-60955714D01*
X119107143Y-61289048D01*
X119059524Y-61479524D01*
X118964286Y-61574762D01*
X118869048Y-61622381D01*
X118678571Y-61622381D01*
X119440476Y-60622381D02*
X120059524Y-60622381D01*
X119726190Y-61003333D01*
X119869048Y-61003333D01*
X119964286Y-61050952D01*
X120011905Y-61098571D01*
X120059524Y-61193810D01*
X120059524Y-61431905D01*
X120011905Y-61527143D01*
X119964286Y-61574762D01*
X119869048Y-61622381D01*
X119583333Y-61622381D01*
X119488095Y-61574762D01*
X119440476Y-61527143D01*
X88812381Y-90266666D02*
X88336190Y-90600000D01*
X88812381Y-90838095D02*
X87812381Y-90838095D01*
X87812381Y-90457142D01*
X87860000Y-90361904D01*
X87907619Y-90314285D01*
X88002857Y-90266666D01*
X88145714Y-90266666D01*
X88240952Y-90314285D01*
X88288571Y-90361904D01*
X88336190Y-90457142D01*
X88336190Y-90838095D01*
X88812381Y-89790476D02*
X88812381Y-89600000D01*
X88764762Y-89504761D01*
X88717143Y-89457142D01*
X88574286Y-89361904D01*
X88383810Y-89314285D01*
X88002857Y-89314285D01*
X87907619Y-89361904D01*
X87860000Y-89409523D01*
X87812381Y-89504761D01*
X87812381Y-89695238D01*
X87860000Y-89790476D01*
X87907619Y-89838095D01*
X88002857Y-89885714D01*
X88240952Y-89885714D01*
X88336190Y-89838095D01*
X88383810Y-89790476D01*
X88431429Y-89695238D01*
X88431429Y-89504761D01*
X88383810Y-89409523D01*
X88336190Y-89361904D01*
X88240952Y-89314285D01*
X99612381Y-107892857D02*
X99136190Y-108226191D01*
X99612381Y-108464286D02*
X98612381Y-108464286D01*
X98612381Y-108083333D01*
X98660000Y-107988095D01*
X98707619Y-107940476D01*
X98802857Y-107892857D01*
X98945714Y-107892857D01*
X99040952Y-107940476D01*
X99088571Y-107988095D01*
X99136190Y-108083333D01*
X99136190Y-108464286D01*
X99612381Y-106940476D02*
X99612381Y-107511905D01*
X99612381Y-107226191D02*
X98612381Y-107226191D01*
X98755238Y-107321429D01*
X98850476Y-107416667D01*
X98898095Y-107511905D01*
X98612381Y-106321429D02*
X98612381Y-106226190D01*
X98660000Y-106130952D01*
X98707619Y-106083333D01*
X98802857Y-106035714D01*
X98993333Y-105988095D01*
X99231429Y-105988095D01*
X99421905Y-106035714D01*
X99517143Y-106083333D01*
X99564762Y-106130952D01*
X99612381Y-106226190D01*
X99612381Y-106321429D01*
X99564762Y-106416667D01*
X99517143Y-106464286D01*
X99421905Y-106511905D01*
X99231429Y-106559524D01*
X98993333Y-106559524D01*
X98802857Y-106511905D01*
X98707619Y-106464286D01*
X98660000Y-106416667D01*
X98612381Y-106321429D01*
X100807143Y-118392381D02*
X100473809Y-117916190D01*
X100235714Y-118392381D02*
X100235714Y-117392381D01*
X100616667Y-117392381D01*
X100711905Y-117440000D01*
X100759524Y-117487619D01*
X100807143Y-117582857D01*
X100807143Y-117725714D01*
X100759524Y-117820952D01*
X100711905Y-117868571D01*
X100616667Y-117916190D01*
X100235714Y-117916190D01*
X101759524Y-118392381D02*
X101188095Y-118392381D01*
X101473809Y-118392381D02*
X101473809Y-117392381D01*
X101378571Y-117535238D01*
X101283333Y-117630476D01*
X101188095Y-117678095D01*
X102711905Y-118392381D02*
X102140476Y-118392381D01*
X102426190Y-118392381D02*
X102426190Y-117392381D01*
X102330952Y-117535238D01*
X102235714Y-117630476D01*
X102140476Y-117678095D01*
X94312381Y-90742857D02*
X93836190Y-91076191D01*
X94312381Y-91314286D02*
X93312381Y-91314286D01*
X93312381Y-90933333D01*
X93360000Y-90838095D01*
X93407619Y-90790476D01*
X93502857Y-90742857D01*
X93645714Y-90742857D01*
X93740952Y-90790476D01*
X93788571Y-90838095D01*
X93836190Y-90933333D01*
X93836190Y-91314286D01*
X94312381Y-89790476D02*
X94312381Y-90361905D01*
X94312381Y-90076191D02*
X93312381Y-90076191D01*
X93455238Y-90171429D01*
X93550476Y-90266667D01*
X93598095Y-90361905D01*
X93407619Y-89409524D02*
X93360000Y-89361905D01*
X93312381Y-89266667D01*
X93312381Y-89028571D01*
X93360000Y-88933333D01*
X93407619Y-88885714D01*
X93502857Y-88838095D01*
X93598095Y-88838095D01*
X93740952Y-88885714D01*
X94312381Y-89457143D01*
X94312381Y-88838095D01*
X104912381Y-107992857D02*
X104436190Y-108326191D01*
X104912381Y-108564286D02*
X103912381Y-108564286D01*
X103912381Y-108183333D01*
X103960000Y-108088095D01*
X104007619Y-108040476D01*
X104102857Y-107992857D01*
X104245714Y-107992857D01*
X104340952Y-108040476D01*
X104388571Y-108088095D01*
X104436190Y-108183333D01*
X104436190Y-108564286D01*
X104912381Y-107040476D02*
X104912381Y-107611905D01*
X104912381Y-107326191D02*
X103912381Y-107326191D01*
X104055238Y-107421429D01*
X104150476Y-107516667D01*
X104198095Y-107611905D01*
X103912381Y-106707143D02*
X103912381Y-106088095D01*
X104293333Y-106421429D01*
X104293333Y-106278571D01*
X104340952Y-106183333D01*
X104388571Y-106135714D01*
X104483810Y-106088095D01*
X104721905Y-106088095D01*
X104817143Y-106135714D01*
X104864762Y-106183333D01*
X104912381Y-106278571D01*
X104912381Y-106564286D01*
X104864762Y-106659524D01*
X104817143Y-106707143D01*
X110192381Y-110892857D02*
X109716190Y-111226191D01*
X110192381Y-111464286D02*
X109192381Y-111464286D01*
X109192381Y-111083333D01*
X109240000Y-110988095D01*
X109287619Y-110940476D01*
X109382857Y-110892857D01*
X109525714Y-110892857D01*
X109620952Y-110940476D01*
X109668571Y-110988095D01*
X109716190Y-111083333D01*
X109716190Y-111464286D01*
X110192381Y-109940476D02*
X110192381Y-110511905D01*
X110192381Y-110226191D02*
X109192381Y-110226191D01*
X109335238Y-110321429D01*
X109430476Y-110416667D01*
X109478095Y-110511905D01*
X109525714Y-109083333D02*
X110192381Y-109083333D01*
X109144762Y-109321429D02*
X109859048Y-109559524D01*
X109859048Y-108940476D01*
X99562381Y-90742857D02*
X99086190Y-91076191D01*
X99562381Y-91314286D02*
X98562381Y-91314286D01*
X98562381Y-90933333D01*
X98610000Y-90838095D01*
X98657619Y-90790476D01*
X98752857Y-90742857D01*
X98895714Y-90742857D01*
X98990952Y-90790476D01*
X99038571Y-90838095D01*
X99086190Y-90933333D01*
X99086190Y-91314286D01*
X99562381Y-89790476D02*
X99562381Y-90361905D01*
X99562381Y-90076191D02*
X98562381Y-90076191D01*
X98705238Y-90171429D01*
X98800476Y-90266667D01*
X98848095Y-90361905D01*
X98562381Y-88885714D02*
X98562381Y-89361905D01*
X99038571Y-89409524D01*
X98990952Y-89361905D01*
X98943333Y-89266667D01*
X98943333Y-89028571D01*
X98990952Y-88933333D01*
X99038571Y-88885714D01*
X99133810Y-88838095D01*
X99371905Y-88838095D01*
X99467143Y-88885714D01*
X99514762Y-88933333D01*
X99562381Y-89028571D01*
X99562381Y-89266667D01*
X99514762Y-89361905D01*
X99467143Y-89409524D01*
X110312381Y-110892857D02*
X109836190Y-111226191D01*
X110312381Y-111464286D02*
X109312381Y-111464286D01*
X109312381Y-111083333D01*
X109360000Y-110988095D01*
X109407619Y-110940476D01*
X109502857Y-110892857D01*
X109645714Y-110892857D01*
X109740952Y-110940476D01*
X109788571Y-110988095D01*
X109836190Y-111083333D01*
X109836190Y-111464286D01*
X110312381Y-109940476D02*
X110312381Y-110511905D01*
X110312381Y-110226191D02*
X109312381Y-110226191D01*
X109455238Y-110321429D01*
X109550476Y-110416667D01*
X109598095Y-110511905D01*
X109312381Y-109083333D02*
X109312381Y-109273810D01*
X109360000Y-109369048D01*
X109407619Y-109416667D01*
X109550476Y-109511905D01*
X109740952Y-109559524D01*
X110121905Y-109559524D01*
X110217143Y-109511905D01*
X110264762Y-109464286D01*
X110312381Y-109369048D01*
X110312381Y-109178571D01*
X110264762Y-109083333D01*
X110217143Y-109035714D01*
X110121905Y-108988095D01*
X109883810Y-108988095D01*
X109788571Y-109035714D01*
X109740952Y-109083333D01*
X109693333Y-109178571D01*
X109693333Y-109369048D01*
X109740952Y-109464286D01*
X109788571Y-109511905D01*
X109883810Y-109559524D01*
X117292381Y-118492857D02*
X116816190Y-118826191D01*
X117292381Y-119064286D02*
X116292381Y-119064286D01*
X116292381Y-118683333D01*
X116340000Y-118588095D01*
X116387619Y-118540476D01*
X116482857Y-118492857D01*
X116625714Y-118492857D01*
X116720952Y-118540476D01*
X116768571Y-118588095D01*
X116816190Y-118683333D01*
X116816190Y-119064286D01*
X117292381Y-117540476D02*
X117292381Y-118111905D01*
X117292381Y-117826191D02*
X116292381Y-117826191D01*
X116435238Y-117921429D01*
X116530476Y-118016667D01*
X116578095Y-118111905D01*
X116292381Y-117207143D02*
X116292381Y-116540476D01*
X117292381Y-116969048D01*
X88792381Y-107458095D02*
X87792381Y-107458095D01*
X87792381Y-107220000D01*
X87840000Y-107077142D01*
X87935238Y-106981904D01*
X88030476Y-106934285D01*
X88220952Y-106886666D01*
X88363810Y-106886666D01*
X88554286Y-106934285D01*
X88649524Y-106981904D01*
X88744762Y-107077142D01*
X88792381Y-107220000D01*
X88792381Y-107458095D01*
X88792381Y-106410476D02*
X88792381Y-106220000D01*
X88744762Y-106124761D01*
X88697143Y-106077142D01*
X88554286Y-105981904D01*
X88363810Y-105934285D01*
X87982857Y-105934285D01*
X87887619Y-105981904D01*
X87840000Y-106029523D01*
X87792381Y-106124761D01*
X87792381Y-106315238D01*
X87840000Y-106410476D01*
X87887619Y-106458095D01*
X87982857Y-106505714D01*
X88220952Y-106505714D01*
X88316190Y-106458095D01*
X88363810Y-106410476D01*
X88411429Y-106315238D01*
X88411429Y-106124761D01*
X88363810Y-106029523D01*
X88316190Y-105981904D01*
X88220952Y-105934285D01*
X90114762Y-159377619D02*
X90019524Y-159330000D01*
X89924286Y-159234762D01*
X89781429Y-159091905D01*
X89686190Y-159044286D01*
X89590952Y-159044286D01*
X89638571Y-159282381D02*
X89543333Y-159234762D01*
X89448095Y-159139524D01*
X89400476Y-158949048D01*
X89400476Y-158615714D01*
X89448095Y-158425238D01*
X89543333Y-158330000D01*
X89638571Y-158282381D01*
X89829048Y-158282381D01*
X89924286Y-158330000D01*
X90019524Y-158425238D01*
X90067143Y-158615714D01*
X90067143Y-158949048D01*
X90019524Y-159139524D01*
X89924286Y-159234762D01*
X89829048Y-159282381D01*
X89638571Y-159282381D01*
X90924286Y-158615714D02*
X90924286Y-159282381D01*
X90686190Y-158234762D02*
X90448095Y-158949048D01*
X91067143Y-158949048D01*
X101744762Y-159427619D02*
X101649524Y-159380000D01*
X101554286Y-159284762D01*
X101411429Y-159141905D01*
X101316190Y-159094286D01*
X101220952Y-159094286D01*
X101268571Y-159332381D02*
X101173333Y-159284762D01*
X101078095Y-159189524D01*
X101030476Y-158999048D01*
X101030476Y-158665714D01*
X101078095Y-158475238D01*
X101173333Y-158380000D01*
X101268571Y-158332381D01*
X101459048Y-158332381D01*
X101554286Y-158380000D01*
X101649524Y-158475238D01*
X101697143Y-158665714D01*
X101697143Y-158999048D01*
X101649524Y-159189524D01*
X101554286Y-159284762D01*
X101459048Y-159332381D01*
X101268571Y-159332381D01*
X102601905Y-158332381D02*
X102125714Y-158332381D01*
X102078095Y-158808571D01*
X102125714Y-158760952D01*
X102220952Y-158713333D01*
X102459048Y-158713333D01*
X102554286Y-158760952D01*
X102601905Y-158808571D01*
X102649524Y-158903810D01*
X102649524Y-159141905D01*
X102601905Y-159237143D01*
X102554286Y-159284762D01*
X102459048Y-159332381D01*
X102220952Y-159332381D01*
X102125714Y-159284762D01*
X102078095Y-159237143D01*
X113344762Y-159427619D02*
X113249524Y-159380000D01*
X113154286Y-159284762D01*
X113011429Y-159141905D01*
X112916190Y-159094286D01*
X112820952Y-159094286D01*
X112868571Y-159332381D02*
X112773333Y-159284762D01*
X112678095Y-159189524D01*
X112630476Y-158999048D01*
X112630476Y-158665714D01*
X112678095Y-158475238D01*
X112773333Y-158380000D01*
X112868571Y-158332381D01*
X113059048Y-158332381D01*
X113154286Y-158380000D01*
X113249524Y-158475238D01*
X113297143Y-158665714D01*
X113297143Y-158999048D01*
X113249524Y-159189524D01*
X113154286Y-159284762D01*
X113059048Y-159332381D01*
X112868571Y-159332381D01*
X114154286Y-158332381D02*
X113963809Y-158332381D01*
X113868571Y-158380000D01*
X113820952Y-158427619D01*
X113725714Y-158570476D01*
X113678095Y-158760952D01*
X113678095Y-159141905D01*
X113725714Y-159237143D01*
X113773333Y-159284762D01*
X113868571Y-159332381D01*
X114059048Y-159332381D01*
X114154286Y-159284762D01*
X114201905Y-159237143D01*
X114249524Y-159141905D01*
X114249524Y-158903810D01*
X114201905Y-158808571D01*
X114154286Y-158760952D01*
X114059048Y-158713333D01*
X113868571Y-158713333D01*
X113773333Y-158760952D01*
X113725714Y-158808571D01*
X113678095Y-158903810D01*
X189752381Y-143542857D02*
X189276190Y-143876191D01*
X189752381Y-144114286D02*
X188752381Y-144114286D01*
X188752381Y-143733333D01*
X188800000Y-143638095D01*
X188847619Y-143590476D01*
X188942857Y-143542857D01*
X189085714Y-143542857D01*
X189180952Y-143590476D01*
X189228571Y-143638095D01*
X189276190Y-143733333D01*
X189276190Y-144114286D01*
X189752381Y-142590476D02*
X189752381Y-143161905D01*
X189752381Y-142876191D02*
X188752381Y-142876191D01*
X188895238Y-142971429D01*
X188990476Y-143066667D01*
X189038095Y-143161905D01*
X189752381Y-142114286D02*
X189752381Y-141923810D01*
X189704762Y-141828571D01*
X189657143Y-141780952D01*
X189514286Y-141685714D01*
X189323810Y-141638095D01*
X188942857Y-141638095D01*
X188847619Y-141685714D01*
X188800000Y-141733333D01*
X188752381Y-141828571D01*
X188752381Y-142019048D01*
X188800000Y-142114286D01*
X188847619Y-142161905D01*
X188942857Y-142209524D01*
X189180952Y-142209524D01*
X189276190Y-142161905D01*
X189323810Y-142114286D01*
X189371429Y-142019048D01*
X189371429Y-141828571D01*
X189323810Y-141733333D01*
X189276190Y-141685714D01*
X189180952Y-141638095D01*
X186792381Y-131192857D02*
X186316190Y-131526191D01*
X186792381Y-131764286D02*
X185792381Y-131764286D01*
X185792381Y-131383333D01*
X185840000Y-131288095D01*
X185887619Y-131240476D01*
X185982857Y-131192857D01*
X186125714Y-131192857D01*
X186220952Y-131240476D01*
X186268571Y-131288095D01*
X186316190Y-131383333D01*
X186316190Y-131764286D01*
X185887619Y-130811905D02*
X185840000Y-130764286D01*
X185792381Y-130669048D01*
X185792381Y-130430952D01*
X185840000Y-130335714D01*
X185887619Y-130288095D01*
X185982857Y-130240476D01*
X186078095Y-130240476D01*
X186220952Y-130288095D01*
X186792381Y-130859524D01*
X186792381Y-130240476D01*
X185792381Y-129621429D02*
X185792381Y-129526190D01*
X185840000Y-129430952D01*
X185887619Y-129383333D01*
X185982857Y-129335714D01*
X186173333Y-129288095D01*
X186411429Y-129288095D01*
X186601905Y-129335714D01*
X186697143Y-129383333D01*
X186744762Y-129430952D01*
X186792381Y-129526190D01*
X186792381Y-129621429D01*
X186744762Y-129716667D01*
X186697143Y-129764286D01*
X186601905Y-129811905D01*
X186411429Y-129859524D01*
X186173333Y-129859524D01*
X185982857Y-129811905D01*
X185887619Y-129764286D01*
X185840000Y-129716667D01*
X185792381Y-129621429D01*
X189652381Y-131142857D02*
X189176190Y-131476191D01*
X189652381Y-131714286D02*
X188652381Y-131714286D01*
X188652381Y-131333333D01*
X188700000Y-131238095D01*
X188747619Y-131190476D01*
X188842857Y-131142857D01*
X188985714Y-131142857D01*
X189080952Y-131190476D01*
X189128571Y-131238095D01*
X189176190Y-131333333D01*
X189176190Y-131714286D01*
X188652381Y-130285714D02*
X188652381Y-130476191D01*
X188700000Y-130571429D01*
X188747619Y-130619048D01*
X188890476Y-130714286D01*
X189080952Y-130761905D01*
X189461905Y-130761905D01*
X189557143Y-130714286D01*
X189604762Y-130666667D01*
X189652381Y-130571429D01*
X189652381Y-130380952D01*
X189604762Y-130285714D01*
X189557143Y-130238095D01*
X189461905Y-130190476D01*
X189223810Y-130190476D01*
X189128571Y-130238095D01*
X189080952Y-130285714D01*
X189033333Y-130380952D01*
X189033333Y-130571429D01*
X189080952Y-130666667D01*
X189128571Y-130714286D01*
X189223810Y-130761905D01*
X188747619Y-129809524D02*
X188700000Y-129761905D01*
X188652381Y-129666667D01*
X188652381Y-129428571D01*
X188700000Y-129333333D01*
X188747619Y-129285714D01*
X188842857Y-129238095D01*
X188938095Y-129238095D01*
X189080952Y-129285714D01*
X189652381Y-129857143D01*
X189652381Y-129238095D01*
X199152381Y-143642857D02*
X198676190Y-143976191D01*
X199152381Y-144214286D02*
X198152381Y-144214286D01*
X198152381Y-143833333D01*
X198200000Y-143738095D01*
X198247619Y-143690476D01*
X198342857Y-143642857D01*
X198485714Y-143642857D01*
X198580952Y-143690476D01*
X198628571Y-143738095D01*
X198676190Y-143833333D01*
X198676190Y-144214286D01*
X198152381Y-142785714D02*
X198152381Y-142976191D01*
X198200000Y-143071429D01*
X198247619Y-143119048D01*
X198390476Y-143214286D01*
X198580952Y-143261905D01*
X198961905Y-143261905D01*
X199057143Y-143214286D01*
X199104762Y-143166667D01*
X199152381Y-143071429D01*
X199152381Y-142880952D01*
X199104762Y-142785714D01*
X199057143Y-142738095D01*
X198961905Y-142690476D01*
X198723810Y-142690476D01*
X198628571Y-142738095D01*
X198580952Y-142785714D01*
X198533333Y-142880952D01*
X198533333Y-143071429D01*
X198580952Y-143166667D01*
X198628571Y-143214286D01*
X198723810Y-143261905D01*
X198152381Y-141785714D02*
X198152381Y-142261905D01*
X198628571Y-142309524D01*
X198580952Y-142261905D01*
X198533333Y-142166667D01*
X198533333Y-141928571D01*
X198580952Y-141833333D01*
X198628571Y-141785714D01*
X198723810Y-141738095D01*
X198961905Y-141738095D01*
X199057143Y-141785714D01*
X199104762Y-141833333D01*
X199152381Y-141928571D01*
X199152381Y-142166667D01*
X199104762Y-142261905D01*
X199057143Y-142309524D01*
X198952381Y-131042857D02*
X198476190Y-131376191D01*
X198952381Y-131614286D02*
X197952381Y-131614286D01*
X197952381Y-131233333D01*
X198000000Y-131138095D01*
X198047619Y-131090476D01*
X198142857Y-131042857D01*
X198285714Y-131042857D01*
X198380952Y-131090476D01*
X198428571Y-131138095D01*
X198476190Y-131233333D01*
X198476190Y-131614286D01*
X197952381Y-130185714D02*
X197952381Y-130376191D01*
X198000000Y-130471429D01*
X198047619Y-130519048D01*
X198190476Y-130614286D01*
X198380952Y-130661905D01*
X198761905Y-130661905D01*
X198857143Y-130614286D01*
X198904762Y-130566667D01*
X198952381Y-130471429D01*
X198952381Y-130280952D01*
X198904762Y-130185714D01*
X198857143Y-130138095D01*
X198761905Y-130090476D01*
X198523810Y-130090476D01*
X198428571Y-130138095D01*
X198380952Y-130185714D01*
X198333333Y-130280952D01*
X198333333Y-130471429D01*
X198380952Y-130566667D01*
X198428571Y-130614286D01*
X198523810Y-130661905D01*
X197952381Y-129233333D02*
X197952381Y-129423810D01*
X198000000Y-129519048D01*
X198047619Y-129566667D01*
X198190476Y-129661905D01*
X198380952Y-129709524D01*
X198761905Y-129709524D01*
X198857143Y-129661905D01*
X198904762Y-129614286D01*
X198952381Y-129519048D01*
X198952381Y-129328571D01*
X198904762Y-129233333D01*
X198857143Y-129185714D01*
X198761905Y-129138095D01*
X198523810Y-129138095D01*
X198428571Y-129185714D01*
X198380952Y-129233333D01*
X198333333Y-129328571D01*
X198333333Y-129519048D01*
X198380952Y-129614286D01*
X198428571Y-129661905D01*
X198523810Y-129709524D01*
X172657143Y-130047143D02*
X172609524Y-130094762D01*
X172466667Y-130142381D01*
X172371429Y-130142381D01*
X172228571Y-130094762D01*
X172133333Y-129999524D01*
X172085714Y-129904286D01*
X172038095Y-129713810D01*
X172038095Y-129570952D01*
X172085714Y-129380476D01*
X172133333Y-129285238D01*
X172228571Y-129190000D01*
X172371429Y-129142381D01*
X172466667Y-129142381D01*
X172609524Y-129190000D01*
X172657143Y-129237619D01*
X173038095Y-129237619D02*
X173085714Y-129190000D01*
X173180952Y-129142381D01*
X173419048Y-129142381D01*
X173514286Y-129190000D01*
X173561905Y-129237619D01*
X173609524Y-129332857D01*
X173609524Y-129428095D01*
X173561905Y-129570952D01*
X172990476Y-130142381D01*
X173609524Y-130142381D01*
X174466667Y-129475714D02*
X174466667Y-130142381D01*
X174228571Y-129094762D02*
X173990476Y-129809048D01*
X174609524Y-129809048D01*
X172657143Y-135157143D02*
X172609524Y-135204762D01*
X172466667Y-135252381D01*
X172371429Y-135252381D01*
X172228571Y-135204762D01*
X172133333Y-135109524D01*
X172085714Y-135014286D01*
X172038095Y-134823810D01*
X172038095Y-134680952D01*
X172085714Y-134490476D01*
X172133333Y-134395238D01*
X172228571Y-134300000D01*
X172371429Y-134252381D01*
X172466667Y-134252381D01*
X172609524Y-134300000D01*
X172657143Y-134347619D01*
X173038095Y-134347619D02*
X173085714Y-134300000D01*
X173180952Y-134252381D01*
X173419048Y-134252381D01*
X173514286Y-134300000D01*
X173561905Y-134347619D01*
X173609524Y-134442857D01*
X173609524Y-134538095D01*
X173561905Y-134680952D01*
X172990476Y-135252381D01*
X173609524Y-135252381D01*
X174514286Y-134252381D02*
X174038095Y-134252381D01*
X173990476Y-134728571D01*
X174038095Y-134680952D01*
X174133333Y-134633333D01*
X174371429Y-134633333D01*
X174466667Y-134680952D01*
X174514286Y-134728571D01*
X174561905Y-134823810D01*
X174561905Y-135061905D01*
X174514286Y-135157143D01*
X174466667Y-135204762D01*
X174371429Y-135252381D01*
X174133333Y-135252381D01*
X174038095Y-135204762D01*
X173990476Y-135157143D01*
X111752381Y-138438095D02*
X110752381Y-138438095D01*
X110752381Y-138200000D01*
X110800000Y-138057142D01*
X110895238Y-137961904D01*
X110990476Y-137914285D01*
X111180952Y-137866666D01*
X111323810Y-137866666D01*
X111514286Y-137914285D01*
X111609524Y-137961904D01*
X111704762Y-138057142D01*
X111752381Y-138200000D01*
X111752381Y-138438095D01*
X111752381Y-136914285D02*
X111752381Y-137485714D01*
X111752381Y-137200000D02*
X110752381Y-137200000D01*
X110895238Y-137295238D01*
X110990476Y-137390476D01*
X111038095Y-137485714D01*
X180702381Y-134298095D02*
X179702381Y-134298095D01*
X179702381Y-134060000D01*
X179750000Y-133917142D01*
X179845238Y-133821904D01*
X179940476Y-133774285D01*
X180130952Y-133726666D01*
X180273810Y-133726666D01*
X180464286Y-133774285D01*
X180559524Y-133821904D01*
X180654762Y-133917142D01*
X180702381Y-134060000D01*
X180702381Y-134298095D01*
X179702381Y-133393333D02*
X179702381Y-132774285D01*
X180083333Y-133107619D01*
X180083333Y-132964761D01*
X180130952Y-132869523D01*
X180178571Y-132821904D01*
X180273810Y-132774285D01*
X180511905Y-132774285D01*
X180607143Y-132821904D01*
X180654762Y-132869523D01*
X180702381Y-132964761D01*
X180702381Y-133250476D01*
X180654762Y-133345714D01*
X180607143Y-133393333D01*
X118812381Y-133718095D02*
X117812381Y-133718095D01*
X117812381Y-133480000D01*
X117860000Y-133337142D01*
X117955238Y-133241904D01*
X118050476Y-133194285D01*
X118240952Y-133146666D01*
X118383810Y-133146666D01*
X118574286Y-133194285D01*
X118669524Y-133241904D01*
X118764762Y-133337142D01*
X118812381Y-133480000D01*
X118812381Y-133718095D01*
X118145714Y-132289523D02*
X118812381Y-132289523D01*
X117764762Y-132527619D02*
X118479048Y-132765714D01*
X118479048Y-132146666D01*
X163273810Y-132102381D02*
X163273810Y-131102381D01*
X164321429Y-132007143D02*
X164273810Y-132054762D01*
X164130953Y-132102381D01*
X164035715Y-132102381D01*
X163892857Y-132054762D01*
X163797619Y-131959524D01*
X163750000Y-131864286D01*
X163702381Y-131673810D01*
X163702381Y-131530952D01*
X163750000Y-131340476D01*
X163797619Y-131245238D01*
X163892857Y-131150000D01*
X164035715Y-131102381D01*
X164130953Y-131102381D01*
X164273810Y-131150000D01*
X164321429Y-131197619D01*
X164654762Y-131102381D02*
X165273810Y-131102381D01*
X164940476Y-131483333D01*
X165083334Y-131483333D01*
X165178572Y-131530952D01*
X165226191Y-131578571D01*
X165273810Y-131673810D01*
X165273810Y-131911905D01*
X165226191Y-132007143D01*
X165178572Y-132054762D01*
X165083334Y-132102381D01*
X164797619Y-132102381D01*
X164702381Y-132054762D01*
X164654762Y-132007143D01*
X166466667Y-122442381D02*
X166466667Y-123156667D01*
X166419047Y-123299524D01*
X166323809Y-123394762D01*
X166180952Y-123442381D01*
X166085714Y-123442381D01*
X166942857Y-123442381D02*
X166942857Y-122442381D01*
X167323810Y-122442381D01*
X167419048Y-122490000D01*
X167466667Y-122537619D01*
X167514286Y-122632857D01*
X167514286Y-122775714D01*
X167466667Y-122870952D01*
X167419048Y-122918571D01*
X167323810Y-122966190D01*
X166942857Y-122966190D01*
X167895238Y-122537619D02*
X167942857Y-122490000D01*
X168038095Y-122442381D01*
X168276191Y-122442381D01*
X168371429Y-122490000D01*
X168419048Y-122537619D01*
X168466667Y-122632857D01*
X168466667Y-122728095D01*
X168419048Y-122870952D01*
X167847619Y-123442381D01*
X168466667Y-123442381D01*
X160366667Y-122352381D02*
X160366667Y-123066667D01*
X160319047Y-123209524D01*
X160223809Y-123304762D01*
X160080952Y-123352381D01*
X159985714Y-123352381D01*
X160842857Y-123352381D02*
X160842857Y-122352381D01*
X161223810Y-122352381D01*
X161319048Y-122400000D01*
X161366667Y-122447619D01*
X161414286Y-122542857D01*
X161414286Y-122685714D01*
X161366667Y-122780952D01*
X161319048Y-122828571D01*
X161223810Y-122876190D01*
X160842857Y-122876190D01*
X161747619Y-122352381D02*
X162366667Y-122352381D01*
X162033333Y-122733333D01*
X162176191Y-122733333D01*
X162271429Y-122780952D01*
X162319048Y-122828571D01*
X162366667Y-122923810D01*
X162366667Y-123161905D01*
X162319048Y-123257143D01*
X162271429Y-123304762D01*
X162176191Y-123352381D01*
X161890476Y-123352381D01*
X161795238Y-123304762D01*
X161747619Y-123257143D01*
X106352381Y-125733333D02*
X107066667Y-125733333D01*
X107209524Y-125780953D01*
X107304762Y-125876191D01*
X107352381Y-126019048D01*
X107352381Y-126114286D01*
X107352381Y-125257143D02*
X106352381Y-125257143D01*
X106352381Y-124876190D01*
X106400000Y-124780952D01*
X106447619Y-124733333D01*
X106542857Y-124685714D01*
X106685714Y-124685714D01*
X106780952Y-124733333D01*
X106828571Y-124780952D01*
X106876190Y-124876190D01*
X106876190Y-125257143D01*
X106685714Y-123828571D02*
X107352381Y-123828571D01*
X106304762Y-124066667D02*
X107019048Y-124304762D01*
X107019048Y-123685714D01*
X110566667Y-125152381D02*
X110566667Y-125866667D01*
X110519047Y-126009524D01*
X110423809Y-126104762D01*
X110280952Y-126152381D01*
X110185714Y-126152381D01*
X111042857Y-126152381D02*
X111042857Y-125152381D01*
X111423810Y-125152381D01*
X111519048Y-125200000D01*
X111566667Y-125247619D01*
X111614286Y-125342857D01*
X111614286Y-125485714D01*
X111566667Y-125580952D01*
X111519048Y-125628571D01*
X111423810Y-125676190D01*
X111042857Y-125676190D01*
X112519048Y-125152381D02*
X112042857Y-125152381D01*
X111995238Y-125628571D01*
X112042857Y-125580952D01*
X112138095Y-125533333D01*
X112376191Y-125533333D01*
X112471429Y-125580952D01*
X112519048Y-125628571D01*
X112566667Y-125723810D01*
X112566667Y-125961905D01*
X112519048Y-126057143D01*
X112471429Y-126104762D01*
X112376191Y-126152381D01*
X112138095Y-126152381D01*
X112042857Y-126104762D01*
X111995238Y-126057143D01*
X100162381Y-131842857D02*
X99686190Y-132176191D01*
X100162381Y-132414286D02*
X99162381Y-132414286D01*
X99162381Y-132033333D01*
X99210000Y-131938095D01*
X99257619Y-131890476D01*
X99352857Y-131842857D01*
X99495714Y-131842857D01*
X99590952Y-131890476D01*
X99638571Y-131938095D01*
X99686190Y-132033333D01*
X99686190Y-132414286D01*
X99162381Y-131509524D02*
X99162381Y-130890476D01*
X99543333Y-131223810D01*
X99543333Y-131080952D01*
X99590952Y-130985714D01*
X99638571Y-130938095D01*
X99733810Y-130890476D01*
X99971905Y-130890476D01*
X100067143Y-130938095D01*
X100114762Y-130985714D01*
X100162381Y-131080952D01*
X100162381Y-131366667D01*
X100114762Y-131461905D01*
X100067143Y-131509524D01*
X100162381Y-130414286D02*
X100162381Y-130223810D01*
X100114762Y-130128571D01*
X100067143Y-130080952D01*
X99924286Y-129985714D01*
X99733810Y-129938095D01*
X99352857Y-129938095D01*
X99257619Y-129985714D01*
X99210000Y-130033333D01*
X99162381Y-130128571D01*
X99162381Y-130319048D01*
X99210000Y-130414286D01*
X99257619Y-130461905D01*
X99352857Y-130509524D01*
X99590952Y-130509524D01*
X99686190Y-130461905D01*
X99733810Y-130414286D01*
X99781429Y-130319048D01*
X99781429Y-130128571D01*
X99733810Y-130033333D01*
X99686190Y-129985714D01*
X99590952Y-129938095D01*
X106162381Y-135292857D02*
X105686190Y-135626191D01*
X106162381Y-135864286D02*
X105162381Y-135864286D01*
X105162381Y-135483333D01*
X105210000Y-135388095D01*
X105257619Y-135340476D01*
X105352857Y-135292857D01*
X105495714Y-135292857D01*
X105590952Y-135340476D01*
X105638571Y-135388095D01*
X105686190Y-135483333D01*
X105686190Y-135864286D01*
X105495714Y-134435714D02*
X106162381Y-134435714D01*
X105114762Y-134673810D02*
X105829048Y-134911905D01*
X105829048Y-134292857D01*
X105162381Y-133721429D02*
X105162381Y-133626190D01*
X105210000Y-133530952D01*
X105257619Y-133483333D01*
X105352857Y-133435714D01*
X105543333Y-133388095D01*
X105781429Y-133388095D01*
X105971905Y-133435714D01*
X106067143Y-133483333D01*
X106114762Y-133530952D01*
X106162381Y-133626190D01*
X106162381Y-133721429D01*
X106114762Y-133816667D01*
X106067143Y-133864286D01*
X105971905Y-133911905D01*
X105781429Y-133959524D01*
X105543333Y-133959524D01*
X105352857Y-133911905D01*
X105257619Y-133864286D01*
X105210000Y-133816667D01*
X105162381Y-133721429D01*
D16*
X232389429Y-99416857D02*
X232607143Y-99489429D01*
X232970000Y-99489429D01*
X233115143Y-99416857D01*
X233187714Y-99344286D01*
X233260286Y-99199143D01*
X233260286Y-99054000D01*
X233187714Y-98908857D01*
X233115143Y-98836286D01*
X232970000Y-98763714D01*
X232679714Y-98691143D01*
X232534572Y-98618571D01*
X232462000Y-98546000D01*
X232389429Y-98400857D01*
X232389429Y-98255714D01*
X232462000Y-98110571D01*
X232534572Y-98038000D01*
X232679714Y-97965429D01*
X233042572Y-97965429D01*
X233260286Y-98038000D01*
X233913429Y-99489429D02*
X233913429Y-97965429D01*
X233913429Y-98691143D02*
X234784286Y-98691143D01*
X234784286Y-99489429D02*
X234784286Y-97965429D01*
X235510000Y-99489429D02*
X235510000Y-97965429D01*
X236235714Y-98691143D02*
X236743714Y-98691143D01*
X236961428Y-99489429D02*
X236235714Y-99489429D01*
X236235714Y-97965429D01*
X236961428Y-97965429D01*
X238340285Y-99489429D02*
X237614571Y-99489429D01*
X237614571Y-97965429D01*
X238848285Y-99489429D02*
X238848285Y-97965429D01*
X239211142Y-97965429D01*
X239428857Y-98038000D01*
X239573999Y-98183143D01*
X239646571Y-98328286D01*
X239719142Y-98618571D01*
X239719142Y-98836286D01*
X239646571Y-99126571D01*
X239573999Y-99271714D01*
X239428857Y-99416857D01*
X239211142Y-99489429D01*
X238848285Y-99489429D01*
X241170571Y-99489429D02*
X240299714Y-99489429D01*
X240735142Y-99489429D02*
X240735142Y-97965429D01*
X240589999Y-98183143D01*
X240444857Y-98328286D01*
X240299714Y-98400857D01*
D12*
X89944762Y-128300952D02*
X89992381Y-128158095D01*
X89992381Y-127919999D01*
X89944762Y-127824761D01*
X89897143Y-127777142D01*
X89801905Y-127729523D01*
X89706667Y-127729523D01*
X89611429Y-127777142D01*
X89563810Y-127824761D01*
X89516190Y-127919999D01*
X89468571Y-128110476D01*
X89420952Y-128205714D01*
X89373333Y-128253333D01*
X89278095Y-128300952D01*
X89182857Y-128300952D01*
X89087619Y-128253333D01*
X89040000Y-128205714D01*
X88992381Y-128110476D01*
X88992381Y-127872380D01*
X89040000Y-127729523D01*
X89992381Y-127300952D02*
X88992381Y-127300952D01*
X89468571Y-127300952D02*
X89468571Y-126729523D01*
X89992381Y-126729523D02*
X88992381Y-126729523D01*
X89992381Y-126253333D02*
X88992381Y-126253333D01*
X89468571Y-125777143D02*
X89468571Y-125443809D01*
X89992381Y-125300952D02*
X89992381Y-125777143D01*
X88992381Y-125777143D01*
X88992381Y-125300952D01*
X89992381Y-124396190D02*
X89992381Y-124872381D01*
X88992381Y-124872381D01*
X89992381Y-124062857D02*
X88992381Y-124062857D01*
X88992381Y-123824762D01*
X89040000Y-123681904D01*
X89135238Y-123586666D01*
X89230476Y-123539047D01*
X89420952Y-123491428D01*
X89563810Y-123491428D01*
X89754286Y-123539047D01*
X89849524Y-123586666D01*
X89944762Y-123681904D01*
X89992381Y-123824762D01*
X89992381Y-124062857D01*
X89087619Y-123110476D02*
X89040000Y-123062857D01*
X88992381Y-122967619D01*
X88992381Y-122729523D01*
X89040000Y-122634285D01*
X89087619Y-122586666D01*
X89182857Y-122539047D01*
X89278095Y-122539047D01*
X89420952Y-122586666D01*
X89992381Y-123158095D01*
X89992381Y-122539047D01*
X172278571Y-153385714D02*
X172326190Y-153242857D01*
X172373810Y-153195238D01*
X172469048Y-153147619D01*
X172611905Y-153147619D01*
X172707143Y-153195238D01*
X172754762Y-153242857D01*
X172802381Y-153338095D01*
X172802381Y-153719048D01*
X171802381Y-153719048D01*
X171802381Y-153385714D01*
X171850000Y-153290476D01*
X171897619Y-153242857D01*
X171992857Y-153195238D01*
X172088095Y-153195238D01*
X172183333Y-153242857D01*
X172230952Y-153290476D01*
X172278571Y-153385714D01*
X172278571Y-153719048D01*
X171802381Y-152861905D02*
X171802381Y-152290476D01*
X172802381Y-152576191D02*
X171802381Y-152576191D01*
X172802381Y-151433333D02*
X172802381Y-152004762D01*
X172802381Y-151719048D02*
X171802381Y-151719048D01*
X171945238Y-151814286D01*
X172040476Y-151909524D01*
X172088095Y-152004762D01*
X164364762Y-159427619D02*
X164269524Y-159380000D01*
X164174286Y-159284762D01*
X164031429Y-159141905D01*
X163936190Y-159094286D01*
X163840952Y-159094286D01*
X163888571Y-159332381D02*
X163793333Y-159284762D01*
X163698095Y-159189524D01*
X163650476Y-158999048D01*
X163650476Y-158665714D01*
X163698095Y-158475238D01*
X163793333Y-158380000D01*
X163888571Y-158332381D01*
X164079048Y-158332381D01*
X164174286Y-158380000D01*
X164269524Y-158475238D01*
X164317143Y-158665714D01*
X164317143Y-158999048D01*
X164269524Y-159189524D01*
X164174286Y-159284762D01*
X164079048Y-159332381D01*
X163888571Y-159332381D01*
X164650476Y-158332381D02*
X165317143Y-158332381D01*
X164888571Y-159332381D01*
X150152381Y-137342857D02*
X149676190Y-137676191D01*
X150152381Y-137914286D02*
X149152381Y-137914286D01*
X149152381Y-137533333D01*
X149200000Y-137438095D01*
X149247619Y-137390476D01*
X149342857Y-137342857D01*
X149485714Y-137342857D01*
X149580952Y-137390476D01*
X149628571Y-137438095D01*
X149676190Y-137533333D01*
X149676190Y-137914286D01*
X149152381Y-136438095D02*
X149152381Y-136914286D01*
X149628571Y-136961905D01*
X149580952Y-136914286D01*
X149533333Y-136819048D01*
X149533333Y-136580952D01*
X149580952Y-136485714D01*
X149628571Y-136438095D01*
X149723810Y-136390476D01*
X149961905Y-136390476D01*
X150057143Y-136438095D01*
X150104762Y-136485714D01*
X150152381Y-136580952D01*
X150152381Y-136819048D01*
X150104762Y-136914286D01*
X150057143Y-136961905D01*
X149152381Y-135485714D02*
X149152381Y-135961905D01*
X149628571Y-136009524D01*
X149580952Y-135961905D01*
X149533333Y-135866667D01*
X149533333Y-135628571D01*
X149580952Y-135533333D01*
X149628571Y-135485714D01*
X149723810Y-135438095D01*
X149961905Y-135438095D01*
X150057143Y-135485714D01*
X150104762Y-135533333D01*
X150152381Y-135628571D01*
X150152381Y-135866667D01*
X150104762Y-135961905D01*
X150057143Y-136009524D01*
X154652381Y-137342857D02*
X154176190Y-137676191D01*
X154652381Y-137914286D02*
X153652381Y-137914286D01*
X153652381Y-137533333D01*
X153700000Y-137438095D01*
X153747619Y-137390476D01*
X153842857Y-137342857D01*
X153985714Y-137342857D01*
X154080952Y-137390476D01*
X154128571Y-137438095D01*
X154176190Y-137533333D01*
X154176190Y-137914286D01*
X153652381Y-136438095D02*
X153652381Y-136914286D01*
X154128571Y-136961905D01*
X154080952Y-136914286D01*
X154033333Y-136819048D01*
X154033333Y-136580952D01*
X154080952Y-136485714D01*
X154128571Y-136438095D01*
X154223810Y-136390476D01*
X154461905Y-136390476D01*
X154557143Y-136438095D01*
X154604762Y-136485714D01*
X154652381Y-136580952D01*
X154652381Y-136819048D01*
X154604762Y-136914286D01*
X154557143Y-136961905D01*
X153652381Y-136057143D02*
X153652381Y-135390476D01*
X154652381Y-135819048D01*
X177177143Y-127272381D02*
X176843809Y-126796190D01*
X176605714Y-127272381D02*
X176605714Y-126272381D01*
X176986667Y-126272381D01*
X177081905Y-126320000D01*
X177129524Y-126367619D01*
X177177143Y-126462857D01*
X177177143Y-126605714D01*
X177129524Y-126700952D01*
X177081905Y-126748571D01*
X176986667Y-126796190D01*
X176605714Y-126796190D01*
X178081905Y-126272381D02*
X177605714Y-126272381D01*
X177558095Y-126748571D01*
X177605714Y-126700952D01*
X177700952Y-126653333D01*
X177939048Y-126653333D01*
X178034286Y-126700952D01*
X178081905Y-126748571D01*
X178129524Y-126843810D01*
X178129524Y-127081905D01*
X178081905Y-127177143D01*
X178034286Y-127224762D01*
X177939048Y-127272381D01*
X177700952Y-127272381D01*
X177605714Y-127224762D01*
X177558095Y-127177143D01*
X178605714Y-127272381D02*
X178796190Y-127272381D01*
X178891429Y-127224762D01*
X178939048Y-127177143D01*
X179034286Y-127034286D01*
X179081905Y-126843810D01*
X179081905Y-126462857D01*
X179034286Y-126367619D01*
X178986667Y-126320000D01*
X178891429Y-126272381D01*
X178700952Y-126272381D01*
X178605714Y-126320000D01*
X178558095Y-126367619D01*
X178510476Y-126462857D01*
X178510476Y-126700952D01*
X178558095Y-126796190D01*
X178605714Y-126843810D01*
X178700952Y-126891429D01*
X178891429Y-126891429D01*
X178986667Y-126843810D01*
X179034286Y-126796190D01*
X179081905Y-126700952D01*
X210593810Y-140222381D02*
X210593810Y-139222381D01*
X211641429Y-140127143D02*
X211593810Y-140174762D01*
X211450953Y-140222381D01*
X211355715Y-140222381D01*
X211212857Y-140174762D01*
X211117619Y-140079524D01*
X211070000Y-139984286D01*
X211022381Y-139793810D01*
X211022381Y-139650952D01*
X211070000Y-139460476D01*
X211117619Y-139365238D01*
X211212857Y-139270000D01*
X211355715Y-139222381D01*
X211450953Y-139222381D01*
X211593810Y-139270000D01*
X211641429Y-139317619D01*
X212593810Y-140222381D02*
X212022381Y-140222381D01*
X212308095Y-140222381D02*
X212308095Y-139222381D01*
X212212857Y-139365238D01*
X212117619Y-139460476D01*
X212022381Y-139508095D01*
X137614286Y-150804762D02*
X137757143Y-150852381D01*
X137995239Y-150852381D01*
X138090477Y-150804762D01*
X138138096Y-150757143D01*
X138185715Y-150661905D01*
X138185715Y-150566667D01*
X138138096Y-150471429D01*
X138090477Y-150423810D01*
X137995239Y-150376190D01*
X137804762Y-150328571D01*
X137709524Y-150280952D01*
X137661905Y-150233333D01*
X137614286Y-150138095D01*
X137614286Y-150042857D01*
X137661905Y-149947619D01*
X137709524Y-149900000D01*
X137804762Y-149852381D01*
X138042858Y-149852381D01*
X138185715Y-149900000D01*
X138614286Y-150328571D02*
X138947620Y-150328571D01*
X139090477Y-150852381D02*
X138614286Y-150852381D01*
X138614286Y-149852381D01*
X139090477Y-149852381D01*
X140090477Y-150852381D02*
X139757143Y-150376190D01*
X139519048Y-150852381D02*
X139519048Y-149852381D01*
X139900001Y-149852381D01*
X139995239Y-149900000D01*
X140042858Y-149947619D01*
X140090477Y-150042857D01*
X140090477Y-150185714D01*
X140042858Y-150280952D01*
X139995239Y-150328571D01*
X139900001Y-150376190D01*
X139519048Y-150376190D01*
X140519048Y-150852381D02*
X140519048Y-149852381D01*
X140947619Y-150566667D02*
X141423810Y-150566667D01*
X140852381Y-150852381D02*
X141185714Y-149852381D01*
X141519048Y-150852381D01*
X142328572Y-150852381D02*
X141852381Y-150852381D01*
X141852381Y-149852381D01*
X142566667Y-149852381D02*
X143185715Y-149852381D01*
X142852381Y-150233333D01*
X142995239Y-150233333D01*
X143090477Y-150280952D01*
X143138096Y-150328571D01*
X143185715Y-150423810D01*
X143185715Y-150661905D01*
X143138096Y-150757143D01*
X143090477Y-150804762D01*
X142995239Y-150852381D01*
X142709524Y-150852381D01*
X142614286Y-150804762D01*
X142566667Y-150757143D01*
X222157143Y-149502857D02*
X222204762Y-149550476D01*
X222252381Y-149693333D01*
X222252381Y-149788571D01*
X222204762Y-149931429D01*
X222109524Y-150026667D01*
X222014286Y-150074286D01*
X221823810Y-150121905D01*
X221680952Y-150121905D01*
X221490476Y-150074286D01*
X221395238Y-150026667D01*
X221300000Y-149931429D01*
X221252381Y-149788571D01*
X221252381Y-149693333D01*
X221300000Y-149550476D01*
X221347619Y-149502857D01*
X222252381Y-148550476D02*
X222252381Y-149121905D01*
X222252381Y-148836191D02*
X221252381Y-148836191D01*
X221395238Y-148931429D01*
X221490476Y-149026667D01*
X221538095Y-149121905D01*
X222252381Y-147598095D02*
X222252381Y-148169524D01*
X222252381Y-147883810D02*
X221252381Y-147883810D01*
X221395238Y-147979048D01*
X221490476Y-148074286D01*
X221538095Y-148169524D01*
X147438096Y-114652381D02*
X147438096Y-115366667D01*
X147390476Y-115509524D01*
X147295238Y-115604762D01*
X147152381Y-115652381D01*
X147057143Y-115652381D01*
X147914286Y-115652381D02*
X147914286Y-114652381D01*
X148295239Y-114652381D01*
X148390477Y-114700000D01*
X148438096Y-114747619D01*
X148485715Y-114842857D01*
X148485715Y-114985714D01*
X148438096Y-115080952D01*
X148390477Y-115128571D01*
X148295239Y-115176190D01*
X147914286Y-115176190D01*
X148914286Y-115271429D02*
X149676191Y-115271429D01*
X150152381Y-115652381D02*
X150152381Y-114652381D01*
X151152381Y-114700000D02*
X151057143Y-114652381D01*
X150914286Y-114652381D01*
X150771428Y-114700000D01*
X150676190Y-114795238D01*
X150628571Y-114890476D01*
X150580952Y-115080952D01*
X150580952Y-115223810D01*
X150628571Y-115414286D01*
X150676190Y-115509524D01*
X150771428Y-115604762D01*
X150914286Y-115652381D01*
X151009524Y-115652381D01*
X151152381Y-115604762D01*
X151200000Y-115557143D01*
X151200000Y-115223810D01*
X151009524Y-115223810D01*
X151628571Y-115652381D02*
X151628571Y-114652381D01*
X152200000Y-115652381D01*
X152200000Y-114652381D01*
X152676190Y-115271429D02*
X153438095Y-115271429D01*
X154104761Y-114652381D02*
X154295238Y-114652381D01*
X154390476Y-114700000D01*
X154485714Y-114795238D01*
X154533333Y-114985714D01*
X154533333Y-115319048D01*
X154485714Y-115509524D01*
X154390476Y-115604762D01*
X154295238Y-115652381D01*
X154104761Y-115652381D01*
X154009523Y-115604762D01*
X153914285Y-115509524D01*
X153866666Y-115319048D01*
X153866666Y-114985714D01*
X153914285Y-114795238D01*
X154009523Y-114700000D01*
X154104761Y-114652381D01*
X154961904Y-114652381D02*
X154961904Y-115461905D01*
X155009523Y-115557143D01*
X155057142Y-115604762D01*
X155152380Y-115652381D01*
X155342857Y-115652381D01*
X155438095Y-115604762D01*
X155485714Y-115557143D01*
X155533333Y-115461905D01*
X155533333Y-114652381D01*
X155866666Y-114652381D02*
X156438095Y-114652381D01*
X156152380Y-115652381D02*
X156152380Y-114652381D01*
X157295238Y-115652381D02*
X156723809Y-115652381D01*
X157009523Y-115652381D02*
X157009523Y-114652381D01*
X156914285Y-114795238D01*
X156819047Y-114890476D01*
X156723809Y-114938095D01*
X207153334Y-118182381D02*
X206820000Y-117706190D01*
X206581905Y-118182381D02*
X206581905Y-117182381D01*
X206962858Y-117182381D01*
X207058096Y-117230000D01*
X207105715Y-117277619D01*
X207153334Y-117372857D01*
X207153334Y-117515714D01*
X207105715Y-117610952D01*
X207058096Y-117658571D01*
X206962858Y-117706190D01*
X206581905Y-117706190D01*
X208058096Y-117182381D02*
X207581905Y-117182381D01*
X207534286Y-117658571D01*
X207581905Y-117610952D01*
X207677143Y-117563333D01*
X207915239Y-117563333D01*
X208010477Y-117610952D01*
X208058096Y-117658571D01*
X208105715Y-117753810D01*
X208105715Y-117991905D01*
X208058096Y-118087143D01*
X208010477Y-118134762D01*
X207915239Y-118182381D01*
X207677143Y-118182381D01*
X207581905Y-118134762D01*
X207534286Y-118087143D01*
X135002381Y-133522857D02*
X134526190Y-133856191D01*
X135002381Y-134094286D02*
X134002381Y-134094286D01*
X134002381Y-133713333D01*
X134050000Y-133618095D01*
X134097619Y-133570476D01*
X134192857Y-133522857D01*
X134335714Y-133522857D01*
X134430952Y-133570476D01*
X134478571Y-133618095D01*
X134526190Y-133713333D01*
X134526190Y-134094286D01*
X134097619Y-133141905D02*
X134050000Y-133094286D01*
X134002381Y-132999048D01*
X134002381Y-132760952D01*
X134050000Y-132665714D01*
X134097619Y-132618095D01*
X134192857Y-132570476D01*
X134288095Y-132570476D01*
X134430952Y-132618095D01*
X135002381Y-133189524D01*
X135002381Y-132570476D01*
X134002381Y-132237143D02*
X134002381Y-131618095D01*
X134383333Y-131951429D01*
X134383333Y-131808571D01*
X134430952Y-131713333D01*
X134478571Y-131665714D01*
X134573810Y-131618095D01*
X134811905Y-131618095D01*
X134907143Y-131665714D01*
X134954762Y-131713333D01*
X135002381Y-131808571D01*
X135002381Y-132094286D01*
X134954762Y-132189524D01*
X134907143Y-132237143D01*
X139322381Y-134812857D02*
X138846190Y-135146191D01*
X139322381Y-135384286D02*
X138322381Y-135384286D01*
X138322381Y-135003333D01*
X138370000Y-134908095D01*
X138417619Y-134860476D01*
X138512857Y-134812857D01*
X138655714Y-134812857D01*
X138750952Y-134860476D01*
X138798571Y-134908095D01*
X138846190Y-135003333D01*
X138846190Y-135384286D01*
X138417619Y-134431905D02*
X138370000Y-134384286D01*
X138322381Y-134289048D01*
X138322381Y-134050952D01*
X138370000Y-133955714D01*
X138417619Y-133908095D01*
X138512857Y-133860476D01*
X138608095Y-133860476D01*
X138750952Y-133908095D01*
X139322381Y-134479524D01*
X139322381Y-133860476D01*
X138655714Y-133003333D02*
X139322381Y-133003333D01*
X138274762Y-133241429D02*
X138989048Y-133479524D01*
X138989048Y-132860476D01*
X215457143Y-140452381D02*
X215123809Y-139976190D01*
X214885714Y-140452381D02*
X214885714Y-139452381D01*
X215266667Y-139452381D01*
X215361905Y-139500000D01*
X215409524Y-139547619D01*
X215457143Y-139642857D01*
X215457143Y-139785714D01*
X215409524Y-139880952D01*
X215361905Y-139928571D01*
X215266667Y-139976190D01*
X214885714Y-139976190D01*
X215838095Y-139547619D02*
X215885714Y-139500000D01*
X215980952Y-139452381D01*
X216219048Y-139452381D01*
X216314286Y-139500000D01*
X216361905Y-139547619D01*
X216409524Y-139642857D01*
X216409524Y-139738095D01*
X216361905Y-139880952D01*
X215790476Y-140452381D01*
X216409524Y-140452381D01*
X217266667Y-139452381D02*
X217076190Y-139452381D01*
X216980952Y-139500000D01*
X216933333Y-139547619D01*
X216838095Y-139690476D01*
X216790476Y-139880952D01*
X216790476Y-140261905D01*
X216838095Y-140357143D01*
X216885714Y-140404762D01*
X216980952Y-140452381D01*
X217171429Y-140452381D01*
X217266667Y-140404762D01*
X217314286Y-140357143D01*
X217361905Y-140261905D01*
X217361905Y-140023810D01*
X217314286Y-139928571D01*
X217266667Y-139880952D01*
X217171429Y-139833333D01*
X216980952Y-139833333D01*
X216885714Y-139880952D01*
X216838095Y-139928571D01*
X216790476Y-140023810D01*
X212957143Y-128352381D02*
X212623809Y-127876190D01*
X212385714Y-128352381D02*
X212385714Y-127352381D01*
X212766667Y-127352381D01*
X212861905Y-127400000D01*
X212909524Y-127447619D01*
X212957143Y-127542857D01*
X212957143Y-127685714D01*
X212909524Y-127780952D01*
X212861905Y-127828571D01*
X212766667Y-127876190D01*
X212385714Y-127876190D01*
X213338095Y-127447619D02*
X213385714Y-127400000D01*
X213480952Y-127352381D01*
X213719048Y-127352381D01*
X213814286Y-127400000D01*
X213861905Y-127447619D01*
X213909524Y-127542857D01*
X213909524Y-127638095D01*
X213861905Y-127780952D01*
X213290476Y-128352381D01*
X213909524Y-128352381D01*
X214242857Y-127352381D02*
X214909524Y-127352381D01*
X214480952Y-128352381D01*
X212657143Y-132752381D02*
X212323809Y-132276190D01*
X212085714Y-132752381D02*
X212085714Y-131752381D01*
X212466667Y-131752381D01*
X212561905Y-131800000D01*
X212609524Y-131847619D01*
X212657143Y-131942857D01*
X212657143Y-132085714D01*
X212609524Y-132180952D01*
X212561905Y-132228571D01*
X212466667Y-132276190D01*
X212085714Y-132276190D01*
X213038095Y-131847619D02*
X213085714Y-131800000D01*
X213180952Y-131752381D01*
X213419048Y-131752381D01*
X213514286Y-131800000D01*
X213561905Y-131847619D01*
X213609524Y-131942857D01*
X213609524Y-132038095D01*
X213561905Y-132180952D01*
X212990476Y-132752381D01*
X213609524Y-132752381D01*
X214180952Y-132180952D02*
X214085714Y-132133333D01*
X214038095Y-132085714D01*
X213990476Y-131990476D01*
X213990476Y-131942857D01*
X214038095Y-131847619D01*
X214085714Y-131800000D01*
X214180952Y-131752381D01*
X214371429Y-131752381D01*
X214466667Y-131800000D01*
X214514286Y-131847619D01*
X214561905Y-131942857D01*
X214561905Y-131990476D01*
X214514286Y-132085714D01*
X214466667Y-132133333D01*
X214371429Y-132180952D01*
X214180952Y-132180952D01*
X214085714Y-132228571D01*
X214038095Y-132276190D01*
X213990476Y-132371429D01*
X213990476Y-132561905D01*
X214038095Y-132657143D01*
X214085714Y-132704762D01*
X214180952Y-132752381D01*
X214371429Y-132752381D01*
X214466667Y-132704762D01*
X214514286Y-132657143D01*
X214561905Y-132561905D01*
X214561905Y-132371429D01*
X214514286Y-132276190D01*
X214466667Y-132228571D01*
X214371429Y-132180952D01*
X203552381Y-149642857D02*
X203076190Y-149976191D01*
X203552381Y-150214286D02*
X202552381Y-150214286D01*
X202552381Y-149833333D01*
X202600000Y-149738095D01*
X202647619Y-149690476D01*
X202742857Y-149642857D01*
X202885714Y-149642857D01*
X202980952Y-149690476D01*
X203028571Y-149738095D01*
X203076190Y-149833333D01*
X203076190Y-150214286D01*
X202552381Y-149309524D02*
X202552381Y-148690476D01*
X202933333Y-149023810D01*
X202933333Y-148880952D01*
X202980952Y-148785714D01*
X203028571Y-148738095D01*
X203123810Y-148690476D01*
X203361905Y-148690476D01*
X203457143Y-148738095D01*
X203504762Y-148785714D01*
X203552381Y-148880952D01*
X203552381Y-149166667D01*
X203504762Y-149261905D01*
X203457143Y-149309524D01*
X202552381Y-147785714D02*
X202552381Y-148261905D01*
X203028571Y-148309524D01*
X202980952Y-148261905D01*
X202933333Y-148166667D01*
X202933333Y-147928571D01*
X202980952Y-147833333D01*
X203028571Y-147785714D01*
X203123810Y-147738095D01*
X203361905Y-147738095D01*
X203457143Y-147785714D01*
X203504762Y-147833333D01*
X203552381Y-147928571D01*
X203552381Y-148166667D01*
X203504762Y-148261905D01*
X203457143Y-148309524D01*
X203652381Y-131042857D02*
X203176190Y-131376191D01*
X203652381Y-131614286D02*
X202652381Y-131614286D01*
X202652381Y-131233333D01*
X202700000Y-131138095D01*
X202747619Y-131090476D01*
X202842857Y-131042857D01*
X202985714Y-131042857D01*
X203080952Y-131090476D01*
X203128571Y-131138095D01*
X203176190Y-131233333D01*
X203176190Y-131614286D01*
X202652381Y-130709524D02*
X202652381Y-130090476D01*
X203033333Y-130423810D01*
X203033333Y-130280952D01*
X203080952Y-130185714D01*
X203128571Y-130138095D01*
X203223810Y-130090476D01*
X203461905Y-130090476D01*
X203557143Y-130138095D01*
X203604762Y-130185714D01*
X203652381Y-130280952D01*
X203652381Y-130566667D01*
X203604762Y-130661905D01*
X203557143Y-130709524D01*
X202652381Y-129757143D02*
X202652381Y-129090476D01*
X203652381Y-129519048D01*
X213671429Y-111352381D02*
X213671429Y-110685714D01*
X213671429Y-110352381D02*
X213623810Y-110400000D01*
X213671429Y-110447619D01*
X213719048Y-110400000D01*
X213671429Y-110352381D01*
X213671429Y-110447619D01*
X214576191Y-110685714D02*
X214576191Y-111495238D01*
X214528572Y-111590476D01*
X214480953Y-111638095D01*
X214385714Y-111685714D01*
X214242857Y-111685714D01*
X214147619Y-111638095D01*
X214576191Y-111304762D02*
X214480953Y-111352381D01*
X214290476Y-111352381D01*
X214195238Y-111304762D01*
X214147619Y-111257143D01*
X214100000Y-111161905D01*
X214100000Y-110876190D01*
X214147619Y-110780952D01*
X214195238Y-110733333D01*
X214290476Y-110685714D01*
X214480953Y-110685714D01*
X214576191Y-110733333D01*
X215052381Y-110685714D02*
X215052381Y-111352381D01*
X215052381Y-110780952D02*
X215100000Y-110733333D01*
X215195238Y-110685714D01*
X215338096Y-110685714D01*
X215433334Y-110733333D01*
X215480953Y-110828571D01*
X215480953Y-111352381D01*
X216528572Y-111257143D02*
X216480953Y-111304762D01*
X216338096Y-111352381D01*
X216242858Y-111352381D01*
X216100000Y-111304762D01*
X216004762Y-111209524D01*
X215957143Y-111114286D01*
X215909524Y-110923810D01*
X215909524Y-110780952D01*
X215957143Y-110590476D01*
X216004762Y-110495238D01*
X216100000Y-110400000D01*
X216242858Y-110352381D01*
X216338096Y-110352381D01*
X216480953Y-110400000D01*
X216528572Y-110447619D01*
X216957143Y-111352381D02*
X216957143Y-110352381D01*
X217385715Y-111352381D02*
X217385715Y-110828571D01*
X217338096Y-110733333D01*
X217242858Y-110685714D01*
X217100000Y-110685714D01*
X217004762Y-110733333D01*
X216957143Y-110780952D01*
X217814286Y-110447619D02*
X217861905Y-110400000D01*
X217957143Y-110352381D01*
X218195239Y-110352381D01*
X218290477Y-110400000D01*
X218338096Y-110447619D01*
X218385715Y-110542857D01*
X218385715Y-110638095D01*
X218338096Y-110780952D01*
X217766667Y-111352381D01*
X218385715Y-111352381D01*
X218814286Y-110971429D02*
X219576191Y-110971429D01*
X219957143Y-110352381D02*
X220576191Y-110352381D01*
X220242857Y-110733333D01*
X220385715Y-110733333D01*
X220480953Y-110780952D01*
X220528572Y-110828571D01*
X220576191Y-110923810D01*
X220576191Y-111161905D01*
X220528572Y-111257143D01*
X220480953Y-111304762D01*
X220385715Y-111352381D01*
X220100000Y-111352381D01*
X220004762Y-111304762D01*
X219957143Y-111257143D01*
X75504762Y-108766667D02*
X75980953Y-108766667D01*
X75409524Y-109052381D02*
X75742857Y-108052381D01*
X76076191Y-109052381D01*
X76409524Y-108052381D02*
X76409524Y-108861905D01*
X76457143Y-108957143D01*
X76504762Y-109004762D01*
X76600000Y-109052381D01*
X76790477Y-109052381D01*
X76885715Y-109004762D01*
X76933334Y-108957143D01*
X76980953Y-108861905D01*
X76980953Y-108052381D01*
X77361905Y-108052381D02*
X78028572Y-109052381D01*
X78028572Y-108052381D02*
X77361905Y-109052381D01*
X78409524Y-108671429D02*
X79171429Y-108671429D01*
X79647619Y-109052381D02*
X79647619Y-108052381D01*
X80123809Y-109052381D02*
X80123809Y-108052381D01*
X80695238Y-109052381D01*
X80695238Y-108052381D01*
X81695238Y-109052381D02*
X81123809Y-109052381D01*
X81409523Y-109052381D02*
X81409523Y-108052381D01*
X81314285Y-108195238D01*
X81219047Y-108290476D01*
X81123809Y-108338095D01*
X78604762Y-116866667D02*
X79080953Y-116866667D01*
X78509524Y-117152381D02*
X78842857Y-116152381D01*
X79176191Y-117152381D01*
X79509524Y-116152381D02*
X79509524Y-116961905D01*
X79557143Y-117057143D01*
X79604762Y-117104762D01*
X79700000Y-117152381D01*
X79890477Y-117152381D01*
X79985715Y-117104762D01*
X80033334Y-117057143D01*
X80080953Y-116961905D01*
X80080953Y-116152381D01*
X80461905Y-116152381D02*
X81128572Y-117152381D01*
X81128572Y-116152381D02*
X80461905Y-117152381D01*
X81509524Y-116771429D02*
X82271429Y-116771429D01*
X82747619Y-117152381D02*
X82747619Y-116152381D01*
X83223809Y-117152381D02*
X83223809Y-116152381D01*
X83795238Y-117152381D01*
X83795238Y-116152381D01*
X84223809Y-116247619D02*
X84271428Y-116200000D01*
X84366666Y-116152381D01*
X84604762Y-116152381D01*
X84700000Y-116200000D01*
X84747619Y-116247619D01*
X84795238Y-116342857D01*
X84795238Y-116438095D01*
X84747619Y-116580952D01*
X84176190Y-117152381D01*
X84795238Y-117152381D01*
X102992381Y-88034286D02*
X101992381Y-88034286D01*
X101992381Y-87796191D01*
X102040000Y-87653333D01*
X102135238Y-87558095D01*
X102230476Y-87510476D01*
X102420952Y-87462857D01*
X102563810Y-87462857D01*
X102754286Y-87510476D01*
X102849524Y-87558095D01*
X102944762Y-87653333D01*
X102992381Y-87796191D01*
X102992381Y-88034286D01*
X101992381Y-87129524D02*
X101992381Y-86510476D01*
X102373333Y-86843810D01*
X102373333Y-86700952D01*
X102420952Y-86605714D01*
X102468571Y-86558095D01*
X102563810Y-86510476D01*
X102801905Y-86510476D01*
X102897143Y-86558095D01*
X102944762Y-86605714D01*
X102992381Y-86700952D01*
X102992381Y-86986667D01*
X102944762Y-87081905D01*
X102897143Y-87129524D01*
X102087619Y-86129524D02*
X102040000Y-86081905D01*
X101992381Y-85986667D01*
X101992381Y-85748571D01*
X102040000Y-85653333D01*
X102087619Y-85605714D01*
X102182857Y-85558095D01*
X102278095Y-85558095D01*
X102420952Y-85605714D01*
X102992381Y-86177143D01*
X102992381Y-85558095D01*
X162404762Y-62479619D02*
X162309524Y-62432000D01*
X162214286Y-62336762D01*
X162071429Y-62193905D01*
X161976190Y-62146286D01*
X161880952Y-62146286D01*
X161928571Y-62384381D02*
X161833333Y-62336762D01*
X161738095Y-62241524D01*
X161690476Y-62051048D01*
X161690476Y-61717714D01*
X161738095Y-61527238D01*
X161833333Y-61432000D01*
X161928571Y-61384381D01*
X162119048Y-61384381D01*
X162214286Y-61432000D01*
X162309524Y-61527238D01*
X162357143Y-61717714D01*
X162357143Y-62051048D01*
X162309524Y-62241524D01*
X162214286Y-62336762D01*
X162119048Y-62384381D01*
X161928571Y-62384381D01*
X162928571Y-61812952D02*
X162833333Y-61765333D01*
X162785714Y-61717714D01*
X162738095Y-61622476D01*
X162738095Y-61574857D01*
X162785714Y-61479619D01*
X162833333Y-61432000D01*
X162928571Y-61384381D01*
X163119048Y-61384381D01*
X163214286Y-61432000D01*
X163261905Y-61479619D01*
X163309524Y-61574857D01*
X163309524Y-61622476D01*
X163261905Y-61717714D01*
X163214286Y-61765333D01*
X163119048Y-61812952D01*
X162928571Y-61812952D01*
X162833333Y-61860571D01*
X162785714Y-61908190D01*
X162738095Y-62003429D01*
X162738095Y-62193905D01*
X162785714Y-62289143D01*
X162833333Y-62336762D01*
X162928571Y-62384381D01*
X163119048Y-62384381D01*
X163214286Y-62336762D01*
X163261905Y-62289143D01*
X163309524Y-62193905D01*
X163309524Y-62003429D01*
X163261905Y-61908190D01*
X163214286Y-61860571D01*
X163119048Y-61812952D01*
X174198095Y-61384381D02*
X174198095Y-62193905D01*
X174245714Y-62289143D01*
X174293333Y-62336762D01*
X174388571Y-62384381D01*
X174579048Y-62384381D01*
X174674286Y-62336762D01*
X174721905Y-62289143D01*
X174769524Y-62193905D01*
X174769524Y-61384381D01*
X175769524Y-62384381D02*
X175198095Y-62384381D01*
X175483809Y-62384381D02*
X175483809Y-61384381D01*
X175388571Y-61527238D01*
X175293333Y-61622476D01*
X175198095Y-61670095D01*
X159042381Y-74932857D02*
X158566190Y-75266191D01*
X159042381Y-75504286D02*
X158042381Y-75504286D01*
X158042381Y-75123333D01*
X158090000Y-75028095D01*
X158137619Y-74980476D01*
X158232857Y-74932857D01*
X158375714Y-74932857D01*
X158470952Y-74980476D01*
X158518571Y-75028095D01*
X158566190Y-75123333D01*
X158566190Y-75504286D01*
X158042381Y-74599524D02*
X158042381Y-73932857D01*
X159042381Y-74361429D01*
X158042381Y-73361429D02*
X158042381Y-73266190D01*
X158090000Y-73170952D01*
X158137619Y-73123333D01*
X158232857Y-73075714D01*
X158423333Y-73028095D01*
X158661429Y-73028095D01*
X158851905Y-73075714D01*
X158947143Y-73123333D01*
X158994762Y-73170952D01*
X159042381Y-73266190D01*
X159042381Y-73361429D01*
X158994762Y-73456667D01*
X158947143Y-73504286D01*
X158851905Y-73551905D01*
X158661429Y-73599524D01*
X158423333Y-73599524D01*
X158232857Y-73551905D01*
X158137619Y-73504286D01*
X158090000Y-73456667D01*
X158042381Y-73361429D01*
X64476667Y-86032381D02*
X64476667Y-86746667D01*
X64429047Y-86889524D01*
X64333809Y-86984762D01*
X64190952Y-87032381D01*
X64095714Y-87032381D01*
X65476667Y-87032381D02*
X64905238Y-87032381D01*
X65190952Y-87032381D02*
X65190952Y-86032381D01*
X65095714Y-86175238D01*
X65000476Y-86270476D01*
X64905238Y-86318095D01*
X149642381Y-101333333D02*
X150356667Y-101333333D01*
X150499524Y-101380953D01*
X150594762Y-101476191D01*
X150642381Y-101619048D01*
X150642381Y-101714286D01*
X149975714Y-100428571D02*
X150642381Y-100428571D01*
X149594762Y-100666667D02*
X150309048Y-100904762D01*
X150309048Y-100285714D01*
M02*
