M48
INCH,TZ
T1C0.0118
T2C0.0157
T3C0.0295
T4C0.0300
T5C0.0315
T6C0.0320
T7C0.0354
T8C0.0394
T9C0.0394
T10C0.0472
T11C0.1260
%
G90
G05
T1
X69685Y-50984
X30248Y-47016
X47862Y-58362
X58622Y-42913
X70472Y-51772
X37886Y-28598
X26969Y-45276
X35248Y-28827
X69291Y-53150
X59213Y-44646
X68819Y-33760
X60394Y-42913
X29528Y-56890
X26378Y-46260
X69311Y-34736
X46433Y-60669
X38492Y-28598
X42370Y-26394
X48933Y-40461
X80512Y-44094
X26378Y-45276
X75197Y-35591
X66555Y-59201
X86929Y-53661
X32051Y-58969
X68701Y-53740
X35665Y-30421
X55492Y-59228
X59055Y-53543
X70079Y-51378
X53638Y-59224
X82283Y-45669
X55791Y-58929
X37583Y-43476
X68504Y-52362
X41827Y-25846
X42354Y-60728
X55437Y-49232
X45752Y-58787
X33846Y-34413
X75709Y-33307
X44362Y-42126
X30248Y-48984
X79134Y-45669
X51878Y-37382
X28937Y-56890
X41740Y-59512
X30248Y-48000
X41748Y-46315
X35280Y-36169
X52756Y-60236
X62520Y-59016
X47382Y-53480
X84000Y-50591
X82283Y-44094
X26378Y-44291
X55650Y-54228
X58898Y-43780
X36953Y-38437
X32642Y-58378
X47441Y-58071
X41827Y-26390
X73425Y-60236
X38488Y-29154
X60394Y-43780
X41000Y-52118
X44941Y-58398
X53303Y-58945
X39142Y-47776
X36067Y-36169
X35028Y-34413
X34437Y-34413
X48354Y-58551
X62886Y-33287
X75197Y-33307
X28937Y-56299
X41071Y-59512
X26969Y-44291
X47937Y-40469
X29528Y-57480
X52205Y-59646
X59528Y-43780
X85118Y-31378
X35248Y-29417
X84500Y-50591
X60394Y-44646
X32051Y-58378
X40575Y-59169
X26969Y-46260
X32642Y-58969
X42374Y-25846
X80512Y-45669
X62606Y-33634
X45248Y-58787
X35252Y-30012
X59803Y-42913
X36067Y-35382
T2
X32354Y-40898
X32551Y-39374
X32699Y-38486
X33047Y-40409
X33390Y-39902
X33720Y-39508
X34343Y-39728
X41311Y-57661
X50803Y-25220
X51622Y-24677
X52740Y-24665
X52909Y-24346
X56083Y-24346
X56193Y-24665
X62969Y-25228
X65087Y-25228
X65496Y-25012
X85669Y-58894
X86232Y-59256
T3
X54102Y-25453
X54102Y-25953
X54102Y-26453
X52240Y-25453
X52240Y-25953
X52240Y-26453
T4
X76323Y-27299
X76323Y-31827
X77323Y-27299
X77323Y-31827
X51776Y-29559
X51776Y-30559
X51776Y-31559
X51776Y-32559
X51776Y-33559
X51776Y-34559
X51776Y-35559
X51776Y-36559
X52776Y-28559
X52776Y-29559
X52776Y-30559
X52776Y-31559
X52776Y-32559
X52776Y-33559
X52776Y-34559
X52776Y-35559
X52776Y-36559
X53776Y-28559
X53776Y-29559
X53776Y-30559
X53776Y-31559
X53776Y-32559
X53776Y-33559
X53776Y-34559
X53776Y-35559
X53776Y-36559
X54776Y-28559
X54776Y-29559
X54776Y-30559
X54776Y-31559
X54776Y-32559
X54776Y-33559
X54776Y-34559
X54776Y-35559
X54776Y-36559
X55776Y-28559
X55776Y-29559
X55776Y-30559
X55776Y-31559
X55776Y-32559
X55776Y-33559
X55776Y-34559
X55776Y-35559
X55776Y-36559
X56776Y-28559
X56776Y-29559
X56776Y-30559
X56776Y-31559
X56776Y-32559
X56776Y-33559
X56776Y-34559
X56776Y-35559
X56776Y-36559
X57776Y-28559
X57776Y-29559
X57776Y-30559
X57776Y-31559
X57776Y-32559
X57776Y-33559
X57776Y-34559
X57776Y-35559
X57776Y-36559
X58776Y-28559
X58776Y-29559
X58776Y-30559
X58776Y-31559
X58776Y-32559
X58776Y-33559
X58776Y-34559
X58776Y-35559
X58776Y-36559
X59776Y-28559
X59776Y-29559
X59776Y-30559
X59776Y-31559
X59776Y-32559
X59776Y-33559
X59776Y-34559
X59776Y-35559
X59776Y-36559
X60776Y-28559
X60776Y-29559
X60776Y-30559
X60776Y-31559
X60776Y-32559
X60776Y-33559
X60776Y-34559
X60776Y-35559
X34146Y-40657
X34146Y-41657
X34146Y-42657
X34146Y-43657
X34146Y-44657
X34146Y-45657
X34146Y-46657
X57146Y-40657
X57146Y-41657
X57146Y-42657
X57146Y-43657
X57146Y-44657
X57146Y-45657
X57146Y-46657
X29016Y-34268
X29016Y-35055
X29016Y-35843
X29016Y-36630
X29016Y-37417
X29016Y-38205
X29016Y-38992
X29016Y-39780
X29016Y-40567
X29016Y-41354
X29016Y-42142
X29016Y-42929
X29016Y-43717
X29016Y-44504
X29016Y-45291
X29016Y-46079
X29016Y-46866
X29016Y-47654
X29016Y-48441
X29016Y-49228
X29016Y-50016
X29016Y-50803
X29016Y-51591
X29016Y-52378
X31496Y-34134
X31496Y-35709
X31496Y-37283
X31496Y-38858
X31496Y-40433
X31496Y-42008
X31496Y-43583
X31496Y-45157
X31496Y-46732
X31496Y-48307
X31496Y-49882
X31496Y-49882
X31496Y-51457
X80315Y-28821
X80315Y-29821
X80315Y-30821
X80315Y-31821
X80315Y-32821
X80315Y-33821
T5
X85303Y-56240
X87272Y-56240
X83189Y-44031
X83189Y-48031
X68937Y-54850
X68937Y-58850
X82610Y-49394
X84579Y-49394
X84449Y-41850
X84449Y-45850
X60331Y-52693
X64331Y-52693
X79811Y-56110
X81780Y-56110
X76803Y-56043
X76803Y-60043
X62197Y-49417
X66197Y-49417
X73240Y-33276
X77240Y-33276
X47165Y-37398
X47165Y-41398
X37894Y-38484
X37894Y-42484
X71717Y-31850
X73685Y-31850
X74272Y-51197
X74272Y-55197
X73268Y-25976
X75236Y-25976
X35827Y-33228
X35827Y-37228
X82681Y-56969
X82681Y-60969
X72453Y-48870
X76453Y-48870
X26713Y-59917
X30713Y-59917
X79370Y-34740
X79370Y-38740
X71803Y-46346
X75803Y-46346
X62083Y-32559
X62083Y-36559
X76102Y-40650
X80102Y-40650
X80433Y-36339
X82402Y-36339
X63563Y-55138
X67563Y-55138
X39035Y-49906
X39035Y-53906
X73488Y-47602
X77488Y-47602
X49012Y-42673
X49012Y-46673
X72343Y-28248
X74311Y-28248
X56614Y-27126
X60614Y-27126
X74272Y-56039
X74272Y-60039
X39524Y-38488
X39524Y-42488
X71260Y-43110
X75260Y-43110
X78791Y-29846
X78791Y-31815
X82480Y-40650
X84449Y-40650
X69004Y-44933
X69004Y-48933
X81425Y-57142
X81425Y-61142
X72039Y-33063
X72039Y-35031
X71260Y-39665
X71260Y-41634
X78110Y-34724
X78110Y-38724
X42689Y-50602
X42689Y-51602
X42689Y-52602
X42689Y-53602
X45689Y-50602
X45689Y-51602
X45689Y-52602
X45689Y-53602
X48854Y-27425
X48854Y-31425
X67236Y-36760
X71236Y-36760
X48819Y-32469
X48819Y-36469
X67122Y-28433
X69091Y-28433
X78614Y-47394
X78614Y-48394
X78614Y-49394
X78614Y-50394
X81614Y-47394
X81614Y-48394
X81614Y-49394
X81614Y-50394
X50075Y-32484
X50075Y-36484
X46327Y-34071
X46327Y-36039
X73622Y-39665
X73622Y-41634
X40305Y-50161
X40305Y-54161
X37874Y-33228
X37874Y-37228
X26429Y-29618
X29429Y-29618
X80161Y-57161
X80161Y-61161
X84449Y-37520
X84449Y-39488
X63260Y-32563
X63260Y-36563
X73224Y-34665
X75193Y-34665
X63583Y-53874
X67583Y-53874
X71382Y-24870
X71382Y-26839
X71717Y-50146
X75717Y-50146
X67713Y-51673
X71713Y-51673
X53374Y-55921
X55343Y-55921
X75531Y-56035
X75531Y-60035
X87173Y-57295
X87173Y-61295
X78346Y-43110
X82346Y-43110
X34622Y-49094
X34622Y-53094
X83882Y-51921
X83882Y-54921
X84882Y-51921
X84882Y-54921
X85882Y-51921
X85882Y-54921
X86882Y-51921
X86882Y-54921
X43297Y-39219
X43297Y-43219
X85909Y-57276
X85909Y-61276
X70193Y-54850
X70193Y-58850
X56417Y-55929
X58386Y-55929
X69677Y-29811
X71646Y-29811
X34488Y-33228
X34488Y-37228
X76799Y-51201
X76799Y-55201
X71449Y-54854
X71449Y-58854
X72713Y-54854
X72713Y-58854
X67421Y-52850
X71421Y-52850
X62992Y-56213
X62992Y-60213
X75539Y-51201
X75539Y-55201
X35287Y-43823
X39287Y-43823
X65224Y-40157
X65224Y-43157
X66224Y-40157
X66224Y-43157
X67224Y-40157
X67224Y-43157
X68224Y-40157
X68224Y-43157
X61417Y-56197
X61417Y-60197
X67949Y-33756
X67949Y-35724
X66185Y-32547
X66185Y-36547
X50071Y-28421
X50071Y-31421
X41917Y-37736
X43886Y-37736
X83949Y-56650
X83949Y-60650
X48346Y-37394
X48346Y-41394
X44929Y-34071
X44929Y-38071
X60331Y-51035
X64331Y-51035
X73228Y-36567
X75197Y-36567
X75374Y-27295
X75374Y-31295
X62969Y-28295
X62969Y-29295
X62969Y-30295
X62969Y-31295
X65969Y-28295
X65969Y-29295
X65969Y-30295
X65969Y-31295
X78173Y-51921
X78173Y-54921
X79173Y-51921
X79173Y-54921
X80173Y-51921
X80173Y-54921
X81173Y-51921
X81173Y-54921
X70492Y-33063
X70492Y-35031
X41959Y-39189
X41959Y-43189
X78563Y-56033
X78563Y-60033
X61780Y-26969
X65780Y-26969
T6
X50197Y-40402
X50197Y-41402
X50197Y-42402
X50197Y-43402
X50197Y-44402
X50197Y-47402
X50197Y-48402
X50197Y-49402
X50197Y-53402
X50197Y-54402
X50197Y-55402
X50197Y-56402
X50197Y-57402
X51197Y-40402
X51197Y-41402
X51197Y-42402
X51197Y-43402
X51197Y-44402
X51197Y-47402
X51197Y-48402
X51197Y-49402
X51197Y-53402
X51197Y-54402
X51197Y-55402
X51197Y-56402
X51197Y-57402
X52197Y-38402
X53197Y-38402
X54197Y-38402
X54197Y-57402
X55197Y-38402
X55197Y-57402
X56197Y-38402
X56197Y-57402
X57197Y-38402
X57197Y-57402
X58197Y-38402
X58197Y-57402
X59197Y-38402
X59197Y-57402
X60197Y-57402
X61197Y-38402
X61197Y-57402
X62197Y-38402
X63197Y-38402
X63197Y-57402
X64197Y-38402
X64197Y-57402
X65197Y-38402
X65197Y-57402
X66197Y-38402
X66197Y-57402
X67197Y-38402
X67197Y-57402
X68197Y-38402
X68197Y-57402
X69197Y-57402
X70197Y-38402
X70197Y-57402
X71197Y-38402
X71797Y-57402
X72197Y-38402
X72797Y-57402
X73197Y-38402
X73797Y-57402
X74197Y-38402
X74797Y-57402
X75197Y-38402
X75797Y-57402
X76797Y-57402
X77797Y-57402
X78797Y-57402
T7
X38898Y-57661
X38898Y-58661
X35433Y-57661
X35433Y-58661
X85551Y-45984
X86551Y-45984
X36220Y-28453
X36220Y-29453
X85551Y-47756
X86551Y-47756
X44882Y-28453
X44882Y-29453
X85535Y-44213
X86535Y-44213
X85535Y-42441
X86535Y-42441
X85551Y-49528
X86551Y-49528
X85535Y-40669
X86535Y-40669
X40551Y-28453
X40551Y-29453
X43858Y-57661
X43858Y-58661
T8
X38413Y-46142
X39413Y-46142
X40413Y-46142
X64972Y-59902
X65972Y-59902
X66972Y-59902
X67972Y-59902
X68972Y-59902
X35992Y-47413
X35992Y-48413
X53921Y-59988
X54921Y-59988
X55921Y-59988
X56921Y-59988
X81720Y-38390
X82720Y-38390
X63413Y-45445
X63413Y-46445
X63413Y-47445
X42736Y-47122
X42736Y-48122
X42736Y-49122
X82307Y-54012
X40303Y-48130
X40303Y-49130
T9
X34433Y-26083
X35433Y-26083
X36433Y-26083
X34433Y-60551
X35433Y-60551
X36433Y-60551
X38961Y-60551
X39961Y-60551
X40961Y-60551
X38961Y-26083
X39961Y-26083
X40961Y-26083
X68323Y-26870
X69323Y-26870
X70323Y-26870
X43488Y-26083
X44488Y-26083
X45488Y-26083
X48016Y-60551
X49016Y-60551
X50016Y-60551
X43488Y-60551
X44488Y-60551
X45488Y-60551
X48016Y-26083
X49016Y-26083
X50016Y-26083
T10
X42677Y-27969
X42677Y-31969
X29016Y-32087
X29016Y-33087
X29016Y-53425
X29016Y-54425
X31496Y-32087
X31496Y-53425
X33008Y-31713
X33008Y-35713
X47126Y-46606
X47126Y-50606
X35846Y-38248
X35846Y-42248
X48829Y-50606
X48829Y-54606
X38386Y-27500
X38386Y-31500
X76634Y-35449
X76634Y-39449
X47165Y-51949
X47165Y-55949
X47008Y-27969
X47008Y-31969
X44675Y-44996
X44675Y-48996
X56791Y-25689
X60791Y-25689
X64701Y-32394
X64701Y-36394
T11
X30827Y-28346
X30827Y-58268
T0
M30
