G04 #@! TF.GenerationSoftware,KiCad,Pcbnew,5.1.0-060a0da~80~ubuntu18.10.1*
G04 #@! TF.CreationDate,2019-03-21T18:04:08+01:00*
G04 #@! TF.ProjectId,ULN2803A_shield,554c4e32-3830-4334-915f-736869656c64,rev?*
G04 #@! TF.SameCoordinates,Original*
G04 #@! TF.FileFunction,Legend,Top*
G04 #@! TF.FilePolarity,Positive*
%FSLAX46Y46*%
G04 Gerber Fmt 4.6, Leading zero omitted, Abs format (unit mm)*
G04 Created by KiCad (PCBNEW 5.1.0-060a0da~80~ubuntu18.10.1) date 2019-03-21 18:04:08*
%MOMM*%
%LPD*%
G04 APERTURE LIST*
%ADD10C,0.300000*%
%ADD11C,0.120000*%
%ADD12C,0.150000*%
G04 APERTURE END LIST*
D10*
X63045714Y-109098571D02*
X63045714Y-107598571D01*
X63760000Y-108098571D02*
X63760000Y-109098571D01*
X63760000Y-108241428D02*
X63831428Y-108170000D01*
X63974285Y-108098571D01*
X64188571Y-108098571D01*
X64331428Y-108170000D01*
X64402857Y-108312857D01*
X64402857Y-109098571D01*
X65760000Y-109098571D02*
X65760000Y-107598571D01*
X65760000Y-109027142D02*
X65617142Y-109098571D01*
X65331428Y-109098571D01*
X65188571Y-109027142D01*
X65117142Y-108955714D01*
X65045714Y-108812857D01*
X65045714Y-108384285D01*
X65117142Y-108241428D01*
X65188571Y-108170000D01*
X65331428Y-108098571D01*
X65617142Y-108098571D01*
X65760000Y-108170000D01*
X67117142Y-108098571D02*
X67117142Y-109098571D01*
X66474285Y-108098571D02*
X66474285Y-108884285D01*
X66545714Y-109027142D01*
X66688571Y-109098571D01*
X66902857Y-109098571D01*
X67045714Y-109027142D01*
X67117142Y-108955714D01*
X68474285Y-109027142D02*
X68331428Y-109098571D01*
X68045714Y-109098571D01*
X67902857Y-109027142D01*
X67831428Y-108955714D01*
X67760000Y-108812857D01*
X67760000Y-108384285D01*
X67831428Y-108241428D01*
X67902857Y-108170000D01*
X68045714Y-108098571D01*
X68331428Y-108098571D01*
X68474285Y-108170000D01*
X68902857Y-108098571D02*
X69474285Y-108098571D01*
X69117142Y-107598571D02*
X69117142Y-108884285D01*
X69188571Y-109027142D01*
X69331428Y-109098571D01*
X69474285Y-109098571D01*
X70188571Y-109098571D02*
X70045714Y-109027142D01*
X69974285Y-108955714D01*
X69902857Y-108812857D01*
X69902857Y-108384285D01*
X69974285Y-108241428D01*
X70045714Y-108170000D01*
X70188571Y-108098571D01*
X70402857Y-108098571D01*
X70545714Y-108170000D01*
X70617142Y-108241428D01*
X70688571Y-108384285D01*
X70688571Y-108812857D01*
X70617142Y-108955714D01*
X70545714Y-109027142D01*
X70402857Y-109098571D01*
X70188571Y-109098571D01*
X71331428Y-109098571D02*
X71331428Y-108098571D01*
X71331428Y-108384285D02*
X71402857Y-108241428D01*
X71474285Y-108170000D01*
X71617142Y-108098571D01*
X71760000Y-108098571D01*
X72617142Y-109598571D02*
X72617142Y-107455714D01*
X83055714Y-97788571D02*
X83055714Y-95645714D01*
X84627142Y-96502857D02*
X84127142Y-96502857D01*
X84127142Y-97288571D02*
X84127142Y-95788571D01*
X84841428Y-95788571D01*
X85627142Y-97288571D02*
X85484285Y-97217142D01*
X85412857Y-97074285D01*
X85412857Y-95788571D01*
X86055714Y-96288571D02*
X86412857Y-97288571D01*
X86770000Y-96288571D02*
X86412857Y-97288571D01*
X86270000Y-97645714D01*
X86198571Y-97717142D01*
X86055714Y-97788571D01*
X87341428Y-97288571D02*
X87341428Y-95788571D01*
X87341428Y-96360000D02*
X87484285Y-96288571D01*
X87770000Y-96288571D01*
X87912857Y-96360000D01*
X87984285Y-96431428D01*
X88055714Y-96574285D01*
X88055714Y-97002857D01*
X87984285Y-97145714D01*
X87912857Y-97217142D01*
X87770000Y-97288571D01*
X87484285Y-97288571D01*
X87341428Y-97217142D01*
X89341428Y-97288571D02*
X89341428Y-96502857D01*
X89270000Y-96360000D01*
X89127142Y-96288571D01*
X88841428Y-96288571D01*
X88698571Y-96360000D01*
X89341428Y-97217142D02*
X89198571Y-97288571D01*
X88841428Y-97288571D01*
X88698571Y-97217142D01*
X88627142Y-97074285D01*
X88627142Y-96931428D01*
X88698571Y-96788571D01*
X88841428Y-96717142D01*
X89198571Y-96717142D01*
X89341428Y-96645714D01*
X90698571Y-97217142D02*
X90555714Y-97288571D01*
X90270000Y-97288571D01*
X90127142Y-97217142D01*
X90055714Y-97145714D01*
X89984285Y-97002857D01*
X89984285Y-96574285D01*
X90055714Y-96431428D01*
X90127142Y-96360000D01*
X90270000Y-96288571D01*
X90555714Y-96288571D01*
X90698571Y-96360000D01*
X91341428Y-97288571D02*
X91341428Y-95788571D01*
X91484285Y-96717142D02*
X91912857Y-97288571D01*
X91912857Y-96288571D02*
X91341428Y-96860000D01*
X41578571Y-96358571D02*
X40435714Y-96787142D01*
X41578571Y-97215714D01*
X42292857Y-96787142D02*
X43435714Y-96787142D01*
X45578571Y-95858571D02*
X45864285Y-95858571D01*
X46007142Y-95930000D01*
X46150000Y-96072857D01*
X46221428Y-96358571D01*
X46221428Y-96858571D01*
X46150000Y-97144285D01*
X46007142Y-97287142D01*
X45864285Y-97358571D01*
X45578571Y-97358571D01*
X45435714Y-97287142D01*
X45292857Y-97144285D01*
X45221428Y-96858571D01*
X45221428Y-96358571D01*
X45292857Y-96072857D01*
X45435714Y-95930000D01*
X45578571Y-95858571D01*
X46864285Y-95858571D02*
X46864285Y-97072857D01*
X46935714Y-97215714D01*
X47007142Y-97287142D01*
X47150000Y-97358571D01*
X47435714Y-97358571D01*
X47578571Y-97287142D01*
X47650000Y-97215714D01*
X47721428Y-97072857D01*
X47721428Y-95858571D01*
X48221428Y-95858571D02*
X49078571Y-95858571D01*
X48650000Y-97358571D02*
X48650000Y-95858571D01*
D11*
X85840000Y-105850000D02*
X86800000Y-105850000D01*
X85840000Y-105850000D02*
G75*
G03X85840000Y-105850000I-2620000J0D01*
G01*
X51080000Y-101500000D02*
X51080000Y-102870000D01*
X51080000Y-102870000D02*
X74180000Y-102870000D01*
X74180000Y-102870000D02*
X74180000Y-98130000D01*
X74180000Y-98130000D02*
X51080000Y-98130000D01*
X51080000Y-98130000D02*
X51080000Y-99500000D01*
X51080000Y-99500000D02*
G75*
G02X51080000Y-101500000I0J-1000000D01*
G01*
X79800000Y-109890000D02*
X79800000Y-107230000D01*
X77200000Y-109890000D02*
X79800000Y-109890000D01*
X77200000Y-107230000D02*
X79800000Y-107230000D01*
X77200000Y-109890000D02*
X77200000Y-107230000D01*
X75930000Y-109890000D02*
X74600000Y-109890000D01*
X74600000Y-109890000D02*
X74600000Y-108560000D01*
X82120000Y-98040000D02*
X82120000Y-95380000D01*
X79520000Y-98040000D02*
X82120000Y-98040000D01*
X79520000Y-95380000D02*
X82120000Y-95380000D01*
X79520000Y-98040000D02*
X79520000Y-95380000D01*
X78250000Y-98040000D02*
X76920000Y-98040000D01*
X76920000Y-98040000D02*
X76920000Y-96710000D01*
X94950000Y-96020000D02*
X97610000Y-96020000D01*
X94950000Y-96020000D02*
X94950000Y-111320000D01*
X94950000Y-111320000D02*
X97610000Y-111320000D01*
X97610000Y-96020000D02*
X97610000Y-111320000D01*
X97610000Y-93420000D02*
X97610000Y-94750000D01*
X96280000Y-93420000D02*
X97610000Y-93420000D01*
X37860000Y-93390000D02*
X39190000Y-93390000D01*
X39190000Y-93390000D02*
X39190000Y-94720000D01*
X39190000Y-95990000D02*
X39190000Y-111290000D01*
X36530000Y-111290000D02*
X39190000Y-111290000D01*
X36530000Y-95990000D02*
X36530000Y-111290000D01*
X36530000Y-95990000D02*
X39190000Y-95990000D01*
X90720000Y-100430000D02*
X90720000Y-99170000D01*
X90720000Y-93610000D02*
X90720000Y-94870000D01*
X86960000Y-100430000D02*
X90720000Y-100430000D01*
X84710000Y-93610000D02*
X90720000Y-93610000D01*
X90850436Y-103410000D02*
X92054564Y-103410000D01*
X90850436Y-101590000D02*
X92054564Y-101590000D01*
X79512064Y-94520000D02*
X78307936Y-94520000D01*
X79512064Y-92700000D02*
X78307936Y-92700000D01*
D12*
X85593333Y-102682380D02*
X85117142Y-102682380D01*
X85117142Y-101682380D01*
X86450476Y-102682380D02*
X85879047Y-102682380D01*
X86164761Y-102682380D02*
X86164761Y-101682380D01*
X86069523Y-101825238D01*
X85974285Y-101920476D01*
X85879047Y-101968095D01*
X50532380Y-101476190D02*
X49532380Y-101476190D01*
X50437142Y-100428571D02*
X50484761Y-100476190D01*
X50532380Y-100619047D01*
X50532380Y-100714285D01*
X50484761Y-100857142D01*
X50389523Y-100952380D01*
X50294285Y-101000000D01*
X50103809Y-101047619D01*
X49960952Y-101047619D01*
X49770476Y-101000000D01*
X49675238Y-100952380D01*
X49580000Y-100857142D01*
X49532380Y-100714285D01*
X49532380Y-100619047D01*
X49580000Y-100476190D01*
X49627619Y-100428571D01*
X50532380Y-99476190D02*
X50532380Y-100047619D01*
X50532380Y-99761904D02*
X49532380Y-99761904D01*
X49675238Y-99857142D01*
X49770476Y-99952380D01*
X49818095Y-100047619D01*
X73052380Y-109393333D02*
X73766666Y-109393333D01*
X73909523Y-109440952D01*
X74004761Y-109536190D01*
X74052380Y-109679047D01*
X74052380Y-109774285D01*
X74052380Y-108917142D02*
X73052380Y-108917142D01*
X73052380Y-108536190D01*
X73100000Y-108440952D01*
X73147619Y-108393333D01*
X73242857Y-108345714D01*
X73385714Y-108345714D01*
X73480952Y-108393333D01*
X73528571Y-108440952D01*
X73576190Y-108536190D01*
X73576190Y-108917142D01*
X74052380Y-107393333D02*
X74052380Y-107964761D01*
X74052380Y-107679047D02*
X73052380Y-107679047D01*
X73195238Y-107774285D01*
X73290476Y-107869523D01*
X73338095Y-107964761D01*
X75372380Y-97543333D02*
X76086666Y-97543333D01*
X76229523Y-97590952D01*
X76324761Y-97686190D01*
X76372380Y-97829047D01*
X76372380Y-97924285D01*
X76372380Y-97067142D02*
X75372380Y-97067142D01*
X75372380Y-96686190D01*
X75420000Y-96590952D01*
X75467619Y-96543333D01*
X75562857Y-96495714D01*
X75705714Y-96495714D01*
X75800952Y-96543333D01*
X75848571Y-96590952D01*
X75896190Y-96686190D01*
X75896190Y-97067142D01*
X75467619Y-96114761D02*
X75420000Y-96067142D01*
X75372380Y-95971904D01*
X75372380Y-95733809D01*
X75420000Y-95638571D01*
X75467619Y-95590952D01*
X75562857Y-95543333D01*
X75658095Y-95543333D01*
X75800952Y-95590952D01*
X76372380Y-96162380D01*
X76372380Y-95543333D01*
X95946666Y-91432380D02*
X95946666Y-92146666D01*
X95899047Y-92289523D01*
X95803809Y-92384761D01*
X95660952Y-92432380D01*
X95565714Y-92432380D01*
X96946666Y-92432380D02*
X96375238Y-92432380D01*
X96660952Y-92432380D02*
X96660952Y-91432380D01*
X96565714Y-91575238D01*
X96470476Y-91670476D01*
X96375238Y-91718095D01*
X37526666Y-91402380D02*
X37526666Y-92116666D01*
X37479047Y-92259523D01*
X37383809Y-92354761D01*
X37240952Y-92402380D01*
X37145714Y-92402380D01*
X37955238Y-91497619D02*
X38002857Y-91450000D01*
X38098095Y-91402380D01*
X38336190Y-91402380D01*
X38431428Y-91450000D01*
X38479047Y-91497619D01*
X38526666Y-91592857D01*
X38526666Y-91688095D01*
X38479047Y-91830952D01*
X37907619Y-92402380D01*
X38526666Y-92402380D01*
X88714761Y-93067619D02*
X88619523Y-93020000D01*
X88524285Y-92924761D01*
X88381428Y-92781904D01*
X88286190Y-92734285D01*
X88190952Y-92734285D01*
X88238571Y-92972380D02*
X88143333Y-92924761D01*
X88048095Y-92829523D01*
X88000476Y-92639047D01*
X88000476Y-92305714D01*
X88048095Y-92115238D01*
X88143333Y-92020000D01*
X88238571Y-91972380D01*
X88429047Y-91972380D01*
X88524285Y-92020000D01*
X88619523Y-92115238D01*
X88667142Y-92305714D01*
X88667142Y-92639047D01*
X88619523Y-92829523D01*
X88524285Y-92924761D01*
X88429047Y-92972380D01*
X88238571Y-92972380D01*
X89619523Y-92972380D02*
X89048095Y-92972380D01*
X89333809Y-92972380D02*
X89333809Y-91972380D01*
X89238571Y-92115238D01*
X89143333Y-92210476D01*
X89048095Y-92258095D01*
X90333452Y-101132380D02*
X90000119Y-100656190D01*
X89762023Y-101132380D02*
X89762023Y-100132380D01*
X90142976Y-100132380D01*
X90238214Y-100180000D01*
X90285833Y-100227619D01*
X90333452Y-100322857D01*
X90333452Y-100465714D01*
X90285833Y-100560952D01*
X90238214Y-100608571D01*
X90142976Y-100656190D01*
X89762023Y-100656190D01*
X91285833Y-101132380D02*
X90714404Y-101132380D01*
X91000119Y-101132380D02*
X91000119Y-100132380D01*
X90904880Y-100275238D01*
X90809642Y-100370476D01*
X90714404Y-100418095D01*
X91904880Y-100132380D02*
X92000119Y-100132380D01*
X92095357Y-100180000D01*
X92142976Y-100227619D01*
X92190595Y-100322857D01*
X92238214Y-100513333D01*
X92238214Y-100751428D01*
X92190595Y-100941904D01*
X92142976Y-101037142D01*
X92095357Y-101084761D01*
X92000119Y-101132380D01*
X91904880Y-101132380D01*
X91809642Y-101084761D01*
X91762023Y-101037142D01*
X91714404Y-100941904D01*
X91666785Y-100751428D01*
X91666785Y-100513333D01*
X91714404Y-100322857D01*
X91762023Y-100227619D01*
X91809642Y-100180000D01*
X91904880Y-100132380D01*
X92857261Y-100132380D02*
X92952500Y-100132380D01*
X93047738Y-100180000D01*
X93095357Y-100227619D01*
X93142976Y-100322857D01*
X93190595Y-100513333D01*
X93190595Y-100751428D01*
X93142976Y-100941904D01*
X93095357Y-101037142D01*
X93047738Y-101084761D01*
X92952500Y-101132380D01*
X92857261Y-101132380D01*
X92762023Y-101084761D01*
X92714404Y-101037142D01*
X92666785Y-100941904D01*
X92619166Y-100751428D01*
X92619166Y-100513333D01*
X92666785Y-100322857D01*
X92714404Y-100227619D01*
X92762023Y-100180000D01*
X92857261Y-100132380D01*
X77790952Y-95882380D02*
X77457619Y-95406190D01*
X77219523Y-95882380D02*
X77219523Y-94882380D01*
X77600476Y-94882380D01*
X77695714Y-94930000D01*
X77743333Y-94977619D01*
X77790952Y-95072857D01*
X77790952Y-95215714D01*
X77743333Y-95310952D01*
X77695714Y-95358571D01*
X77600476Y-95406190D01*
X77219523Y-95406190D01*
X78743333Y-95882380D02*
X78171904Y-95882380D01*
X78457619Y-95882380D02*
X78457619Y-94882380D01*
X78362380Y-95025238D01*
X78267142Y-95120476D01*
X78171904Y-95168095D01*
X79362380Y-94882380D02*
X79457619Y-94882380D01*
X79552857Y-94930000D01*
X79600476Y-94977619D01*
X79648095Y-95072857D01*
X79695714Y-95263333D01*
X79695714Y-95501428D01*
X79648095Y-95691904D01*
X79600476Y-95787142D01*
X79552857Y-95834761D01*
X79457619Y-95882380D01*
X79362380Y-95882380D01*
X79267142Y-95834761D01*
X79219523Y-95787142D01*
X79171904Y-95691904D01*
X79124285Y-95501428D01*
X79124285Y-95263333D01*
X79171904Y-95072857D01*
X79219523Y-94977619D01*
X79267142Y-94930000D01*
X79362380Y-94882380D01*
X80648095Y-95882380D02*
X80076666Y-95882380D01*
X80362380Y-95882380D02*
X80362380Y-94882380D01*
X80267142Y-95025238D01*
X80171904Y-95120476D01*
X80076666Y-95168095D01*
M02*
