G04 #@! TF.GenerationSoftware,KiCad,Pcbnew,5.1.4-e60b266~84~ubuntu19.04.1*
G04 #@! TF.CreationDate,2019-08-18T18:54:56+02:00*
G04 #@! TF.ProjectId,ULN2803A_shield,554c4e32-3830-4334-915f-736869656c64,rev?*
G04 #@! TF.SameCoordinates,Original*
G04 #@! TF.FileFunction,Paste,Top*
G04 #@! TF.FilePolarity,Positive*
%FSLAX46Y46*%
G04 Gerber Fmt 4.6, Leading zero omitted, Abs format (unit mm)*
G04 Created by KiCad (PCBNEW 5.1.4-e60b266~84~ubuntu19.04.1) date 2019-08-18 18:54:56*
%MOMM*%
%LPD*%
G04 APERTURE LIST*
%ADD10R,2.000000X3.800000*%
%ADD11R,2.000000X1.500000*%
%ADD12C,0.100000*%
%ADD13C,1.425000*%
G04 APERTURE END LIST*
D10*
X85660000Y-97020000D03*
D11*
X91960000Y-94720000D03*
X91960000Y-99320000D03*
D12*
G36*
X93349504Y-104176204D02*
G01*
X93373773Y-104179804D01*
X93397571Y-104185765D01*
X93420671Y-104194030D01*
X93442849Y-104204520D01*
X93463893Y-104217133D01*
X93483598Y-104231747D01*
X93501777Y-104248223D01*
X93518253Y-104266402D01*
X93532867Y-104286107D01*
X93545480Y-104307151D01*
X93555970Y-104329329D01*
X93564235Y-104352429D01*
X93570196Y-104376227D01*
X93573796Y-104400496D01*
X93575000Y-104425000D01*
X93575000Y-105350000D01*
X93573796Y-105374504D01*
X93570196Y-105398773D01*
X93564235Y-105422571D01*
X93555970Y-105445671D01*
X93545480Y-105467849D01*
X93532867Y-105488893D01*
X93518253Y-105508598D01*
X93501777Y-105526777D01*
X93483598Y-105543253D01*
X93463893Y-105557867D01*
X93442849Y-105570480D01*
X93420671Y-105580970D01*
X93397571Y-105589235D01*
X93373773Y-105595196D01*
X93349504Y-105598796D01*
X93325000Y-105600000D01*
X92075000Y-105600000D01*
X92050496Y-105598796D01*
X92026227Y-105595196D01*
X92002429Y-105589235D01*
X91979329Y-105580970D01*
X91957151Y-105570480D01*
X91936107Y-105557867D01*
X91916402Y-105543253D01*
X91898223Y-105526777D01*
X91881747Y-105508598D01*
X91867133Y-105488893D01*
X91854520Y-105467849D01*
X91844030Y-105445671D01*
X91835765Y-105422571D01*
X91829804Y-105398773D01*
X91826204Y-105374504D01*
X91825000Y-105350000D01*
X91825000Y-104425000D01*
X91826204Y-104400496D01*
X91829804Y-104376227D01*
X91835765Y-104352429D01*
X91844030Y-104329329D01*
X91854520Y-104307151D01*
X91867133Y-104286107D01*
X91881747Y-104266402D01*
X91898223Y-104248223D01*
X91916402Y-104231747D01*
X91936107Y-104217133D01*
X91957151Y-104204520D01*
X91979329Y-104194030D01*
X92002429Y-104185765D01*
X92026227Y-104179804D01*
X92050496Y-104176204D01*
X92075000Y-104175000D01*
X93325000Y-104175000D01*
X93349504Y-104176204D01*
X93349504Y-104176204D01*
G37*
D13*
X92700000Y-104887500D03*
D12*
G36*
X93349504Y-101201204D02*
G01*
X93373773Y-101204804D01*
X93397571Y-101210765D01*
X93420671Y-101219030D01*
X93442849Y-101229520D01*
X93463893Y-101242133D01*
X93483598Y-101256747D01*
X93501777Y-101273223D01*
X93518253Y-101291402D01*
X93532867Y-101311107D01*
X93545480Y-101332151D01*
X93555970Y-101354329D01*
X93564235Y-101377429D01*
X93570196Y-101401227D01*
X93573796Y-101425496D01*
X93575000Y-101450000D01*
X93575000Y-102375000D01*
X93573796Y-102399504D01*
X93570196Y-102423773D01*
X93564235Y-102447571D01*
X93555970Y-102470671D01*
X93545480Y-102492849D01*
X93532867Y-102513893D01*
X93518253Y-102533598D01*
X93501777Y-102551777D01*
X93483598Y-102568253D01*
X93463893Y-102582867D01*
X93442849Y-102595480D01*
X93420671Y-102605970D01*
X93397571Y-102614235D01*
X93373773Y-102620196D01*
X93349504Y-102623796D01*
X93325000Y-102625000D01*
X92075000Y-102625000D01*
X92050496Y-102623796D01*
X92026227Y-102620196D01*
X92002429Y-102614235D01*
X91979329Y-102605970D01*
X91957151Y-102595480D01*
X91936107Y-102582867D01*
X91916402Y-102568253D01*
X91898223Y-102551777D01*
X91881747Y-102533598D01*
X91867133Y-102513893D01*
X91854520Y-102492849D01*
X91844030Y-102470671D01*
X91835765Y-102447571D01*
X91829804Y-102423773D01*
X91826204Y-102399504D01*
X91825000Y-102375000D01*
X91825000Y-101450000D01*
X91826204Y-101425496D01*
X91829804Y-101401227D01*
X91835765Y-101377429D01*
X91844030Y-101354329D01*
X91854520Y-101332151D01*
X91867133Y-101311107D01*
X91881747Y-101291402D01*
X91898223Y-101273223D01*
X91916402Y-101256747D01*
X91936107Y-101242133D01*
X91957151Y-101229520D01*
X91979329Y-101219030D01*
X92002429Y-101210765D01*
X92026227Y-101204804D01*
X92050496Y-101201204D01*
X92075000Y-101200000D01*
X93325000Y-101200000D01*
X93349504Y-101201204D01*
X93349504Y-101201204D01*
G37*
D13*
X92700000Y-101912500D03*
D12*
G36*
X90887004Y-101026204D02*
G01*
X90911273Y-101029804D01*
X90935071Y-101035765D01*
X90958171Y-101044030D01*
X90980349Y-101054520D01*
X91001393Y-101067133D01*
X91021098Y-101081747D01*
X91039277Y-101098223D01*
X91055753Y-101116402D01*
X91070367Y-101136107D01*
X91082980Y-101157151D01*
X91093470Y-101179329D01*
X91101735Y-101202429D01*
X91107696Y-101226227D01*
X91111296Y-101250496D01*
X91112500Y-101275000D01*
X91112500Y-102525000D01*
X91111296Y-102549504D01*
X91107696Y-102573773D01*
X91101735Y-102597571D01*
X91093470Y-102620671D01*
X91082980Y-102642849D01*
X91070367Y-102663893D01*
X91055753Y-102683598D01*
X91039277Y-102701777D01*
X91021098Y-102718253D01*
X91001393Y-102732867D01*
X90980349Y-102745480D01*
X90958171Y-102755970D01*
X90935071Y-102764235D01*
X90911273Y-102770196D01*
X90887004Y-102773796D01*
X90862500Y-102775000D01*
X89937500Y-102775000D01*
X89912996Y-102773796D01*
X89888727Y-102770196D01*
X89864929Y-102764235D01*
X89841829Y-102755970D01*
X89819651Y-102745480D01*
X89798607Y-102732867D01*
X89778902Y-102718253D01*
X89760723Y-102701777D01*
X89744247Y-102683598D01*
X89729633Y-102663893D01*
X89717020Y-102642849D01*
X89706530Y-102620671D01*
X89698265Y-102597571D01*
X89692304Y-102573773D01*
X89688704Y-102549504D01*
X89687500Y-102525000D01*
X89687500Y-101275000D01*
X89688704Y-101250496D01*
X89692304Y-101226227D01*
X89698265Y-101202429D01*
X89706530Y-101179329D01*
X89717020Y-101157151D01*
X89729633Y-101136107D01*
X89744247Y-101116402D01*
X89760723Y-101098223D01*
X89778902Y-101081747D01*
X89798607Y-101067133D01*
X89819651Y-101054520D01*
X89841829Y-101044030D01*
X89864929Y-101035765D01*
X89888727Y-101029804D01*
X89912996Y-101026204D01*
X89937500Y-101025000D01*
X90862500Y-101025000D01*
X90887004Y-101026204D01*
X90887004Y-101026204D01*
G37*
D13*
X90400000Y-101900000D03*
D12*
G36*
X87912004Y-101026204D02*
G01*
X87936273Y-101029804D01*
X87960071Y-101035765D01*
X87983171Y-101044030D01*
X88005349Y-101054520D01*
X88026393Y-101067133D01*
X88046098Y-101081747D01*
X88064277Y-101098223D01*
X88080753Y-101116402D01*
X88095367Y-101136107D01*
X88107980Y-101157151D01*
X88118470Y-101179329D01*
X88126735Y-101202429D01*
X88132696Y-101226227D01*
X88136296Y-101250496D01*
X88137500Y-101275000D01*
X88137500Y-102525000D01*
X88136296Y-102549504D01*
X88132696Y-102573773D01*
X88126735Y-102597571D01*
X88118470Y-102620671D01*
X88107980Y-102642849D01*
X88095367Y-102663893D01*
X88080753Y-102683598D01*
X88064277Y-102701777D01*
X88046098Y-102718253D01*
X88026393Y-102732867D01*
X88005349Y-102745480D01*
X87983171Y-102755970D01*
X87960071Y-102764235D01*
X87936273Y-102770196D01*
X87912004Y-102773796D01*
X87887500Y-102775000D01*
X86962500Y-102775000D01*
X86937996Y-102773796D01*
X86913727Y-102770196D01*
X86889929Y-102764235D01*
X86866829Y-102755970D01*
X86844651Y-102745480D01*
X86823607Y-102732867D01*
X86803902Y-102718253D01*
X86785723Y-102701777D01*
X86769247Y-102683598D01*
X86754633Y-102663893D01*
X86742020Y-102642849D01*
X86731530Y-102620671D01*
X86723265Y-102597571D01*
X86717304Y-102573773D01*
X86713704Y-102549504D01*
X86712500Y-102525000D01*
X86712500Y-101275000D01*
X86713704Y-101250496D01*
X86717304Y-101226227D01*
X86723265Y-101202429D01*
X86731530Y-101179329D01*
X86742020Y-101157151D01*
X86754633Y-101136107D01*
X86769247Y-101116402D01*
X86785723Y-101098223D01*
X86803902Y-101081747D01*
X86823607Y-101067133D01*
X86844651Y-101054520D01*
X86866829Y-101044030D01*
X86889929Y-101035765D01*
X86913727Y-101029804D01*
X86937996Y-101026204D01*
X86962500Y-101025000D01*
X87887500Y-101025000D01*
X87912004Y-101026204D01*
X87912004Y-101026204D01*
G37*
D13*
X87425000Y-101900000D03*
M02*
