G04 #@! TF.GenerationSoftware,KiCad,Pcbnew,5.1.4-e60b266~84~ubuntu19.04.1*
G04 #@! TF.CreationDate,2019-08-18T18:54:56+02:00*
G04 #@! TF.ProjectId,ULN2803A_shield,554c4e32-3830-4334-915f-736869656c64,rev?*
G04 #@! TF.SameCoordinates,Original*
G04 #@! TF.FileFunction,Soldermask,Top*
G04 #@! TF.FilePolarity,Negative*
%FSLAX46Y46*%
G04 Gerber Fmt 4.6, Leading zero omitted, Abs format (unit mm)*
G04 Created by KiCad (PCBNEW 5.1.4-e60b266~84~ubuntu19.04.1) date 2019-08-18 18:54:56*
%MOMM*%
%LPD*%
G04 APERTURE LIST*
%ADD10R,2.400000X4.200000*%
%ADD11R,2.400000X1.900000*%
%ADD12O,2.800000X2.800000*%
%ADD13C,2.800000*%
%ADD14R,2.000000X2.800000*%
%ADD15O,2.000000X2.800000*%
%ADD16R,2.100000X2.100000*%
%ADD17O,2.100000X2.100000*%
%ADD18C,0.100000*%
%ADD19C,1.825000*%
G04 APERTURE END LIST*
D10*
X85660000Y-97020000D03*
D11*
X91960000Y-94720000D03*
X91960000Y-99320000D03*
D12*
X88300000Y-105850000D03*
D13*
X83220000Y-105850000D03*
D14*
X52470000Y-104310000D03*
D15*
X72790000Y-96690000D03*
X55010000Y-104310000D03*
X70250000Y-96690000D03*
X57550000Y-104310000D03*
X67710000Y-96690000D03*
X60090000Y-104310000D03*
X65170000Y-96690000D03*
X62630000Y-104310000D03*
X62630000Y-96690000D03*
X65170000Y-104310000D03*
X60090000Y-96690000D03*
X67710000Y-104310000D03*
X57550000Y-96690000D03*
X70250000Y-104310000D03*
X55010000Y-96690000D03*
X72790000Y-104310000D03*
X52470000Y-96690000D03*
D16*
X75930000Y-108560000D03*
D17*
X78470000Y-108560000D03*
D16*
X78250000Y-96710000D03*
D17*
X80790000Y-96710000D03*
D16*
X96280000Y-94750000D03*
D17*
X96280000Y-97290000D03*
X96280000Y-99830000D03*
X96280000Y-102370000D03*
X96280000Y-104910000D03*
X96280000Y-107450000D03*
X96280000Y-109990000D03*
X37860000Y-109960000D03*
X37860000Y-107420000D03*
X37860000Y-104880000D03*
X37860000Y-102340000D03*
X37860000Y-99800000D03*
X37860000Y-97260000D03*
D16*
X37860000Y-94720000D03*
D18*
G36*
X93486207Y-103976542D02*
G01*
X93517287Y-103981152D01*
X93547766Y-103988787D01*
X93577350Y-103999372D01*
X93605754Y-104012806D01*
X93632704Y-104028959D01*
X93657942Y-104047677D01*
X93681223Y-104068777D01*
X93702323Y-104092058D01*
X93721041Y-104117296D01*
X93737194Y-104144246D01*
X93750628Y-104172650D01*
X93761213Y-104202234D01*
X93768848Y-104232713D01*
X93773458Y-104263793D01*
X93775000Y-104295176D01*
X93775000Y-105479824D01*
X93773458Y-105511207D01*
X93768848Y-105542287D01*
X93761213Y-105572766D01*
X93750628Y-105602350D01*
X93737194Y-105630754D01*
X93721041Y-105657704D01*
X93702323Y-105682942D01*
X93681223Y-105706223D01*
X93657942Y-105727323D01*
X93632704Y-105746041D01*
X93605754Y-105762194D01*
X93577350Y-105775628D01*
X93547766Y-105786213D01*
X93517287Y-105793848D01*
X93486207Y-105798458D01*
X93454824Y-105800000D01*
X91945176Y-105800000D01*
X91913793Y-105798458D01*
X91882713Y-105793848D01*
X91852234Y-105786213D01*
X91822650Y-105775628D01*
X91794246Y-105762194D01*
X91767296Y-105746041D01*
X91742058Y-105727323D01*
X91718777Y-105706223D01*
X91697677Y-105682942D01*
X91678959Y-105657704D01*
X91662806Y-105630754D01*
X91649372Y-105602350D01*
X91638787Y-105572766D01*
X91631152Y-105542287D01*
X91626542Y-105511207D01*
X91625000Y-105479824D01*
X91625000Y-104295176D01*
X91626542Y-104263793D01*
X91631152Y-104232713D01*
X91638787Y-104202234D01*
X91649372Y-104172650D01*
X91662806Y-104144246D01*
X91678959Y-104117296D01*
X91697677Y-104092058D01*
X91718777Y-104068777D01*
X91742058Y-104047677D01*
X91767296Y-104028959D01*
X91794246Y-104012806D01*
X91822650Y-103999372D01*
X91852234Y-103988787D01*
X91882713Y-103981152D01*
X91913793Y-103976542D01*
X91945176Y-103975000D01*
X93454824Y-103975000D01*
X93486207Y-103976542D01*
X93486207Y-103976542D01*
G37*
D19*
X92700000Y-104887500D03*
D18*
G36*
X93486207Y-101001542D02*
G01*
X93517287Y-101006152D01*
X93547766Y-101013787D01*
X93577350Y-101024372D01*
X93605754Y-101037806D01*
X93632704Y-101053959D01*
X93657942Y-101072677D01*
X93681223Y-101093777D01*
X93702323Y-101117058D01*
X93721041Y-101142296D01*
X93737194Y-101169246D01*
X93750628Y-101197650D01*
X93761213Y-101227234D01*
X93768848Y-101257713D01*
X93773458Y-101288793D01*
X93775000Y-101320176D01*
X93775000Y-102504824D01*
X93773458Y-102536207D01*
X93768848Y-102567287D01*
X93761213Y-102597766D01*
X93750628Y-102627350D01*
X93737194Y-102655754D01*
X93721041Y-102682704D01*
X93702323Y-102707942D01*
X93681223Y-102731223D01*
X93657942Y-102752323D01*
X93632704Y-102771041D01*
X93605754Y-102787194D01*
X93577350Y-102800628D01*
X93547766Y-102811213D01*
X93517287Y-102818848D01*
X93486207Y-102823458D01*
X93454824Y-102825000D01*
X91945176Y-102825000D01*
X91913793Y-102823458D01*
X91882713Y-102818848D01*
X91852234Y-102811213D01*
X91822650Y-102800628D01*
X91794246Y-102787194D01*
X91767296Y-102771041D01*
X91742058Y-102752323D01*
X91718777Y-102731223D01*
X91697677Y-102707942D01*
X91678959Y-102682704D01*
X91662806Y-102655754D01*
X91649372Y-102627350D01*
X91638787Y-102597766D01*
X91631152Y-102567287D01*
X91626542Y-102536207D01*
X91625000Y-102504824D01*
X91625000Y-101320176D01*
X91626542Y-101288793D01*
X91631152Y-101257713D01*
X91638787Y-101227234D01*
X91649372Y-101197650D01*
X91662806Y-101169246D01*
X91678959Y-101142296D01*
X91697677Y-101117058D01*
X91718777Y-101093777D01*
X91742058Y-101072677D01*
X91767296Y-101053959D01*
X91794246Y-101037806D01*
X91822650Y-101024372D01*
X91852234Y-101013787D01*
X91882713Y-101006152D01*
X91913793Y-101001542D01*
X91945176Y-101000000D01*
X93454824Y-101000000D01*
X93486207Y-101001542D01*
X93486207Y-101001542D01*
G37*
D19*
X92700000Y-101912500D03*
D18*
G36*
X91023707Y-100826542D02*
G01*
X91054787Y-100831152D01*
X91085266Y-100838787D01*
X91114850Y-100849372D01*
X91143254Y-100862806D01*
X91170204Y-100878959D01*
X91195442Y-100897677D01*
X91218723Y-100918777D01*
X91239823Y-100942058D01*
X91258541Y-100967296D01*
X91274694Y-100994246D01*
X91288128Y-101022650D01*
X91298713Y-101052234D01*
X91306348Y-101082713D01*
X91310958Y-101113793D01*
X91312500Y-101145176D01*
X91312500Y-102654824D01*
X91310958Y-102686207D01*
X91306348Y-102717287D01*
X91298713Y-102747766D01*
X91288128Y-102777350D01*
X91274694Y-102805754D01*
X91258541Y-102832704D01*
X91239823Y-102857942D01*
X91218723Y-102881223D01*
X91195442Y-102902323D01*
X91170204Y-102921041D01*
X91143254Y-102937194D01*
X91114850Y-102950628D01*
X91085266Y-102961213D01*
X91054787Y-102968848D01*
X91023707Y-102973458D01*
X90992324Y-102975000D01*
X89807676Y-102975000D01*
X89776293Y-102973458D01*
X89745213Y-102968848D01*
X89714734Y-102961213D01*
X89685150Y-102950628D01*
X89656746Y-102937194D01*
X89629796Y-102921041D01*
X89604558Y-102902323D01*
X89581277Y-102881223D01*
X89560177Y-102857942D01*
X89541459Y-102832704D01*
X89525306Y-102805754D01*
X89511872Y-102777350D01*
X89501287Y-102747766D01*
X89493652Y-102717287D01*
X89489042Y-102686207D01*
X89487500Y-102654824D01*
X89487500Y-101145176D01*
X89489042Y-101113793D01*
X89493652Y-101082713D01*
X89501287Y-101052234D01*
X89511872Y-101022650D01*
X89525306Y-100994246D01*
X89541459Y-100967296D01*
X89560177Y-100942058D01*
X89581277Y-100918777D01*
X89604558Y-100897677D01*
X89629796Y-100878959D01*
X89656746Y-100862806D01*
X89685150Y-100849372D01*
X89714734Y-100838787D01*
X89745213Y-100831152D01*
X89776293Y-100826542D01*
X89807676Y-100825000D01*
X90992324Y-100825000D01*
X91023707Y-100826542D01*
X91023707Y-100826542D01*
G37*
D19*
X90400000Y-101900000D03*
D18*
G36*
X88048707Y-100826542D02*
G01*
X88079787Y-100831152D01*
X88110266Y-100838787D01*
X88139850Y-100849372D01*
X88168254Y-100862806D01*
X88195204Y-100878959D01*
X88220442Y-100897677D01*
X88243723Y-100918777D01*
X88264823Y-100942058D01*
X88283541Y-100967296D01*
X88299694Y-100994246D01*
X88313128Y-101022650D01*
X88323713Y-101052234D01*
X88331348Y-101082713D01*
X88335958Y-101113793D01*
X88337500Y-101145176D01*
X88337500Y-102654824D01*
X88335958Y-102686207D01*
X88331348Y-102717287D01*
X88323713Y-102747766D01*
X88313128Y-102777350D01*
X88299694Y-102805754D01*
X88283541Y-102832704D01*
X88264823Y-102857942D01*
X88243723Y-102881223D01*
X88220442Y-102902323D01*
X88195204Y-102921041D01*
X88168254Y-102937194D01*
X88139850Y-102950628D01*
X88110266Y-102961213D01*
X88079787Y-102968848D01*
X88048707Y-102973458D01*
X88017324Y-102975000D01*
X86832676Y-102975000D01*
X86801293Y-102973458D01*
X86770213Y-102968848D01*
X86739734Y-102961213D01*
X86710150Y-102950628D01*
X86681746Y-102937194D01*
X86654796Y-102921041D01*
X86629558Y-102902323D01*
X86606277Y-102881223D01*
X86585177Y-102857942D01*
X86566459Y-102832704D01*
X86550306Y-102805754D01*
X86536872Y-102777350D01*
X86526287Y-102747766D01*
X86518652Y-102717287D01*
X86514042Y-102686207D01*
X86512500Y-102654824D01*
X86512500Y-101145176D01*
X86514042Y-101113793D01*
X86518652Y-101082713D01*
X86526287Y-101052234D01*
X86536872Y-101022650D01*
X86550306Y-100994246D01*
X86566459Y-100967296D01*
X86585177Y-100942058D01*
X86606277Y-100918777D01*
X86629558Y-100897677D01*
X86654796Y-100878959D01*
X86681746Y-100862806D01*
X86710150Y-100849372D01*
X86739734Y-100838787D01*
X86770213Y-100831152D01*
X86801293Y-100826542D01*
X86832676Y-100825000D01*
X88017324Y-100825000D01*
X88048707Y-100826542D01*
X88048707Y-100826542D01*
G37*
D19*
X87425000Y-101900000D03*
M02*
