G04 #@! TF.GenerationSoftware,KiCad,Pcbnew,5.1.4-e60b266~84~ubuntu19.04.1*
G04 #@! TF.CreationDate,2019-08-18T18:54:56+02:00*
G04 #@! TF.ProjectId,ULN2803A_shield,554c4e32-3830-4334-915f-736869656c64,rev?*
G04 #@! TF.SameCoordinates,Original*
G04 #@! TF.FileFunction,Copper,L1,Top*
G04 #@! TF.FilePolarity,Positive*
%FSLAX46Y46*%
G04 Gerber Fmt 4.6, Leading zero omitted, Abs format (unit mm)*
G04 Created by KiCad (PCBNEW 5.1.4-e60b266~84~ubuntu19.04.1) date 2019-08-18 18:54:56*
%MOMM*%
%LPD*%
G04 APERTURE LIST*
%ADD10R,2.000000X3.800000*%
%ADD11R,2.000000X1.500000*%
%ADD12O,2.400000X2.400000*%
%ADD13C,2.400000*%
%ADD14R,1.600000X2.400000*%
%ADD15O,1.600000X2.400000*%
%ADD16R,1.700000X1.700000*%
%ADD17O,1.700000X1.700000*%
%ADD18C,0.100000*%
%ADD19C,1.425000*%
%ADD20C,0.600000*%
%ADD21C,0.400000*%
%ADD22C,0.812800*%
%ADD23C,0.609600*%
%ADD24C,1.219200*%
%ADD25C,0.254000*%
G04 APERTURE END LIST*
D10*
X85660000Y-97020000D03*
D11*
X91960000Y-94720000D03*
X91960000Y-99320000D03*
D12*
X88300000Y-105850000D03*
D13*
X83220000Y-105850000D03*
D14*
X52470000Y-104310000D03*
D15*
X72790000Y-96690000D03*
X55010000Y-104310000D03*
X70250000Y-96690000D03*
X57550000Y-104310000D03*
X67710000Y-96690000D03*
X60090000Y-104310000D03*
X65170000Y-96690000D03*
X62630000Y-104310000D03*
X62630000Y-96690000D03*
X65170000Y-104310000D03*
X60090000Y-96690000D03*
X67710000Y-104310000D03*
X57550000Y-96690000D03*
X70250000Y-104310000D03*
X55010000Y-96690000D03*
X72790000Y-104310000D03*
X52470000Y-96690000D03*
D16*
X75930000Y-108560000D03*
D17*
X78470000Y-108560000D03*
D16*
X78250000Y-96710000D03*
D17*
X80790000Y-96710000D03*
D16*
X96280000Y-94750000D03*
D17*
X96280000Y-97290000D03*
X96280000Y-99830000D03*
X96280000Y-102370000D03*
X96280000Y-104910000D03*
X96280000Y-107450000D03*
X96280000Y-109990000D03*
X37860000Y-109960000D03*
X37860000Y-107420000D03*
X37860000Y-104880000D03*
X37860000Y-102340000D03*
X37860000Y-99800000D03*
X37860000Y-97260000D03*
D16*
X37860000Y-94720000D03*
D18*
G36*
X93349504Y-104176204D02*
G01*
X93373773Y-104179804D01*
X93397571Y-104185765D01*
X93420671Y-104194030D01*
X93442849Y-104204520D01*
X93463893Y-104217133D01*
X93483598Y-104231747D01*
X93501777Y-104248223D01*
X93518253Y-104266402D01*
X93532867Y-104286107D01*
X93545480Y-104307151D01*
X93555970Y-104329329D01*
X93564235Y-104352429D01*
X93570196Y-104376227D01*
X93573796Y-104400496D01*
X93575000Y-104425000D01*
X93575000Y-105350000D01*
X93573796Y-105374504D01*
X93570196Y-105398773D01*
X93564235Y-105422571D01*
X93555970Y-105445671D01*
X93545480Y-105467849D01*
X93532867Y-105488893D01*
X93518253Y-105508598D01*
X93501777Y-105526777D01*
X93483598Y-105543253D01*
X93463893Y-105557867D01*
X93442849Y-105570480D01*
X93420671Y-105580970D01*
X93397571Y-105589235D01*
X93373773Y-105595196D01*
X93349504Y-105598796D01*
X93325000Y-105600000D01*
X92075000Y-105600000D01*
X92050496Y-105598796D01*
X92026227Y-105595196D01*
X92002429Y-105589235D01*
X91979329Y-105580970D01*
X91957151Y-105570480D01*
X91936107Y-105557867D01*
X91916402Y-105543253D01*
X91898223Y-105526777D01*
X91881747Y-105508598D01*
X91867133Y-105488893D01*
X91854520Y-105467849D01*
X91844030Y-105445671D01*
X91835765Y-105422571D01*
X91829804Y-105398773D01*
X91826204Y-105374504D01*
X91825000Y-105350000D01*
X91825000Y-104425000D01*
X91826204Y-104400496D01*
X91829804Y-104376227D01*
X91835765Y-104352429D01*
X91844030Y-104329329D01*
X91854520Y-104307151D01*
X91867133Y-104286107D01*
X91881747Y-104266402D01*
X91898223Y-104248223D01*
X91916402Y-104231747D01*
X91936107Y-104217133D01*
X91957151Y-104204520D01*
X91979329Y-104194030D01*
X92002429Y-104185765D01*
X92026227Y-104179804D01*
X92050496Y-104176204D01*
X92075000Y-104175000D01*
X93325000Y-104175000D01*
X93349504Y-104176204D01*
X93349504Y-104176204D01*
G37*
D19*
X92700000Y-104887500D03*
D18*
G36*
X93349504Y-101201204D02*
G01*
X93373773Y-101204804D01*
X93397571Y-101210765D01*
X93420671Y-101219030D01*
X93442849Y-101229520D01*
X93463893Y-101242133D01*
X93483598Y-101256747D01*
X93501777Y-101273223D01*
X93518253Y-101291402D01*
X93532867Y-101311107D01*
X93545480Y-101332151D01*
X93555970Y-101354329D01*
X93564235Y-101377429D01*
X93570196Y-101401227D01*
X93573796Y-101425496D01*
X93575000Y-101450000D01*
X93575000Y-102375000D01*
X93573796Y-102399504D01*
X93570196Y-102423773D01*
X93564235Y-102447571D01*
X93555970Y-102470671D01*
X93545480Y-102492849D01*
X93532867Y-102513893D01*
X93518253Y-102533598D01*
X93501777Y-102551777D01*
X93483598Y-102568253D01*
X93463893Y-102582867D01*
X93442849Y-102595480D01*
X93420671Y-102605970D01*
X93397571Y-102614235D01*
X93373773Y-102620196D01*
X93349504Y-102623796D01*
X93325000Y-102625000D01*
X92075000Y-102625000D01*
X92050496Y-102623796D01*
X92026227Y-102620196D01*
X92002429Y-102614235D01*
X91979329Y-102605970D01*
X91957151Y-102595480D01*
X91936107Y-102582867D01*
X91916402Y-102568253D01*
X91898223Y-102551777D01*
X91881747Y-102533598D01*
X91867133Y-102513893D01*
X91854520Y-102492849D01*
X91844030Y-102470671D01*
X91835765Y-102447571D01*
X91829804Y-102423773D01*
X91826204Y-102399504D01*
X91825000Y-102375000D01*
X91825000Y-101450000D01*
X91826204Y-101425496D01*
X91829804Y-101401227D01*
X91835765Y-101377429D01*
X91844030Y-101354329D01*
X91854520Y-101332151D01*
X91867133Y-101311107D01*
X91881747Y-101291402D01*
X91898223Y-101273223D01*
X91916402Y-101256747D01*
X91936107Y-101242133D01*
X91957151Y-101229520D01*
X91979329Y-101219030D01*
X92002429Y-101210765D01*
X92026227Y-101204804D01*
X92050496Y-101201204D01*
X92075000Y-101200000D01*
X93325000Y-101200000D01*
X93349504Y-101201204D01*
X93349504Y-101201204D01*
G37*
D19*
X92700000Y-101912500D03*
D18*
G36*
X90887004Y-101026204D02*
G01*
X90911273Y-101029804D01*
X90935071Y-101035765D01*
X90958171Y-101044030D01*
X90980349Y-101054520D01*
X91001393Y-101067133D01*
X91021098Y-101081747D01*
X91039277Y-101098223D01*
X91055753Y-101116402D01*
X91070367Y-101136107D01*
X91082980Y-101157151D01*
X91093470Y-101179329D01*
X91101735Y-101202429D01*
X91107696Y-101226227D01*
X91111296Y-101250496D01*
X91112500Y-101275000D01*
X91112500Y-102525000D01*
X91111296Y-102549504D01*
X91107696Y-102573773D01*
X91101735Y-102597571D01*
X91093470Y-102620671D01*
X91082980Y-102642849D01*
X91070367Y-102663893D01*
X91055753Y-102683598D01*
X91039277Y-102701777D01*
X91021098Y-102718253D01*
X91001393Y-102732867D01*
X90980349Y-102745480D01*
X90958171Y-102755970D01*
X90935071Y-102764235D01*
X90911273Y-102770196D01*
X90887004Y-102773796D01*
X90862500Y-102775000D01*
X89937500Y-102775000D01*
X89912996Y-102773796D01*
X89888727Y-102770196D01*
X89864929Y-102764235D01*
X89841829Y-102755970D01*
X89819651Y-102745480D01*
X89798607Y-102732867D01*
X89778902Y-102718253D01*
X89760723Y-102701777D01*
X89744247Y-102683598D01*
X89729633Y-102663893D01*
X89717020Y-102642849D01*
X89706530Y-102620671D01*
X89698265Y-102597571D01*
X89692304Y-102573773D01*
X89688704Y-102549504D01*
X89687500Y-102525000D01*
X89687500Y-101275000D01*
X89688704Y-101250496D01*
X89692304Y-101226227D01*
X89698265Y-101202429D01*
X89706530Y-101179329D01*
X89717020Y-101157151D01*
X89729633Y-101136107D01*
X89744247Y-101116402D01*
X89760723Y-101098223D01*
X89778902Y-101081747D01*
X89798607Y-101067133D01*
X89819651Y-101054520D01*
X89841829Y-101044030D01*
X89864929Y-101035765D01*
X89888727Y-101029804D01*
X89912996Y-101026204D01*
X89937500Y-101025000D01*
X90862500Y-101025000D01*
X90887004Y-101026204D01*
X90887004Y-101026204D01*
G37*
D19*
X90400000Y-101900000D03*
D18*
G36*
X87912004Y-101026204D02*
G01*
X87936273Y-101029804D01*
X87960071Y-101035765D01*
X87983171Y-101044030D01*
X88005349Y-101054520D01*
X88026393Y-101067133D01*
X88046098Y-101081747D01*
X88064277Y-101098223D01*
X88080753Y-101116402D01*
X88095367Y-101136107D01*
X88107980Y-101157151D01*
X88118470Y-101179329D01*
X88126735Y-101202429D01*
X88132696Y-101226227D01*
X88136296Y-101250496D01*
X88137500Y-101275000D01*
X88137500Y-102525000D01*
X88136296Y-102549504D01*
X88132696Y-102573773D01*
X88126735Y-102597571D01*
X88118470Y-102620671D01*
X88107980Y-102642849D01*
X88095367Y-102663893D01*
X88080753Y-102683598D01*
X88064277Y-102701777D01*
X88046098Y-102718253D01*
X88026393Y-102732867D01*
X88005349Y-102745480D01*
X87983171Y-102755970D01*
X87960071Y-102764235D01*
X87936273Y-102770196D01*
X87912004Y-102773796D01*
X87887500Y-102775000D01*
X86962500Y-102775000D01*
X86937996Y-102773796D01*
X86913727Y-102770196D01*
X86889929Y-102764235D01*
X86866829Y-102755970D01*
X86844651Y-102745480D01*
X86823607Y-102732867D01*
X86803902Y-102718253D01*
X86785723Y-102701777D01*
X86769247Y-102683598D01*
X86754633Y-102663893D01*
X86742020Y-102642849D01*
X86731530Y-102620671D01*
X86723265Y-102597571D01*
X86717304Y-102573773D01*
X86713704Y-102549504D01*
X86712500Y-102525000D01*
X86712500Y-101275000D01*
X86713704Y-101250496D01*
X86717304Y-101226227D01*
X86723265Y-101202429D01*
X86731530Y-101179329D01*
X86742020Y-101157151D01*
X86754633Y-101136107D01*
X86769247Y-101116402D01*
X86785723Y-101098223D01*
X86803902Y-101081747D01*
X86823607Y-101067133D01*
X86844651Y-101054520D01*
X86866829Y-101044030D01*
X86889929Y-101035765D01*
X86913727Y-101029804D01*
X86937996Y-101026204D01*
X86962500Y-101025000D01*
X87887500Y-101025000D01*
X87912004Y-101026204D01*
X87912004Y-101026204D01*
G37*
D19*
X87425000Y-101900000D03*
D20*
X70350000Y-99960000D03*
X83075000Y-98305000D03*
X69600000Y-99960000D03*
X50300000Y-102100000D03*
X71100000Y-99960000D03*
X89700000Y-94700000D03*
X88200000Y-99300000D03*
X89000000Y-98700000D03*
X49300000Y-102600000D03*
X50300000Y-103200000D03*
X89200000Y-99600000D03*
X66900000Y-100250000D03*
X63350000Y-99830000D03*
X46170000Y-100750000D03*
D21*
X55010000Y-104310000D02*
X55010000Y-104710000D01*
D22*
X78230000Y-96690000D02*
X78250000Y-96710000D01*
D21*
X91940000Y-94700000D02*
X91960000Y-94720000D01*
X89700000Y-94700000D02*
X91940000Y-94700000D01*
D22*
X89997056Y-105850000D02*
X88300000Y-105850000D01*
X90467200Y-105850000D02*
X89997056Y-105850000D01*
X96270000Y-109990000D02*
X94607200Y-109990000D01*
X94607200Y-109990000D02*
X90467200Y-105850000D01*
X80790000Y-98340000D02*
X80790000Y-96710000D01*
X88300000Y-105850000D02*
X80790000Y-98340000D01*
X80510000Y-108560000D02*
X83220000Y-105850000D01*
X78470000Y-108560000D02*
X80510000Y-108560000D01*
X70250000Y-96690000D02*
X70250000Y-97090000D01*
X70250000Y-97090000D02*
X74100000Y-100940000D01*
X74100000Y-100940000D02*
X74880000Y-101720000D01*
D23*
X37850000Y-97290000D02*
X39390000Y-98830000D01*
X68510000Y-98830000D02*
X70250000Y-97090000D01*
X39390000Y-98830000D02*
X68510000Y-98830000D01*
D22*
X75930000Y-102770000D02*
X75930000Y-108560000D01*
X74100000Y-100940000D02*
X75930000Y-102770000D01*
D21*
X63350000Y-99830000D02*
X63350000Y-99830000D01*
D23*
X39052081Y-99830000D02*
X63350000Y-99830000D01*
X37850000Y-99830000D02*
X39052081Y-99830000D01*
D24*
X83490000Y-93950000D02*
X79050000Y-93950000D01*
X85660000Y-96120000D02*
X83490000Y-93950000D01*
X85660000Y-97020000D02*
X85660000Y-96120000D01*
X79050000Y-93950000D02*
X82155736Y-93950000D01*
X39929200Y-94720000D02*
X40699200Y-93950000D01*
X37860000Y-94720000D02*
X39929200Y-94720000D01*
X40699200Y-93950000D02*
X42850000Y-93950000D01*
X42850000Y-93950000D02*
X79050000Y-93950000D01*
D23*
X39052081Y-102370000D02*
X40672081Y-100750000D01*
X37850000Y-102370000D02*
X39052081Y-102370000D01*
X40672081Y-100750000D02*
X46110000Y-100750000D01*
X46110000Y-100750000D02*
X46170000Y-100750000D01*
D21*
X96280000Y-94750000D02*
X95030000Y-94750000D01*
X92700000Y-104887500D02*
X94400000Y-103187500D01*
X94400000Y-95380000D02*
X94440000Y-95340000D01*
X94400000Y-103187500D02*
X94400000Y-95380000D01*
X95030000Y-94750000D02*
X94440000Y-95340000D01*
X92687500Y-101900000D02*
X92700000Y-101912500D01*
X90400000Y-101900000D02*
X92687500Y-101900000D01*
X91960000Y-101172500D02*
X92700000Y-101912500D01*
X91960000Y-99320000D02*
X91960000Y-101172500D01*
D25*
G36*
X97432785Y-92978386D02*
G01*
X97579748Y-93022757D01*
X97715297Y-93094829D01*
X97834258Y-93191852D01*
X97932118Y-93310144D01*
X98005132Y-93445181D01*
X98050529Y-93591833D01*
X98070001Y-93777101D01*
X98070000Y-110967643D01*
X98052648Y-111157645D01*
X98009257Y-111304906D01*
X97938088Y-111440935D01*
X97841850Y-111560553D01*
X97724216Y-111659197D01*
X97589655Y-111733117D01*
X97443308Y-111779490D01*
X97259940Y-111800000D01*
X95107096Y-111800000D01*
X95021974Y-111525016D01*
X94997029Y-111465675D01*
X94972931Y-111406029D01*
X94968277Y-111397276D01*
X94782626Y-111053921D01*
X94767435Y-111031400D01*
X95213595Y-111031400D01*
X95224866Y-111045134D01*
X95450986Y-111230706D01*
X95708966Y-111368599D01*
X95988889Y-111453513D01*
X96207050Y-111475000D01*
X96352950Y-111475000D01*
X96571111Y-111453513D01*
X96851034Y-111368599D01*
X97109014Y-111230706D01*
X97335134Y-111045134D01*
X97520706Y-110819014D01*
X97658599Y-110561034D01*
X97743513Y-110281111D01*
X97772185Y-109990000D01*
X97743513Y-109698889D01*
X97658599Y-109418966D01*
X97520706Y-109160986D01*
X97335134Y-108934866D01*
X97109014Y-108749294D01*
X97054209Y-108720000D01*
X97109014Y-108690706D01*
X97335134Y-108505134D01*
X97520706Y-108279014D01*
X97658599Y-108021034D01*
X97743513Y-107741111D01*
X97772185Y-107450000D01*
X97743513Y-107158889D01*
X97658599Y-106878966D01*
X97520706Y-106620986D01*
X97335134Y-106394866D01*
X97109014Y-106209294D01*
X97054209Y-106180000D01*
X97109014Y-106150706D01*
X97335134Y-105965134D01*
X97520706Y-105739014D01*
X97658599Y-105481034D01*
X97743513Y-105201111D01*
X97772185Y-104910000D01*
X97743513Y-104618889D01*
X97658599Y-104338966D01*
X97520706Y-104080986D01*
X97335134Y-103854866D01*
X97109014Y-103669294D01*
X97054209Y-103640000D01*
X97109014Y-103610706D01*
X97335134Y-103425134D01*
X97520706Y-103199014D01*
X97658599Y-102941034D01*
X97743513Y-102661111D01*
X97772185Y-102370000D01*
X97743513Y-102078889D01*
X97658599Y-101798966D01*
X97520706Y-101540986D01*
X97335134Y-101314866D01*
X97109014Y-101129294D01*
X97054209Y-101100000D01*
X97109014Y-101070706D01*
X97335134Y-100885134D01*
X97520706Y-100659014D01*
X97658599Y-100401034D01*
X97743513Y-100121111D01*
X97772185Y-99830000D01*
X97743513Y-99538889D01*
X97658599Y-99258966D01*
X97520706Y-99000986D01*
X97335134Y-98774866D01*
X97109014Y-98589294D01*
X97054209Y-98560000D01*
X97109014Y-98530706D01*
X97335134Y-98345134D01*
X97520706Y-98119014D01*
X97658599Y-97861034D01*
X97743513Y-97581111D01*
X97772185Y-97290000D01*
X97743513Y-96998889D01*
X97658599Y-96718966D01*
X97520706Y-96460986D01*
X97335134Y-96234866D01*
X97305313Y-96210393D01*
X97374180Y-96189502D01*
X97484494Y-96130537D01*
X97581185Y-96051185D01*
X97660537Y-95954494D01*
X97719502Y-95844180D01*
X97755812Y-95724482D01*
X97768072Y-95600000D01*
X97768072Y-93900000D01*
X97755812Y-93775518D01*
X97719502Y-93655820D01*
X97660537Y-93545506D01*
X97581185Y-93448815D01*
X97484494Y-93369463D01*
X97374180Y-93310498D01*
X97254482Y-93274188D01*
X97130000Y-93261928D01*
X95430000Y-93261928D01*
X95305518Y-93274188D01*
X95185820Y-93310498D01*
X95075506Y-93369463D01*
X94978815Y-93448815D01*
X94899463Y-93545506D01*
X94840498Y-93655820D01*
X94804188Y-93775518D01*
X94791928Y-93900000D01*
X94791928Y-93949646D01*
X94708913Y-93974828D01*
X94563854Y-94052364D01*
X94436709Y-94156709D01*
X94410558Y-94188574D01*
X93878576Y-94720557D01*
X93878571Y-94720561D01*
X93838571Y-94760561D01*
X93806710Y-94786709D01*
X93735191Y-94873855D01*
X93702364Y-94913855D01*
X93624828Y-95058914D01*
X93595981Y-95154010D01*
X93595000Y-95005750D01*
X93436250Y-94847000D01*
X92087000Y-94847000D01*
X92087000Y-95946250D01*
X92245750Y-96105000D01*
X92960000Y-96108072D01*
X93084482Y-96095812D01*
X93204180Y-96059502D01*
X93314494Y-96000537D01*
X93411185Y-95921185D01*
X93490537Y-95824494D01*
X93549502Y-95714180D01*
X93565001Y-95663087D01*
X93565001Y-98376912D01*
X93549502Y-98325820D01*
X93490537Y-98215506D01*
X93411185Y-98118815D01*
X93314494Y-98039463D01*
X93204180Y-97980498D01*
X93084482Y-97944188D01*
X92960000Y-97931928D01*
X90960000Y-97931928D01*
X90835518Y-97944188D01*
X90715820Y-97980498D01*
X90605506Y-98039463D01*
X90508815Y-98118815D01*
X90429463Y-98215506D01*
X90370498Y-98325820D01*
X90334188Y-98445518D01*
X90321928Y-98570000D01*
X90321928Y-100070000D01*
X90334188Y-100194482D01*
X90370498Y-100314180D01*
X90409383Y-100386928D01*
X89937500Y-100386928D01*
X89764246Y-100403992D01*
X89597650Y-100454528D01*
X89444114Y-100536595D01*
X89309538Y-100647038D01*
X89199095Y-100781614D01*
X89117028Y-100935150D01*
X89066492Y-101101746D01*
X89049428Y-101275000D01*
X89049428Y-102525000D01*
X89066492Y-102698254D01*
X89117028Y-102864850D01*
X89199095Y-103018386D01*
X89309538Y-103152962D01*
X89444114Y-103263405D01*
X89597650Y-103345472D01*
X89764246Y-103396008D01*
X89937500Y-103413072D01*
X90862500Y-103413072D01*
X91035754Y-103396008D01*
X91202350Y-103345472D01*
X91355886Y-103263405D01*
X91490462Y-103152962D01*
X91546545Y-103084625D01*
X91581614Y-103113405D01*
X91735150Y-103195472D01*
X91901746Y-103246008D01*
X92075000Y-103263072D01*
X93143560Y-103263072D01*
X92869705Y-103536928D01*
X92075000Y-103536928D01*
X91901746Y-103553992D01*
X91735150Y-103604528D01*
X91581614Y-103686595D01*
X91447038Y-103797038D01*
X91336595Y-103931614D01*
X91254528Y-104085150D01*
X91203992Y-104251746D01*
X91186928Y-104425000D01*
X91186928Y-105093467D01*
X91048570Y-104979919D01*
X90867654Y-104883217D01*
X90671350Y-104823669D01*
X90518352Y-104808600D01*
X90518341Y-104808600D01*
X90467200Y-104803563D01*
X90416059Y-104808600D01*
X89819181Y-104808600D01*
X89603819Y-104546181D01*
X89324404Y-104316871D01*
X89005622Y-104146479D01*
X88659723Y-104041552D01*
X88390139Y-104015000D01*
X88209861Y-104015000D01*
X87962159Y-104039397D01*
X87236006Y-103313244D01*
X87298000Y-103251250D01*
X87298000Y-102027000D01*
X87552000Y-102027000D01*
X87552000Y-103251250D01*
X87710750Y-103410000D01*
X88137500Y-103413072D01*
X88261982Y-103400812D01*
X88381680Y-103364502D01*
X88491994Y-103305537D01*
X88588685Y-103226185D01*
X88668037Y-103129494D01*
X88727002Y-103019180D01*
X88763312Y-102899482D01*
X88775572Y-102775000D01*
X88772500Y-102185750D01*
X88613750Y-102027000D01*
X87552000Y-102027000D01*
X87298000Y-102027000D01*
X86236250Y-102027000D01*
X86093006Y-102170244D01*
X84947762Y-101025000D01*
X86074428Y-101025000D01*
X86077500Y-101614250D01*
X86236250Y-101773000D01*
X87298000Y-101773000D01*
X87298000Y-100548750D01*
X87552000Y-100548750D01*
X87552000Y-101773000D01*
X88613750Y-101773000D01*
X88772500Y-101614250D01*
X88775572Y-101025000D01*
X88763312Y-100900518D01*
X88727002Y-100780820D01*
X88668037Y-100670506D01*
X88588685Y-100573815D01*
X88491994Y-100494463D01*
X88381680Y-100435498D01*
X88261982Y-100399188D01*
X88137500Y-100386928D01*
X87710750Y-100390000D01*
X87552000Y-100548750D01*
X87298000Y-100548750D01*
X87139250Y-100390000D01*
X86712500Y-100386928D01*
X86588018Y-100399188D01*
X86468320Y-100435498D01*
X86358006Y-100494463D01*
X86261315Y-100573815D01*
X86181963Y-100670506D01*
X86122998Y-100780820D01*
X86086688Y-100900518D01*
X86074428Y-101025000D01*
X84947762Y-101025000D01*
X81831400Y-97908639D01*
X81831400Y-97776405D01*
X81845134Y-97765134D01*
X82030706Y-97539014D01*
X82168599Y-97281034D01*
X82253513Y-97001111D01*
X82282185Y-96710000D01*
X82253513Y-96418889D01*
X82168599Y-96138966D01*
X82030706Y-95880986D01*
X81845134Y-95654866D01*
X81619014Y-95469294D01*
X81361034Y-95331401D01*
X81081111Y-95246487D01*
X80862950Y-95225000D01*
X80717050Y-95225000D01*
X80498889Y-95246487D01*
X80218966Y-95331401D01*
X79960986Y-95469294D01*
X79734866Y-95654866D01*
X79710393Y-95684687D01*
X79689502Y-95615820D01*
X79630537Y-95505506D01*
X79551185Y-95408815D01*
X79454494Y-95329463D01*
X79344180Y-95270498D01*
X79224482Y-95234188D01*
X79100000Y-95221928D01*
X77400000Y-95221928D01*
X77275518Y-95234188D01*
X77155820Y-95270498D01*
X77045506Y-95329463D01*
X76948815Y-95408815D01*
X76869463Y-95505506D01*
X76810498Y-95615820D01*
X76774188Y-95735518D01*
X76761928Y-95860000D01*
X76761928Y-97560000D01*
X76774188Y-97684482D01*
X76810498Y-97804180D01*
X76869463Y-97914494D01*
X76948815Y-98011185D01*
X77045506Y-98090537D01*
X77155820Y-98149502D01*
X77275518Y-98185812D01*
X77400000Y-98198072D01*
X79100000Y-98198072D01*
X79224482Y-98185812D01*
X79344180Y-98149502D01*
X79454494Y-98090537D01*
X79551185Y-98011185D01*
X79630537Y-97914494D01*
X79689502Y-97804180D01*
X79710393Y-97735313D01*
X79734866Y-97765134D01*
X79748600Y-97776406D01*
X79748600Y-98288858D01*
X79743563Y-98340000D01*
X79748600Y-98391141D01*
X79748600Y-98391151D01*
X79763669Y-98544149D01*
X79823217Y-98740453D01*
X79919919Y-98921370D01*
X80050057Y-99079943D01*
X80089791Y-99112552D01*
X86489397Y-105512159D01*
X86456122Y-105850000D01*
X86491552Y-106209723D01*
X86596479Y-106555622D01*
X86766871Y-106874404D01*
X86996181Y-107153819D01*
X87275596Y-107383129D01*
X87594378Y-107553521D01*
X87940277Y-107658448D01*
X88209861Y-107685000D01*
X88390139Y-107685000D01*
X88659723Y-107658448D01*
X89005622Y-107553521D01*
X89324404Y-107383129D01*
X89603819Y-107153819D01*
X89819181Y-106891400D01*
X90035839Y-106891400D01*
X92992174Y-109847736D01*
X92967612Y-109842515D01*
X92957753Y-109841479D01*
X92570016Y-109803461D01*
X92534877Y-109800000D01*
X79299874Y-109800000D01*
X79525134Y-109615134D01*
X79536405Y-109601400D01*
X80458859Y-109601400D01*
X80510000Y-109606437D01*
X80561141Y-109601400D01*
X80561152Y-109601400D01*
X80714150Y-109586331D01*
X80910454Y-109526783D01*
X81091370Y-109430081D01*
X81249943Y-109299943D01*
X81282552Y-109260209D01*
X82887875Y-107654886D01*
X83039268Y-107685000D01*
X83400732Y-107685000D01*
X83755250Y-107614482D01*
X84089199Y-107476156D01*
X84389744Y-107275338D01*
X84645338Y-107019744D01*
X84846156Y-106719199D01*
X84984482Y-106385250D01*
X85055000Y-106030732D01*
X85055000Y-105669268D01*
X84984482Y-105314750D01*
X84846156Y-104980801D01*
X84645338Y-104680256D01*
X84389744Y-104424662D01*
X84089199Y-104223844D01*
X83755250Y-104085518D01*
X83400732Y-104015000D01*
X83039268Y-104015000D01*
X82684750Y-104085518D01*
X82350801Y-104223844D01*
X82050256Y-104424662D01*
X81794662Y-104680256D01*
X81593844Y-104980801D01*
X81455518Y-105314750D01*
X81385000Y-105669268D01*
X81385000Y-106030732D01*
X81415114Y-106182125D01*
X80078639Y-107518600D01*
X79536405Y-107518600D01*
X79525134Y-107504866D01*
X79299014Y-107319294D01*
X79041034Y-107181401D01*
X78761111Y-107096487D01*
X78542950Y-107075000D01*
X78397050Y-107075000D01*
X78178889Y-107096487D01*
X77898966Y-107181401D01*
X77640986Y-107319294D01*
X77414866Y-107504866D01*
X77390393Y-107534687D01*
X77369502Y-107465820D01*
X77310537Y-107355506D01*
X77231185Y-107258815D01*
X77134494Y-107179463D01*
X77024180Y-107120498D01*
X76971400Y-107104487D01*
X76971400Y-102821141D01*
X76976437Y-102770000D01*
X76971400Y-102718858D01*
X76971400Y-102718848D01*
X76956331Y-102565850D01*
X76896783Y-102369546D01*
X76800081Y-102188630D01*
X76710019Y-102078889D01*
X76702551Y-102069789D01*
X76702547Y-102069785D01*
X76669943Y-102030057D01*
X76630214Y-101997453D01*
X75652554Y-101019792D01*
X75652551Y-101019789D01*
X74872554Y-100239793D01*
X74872550Y-100239788D01*
X73121709Y-98488947D01*
X73341808Y-98422182D01*
X73591101Y-98288932D01*
X73809608Y-98109608D01*
X73988932Y-97891101D01*
X74122182Y-97641808D01*
X74204236Y-97371309D01*
X74225000Y-97160491D01*
X74225000Y-96219508D01*
X74204236Y-96008691D01*
X74122182Y-95738192D01*
X73988932Y-95488899D01*
X73809607Y-95270392D01*
X73717254Y-95194600D01*
X82974471Y-95194600D01*
X84021928Y-96242058D01*
X84021928Y-98920000D01*
X84034188Y-99044482D01*
X84070498Y-99164180D01*
X84129463Y-99274494D01*
X84208815Y-99371185D01*
X84305506Y-99450537D01*
X84415820Y-99509502D01*
X84535518Y-99545812D01*
X84660000Y-99558072D01*
X86660000Y-99558072D01*
X86784482Y-99545812D01*
X86904180Y-99509502D01*
X87014494Y-99450537D01*
X87111185Y-99371185D01*
X87190537Y-99274494D01*
X87249502Y-99164180D01*
X87285812Y-99044482D01*
X87298072Y-98920000D01*
X87298072Y-95470000D01*
X90321928Y-95470000D01*
X90334188Y-95594482D01*
X90370498Y-95714180D01*
X90429463Y-95824494D01*
X90508815Y-95921185D01*
X90605506Y-96000537D01*
X90715820Y-96059502D01*
X90835518Y-96095812D01*
X90960000Y-96108072D01*
X91674250Y-96105000D01*
X91833000Y-95946250D01*
X91833000Y-94847000D01*
X90483750Y-94847000D01*
X90325000Y-95005750D01*
X90321928Y-95470000D01*
X87298072Y-95470000D01*
X87298072Y-95120000D01*
X87285812Y-94995518D01*
X87249502Y-94875820D01*
X87190537Y-94765506D01*
X87111185Y-94668815D01*
X87014494Y-94589463D01*
X86904180Y-94530498D01*
X86784482Y-94494188D01*
X86660000Y-94481928D01*
X85782058Y-94481928D01*
X85270130Y-93970000D01*
X90321928Y-93970000D01*
X90325000Y-94434250D01*
X90483750Y-94593000D01*
X91833000Y-94593000D01*
X91833000Y-93493750D01*
X92087000Y-93493750D01*
X92087000Y-94593000D01*
X93436250Y-94593000D01*
X93595000Y-94434250D01*
X93598072Y-93970000D01*
X93585812Y-93845518D01*
X93549502Y-93725820D01*
X93490537Y-93615506D01*
X93411185Y-93518815D01*
X93314494Y-93439463D01*
X93204180Y-93380498D01*
X93084482Y-93344188D01*
X92960000Y-93331928D01*
X92245750Y-93335000D01*
X92087000Y-93493750D01*
X91833000Y-93493750D01*
X91674250Y-93335000D01*
X90960000Y-93331928D01*
X90835518Y-93344188D01*
X90715820Y-93380498D01*
X90605506Y-93439463D01*
X90508815Y-93518815D01*
X90429463Y-93615506D01*
X90370498Y-93725820D01*
X90334188Y-93845518D01*
X90321928Y-93970000D01*
X85270130Y-93970000D01*
X84413302Y-93113173D01*
X84374323Y-93065677D01*
X84245555Y-92960000D01*
X97245271Y-92960000D01*
X97432785Y-92978386D01*
X97432785Y-92978386D01*
G37*
X97432785Y-92978386D02*
X97579748Y-93022757D01*
X97715297Y-93094829D01*
X97834258Y-93191852D01*
X97932118Y-93310144D01*
X98005132Y-93445181D01*
X98050529Y-93591833D01*
X98070001Y-93777101D01*
X98070000Y-110967643D01*
X98052648Y-111157645D01*
X98009257Y-111304906D01*
X97938088Y-111440935D01*
X97841850Y-111560553D01*
X97724216Y-111659197D01*
X97589655Y-111733117D01*
X97443308Y-111779490D01*
X97259940Y-111800000D01*
X95107096Y-111800000D01*
X95021974Y-111525016D01*
X94997029Y-111465675D01*
X94972931Y-111406029D01*
X94968277Y-111397276D01*
X94782626Y-111053921D01*
X94767435Y-111031400D01*
X95213595Y-111031400D01*
X95224866Y-111045134D01*
X95450986Y-111230706D01*
X95708966Y-111368599D01*
X95988889Y-111453513D01*
X96207050Y-111475000D01*
X96352950Y-111475000D01*
X96571111Y-111453513D01*
X96851034Y-111368599D01*
X97109014Y-111230706D01*
X97335134Y-111045134D01*
X97520706Y-110819014D01*
X97658599Y-110561034D01*
X97743513Y-110281111D01*
X97772185Y-109990000D01*
X97743513Y-109698889D01*
X97658599Y-109418966D01*
X97520706Y-109160986D01*
X97335134Y-108934866D01*
X97109014Y-108749294D01*
X97054209Y-108720000D01*
X97109014Y-108690706D01*
X97335134Y-108505134D01*
X97520706Y-108279014D01*
X97658599Y-108021034D01*
X97743513Y-107741111D01*
X97772185Y-107450000D01*
X97743513Y-107158889D01*
X97658599Y-106878966D01*
X97520706Y-106620986D01*
X97335134Y-106394866D01*
X97109014Y-106209294D01*
X97054209Y-106180000D01*
X97109014Y-106150706D01*
X97335134Y-105965134D01*
X97520706Y-105739014D01*
X97658599Y-105481034D01*
X97743513Y-105201111D01*
X97772185Y-104910000D01*
X97743513Y-104618889D01*
X97658599Y-104338966D01*
X97520706Y-104080986D01*
X97335134Y-103854866D01*
X97109014Y-103669294D01*
X97054209Y-103640000D01*
X97109014Y-103610706D01*
X97335134Y-103425134D01*
X97520706Y-103199014D01*
X97658599Y-102941034D01*
X97743513Y-102661111D01*
X97772185Y-102370000D01*
X97743513Y-102078889D01*
X97658599Y-101798966D01*
X97520706Y-101540986D01*
X97335134Y-101314866D01*
X97109014Y-101129294D01*
X97054209Y-101100000D01*
X97109014Y-101070706D01*
X97335134Y-100885134D01*
X97520706Y-100659014D01*
X97658599Y-100401034D01*
X97743513Y-100121111D01*
X97772185Y-99830000D01*
X97743513Y-99538889D01*
X97658599Y-99258966D01*
X97520706Y-99000986D01*
X97335134Y-98774866D01*
X97109014Y-98589294D01*
X97054209Y-98560000D01*
X97109014Y-98530706D01*
X97335134Y-98345134D01*
X97520706Y-98119014D01*
X97658599Y-97861034D01*
X97743513Y-97581111D01*
X97772185Y-97290000D01*
X97743513Y-96998889D01*
X97658599Y-96718966D01*
X97520706Y-96460986D01*
X97335134Y-96234866D01*
X97305313Y-96210393D01*
X97374180Y-96189502D01*
X97484494Y-96130537D01*
X97581185Y-96051185D01*
X97660537Y-95954494D01*
X97719502Y-95844180D01*
X97755812Y-95724482D01*
X97768072Y-95600000D01*
X97768072Y-93900000D01*
X97755812Y-93775518D01*
X97719502Y-93655820D01*
X97660537Y-93545506D01*
X97581185Y-93448815D01*
X97484494Y-93369463D01*
X97374180Y-93310498D01*
X97254482Y-93274188D01*
X97130000Y-93261928D01*
X95430000Y-93261928D01*
X95305518Y-93274188D01*
X95185820Y-93310498D01*
X95075506Y-93369463D01*
X94978815Y-93448815D01*
X94899463Y-93545506D01*
X94840498Y-93655820D01*
X94804188Y-93775518D01*
X94791928Y-93900000D01*
X94791928Y-93949646D01*
X94708913Y-93974828D01*
X94563854Y-94052364D01*
X94436709Y-94156709D01*
X94410558Y-94188574D01*
X93878576Y-94720557D01*
X93878571Y-94720561D01*
X93838571Y-94760561D01*
X93806710Y-94786709D01*
X93735191Y-94873855D01*
X93702364Y-94913855D01*
X93624828Y-95058914D01*
X93595981Y-95154010D01*
X93595000Y-95005750D01*
X93436250Y-94847000D01*
X92087000Y-94847000D01*
X92087000Y-95946250D01*
X92245750Y-96105000D01*
X92960000Y-96108072D01*
X93084482Y-96095812D01*
X93204180Y-96059502D01*
X93314494Y-96000537D01*
X93411185Y-95921185D01*
X93490537Y-95824494D01*
X93549502Y-95714180D01*
X93565001Y-95663087D01*
X93565001Y-98376912D01*
X93549502Y-98325820D01*
X93490537Y-98215506D01*
X93411185Y-98118815D01*
X93314494Y-98039463D01*
X93204180Y-97980498D01*
X93084482Y-97944188D01*
X92960000Y-97931928D01*
X90960000Y-97931928D01*
X90835518Y-97944188D01*
X90715820Y-97980498D01*
X90605506Y-98039463D01*
X90508815Y-98118815D01*
X90429463Y-98215506D01*
X90370498Y-98325820D01*
X90334188Y-98445518D01*
X90321928Y-98570000D01*
X90321928Y-100070000D01*
X90334188Y-100194482D01*
X90370498Y-100314180D01*
X90409383Y-100386928D01*
X89937500Y-100386928D01*
X89764246Y-100403992D01*
X89597650Y-100454528D01*
X89444114Y-100536595D01*
X89309538Y-100647038D01*
X89199095Y-100781614D01*
X89117028Y-100935150D01*
X89066492Y-101101746D01*
X89049428Y-101275000D01*
X89049428Y-102525000D01*
X89066492Y-102698254D01*
X89117028Y-102864850D01*
X89199095Y-103018386D01*
X89309538Y-103152962D01*
X89444114Y-103263405D01*
X89597650Y-103345472D01*
X89764246Y-103396008D01*
X89937500Y-103413072D01*
X90862500Y-103413072D01*
X91035754Y-103396008D01*
X91202350Y-103345472D01*
X91355886Y-103263405D01*
X91490462Y-103152962D01*
X91546545Y-103084625D01*
X91581614Y-103113405D01*
X91735150Y-103195472D01*
X91901746Y-103246008D01*
X92075000Y-103263072D01*
X93143560Y-103263072D01*
X92869705Y-103536928D01*
X92075000Y-103536928D01*
X91901746Y-103553992D01*
X91735150Y-103604528D01*
X91581614Y-103686595D01*
X91447038Y-103797038D01*
X91336595Y-103931614D01*
X91254528Y-104085150D01*
X91203992Y-104251746D01*
X91186928Y-104425000D01*
X91186928Y-105093467D01*
X91048570Y-104979919D01*
X90867654Y-104883217D01*
X90671350Y-104823669D01*
X90518352Y-104808600D01*
X90518341Y-104808600D01*
X90467200Y-104803563D01*
X90416059Y-104808600D01*
X89819181Y-104808600D01*
X89603819Y-104546181D01*
X89324404Y-104316871D01*
X89005622Y-104146479D01*
X88659723Y-104041552D01*
X88390139Y-104015000D01*
X88209861Y-104015000D01*
X87962159Y-104039397D01*
X87236006Y-103313244D01*
X87298000Y-103251250D01*
X87298000Y-102027000D01*
X87552000Y-102027000D01*
X87552000Y-103251250D01*
X87710750Y-103410000D01*
X88137500Y-103413072D01*
X88261982Y-103400812D01*
X88381680Y-103364502D01*
X88491994Y-103305537D01*
X88588685Y-103226185D01*
X88668037Y-103129494D01*
X88727002Y-103019180D01*
X88763312Y-102899482D01*
X88775572Y-102775000D01*
X88772500Y-102185750D01*
X88613750Y-102027000D01*
X87552000Y-102027000D01*
X87298000Y-102027000D01*
X86236250Y-102027000D01*
X86093006Y-102170244D01*
X84947762Y-101025000D01*
X86074428Y-101025000D01*
X86077500Y-101614250D01*
X86236250Y-101773000D01*
X87298000Y-101773000D01*
X87298000Y-100548750D01*
X87552000Y-100548750D01*
X87552000Y-101773000D01*
X88613750Y-101773000D01*
X88772500Y-101614250D01*
X88775572Y-101025000D01*
X88763312Y-100900518D01*
X88727002Y-100780820D01*
X88668037Y-100670506D01*
X88588685Y-100573815D01*
X88491994Y-100494463D01*
X88381680Y-100435498D01*
X88261982Y-100399188D01*
X88137500Y-100386928D01*
X87710750Y-100390000D01*
X87552000Y-100548750D01*
X87298000Y-100548750D01*
X87139250Y-100390000D01*
X86712500Y-100386928D01*
X86588018Y-100399188D01*
X86468320Y-100435498D01*
X86358006Y-100494463D01*
X86261315Y-100573815D01*
X86181963Y-100670506D01*
X86122998Y-100780820D01*
X86086688Y-100900518D01*
X86074428Y-101025000D01*
X84947762Y-101025000D01*
X81831400Y-97908639D01*
X81831400Y-97776405D01*
X81845134Y-97765134D01*
X82030706Y-97539014D01*
X82168599Y-97281034D01*
X82253513Y-97001111D01*
X82282185Y-96710000D01*
X82253513Y-96418889D01*
X82168599Y-96138966D01*
X82030706Y-95880986D01*
X81845134Y-95654866D01*
X81619014Y-95469294D01*
X81361034Y-95331401D01*
X81081111Y-95246487D01*
X80862950Y-95225000D01*
X80717050Y-95225000D01*
X80498889Y-95246487D01*
X80218966Y-95331401D01*
X79960986Y-95469294D01*
X79734866Y-95654866D01*
X79710393Y-95684687D01*
X79689502Y-95615820D01*
X79630537Y-95505506D01*
X79551185Y-95408815D01*
X79454494Y-95329463D01*
X79344180Y-95270498D01*
X79224482Y-95234188D01*
X79100000Y-95221928D01*
X77400000Y-95221928D01*
X77275518Y-95234188D01*
X77155820Y-95270498D01*
X77045506Y-95329463D01*
X76948815Y-95408815D01*
X76869463Y-95505506D01*
X76810498Y-95615820D01*
X76774188Y-95735518D01*
X76761928Y-95860000D01*
X76761928Y-97560000D01*
X76774188Y-97684482D01*
X76810498Y-97804180D01*
X76869463Y-97914494D01*
X76948815Y-98011185D01*
X77045506Y-98090537D01*
X77155820Y-98149502D01*
X77275518Y-98185812D01*
X77400000Y-98198072D01*
X79100000Y-98198072D01*
X79224482Y-98185812D01*
X79344180Y-98149502D01*
X79454494Y-98090537D01*
X79551185Y-98011185D01*
X79630537Y-97914494D01*
X79689502Y-97804180D01*
X79710393Y-97735313D01*
X79734866Y-97765134D01*
X79748600Y-97776406D01*
X79748600Y-98288858D01*
X79743563Y-98340000D01*
X79748600Y-98391141D01*
X79748600Y-98391151D01*
X79763669Y-98544149D01*
X79823217Y-98740453D01*
X79919919Y-98921370D01*
X80050057Y-99079943D01*
X80089791Y-99112552D01*
X86489397Y-105512159D01*
X86456122Y-105850000D01*
X86491552Y-106209723D01*
X86596479Y-106555622D01*
X86766871Y-106874404D01*
X86996181Y-107153819D01*
X87275596Y-107383129D01*
X87594378Y-107553521D01*
X87940277Y-107658448D01*
X88209861Y-107685000D01*
X88390139Y-107685000D01*
X88659723Y-107658448D01*
X89005622Y-107553521D01*
X89324404Y-107383129D01*
X89603819Y-107153819D01*
X89819181Y-106891400D01*
X90035839Y-106891400D01*
X92992174Y-109847736D01*
X92967612Y-109842515D01*
X92957753Y-109841479D01*
X92570016Y-109803461D01*
X92534877Y-109800000D01*
X79299874Y-109800000D01*
X79525134Y-109615134D01*
X79536405Y-109601400D01*
X80458859Y-109601400D01*
X80510000Y-109606437D01*
X80561141Y-109601400D01*
X80561152Y-109601400D01*
X80714150Y-109586331D01*
X80910454Y-109526783D01*
X81091370Y-109430081D01*
X81249943Y-109299943D01*
X81282552Y-109260209D01*
X82887875Y-107654886D01*
X83039268Y-107685000D01*
X83400732Y-107685000D01*
X83755250Y-107614482D01*
X84089199Y-107476156D01*
X84389744Y-107275338D01*
X84645338Y-107019744D01*
X84846156Y-106719199D01*
X84984482Y-106385250D01*
X85055000Y-106030732D01*
X85055000Y-105669268D01*
X84984482Y-105314750D01*
X84846156Y-104980801D01*
X84645338Y-104680256D01*
X84389744Y-104424662D01*
X84089199Y-104223844D01*
X83755250Y-104085518D01*
X83400732Y-104015000D01*
X83039268Y-104015000D01*
X82684750Y-104085518D01*
X82350801Y-104223844D01*
X82050256Y-104424662D01*
X81794662Y-104680256D01*
X81593844Y-104980801D01*
X81455518Y-105314750D01*
X81385000Y-105669268D01*
X81385000Y-106030732D01*
X81415114Y-106182125D01*
X80078639Y-107518600D01*
X79536405Y-107518600D01*
X79525134Y-107504866D01*
X79299014Y-107319294D01*
X79041034Y-107181401D01*
X78761111Y-107096487D01*
X78542950Y-107075000D01*
X78397050Y-107075000D01*
X78178889Y-107096487D01*
X77898966Y-107181401D01*
X77640986Y-107319294D01*
X77414866Y-107504866D01*
X77390393Y-107534687D01*
X77369502Y-107465820D01*
X77310537Y-107355506D01*
X77231185Y-107258815D01*
X77134494Y-107179463D01*
X77024180Y-107120498D01*
X76971400Y-107104487D01*
X76971400Y-102821141D01*
X76976437Y-102770000D01*
X76971400Y-102718858D01*
X76971400Y-102718848D01*
X76956331Y-102565850D01*
X76896783Y-102369546D01*
X76800081Y-102188630D01*
X76710019Y-102078889D01*
X76702551Y-102069789D01*
X76702547Y-102069785D01*
X76669943Y-102030057D01*
X76630214Y-101997453D01*
X75652554Y-101019792D01*
X75652551Y-101019789D01*
X74872554Y-100239793D01*
X74872550Y-100239788D01*
X73121709Y-98488947D01*
X73341808Y-98422182D01*
X73591101Y-98288932D01*
X73809608Y-98109608D01*
X73988932Y-97891101D01*
X74122182Y-97641808D01*
X74204236Y-97371309D01*
X74225000Y-97160491D01*
X74225000Y-96219508D01*
X74204236Y-96008691D01*
X74122182Y-95738192D01*
X73988932Y-95488899D01*
X73809607Y-95270392D01*
X73717254Y-95194600D01*
X82974471Y-95194600D01*
X84021928Y-96242058D01*
X84021928Y-98920000D01*
X84034188Y-99044482D01*
X84070498Y-99164180D01*
X84129463Y-99274494D01*
X84208815Y-99371185D01*
X84305506Y-99450537D01*
X84415820Y-99509502D01*
X84535518Y-99545812D01*
X84660000Y-99558072D01*
X86660000Y-99558072D01*
X86784482Y-99545812D01*
X86904180Y-99509502D01*
X87014494Y-99450537D01*
X87111185Y-99371185D01*
X87190537Y-99274494D01*
X87249502Y-99164180D01*
X87285812Y-99044482D01*
X87298072Y-98920000D01*
X87298072Y-95470000D01*
X90321928Y-95470000D01*
X90334188Y-95594482D01*
X90370498Y-95714180D01*
X90429463Y-95824494D01*
X90508815Y-95921185D01*
X90605506Y-96000537D01*
X90715820Y-96059502D01*
X90835518Y-96095812D01*
X90960000Y-96108072D01*
X91674250Y-96105000D01*
X91833000Y-95946250D01*
X91833000Y-94847000D01*
X90483750Y-94847000D01*
X90325000Y-95005750D01*
X90321928Y-95470000D01*
X87298072Y-95470000D01*
X87298072Y-95120000D01*
X87285812Y-94995518D01*
X87249502Y-94875820D01*
X87190537Y-94765506D01*
X87111185Y-94668815D01*
X87014494Y-94589463D01*
X86904180Y-94530498D01*
X86784482Y-94494188D01*
X86660000Y-94481928D01*
X85782058Y-94481928D01*
X85270130Y-93970000D01*
X90321928Y-93970000D01*
X90325000Y-94434250D01*
X90483750Y-94593000D01*
X91833000Y-94593000D01*
X91833000Y-93493750D01*
X92087000Y-93493750D01*
X92087000Y-94593000D01*
X93436250Y-94593000D01*
X93595000Y-94434250D01*
X93598072Y-93970000D01*
X93585812Y-93845518D01*
X93549502Y-93725820D01*
X93490537Y-93615506D01*
X93411185Y-93518815D01*
X93314494Y-93439463D01*
X93204180Y-93380498D01*
X93084482Y-93344188D01*
X92960000Y-93331928D01*
X92245750Y-93335000D01*
X92087000Y-93493750D01*
X91833000Y-93493750D01*
X91674250Y-93335000D01*
X90960000Y-93331928D01*
X90835518Y-93344188D01*
X90715820Y-93380498D01*
X90605506Y-93439463D01*
X90508815Y-93518815D01*
X90429463Y-93615506D01*
X90370498Y-93725820D01*
X90334188Y-93845518D01*
X90321928Y-93970000D01*
X85270130Y-93970000D01*
X84413302Y-93113173D01*
X84374323Y-93065677D01*
X84245555Y-92960000D01*
X97245271Y-92960000D01*
X97432785Y-92978386D01*
G36*
X39939124Y-92963710D02*
G01*
X39814877Y-93065677D01*
X39775898Y-93113173D01*
X39413671Y-93475400D01*
X39207623Y-93475400D01*
X39161185Y-93418815D01*
X39064494Y-93339463D01*
X38954180Y-93280498D01*
X38834482Y-93244188D01*
X38710000Y-93231928D01*
X37010000Y-93231928D01*
X36885518Y-93244188D01*
X36765820Y-93280498D01*
X36655506Y-93339463D01*
X36558815Y-93418815D01*
X36479463Y-93515506D01*
X36420498Y-93625820D01*
X36384188Y-93745518D01*
X36371928Y-93870000D01*
X36371928Y-95570000D01*
X36384188Y-95694482D01*
X36420498Y-95814180D01*
X36479463Y-95924494D01*
X36558815Y-96021185D01*
X36655506Y-96100537D01*
X36765820Y-96159502D01*
X36834687Y-96180393D01*
X36804866Y-96204866D01*
X36619294Y-96430986D01*
X36481401Y-96688966D01*
X36396487Y-96968889D01*
X36367815Y-97260000D01*
X36396487Y-97551111D01*
X36481401Y-97831034D01*
X36619294Y-98089014D01*
X36804866Y-98315134D01*
X37030986Y-98500706D01*
X37085791Y-98530000D01*
X37030986Y-98559294D01*
X36804866Y-98744866D01*
X36619294Y-98970986D01*
X36481401Y-99228966D01*
X36396487Y-99508889D01*
X36367815Y-99800000D01*
X36396487Y-100091111D01*
X36481401Y-100371034D01*
X36619294Y-100629014D01*
X36804866Y-100855134D01*
X37030986Y-101040706D01*
X37085791Y-101070000D01*
X37030986Y-101099294D01*
X36804866Y-101284866D01*
X36619294Y-101510986D01*
X36481401Y-101768966D01*
X36396487Y-102048889D01*
X36367815Y-102340000D01*
X36396487Y-102631111D01*
X36481401Y-102911034D01*
X36619294Y-103169014D01*
X36804866Y-103395134D01*
X37030986Y-103580706D01*
X37085791Y-103610000D01*
X37030986Y-103639294D01*
X36804866Y-103824866D01*
X36619294Y-104050986D01*
X36481401Y-104308966D01*
X36396487Y-104588889D01*
X36367815Y-104880000D01*
X36396487Y-105171111D01*
X36481401Y-105451034D01*
X36619294Y-105709014D01*
X36804866Y-105935134D01*
X37030986Y-106120706D01*
X37085791Y-106150000D01*
X37030986Y-106179294D01*
X36804866Y-106364866D01*
X36619294Y-106590986D01*
X36481401Y-106848966D01*
X36396487Y-107128889D01*
X36367815Y-107420000D01*
X36396487Y-107711111D01*
X36481401Y-107991034D01*
X36619294Y-108249014D01*
X36804866Y-108475134D01*
X37030986Y-108660706D01*
X37095523Y-108695201D01*
X36978645Y-108764822D01*
X36762412Y-108959731D01*
X36588359Y-109193080D01*
X36463175Y-109455901D01*
X36418524Y-109603110D01*
X36539845Y-109833000D01*
X37733000Y-109833000D01*
X37733000Y-109813000D01*
X37987000Y-109813000D01*
X37987000Y-109833000D01*
X39180155Y-109833000D01*
X39301476Y-109603110D01*
X39256825Y-109455901D01*
X39131641Y-109193080D01*
X38957588Y-108959731D01*
X38741355Y-108764822D01*
X38624477Y-108695201D01*
X38689014Y-108660706D01*
X38915134Y-108475134D01*
X39100706Y-108249014D01*
X39238599Y-107991034D01*
X39323513Y-107711111D01*
X39352185Y-107420000D01*
X39323513Y-107128889D01*
X39238599Y-106848966D01*
X39100706Y-106590986D01*
X38915134Y-106364866D01*
X38689014Y-106179294D01*
X38634209Y-106150000D01*
X38689014Y-106120706D01*
X38915134Y-105935134D01*
X39100706Y-105709014D01*
X39238599Y-105451034D01*
X39323513Y-105171111D01*
X39352185Y-104880000D01*
X39323513Y-104588889D01*
X39238599Y-104308966D01*
X39100706Y-104050986D01*
X38915134Y-103824866D01*
X38689014Y-103639294D01*
X38634209Y-103610000D01*
X38689014Y-103580706D01*
X38915134Y-103395134D01*
X38985166Y-103309800D01*
X39005924Y-103309800D01*
X39052081Y-103314346D01*
X39098238Y-103309800D01*
X39098248Y-103309800D01*
X39236314Y-103296202D01*
X39413467Y-103242463D01*
X39576732Y-103155196D01*
X39719835Y-103037754D01*
X39749272Y-103001885D01*
X41061358Y-101689800D01*
X46216167Y-101689800D01*
X46354233Y-101676202D01*
X46531386Y-101622463D01*
X46694651Y-101535196D01*
X46837754Y-101417754D01*
X46955196Y-101274651D01*
X47042463Y-101111386D01*
X47096202Y-100934233D01*
X47112397Y-100769800D01*
X63396167Y-100769800D01*
X63534233Y-100756202D01*
X63711386Y-100702463D01*
X63874651Y-100615196D01*
X64017754Y-100497754D01*
X64135196Y-100354651D01*
X64222463Y-100191386D01*
X64276202Y-100014233D01*
X64294347Y-99830000D01*
X64288418Y-99769800D01*
X68463843Y-99769800D01*
X68510000Y-99774346D01*
X68556157Y-99769800D01*
X68556167Y-99769800D01*
X68694233Y-99756202D01*
X68871386Y-99702463D01*
X69034651Y-99615196D01*
X69177754Y-99497754D01*
X69207191Y-99461885D01*
X70147254Y-98521823D01*
X70215815Y-98528576D01*
X73399788Y-101712550D01*
X73399793Y-101712554D01*
X74179789Y-102492551D01*
X74888600Y-103201362D01*
X74888601Y-107104487D01*
X74835820Y-107120498D01*
X74725506Y-107179463D01*
X74628815Y-107258815D01*
X74549463Y-107355506D01*
X74490498Y-107465820D01*
X74454188Y-107585518D01*
X74441928Y-107710000D01*
X74441928Y-109410000D01*
X74454188Y-109534482D01*
X74490498Y-109654180D01*
X74549463Y-109764494D01*
X74578602Y-109800000D01*
X57834721Y-109800000D01*
X57550101Y-109772093D01*
X57309718Y-109699517D01*
X57088011Y-109581633D01*
X56893420Y-109422929D01*
X56733365Y-109229455D01*
X56613936Y-109008576D01*
X56539683Y-108768701D01*
X56509476Y-108481308D01*
X56499966Y-108138944D01*
X56499947Y-108133545D01*
X56499767Y-108131770D01*
X56498757Y-108095422D01*
X56496962Y-108081247D01*
X56497029Y-108071687D01*
X56496061Y-108061821D01*
X56455260Y-107673628D01*
X56442330Y-107610640D01*
X56430263Y-107547381D01*
X56427398Y-107537891D01*
X56311974Y-107165016D01*
X56287029Y-107105675D01*
X56262931Y-107046029D01*
X56258277Y-107037276D01*
X56072626Y-106693921D01*
X56036644Y-106640576D01*
X56001404Y-106586724D01*
X55995138Y-106579042D01*
X55746332Y-106278287D01*
X55700677Y-106232950D01*
X55655647Y-106186967D01*
X55648009Y-106180648D01*
X55500890Y-106060661D01*
X55561808Y-106042182D01*
X55811101Y-105908932D01*
X56029608Y-105729608D01*
X56208932Y-105511101D01*
X56280000Y-105378142D01*
X56351068Y-105511101D01*
X56530393Y-105729608D01*
X56748900Y-105908932D01*
X56998193Y-106042182D01*
X57268692Y-106124236D01*
X57550000Y-106151943D01*
X57831309Y-106124236D01*
X58101808Y-106042182D01*
X58351101Y-105908932D01*
X58569608Y-105729608D01*
X58748932Y-105511101D01*
X58820000Y-105378142D01*
X58891068Y-105511101D01*
X59070393Y-105729608D01*
X59288900Y-105908932D01*
X59538193Y-106042182D01*
X59808692Y-106124236D01*
X60090000Y-106151943D01*
X60371309Y-106124236D01*
X60641808Y-106042182D01*
X60891101Y-105908932D01*
X61109608Y-105729608D01*
X61288932Y-105511101D01*
X61360000Y-105378142D01*
X61431068Y-105511101D01*
X61610393Y-105729608D01*
X61828900Y-105908932D01*
X62078193Y-106042182D01*
X62348692Y-106124236D01*
X62630000Y-106151943D01*
X62911309Y-106124236D01*
X63181808Y-106042182D01*
X63431101Y-105908932D01*
X63649608Y-105729608D01*
X63828932Y-105511101D01*
X63900000Y-105378142D01*
X63971068Y-105511101D01*
X64150393Y-105729608D01*
X64368900Y-105908932D01*
X64618193Y-106042182D01*
X64888692Y-106124236D01*
X65170000Y-106151943D01*
X65451309Y-106124236D01*
X65721808Y-106042182D01*
X65971101Y-105908932D01*
X66189608Y-105729608D01*
X66368932Y-105511101D01*
X66440000Y-105378142D01*
X66511068Y-105511101D01*
X66690393Y-105729608D01*
X66908900Y-105908932D01*
X67158193Y-106042182D01*
X67428692Y-106124236D01*
X67710000Y-106151943D01*
X67991309Y-106124236D01*
X68261808Y-106042182D01*
X68511101Y-105908932D01*
X68729608Y-105729608D01*
X68908932Y-105511101D01*
X68980000Y-105378142D01*
X69051068Y-105511101D01*
X69230393Y-105729608D01*
X69448900Y-105908932D01*
X69698193Y-106042182D01*
X69968692Y-106124236D01*
X70250000Y-106151943D01*
X70531309Y-106124236D01*
X70801808Y-106042182D01*
X71051101Y-105908932D01*
X71269608Y-105729608D01*
X71448932Y-105511101D01*
X71517265Y-105383259D01*
X71667399Y-105612839D01*
X71865105Y-105814500D01*
X72098354Y-105973715D01*
X72358182Y-106084367D01*
X72440961Y-106101904D01*
X72663000Y-105979915D01*
X72663000Y-104437000D01*
X72917000Y-104437000D01*
X72917000Y-105979915D01*
X73139039Y-106101904D01*
X73221818Y-106084367D01*
X73481646Y-105973715D01*
X73714895Y-105814500D01*
X73912601Y-105612839D01*
X74067166Y-105376483D01*
X74172650Y-105114514D01*
X74225000Y-104837000D01*
X74225000Y-104437000D01*
X72917000Y-104437000D01*
X72663000Y-104437000D01*
X72643000Y-104437000D01*
X72643000Y-104183000D01*
X72663000Y-104183000D01*
X72663000Y-102640085D01*
X72917000Y-102640085D01*
X72917000Y-104183000D01*
X74225000Y-104183000D01*
X74225000Y-103783000D01*
X74172650Y-103505486D01*
X74067166Y-103243517D01*
X73912601Y-103007161D01*
X73714895Y-102805500D01*
X73481646Y-102646285D01*
X73221818Y-102535633D01*
X73139039Y-102518096D01*
X72917000Y-102640085D01*
X72663000Y-102640085D01*
X72440961Y-102518096D01*
X72358182Y-102535633D01*
X72098354Y-102646285D01*
X71865105Y-102805500D01*
X71667399Y-103007161D01*
X71517265Y-103236741D01*
X71448932Y-103108899D01*
X71269607Y-102890392D01*
X71051100Y-102711068D01*
X70801807Y-102577818D01*
X70531308Y-102495764D01*
X70250000Y-102468057D01*
X69968691Y-102495764D01*
X69698192Y-102577818D01*
X69448899Y-102711068D01*
X69230392Y-102890393D01*
X69051068Y-103108900D01*
X68980000Y-103241858D01*
X68908932Y-103108899D01*
X68729607Y-102890392D01*
X68511100Y-102711068D01*
X68261807Y-102577818D01*
X67991308Y-102495764D01*
X67710000Y-102468057D01*
X67428691Y-102495764D01*
X67158192Y-102577818D01*
X66908899Y-102711068D01*
X66690392Y-102890393D01*
X66511068Y-103108900D01*
X66440000Y-103241858D01*
X66368932Y-103108899D01*
X66189607Y-102890392D01*
X65971100Y-102711068D01*
X65721807Y-102577818D01*
X65451308Y-102495764D01*
X65170000Y-102468057D01*
X64888691Y-102495764D01*
X64618192Y-102577818D01*
X64368899Y-102711068D01*
X64150392Y-102890393D01*
X63971068Y-103108900D01*
X63900000Y-103241858D01*
X63828932Y-103108899D01*
X63649607Y-102890392D01*
X63431100Y-102711068D01*
X63181807Y-102577818D01*
X62911308Y-102495764D01*
X62630000Y-102468057D01*
X62348691Y-102495764D01*
X62078192Y-102577818D01*
X61828899Y-102711068D01*
X61610392Y-102890393D01*
X61431068Y-103108900D01*
X61360000Y-103241858D01*
X61288932Y-103108899D01*
X61109607Y-102890392D01*
X60891100Y-102711068D01*
X60641807Y-102577818D01*
X60371308Y-102495764D01*
X60090000Y-102468057D01*
X59808691Y-102495764D01*
X59538192Y-102577818D01*
X59288899Y-102711068D01*
X59070392Y-102890393D01*
X58891068Y-103108900D01*
X58820000Y-103241858D01*
X58748932Y-103108899D01*
X58569607Y-102890392D01*
X58351100Y-102711068D01*
X58101807Y-102577818D01*
X57831308Y-102495764D01*
X57550000Y-102468057D01*
X57268691Y-102495764D01*
X56998192Y-102577818D01*
X56748899Y-102711068D01*
X56530392Y-102890393D01*
X56351068Y-103108900D01*
X56280000Y-103241858D01*
X56208932Y-103108899D01*
X56029607Y-102890392D01*
X55811100Y-102711068D01*
X55561807Y-102577818D01*
X55291308Y-102495764D01*
X55010000Y-102468057D01*
X54728691Y-102495764D01*
X54458192Y-102577818D01*
X54208899Y-102711068D01*
X53990392Y-102890393D01*
X53897581Y-103003483D01*
X53895812Y-102985518D01*
X53859502Y-102865820D01*
X53800537Y-102755506D01*
X53721185Y-102658815D01*
X53624494Y-102579463D01*
X53514180Y-102520498D01*
X53394482Y-102484188D01*
X53270000Y-102471928D01*
X51670000Y-102471928D01*
X51545518Y-102484188D01*
X51425820Y-102520498D01*
X51315506Y-102579463D01*
X51218815Y-102658815D01*
X51139463Y-102755506D01*
X51080498Y-102865820D01*
X51044188Y-102985518D01*
X51031928Y-103110000D01*
X51031928Y-105440000D01*
X50115123Y-105440000D01*
X50084079Y-105443057D01*
X50071687Y-105442971D01*
X50061821Y-105443939D01*
X49673628Y-105484740D01*
X49610640Y-105497670D01*
X49547381Y-105509737D01*
X49537891Y-105512602D01*
X49165016Y-105628026D01*
X49105675Y-105652971D01*
X49046029Y-105677069D01*
X49037276Y-105681723D01*
X48693921Y-105867374D01*
X48640576Y-105903356D01*
X48586724Y-105938596D01*
X48579042Y-105944862D01*
X48278287Y-106193668D01*
X48232950Y-106239323D01*
X48186967Y-106284353D01*
X48180648Y-106291991D01*
X47933948Y-106594476D01*
X47898348Y-106648059D01*
X47861980Y-106701172D01*
X47857265Y-106709892D01*
X47674016Y-107054533D01*
X47649503Y-107114007D01*
X47624142Y-107173177D01*
X47621211Y-107182647D01*
X47508393Y-107556319D01*
X47495893Y-107619449D01*
X47482515Y-107682388D01*
X47481479Y-107692247D01*
X47449230Y-108021143D01*
X47446584Y-108030857D01*
X47439294Y-108135415D01*
X47449008Y-108475399D01*
X47422093Y-108749899D01*
X47349517Y-108990282D01*
X47231633Y-109211989D01*
X47072929Y-109406580D01*
X46879455Y-109566635D01*
X46658576Y-109686064D01*
X46418701Y-109760317D01*
X46136795Y-109789947D01*
X41606694Y-109779925D01*
X41574145Y-109783058D01*
X41561687Y-109782971D01*
X41551821Y-109783939D01*
X41163628Y-109824740D01*
X41100640Y-109837670D01*
X41037381Y-109849737D01*
X41027891Y-109852602D01*
X40655016Y-109968026D01*
X40595675Y-109992971D01*
X40536029Y-110017069D01*
X40527276Y-110021723D01*
X40183921Y-110207374D01*
X40130576Y-110243356D01*
X40076724Y-110278596D01*
X40069042Y-110284862D01*
X39768287Y-110533668D01*
X39722950Y-110579323D01*
X39676967Y-110624353D01*
X39670648Y-110631991D01*
X39423948Y-110934476D01*
X39388348Y-110988059D01*
X39351980Y-111041172D01*
X39347265Y-111049892D01*
X39164016Y-111394533D01*
X39139503Y-111454007D01*
X39114142Y-111513177D01*
X39111211Y-111522647D01*
X39033512Y-111780000D01*
X36894729Y-111780000D01*
X36707216Y-111761614D01*
X36560252Y-111717243D01*
X36424703Y-111645171D01*
X36305742Y-111548148D01*
X36207882Y-111429856D01*
X36134868Y-111294819D01*
X36089471Y-111148167D01*
X36069968Y-110962601D01*
X36069219Y-110316890D01*
X36418524Y-110316890D01*
X36463175Y-110464099D01*
X36588359Y-110726920D01*
X36762412Y-110960269D01*
X36978645Y-111155178D01*
X37228748Y-111304157D01*
X37503109Y-111401481D01*
X37733000Y-111280814D01*
X37733000Y-110087000D01*
X37987000Y-110087000D01*
X37987000Y-111280814D01*
X38216891Y-111401481D01*
X38491252Y-111304157D01*
X38741355Y-111155178D01*
X38957588Y-110960269D01*
X39131641Y-110726920D01*
X39256825Y-110464099D01*
X39301476Y-110316890D01*
X39180155Y-110087000D01*
X37987000Y-110087000D01*
X37733000Y-110087000D01*
X36539845Y-110087000D01*
X36418524Y-110316890D01*
X36069219Y-110316890D01*
X36050040Y-93784319D01*
X36068386Y-93597215D01*
X36112757Y-93450252D01*
X36184829Y-93314703D01*
X36281852Y-93195742D01*
X36400144Y-93097882D01*
X36535181Y-93024868D01*
X36681833Y-92979471D01*
X36867092Y-92960000D01*
X39943645Y-92960000D01*
X39939124Y-92963710D01*
X39939124Y-92963710D01*
G37*
X39939124Y-92963710D02*
X39814877Y-93065677D01*
X39775898Y-93113173D01*
X39413671Y-93475400D01*
X39207623Y-93475400D01*
X39161185Y-93418815D01*
X39064494Y-93339463D01*
X38954180Y-93280498D01*
X38834482Y-93244188D01*
X38710000Y-93231928D01*
X37010000Y-93231928D01*
X36885518Y-93244188D01*
X36765820Y-93280498D01*
X36655506Y-93339463D01*
X36558815Y-93418815D01*
X36479463Y-93515506D01*
X36420498Y-93625820D01*
X36384188Y-93745518D01*
X36371928Y-93870000D01*
X36371928Y-95570000D01*
X36384188Y-95694482D01*
X36420498Y-95814180D01*
X36479463Y-95924494D01*
X36558815Y-96021185D01*
X36655506Y-96100537D01*
X36765820Y-96159502D01*
X36834687Y-96180393D01*
X36804866Y-96204866D01*
X36619294Y-96430986D01*
X36481401Y-96688966D01*
X36396487Y-96968889D01*
X36367815Y-97260000D01*
X36396487Y-97551111D01*
X36481401Y-97831034D01*
X36619294Y-98089014D01*
X36804866Y-98315134D01*
X37030986Y-98500706D01*
X37085791Y-98530000D01*
X37030986Y-98559294D01*
X36804866Y-98744866D01*
X36619294Y-98970986D01*
X36481401Y-99228966D01*
X36396487Y-99508889D01*
X36367815Y-99800000D01*
X36396487Y-100091111D01*
X36481401Y-100371034D01*
X36619294Y-100629014D01*
X36804866Y-100855134D01*
X37030986Y-101040706D01*
X37085791Y-101070000D01*
X37030986Y-101099294D01*
X36804866Y-101284866D01*
X36619294Y-101510986D01*
X36481401Y-101768966D01*
X36396487Y-102048889D01*
X36367815Y-102340000D01*
X36396487Y-102631111D01*
X36481401Y-102911034D01*
X36619294Y-103169014D01*
X36804866Y-103395134D01*
X37030986Y-103580706D01*
X37085791Y-103610000D01*
X37030986Y-103639294D01*
X36804866Y-103824866D01*
X36619294Y-104050986D01*
X36481401Y-104308966D01*
X36396487Y-104588889D01*
X36367815Y-104880000D01*
X36396487Y-105171111D01*
X36481401Y-105451034D01*
X36619294Y-105709014D01*
X36804866Y-105935134D01*
X37030986Y-106120706D01*
X37085791Y-106150000D01*
X37030986Y-106179294D01*
X36804866Y-106364866D01*
X36619294Y-106590986D01*
X36481401Y-106848966D01*
X36396487Y-107128889D01*
X36367815Y-107420000D01*
X36396487Y-107711111D01*
X36481401Y-107991034D01*
X36619294Y-108249014D01*
X36804866Y-108475134D01*
X37030986Y-108660706D01*
X37095523Y-108695201D01*
X36978645Y-108764822D01*
X36762412Y-108959731D01*
X36588359Y-109193080D01*
X36463175Y-109455901D01*
X36418524Y-109603110D01*
X36539845Y-109833000D01*
X37733000Y-109833000D01*
X37733000Y-109813000D01*
X37987000Y-109813000D01*
X37987000Y-109833000D01*
X39180155Y-109833000D01*
X39301476Y-109603110D01*
X39256825Y-109455901D01*
X39131641Y-109193080D01*
X38957588Y-108959731D01*
X38741355Y-108764822D01*
X38624477Y-108695201D01*
X38689014Y-108660706D01*
X38915134Y-108475134D01*
X39100706Y-108249014D01*
X39238599Y-107991034D01*
X39323513Y-107711111D01*
X39352185Y-107420000D01*
X39323513Y-107128889D01*
X39238599Y-106848966D01*
X39100706Y-106590986D01*
X38915134Y-106364866D01*
X38689014Y-106179294D01*
X38634209Y-106150000D01*
X38689014Y-106120706D01*
X38915134Y-105935134D01*
X39100706Y-105709014D01*
X39238599Y-105451034D01*
X39323513Y-105171111D01*
X39352185Y-104880000D01*
X39323513Y-104588889D01*
X39238599Y-104308966D01*
X39100706Y-104050986D01*
X38915134Y-103824866D01*
X38689014Y-103639294D01*
X38634209Y-103610000D01*
X38689014Y-103580706D01*
X38915134Y-103395134D01*
X38985166Y-103309800D01*
X39005924Y-103309800D01*
X39052081Y-103314346D01*
X39098238Y-103309800D01*
X39098248Y-103309800D01*
X39236314Y-103296202D01*
X39413467Y-103242463D01*
X39576732Y-103155196D01*
X39719835Y-103037754D01*
X39749272Y-103001885D01*
X41061358Y-101689800D01*
X46216167Y-101689800D01*
X46354233Y-101676202D01*
X46531386Y-101622463D01*
X46694651Y-101535196D01*
X46837754Y-101417754D01*
X46955196Y-101274651D01*
X47042463Y-101111386D01*
X47096202Y-100934233D01*
X47112397Y-100769800D01*
X63396167Y-100769800D01*
X63534233Y-100756202D01*
X63711386Y-100702463D01*
X63874651Y-100615196D01*
X64017754Y-100497754D01*
X64135196Y-100354651D01*
X64222463Y-100191386D01*
X64276202Y-100014233D01*
X64294347Y-99830000D01*
X64288418Y-99769800D01*
X68463843Y-99769800D01*
X68510000Y-99774346D01*
X68556157Y-99769800D01*
X68556167Y-99769800D01*
X68694233Y-99756202D01*
X68871386Y-99702463D01*
X69034651Y-99615196D01*
X69177754Y-99497754D01*
X69207191Y-99461885D01*
X70147254Y-98521823D01*
X70215815Y-98528576D01*
X73399788Y-101712550D01*
X73399793Y-101712554D01*
X74179789Y-102492551D01*
X74888600Y-103201362D01*
X74888601Y-107104487D01*
X74835820Y-107120498D01*
X74725506Y-107179463D01*
X74628815Y-107258815D01*
X74549463Y-107355506D01*
X74490498Y-107465820D01*
X74454188Y-107585518D01*
X74441928Y-107710000D01*
X74441928Y-109410000D01*
X74454188Y-109534482D01*
X74490498Y-109654180D01*
X74549463Y-109764494D01*
X74578602Y-109800000D01*
X57834721Y-109800000D01*
X57550101Y-109772093D01*
X57309718Y-109699517D01*
X57088011Y-109581633D01*
X56893420Y-109422929D01*
X56733365Y-109229455D01*
X56613936Y-109008576D01*
X56539683Y-108768701D01*
X56509476Y-108481308D01*
X56499966Y-108138944D01*
X56499947Y-108133545D01*
X56499767Y-108131770D01*
X56498757Y-108095422D01*
X56496962Y-108081247D01*
X56497029Y-108071687D01*
X56496061Y-108061821D01*
X56455260Y-107673628D01*
X56442330Y-107610640D01*
X56430263Y-107547381D01*
X56427398Y-107537891D01*
X56311974Y-107165016D01*
X56287029Y-107105675D01*
X56262931Y-107046029D01*
X56258277Y-107037276D01*
X56072626Y-106693921D01*
X56036644Y-106640576D01*
X56001404Y-106586724D01*
X55995138Y-106579042D01*
X55746332Y-106278287D01*
X55700677Y-106232950D01*
X55655647Y-106186967D01*
X55648009Y-106180648D01*
X55500890Y-106060661D01*
X55561808Y-106042182D01*
X55811101Y-105908932D01*
X56029608Y-105729608D01*
X56208932Y-105511101D01*
X56280000Y-105378142D01*
X56351068Y-105511101D01*
X56530393Y-105729608D01*
X56748900Y-105908932D01*
X56998193Y-106042182D01*
X57268692Y-106124236D01*
X57550000Y-106151943D01*
X57831309Y-106124236D01*
X58101808Y-106042182D01*
X58351101Y-105908932D01*
X58569608Y-105729608D01*
X58748932Y-105511101D01*
X58820000Y-105378142D01*
X58891068Y-105511101D01*
X59070393Y-105729608D01*
X59288900Y-105908932D01*
X59538193Y-106042182D01*
X59808692Y-106124236D01*
X60090000Y-106151943D01*
X60371309Y-106124236D01*
X60641808Y-106042182D01*
X60891101Y-105908932D01*
X61109608Y-105729608D01*
X61288932Y-105511101D01*
X61360000Y-105378142D01*
X61431068Y-105511101D01*
X61610393Y-105729608D01*
X61828900Y-105908932D01*
X62078193Y-106042182D01*
X62348692Y-106124236D01*
X62630000Y-106151943D01*
X62911309Y-106124236D01*
X63181808Y-106042182D01*
X63431101Y-105908932D01*
X63649608Y-105729608D01*
X63828932Y-105511101D01*
X63900000Y-105378142D01*
X63971068Y-105511101D01*
X64150393Y-105729608D01*
X64368900Y-105908932D01*
X64618193Y-106042182D01*
X64888692Y-106124236D01*
X65170000Y-106151943D01*
X65451309Y-106124236D01*
X65721808Y-106042182D01*
X65971101Y-105908932D01*
X66189608Y-105729608D01*
X66368932Y-105511101D01*
X66440000Y-105378142D01*
X66511068Y-105511101D01*
X66690393Y-105729608D01*
X66908900Y-105908932D01*
X67158193Y-106042182D01*
X67428692Y-106124236D01*
X67710000Y-106151943D01*
X67991309Y-106124236D01*
X68261808Y-106042182D01*
X68511101Y-105908932D01*
X68729608Y-105729608D01*
X68908932Y-105511101D01*
X68980000Y-105378142D01*
X69051068Y-105511101D01*
X69230393Y-105729608D01*
X69448900Y-105908932D01*
X69698193Y-106042182D01*
X69968692Y-106124236D01*
X70250000Y-106151943D01*
X70531309Y-106124236D01*
X70801808Y-106042182D01*
X71051101Y-105908932D01*
X71269608Y-105729608D01*
X71448932Y-105511101D01*
X71517265Y-105383259D01*
X71667399Y-105612839D01*
X71865105Y-105814500D01*
X72098354Y-105973715D01*
X72358182Y-106084367D01*
X72440961Y-106101904D01*
X72663000Y-105979915D01*
X72663000Y-104437000D01*
X72917000Y-104437000D01*
X72917000Y-105979915D01*
X73139039Y-106101904D01*
X73221818Y-106084367D01*
X73481646Y-105973715D01*
X73714895Y-105814500D01*
X73912601Y-105612839D01*
X74067166Y-105376483D01*
X74172650Y-105114514D01*
X74225000Y-104837000D01*
X74225000Y-104437000D01*
X72917000Y-104437000D01*
X72663000Y-104437000D01*
X72643000Y-104437000D01*
X72643000Y-104183000D01*
X72663000Y-104183000D01*
X72663000Y-102640085D01*
X72917000Y-102640085D01*
X72917000Y-104183000D01*
X74225000Y-104183000D01*
X74225000Y-103783000D01*
X74172650Y-103505486D01*
X74067166Y-103243517D01*
X73912601Y-103007161D01*
X73714895Y-102805500D01*
X73481646Y-102646285D01*
X73221818Y-102535633D01*
X73139039Y-102518096D01*
X72917000Y-102640085D01*
X72663000Y-102640085D01*
X72440961Y-102518096D01*
X72358182Y-102535633D01*
X72098354Y-102646285D01*
X71865105Y-102805500D01*
X71667399Y-103007161D01*
X71517265Y-103236741D01*
X71448932Y-103108899D01*
X71269607Y-102890392D01*
X71051100Y-102711068D01*
X70801807Y-102577818D01*
X70531308Y-102495764D01*
X70250000Y-102468057D01*
X69968691Y-102495764D01*
X69698192Y-102577818D01*
X69448899Y-102711068D01*
X69230392Y-102890393D01*
X69051068Y-103108900D01*
X68980000Y-103241858D01*
X68908932Y-103108899D01*
X68729607Y-102890392D01*
X68511100Y-102711068D01*
X68261807Y-102577818D01*
X67991308Y-102495764D01*
X67710000Y-102468057D01*
X67428691Y-102495764D01*
X67158192Y-102577818D01*
X66908899Y-102711068D01*
X66690392Y-102890393D01*
X66511068Y-103108900D01*
X66440000Y-103241858D01*
X66368932Y-103108899D01*
X66189607Y-102890392D01*
X65971100Y-102711068D01*
X65721807Y-102577818D01*
X65451308Y-102495764D01*
X65170000Y-102468057D01*
X64888691Y-102495764D01*
X64618192Y-102577818D01*
X64368899Y-102711068D01*
X64150392Y-102890393D01*
X63971068Y-103108900D01*
X63900000Y-103241858D01*
X63828932Y-103108899D01*
X63649607Y-102890392D01*
X63431100Y-102711068D01*
X63181807Y-102577818D01*
X62911308Y-102495764D01*
X62630000Y-102468057D01*
X62348691Y-102495764D01*
X62078192Y-102577818D01*
X61828899Y-102711068D01*
X61610392Y-102890393D01*
X61431068Y-103108900D01*
X61360000Y-103241858D01*
X61288932Y-103108899D01*
X61109607Y-102890392D01*
X60891100Y-102711068D01*
X60641807Y-102577818D01*
X60371308Y-102495764D01*
X60090000Y-102468057D01*
X59808691Y-102495764D01*
X59538192Y-102577818D01*
X59288899Y-102711068D01*
X59070392Y-102890393D01*
X58891068Y-103108900D01*
X58820000Y-103241858D01*
X58748932Y-103108899D01*
X58569607Y-102890392D01*
X58351100Y-102711068D01*
X58101807Y-102577818D01*
X57831308Y-102495764D01*
X57550000Y-102468057D01*
X57268691Y-102495764D01*
X56998192Y-102577818D01*
X56748899Y-102711068D01*
X56530392Y-102890393D01*
X56351068Y-103108900D01*
X56280000Y-103241858D01*
X56208932Y-103108899D01*
X56029607Y-102890392D01*
X55811100Y-102711068D01*
X55561807Y-102577818D01*
X55291308Y-102495764D01*
X55010000Y-102468057D01*
X54728691Y-102495764D01*
X54458192Y-102577818D01*
X54208899Y-102711068D01*
X53990392Y-102890393D01*
X53897581Y-103003483D01*
X53895812Y-102985518D01*
X53859502Y-102865820D01*
X53800537Y-102755506D01*
X53721185Y-102658815D01*
X53624494Y-102579463D01*
X53514180Y-102520498D01*
X53394482Y-102484188D01*
X53270000Y-102471928D01*
X51670000Y-102471928D01*
X51545518Y-102484188D01*
X51425820Y-102520498D01*
X51315506Y-102579463D01*
X51218815Y-102658815D01*
X51139463Y-102755506D01*
X51080498Y-102865820D01*
X51044188Y-102985518D01*
X51031928Y-103110000D01*
X51031928Y-105440000D01*
X50115123Y-105440000D01*
X50084079Y-105443057D01*
X50071687Y-105442971D01*
X50061821Y-105443939D01*
X49673628Y-105484740D01*
X49610640Y-105497670D01*
X49547381Y-105509737D01*
X49537891Y-105512602D01*
X49165016Y-105628026D01*
X49105675Y-105652971D01*
X49046029Y-105677069D01*
X49037276Y-105681723D01*
X48693921Y-105867374D01*
X48640576Y-105903356D01*
X48586724Y-105938596D01*
X48579042Y-105944862D01*
X48278287Y-106193668D01*
X48232950Y-106239323D01*
X48186967Y-106284353D01*
X48180648Y-106291991D01*
X47933948Y-106594476D01*
X47898348Y-106648059D01*
X47861980Y-106701172D01*
X47857265Y-106709892D01*
X47674016Y-107054533D01*
X47649503Y-107114007D01*
X47624142Y-107173177D01*
X47621211Y-107182647D01*
X47508393Y-107556319D01*
X47495893Y-107619449D01*
X47482515Y-107682388D01*
X47481479Y-107692247D01*
X47449230Y-108021143D01*
X47446584Y-108030857D01*
X47439294Y-108135415D01*
X47449008Y-108475399D01*
X47422093Y-108749899D01*
X47349517Y-108990282D01*
X47231633Y-109211989D01*
X47072929Y-109406580D01*
X46879455Y-109566635D01*
X46658576Y-109686064D01*
X46418701Y-109760317D01*
X46136795Y-109789947D01*
X41606694Y-109779925D01*
X41574145Y-109783058D01*
X41561687Y-109782971D01*
X41551821Y-109783939D01*
X41163628Y-109824740D01*
X41100640Y-109837670D01*
X41037381Y-109849737D01*
X41027891Y-109852602D01*
X40655016Y-109968026D01*
X40595675Y-109992971D01*
X40536029Y-110017069D01*
X40527276Y-110021723D01*
X40183921Y-110207374D01*
X40130576Y-110243356D01*
X40076724Y-110278596D01*
X40069042Y-110284862D01*
X39768287Y-110533668D01*
X39722950Y-110579323D01*
X39676967Y-110624353D01*
X39670648Y-110631991D01*
X39423948Y-110934476D01*
X39388348Y-110988059D01*
X39351980Y-111041172D01*
X39347265Y-111049892D01*
X39164016Y-111394533D01*
X39139503Y-111454007D01*
X39114142Y-111513177D01*
X39111211Y-111522647D01*
X39033512Y-111780000D01*
X36894729Y-111780000D01*
X36707216Y-111761614D01*
X36560252Y-111717243D01*
X36424703Y-111645171D01*
X36305742Y-111548148D01*
X36207882Y-111429856D01*
X36134868Y-111294819D01*
X36089471Y-111148167D01*
X36069968Y-110962601D01*
X36069219Y-110316890D01*
X36418524Y-110316890D01*
X36463175Y-110464099D01*
X36588359Y-110726920D01*
X36762412Y-110960269D01*
X36978645Y-111155178D01*
X37228748Y-111304157D01*
X37503109Y-111401481D01*
X37733000Y-111280814D01*
X37733000Y-110087000D01*
X37987000Y-110087000D01*
X37987000Y-111280814D01*
X38216891Y-111401481D01*
X38491252Y-111304157D01*
X38741355Y-111155178D01*
X38957588Y-110960269D01*
X39131641Y-110726920D01*
X39256825Y-110464099D01*
X39301476Y-110316890D01*
X39180155Y-110087000D01*
X37987000Y-110087000D01*
X37733000Y-110087000D01*
X36539845Y-110087000D01*
X36418524Y-110316890D01*
X36069219Y-110316890D01*
X36050040Y-93784319D01*
X36068386Y-93597215D01*
X36112757Y-93450252D01*
X36184829Y-93314703D01*
X36281852Y-93195742D01*
X36400144Y-93097882D01*
X36535181Y-93024868D01*
X36681833Y-92979471D01*
X36867092Y-92960000D01*
X39943645Y-92960000D01*
X39939124Y-92963710D01*
M02*
