G04 #@! TF.GenerationSoftware,KiCad,Pcbnew,5.1.4-e60b266~84~ubuntu19.04.1*
G04 #@! TF.CreationDate,2019-08-18T18:54:56+02:00*
G04 #@! TF.ProjectId,ULN2803A_shield,554c4e32-3830-4334-915f-736869656c64,rev?*
G04 #@! TF.SameCoordinates,Original*
G04 #@! TF.FileFunction,Profile,NP*
%FSLAX46Y46*%
G04 Gerber Fmt 4.6, Leading zero omitted, Abs format (unit mm)*
G04 Created by KiCad (PCBNEW 5.1.4-e60b266~84~ubuntu19.04.1) date 2019-08-18 18:54:56*
%MOMM*%
%LPD*%
G04 APERTURE LIST*
%ADD10C,0.150000*%
G04 APERTURE END LIST*
D10*
X36860000Y-112490000D02*
X39640000Y-112490000D01*
X41640000Y-110490000D02*
X46160000Y-110500000D01*
X48150000Y-108150000D02*
X48160000Y-108500000D01*
X50150000Y-106150000D02*
X53790000Y-106150000D01*
X55800000Y-108510000D02*
X55790000Y-108150000D01*
X57800000Y-110510000D02*
X92500000Y-110510000D01*
X97280000Y-92250000D02*
X36840000Y-92250000D01*
X98780000Y-111000000D02*
X98780000Y-93750000D01*
X94500000Y-112510000D02*
X97280000Y-112510000D01*
X35340000Y-93750000D02*
X35360000Y-110990000D01*
X57800000Y-110510000D02*
G75*
G02X55800000Y-108510000I0J2000000D01*
G01*
X53790000Y-106150000D02*
G75*
G02X55790000Y-108150000I0J-2000000D01*
G01*
X48150000Y-108150000D02*
G75*
G02X50150000Y-106150000I2000000J0D01*
G01*
X48160000Y-108500000D02*
G75*
G02X46160000Y-110500000I-2000000J0D01*
G01*
X39640000Y-112490000D02*
G75*
G02X41640000Y-110490000I2000000J0D01*
G01*
X92500000Y-110510000D02*
G75*
G02X94500000Y-112510000I0J-2000000D01*
G01*
X36840000Y-92250000D02*
G75*
G03X35340000Y-93750000I0J-1500000D01*
G01*
X98780000Y-93750000D02*
G75*
G03X97280000Y-92250000I-1500000J0D01*
G01*
X97280000Y-112510033D02*
G75*
G03X98780000Y-111000000I0J1500033D01*
G01*
X35360000Y-110990000D02*
G75*
G03X36860000Y-112490000I1500000J0D01*
G01*
M02*
