M48
INCH,TZ
T1C0.0157
T2C0.0315
T3C0.0394
T4C0.0472
%
G90
G05
T1
X18177Y-39665
X24941Y-39303
T2
X20657Y-38067
X20657Y-41067
X21657Y-38067
X21657Y-41067
X22657Y-38067
X22657Y-41067
X23657Y-38067
X23657Y-41067
X24657Y-38067
X24657Y-41067
X25657Y-38067
X25657Y-41067
X26657Y-38067
X26657Y-41067
X27657Y-38067
X27657Y-41067
X28657Y-38067
X28657Y-41067
T3
X29894Y-42740
X30894Y-42740
X37902Y-38303
X37902Y-39303
X37902Y-40303
X37902Y-41303
X37902Y-42303
X37902Y-43303
X14902Y-38303
X14902Y-39303
X14902Y-40303
X14902Y-41303
X14902Y-42303
X14902Y-43303
X30807Y-38075
X31807Y-38075
T4
X32764Y-41673
X34764Y-41673
T0
M30
