G04 #@! TF.GenerationSoftware,KiCad,Pcbnew,5.0.0+dfsg1-2*
G04 #@! TF.CreationDate,2019-03-17T13:20:00+01:00*
G04 #@! TF.ProjectId,ULN2803A_shield,554C4E32383033415F736869656C642E,rev?*
G04 #@! TF.SameCoordinates,Original*
G04 #@! TF.FileFunction,Copper,L1,Top,Signal*
G04 #@! TF.FilePolarity,Positive*
%FSLAX46Y46*%
G04 Gerber Fmt 4.6, Leading zero omitted, Abs format (unit mm)*
G04 Created by KiCad (PCBNEW 5.0.0+dfsg1-2) date Sun Mar 17 13:20:00 2019*
%MOMM*%
%LPD*%
G01*
G04 APERTURE LIST*
G04 #@! TA.AperFunction,ComponentPad*
%ADD10R,1.700000X1.700000*%
G04 #@! TD*
G04 #@! TA.AperFunction,ComponentPad*
%ADD11O,1.700000X1.700000*%
G04 #@! TD*
G04 #@! TA.AperFunction,ComponentPad*
%ADD12O,2.400000X2.400000*%
G04 #@! TD*
G04 #@! TA.AperFunction,ComponentPad*
%ADD13C,2.400000*%
G04 #@! TD*
G04 #@! TA.AperFunction,ComponentPad*
%ADD14R,1.600000X2.400000*%
G04 #@! TD*
G04 #@! TA.AperFunction,ComponentPad*
%ADD15O,1.600000X2.400000*%
G04 #@! TD*
G04 #@! TA.AperFunction,ViaPad*
%ADD16C,0.600000*%
G04 #@! TD*
G04 #@! TA.AperFunction,Conductor*
%ADD17C,0.400000*%
G04 #@! TD*
G04 #@! TA.AperFunction,Conductor*
%ADD18C,0.812800*%
G04 #@! TD*
G04 #@! TA.AperFunction,Conductor*
%ADD19C,0.609600*%
G04 #@! TD*
G04 #@! TA.AperFunction,Conductor*
%ADD20C,0.254000*%
G04 #@! TD*
G04 APERTURE END LIST*
D10*
G04 #@! TO.P,J2,1*
G04 #@! TO.N,GND*
X37850000Y-109990000D03*
D11*
G04 #@! TO.P,J2,2*
G04 #@! TO.N,AUX-OUT1*
X37850000Y-107450000D03*
G04 #@! TO.P,J2,3*
G04 #@! TO.N,AUX-OUT2*
X37850000Y-104910000D03*
G04 #@! TO.P,J2,4*
G04 #@! TO.N,AUX-OUT3*
X37850000Y-102370000D03*
G04 #@! TO.P,J2,5*
G04 #@! TO.N,AUX-OUT4*
X37850000Y-99830000D03*
G04 #@! TO.P,J2,6*
G04 #@! TO.N,RPM-METER*
X37850000Y-97290000D03*
G04 #@! TD*
D12*
G04 #@! TO.P,L1,2*
G04 #@! TO.N,12V*
X88300000Y-105850000D03*
D13*
G04 #@! TO.P,L1,1*
G04 #@! TO.N,Net-(JP1-Pad2)*
X83220000Y-105850000D03*
G04 #@! TD*
D14*
G04 #@! TO.P,IC1,1*
G04 #@! TO.N,Net-(IC1-Pad1)*
X52470000Y-104310000D03*
D15*
G04 #@! TO.P,IC1,10*
G04 #@! TO.N,Net-(IC1-Pad10)*
X72790000Y-96690000D03*
G04 #@! TO.P,IC1,2*
G04 #@! TO.N,Net-(IC1-Pad1)*
X55010000Y-104310000D03*
G04 #@! TO.P,IC1,11*
G04 #@! TO.N,RPM-METER*
X70250000Y-96690000D03*
G04 #@! TO.P,IC1,3*
G04 #@! TO.N,Net-(IC1-Pad3)*
X57550000Y-104310000D03*
G04 #@! TO.P,IC1,12*
G04 #@! TO.N,AUX-OUT4*
X67710000Y-96690000D03*
G04 #@! TO.P,IC1,4*
G04 #@! TO.N,Net-(IC1-Pad3)*
X60090000Y-104310000D03*
G04 #@! TO.P,IC1,13*
G04 #@! TO.N,AUX-OUT3*
X65170000Y-96690000D03*
G04 #@! TO.P,IC1,5*
G04 #@! TO.N,Net-(IC1-Pad5)*
X62630000Y-104310000D03*
G04 #@! TO.P,IC1,14*
G04 #@! TO.N,AUX-OUT3*
X62630000Y-96690000D03*
G04 #@! TO.P,IC1,6*
G04 #@! TO.N,Net-(IC1-Pad5)*
X65170000Y-104310000D03*
G04 #@! TO.P,IC1,15*
G04 #@! TO.N,AUX-OUT1*
X60090000Y-96690000D03*
G04 #@! TO.P,IC1,7*
G04 #@! TO.N,Net-(IC1-Pad7)*
X67710000Y-104310000D03*
G04 #@! TO.P,IC1,16*
G04 #@! TO.N,AUX-OUT1*
X57550000Y-96690000D03*
G04 #@! TO.P,IC1,8*
G04 #@! TO.N,Net-(IC1-Pad8)*
X70250000Y-104310000D03*
G04 #@! TO.P,IC1,17*
G04 #@! TO.N,AUX-OUT2*
X55010000Y-96690000D03*
G04 #@! TO.P,IC1,9*
G04 #@! TO.N,GND*
X72790000Y-104310000D03*
G04 #@! TO.P,IC1,18*
G04 #@! TO.N,AUX-OUT2*
X52470000Y-96690000D03*
G04 #@! TD*
D10*
G04 #@! TO.P,JP1,1*
G04 #@! TO.N,RPM-METER*
X75930000Y-108560000D03*
D11*
G04 #@! TO.P,JP1,2*
G04 #@! TO.N,Net-(JP1-Pad2)*
X78470000Y-108560000D03*
G04 #@! TD*
D10*
G04 #@! TO.P,JP2,1*
G04 #@! TO.N,Net-(IC1-Pad10)*
X78250000Y-96710000D03*
D11*
G04 #@! TO.P,JP2,2*
G04 #@! TO.N,12V*
X80790000Y-96710000D03*
G04 #@! TD*
D10*
G04 #@! TO.P,J1,1*
G04 #@! TO.N,12V*
X96270000Y-109990000D03*
D11*
G04 #@! TO.P,J1,2*
G04 #@! TO.N,Net-(IC1-Pad5)*
X96270000Y-107450000D03*
G04 #@! TO.P,J1,3*
G04 #@! TO.N,Net-(IC1-Pad7)*
X96270000Y-104910000D03*
G04 #@! TO.P,J1,4*
G04 #@! TO.N,Net-(IC1-Pad8)*
X96270000Y-102370000D03*
G04 #@! TO.P,J1,5*
G04 #@! TO.N,Net-(IC1-Pad3)*
X96270000Y-99830000D03*
G04 #@! TO.P,J1,6*
G04 #@! TO.N,Net-(IC1-Pad1)*
X96270000Y-97290000D03*
G04 #@! TD*
D16*
G04 #@! TO.N,AUX-OUT4*
X63350000Y-99830000D03*
G04 #@! TO.N,AUX-OUT3*
X46170000Y-100750000D03*
G04 #@! TD*
D17*
G04 #@! TO.N,Net-(IC1-Pad1)*
X55010000Y-104310000D02*
X55010000Y-104710000D01*
D18*
G04 #@! TO.N,Net-(IC1-Pad10)*
X78230000Y-96690000D02*
X78250000Y-96710000D01*
X72790000Y-96690000D02*
X78230000Y-96690000D01*
G04 #@! TO.N,RPM-METER*
X70250000Y-96690000D02*
X70250000Y-97090000D01*
X70250000Y-97090000D02*
X74100000Y-100940000D01*
X74100000Y-100940000D02*
X74880000Y-101720000D01*
D19*
X37850000Y-97290000D02*
X39390000Y-98830000D01*
X68510000Y-98830000D02*
X70250000Y-97090000D01*
X39390000Y-98830000D02*
X68510000Y-98830000D01*
D18*
X75930000Y-102770000D02*
X75930000Y-108560000D01*
X74100000Y-100940000D02*
X75930000Y-102770000D01*
D17*
G04 #@! TO.N,AUX-OUT4*
X63350000Y-99830000D02*
X63350000Y-99830000D01*
D19*
X39052081Y-99830000D02*
X63350000Y-99830000D01*
X37850000Y-99830000D02*
X39052081Y-99830000D01*
G04 #@! TO.N,AUX-OUT3*
X39052081Y-102370000D02*
X40672081Y-100750000D01*
X37850000Y-102370000D02*
X39052081Y-102370000D01*
X40672081Y-100750000D02*
X46110000Y-100750000D01*
X46110000Y-100750000D02*
X46170000Y-100750000D01*
D18*
G04 #@! TO.N,12V*
X89997056Y-105850000D02*
X88300000Y-105850000D01*
X90467200Y-105850000D02*
X89997056Y-105850000D01*
X96270000Y-109990000D02*
X94607200Y-109990000D01*
X94607200Y-109990000D02*
X90467200Y-105850000D01*
X80790000Y-98340000D02*
X80790000Y-96710000D01*
X88300000Y-105850000D02*
X80790000Y-98340000D01*
G04 #@! TO.N,Net-(JP1-Pad2)*
X80510000Y-108560000D02*
X83220000Y-105850000D01*
X78470000Y-108560000D02*
X80510000Y-108560000D01*
G04 #@! TD*
D20*
G04 #@! TO.N,GND*
G36*
X51118260Y-95730092D02*
X51035000Y-96148668D01*
X51035000Y-97231333D01*
X51118260Y-97649909D01*
X51278818Y-97890200D01*
X39779278Y-97890200D01*
X39333396Y-97444319D01*
X39364092Y-97290000D01*
X39248839Y-96710582D01*
X38920625Y-96219375D01*
X38429418Y-95891161D01*
X37996256Y-95805000D01*
X37703744Y-95805000D01*
X37270582Y-95891161D01*
X36779375Y-96219375D01*
X36451161Y-96710582D01*
X36335908Y-97290000D01*
X36451161Y-97869418D01*
X36779375Y-98360625D01*
X37077761Y-98560000D01*
X36779375Y-98759375D01*
X36451161Y-99250582D01*
X36335908Y-99830000D01*
X36451161Y-100409418D01*
X36779375Y-100900625D01*
X37077761Y-101100000D01*
X36779375Y-101299375D01*
X36451161Y-101790582D01*
X36335908Y-102370000D01*
X36451161Y-102949418D01*
X36779375Y-103440625D01*
X37077761Y-103640000D01*
X36779375Y-103839375D01*
X36451161Y-104330582D01*
X36335908Y-104910000D01*
X36451161Y-105489418D01*
X36779375Y-105980625D01*
X37077761Y-106180000D01*
X36779375Y-106379375D01*
X36451161Y-106870582D01*
X36335908Y-107450000D01*
X36451161Y-108029418D01*
X36779375Y-108520625D01*
X36801033Y-108535096D01*
X36640302Y-108601673D01*
X36461673Y-108780301D01*
X36365000Y-109013690D01*
X36365000Y-109704250D01*
X36523750Y-109863000D01*
X37723000Y-109863000D01*
X37723000Y-109843000D01*
X37977000Y-109843000D01*
X37977000Y-109863000D01*
X39176250Y-109863000D01*
X39335000Y-109704250D01*
X39335000Y-109013690D01*
X39238327Y-108780301D01*
X39059698Y-108601673D01*
X38898967Y-108535096D01*
X38920625Y-108520625D01*
X39248839Y-108029418D01*
X39364092Y-107450000D01*
X39248839Y-106870582D01*
X38920625Y-106379375D01*
X38622239Y-106180000D01*
X38920625Y-105980625D01*
X39248839Y-105489418D01*
X39364092Y-104910000D01*
X39248839Y-104330582D01*
X38920625Y-103839375D01*
X38622239Y-103640000D01*
X38920625Y-103440625D01*
X39002348Y-103318318D01*
X39052081Y-103328210D01*
X39144635Y-103309800D01*
X39144640Y-103309800D01*
X39418772Y-103255272D01*
X39729638Y-103047557D01*
X39782069Y-102969090D01*
X41061359Y-101689800D01*
X46262559Y-101689800D01*
X46286690Y-101685000D01*
X46355983Y-101685000D01*
X46420001Y-101658483D01*
X46536691Y-101635272D01*
X46635615Y-101569173D01*
X46699635Y-101542655D01*
X46748635Y-101493655D01*
X46847557Y-101427557D01*
X46913655Y-101328635D01*
X46962655Y-101279635D01*
X46989173Y-101215615D01*
X47055272Y-101116691D01*
X47078483Y-101000001D01*
X47105000Y-100935983D01*
X47105000Y-100866690D01*
X47124273Y-100769800D01*
X63442559Y-100769800D01*
X63466690Y-100765000D01*
X63535983Y-100765000D01*
X63600001Y-100738483D01*
X63716691Y-100715272D01*
X63815615Y-100649173D01*
X63879635Y-100622655D01*
X63928635Y-100573655D01*
X64027557Y-100507557D01*
X64093655Y-100408635D01*
X64142655Y-100359635D01*
X64169173Y-100295615D01*
X64235272Y-100196691D01*
X64258483Y-100080001D01*
X64285000Y-100015983D01*
X64285000Y-99946690D01*
X64308211Y-99830000D01*
X64296237Y-99769800D01*
X68417446Y-99769800D01*
X68510000Y-99788210D01*
X68602554Y-99769800D01*
X68602559Y-99769800D01*
X68876691Y-99715272D01*
X69187557Y-99507557D01*
X69239988Y-99429090D01*
X70138203Y-98530875D01*
X70237956Y-98550717D01*
X73436145Y-101748907D01*
X73436148Y-101748909D01*
X74216145Y-102528907D01*
X74216147Y-102528908D01*
X74888600Y-103201362D01*
X74888601Y-107100631D01*
X74832235Y-107111843D01*
X74622191Y-107252191D01*
X74481843Y-107462235D01*
X74432560Y-107710000D01*
X74432560Y-109410000D01*
X74481843Y-109657765D01*
X74576882Y-109800000D01*
X57850580Y-109800000D01*
X57439973Y-109741197D01*
X57108888Y-109590661D01*
X56833361Y-109353251D01*
X56635544Y-109048056D01*
X56524300Y-108676083D01*
X56508863Y-108468356D01*
X56497851Y-108060918D01*
X56494116Y-108044478D01*
X56476080Y-107801765D01*
X56460526Y-107731019D01*
X56450698Y-107659273D01*
X56448264Y-107650948D01*
X56285787Y-107107663D01*
X56245370Y-107020193D01*
X56206022Y-106932229D01*
X56201348Y-106924922D01*
X55892920Y-106449076D01*
X55829560Y-106376445D01*
X55767124Y-106303082D01*
X55760591Y-106297383D01*
X55760587Y-106297379D01*
X55760582Y-106297376D01*
X55502643Y-106075120D01*
X55569909Y-106061740D01*
X56044577Y-105744577D01*
X56280000Y-105392241D01*
X56515424Y-105744577D01*
X56990092Y-106061740D01*
X57550000Y-106173113D01*
X58109909Y-106061740D01*
X58584577Y-105744577D01*
X58820000Y-105392241D01*
X59055424Y-105744577D01*
X59530092Y-106061740D01*
X60090000Y-106173113D01*
X60649909Y-106061740D01*
X61124577Y-105744577D01*
X61360000Y-105392241D01*
X61595424Y-105744577D01*
X62070092Y-106061740D01*
X62630000Y-106173113D01*
X63189909Y-106061740D01*
X63664577Y-105744577D01*
X63900000Y-105392241D01*
X64135424Y-105744577D01*
X64610092Y-106061740D01*
X65170000Y-106173113D01*
X65729909Y-106061740D01*
X66204577Y-105744577D01*
X66440000Y-105392241D01*
X66675424Y-105744577D01*
X67150092Y-106061740D01*
X67710000Y-106173113D01*
X68269909Y-106061740D01*
X68744577Y-105744577D01*
X68980000Y-105392241D01*
X69215424Y-105744577D01*
X69690092Y-106061740D01*
X70250000Y-106173113D01*
X70809909Y-106061740D01*
X71284577Y-105744577D01*
X71522499Y-105388501D01*
X71865104Y-105814500D01*
X72358181Y-106084367D01*
X72440961Y-106101904D01*
X72663000Y-105979915D01*
X72663000Y-104437000D01*
X72917000Y-104437000D01*
X72917000Y-105979915D01*
X73139039Y-106101904D01*
X73221819Y-106084367D01*
X73714896Y-105814500D01*
X74067166Y-105376483D01*
X74225000Y-104837000D01*
X74225000Y-104437000D01*
X72917000Y-104437000D01*
X72663000Y-104437000D01*
X72643000Y-104437000D01*
X72643000Y-104183000D01*
X72663000Y-104183000D01*
X72663000Y-102640085D01*
X72917000Y-102640085D01*
X72917000Y-104183000D01*
X74225000Y-104183000D01*
X74225000Y-103783000D01*
X74067166Y-103243517D01*
X73714896Y-102805500D01*
X73221819Y-102535633D01*
X73139039Y-102518096D01*
X72917000Y-102640085D01*
X72663000Y-102640085D01*
X72440961Y-102518096D01*
X72358181Y-102535633D01*
X71865104Y-102805500D01*
X71522499Y-103231499D01*
X71284576Y-102875423D01*
X70809908Y-102558260D01*
X70250000Y-102446887D01*
X69690091Y-102558260D01*
X69215423Y-102875424D01*
X68980000Y-103227759D01*
X68744576Y-102875423D01*
X68269908Y-102558260D01*
X67710000Y-102446887D01*
X67150091Y-102558260D01*
X66675423Y-102875424D01*
X66440000Y-103227759D01*
X66204576Y-102875423D01*
X65729908Y-102558260D01*
X65170000Y-102446887D01*
X64610091Y-102558260D01*
X64135423Y-102875424D01*
X63900000Y-103227759D01*
X63664576Y-102875423D01*
X63189908Y-102558260D01*
X62630000Y-102446887D01*
X62070091Y-102558260D01*
X61595423Y-102875424D01*
X61360000Y-103227759D01*
X61124576Y-102875423D01*
X60649908Y-102558260D01*
X60090000Y-102446887D01*
X59530091Y-102558260D01*
X59055423Y-102875424D01*
X58820000Y-103227759D01*
X58584576Y-102875423D01*
X58109908Y-102558260D01*
X57550000Y-102446887D01*
X56990091Y-102558260D01*
X56515423Y-102875424D01*
X56280000Y-103227759D01*
X56044576Y-102875423D01*
X55569908Y-102558260D01*
X55010000Y-102446887D01*
X54450091Y-102558260D01*
X53975423Y-102875424D01*
X53894785Y-102996107D01*
X53868157Y-102862235D01*
X53727809Y-102652191D01*
X53517765Y-102511843D01*
X53270000Y-102462560D01*
X51670000Y-102462560D01*
X51422235Y-102511843D01*
X51212191Y-102652191D01*
X51071843Y-102862235D01*
X51022560Y-103110000D01*
X51022560Y-105440000D01*
X50090074Y-105440000D01*
X50070048Y-105443983D01*
X49801765Y-105463920D01*
X49731019Y-105479474D01*
X49659273Y-105489302D01*
X49650948Y-105491736D01*
X49107663Y-105654213D01*
X49020193Y-105694630D01*
X48932229Y-105733978D01*
X48924922Y-105738652D01*
X48449076Y-106047080D01*
X48376445Y-106110440D01*
X48303082Y-106172876D01*
X48297383Y-106179409D01*
X48297379Y-106179413D01*
X48297376Y-106179418D01*
X47927224Y-106608998D01*
X47875286Y-106690211D01*
X47822404Y-106770716D01*
X47818766Y-106778590D01*
X47584060Y-107294799D01*
X47557020Y-107387268D01*
X47528842Y-107479435D01*
X47527560Y-107488014D01*
X47448408Y-108040706D01*
X47438252Y-108100978D01*
X47448756Y-108458110D01*
X47391197Y-108860027D01*
X47240661Y-109191112D01*
X47003251Y-109466639D01*
X46698056Y-109664456D01*
X46326083Y-109775700D01*
X46134711Y-109789921D01*
X41571642Y-109779848D01*
X41544875Y-109785111D01*
X41291765Y-109803920D01*
X41221019Y-109819474D01*
X41149273Y-109829302D01*
X41140948Y-109831736D01*
X40597663Y-109994213D01*
X40510193Y-110034630D01*
X40422229Y-110073978D01*
X40414922Y-110078652D01*
X39939076Y-110387080D01*
X39866445Y-110450440D01*
X39793082Y-110512876D01*
X39787383Y-110519409D01*
X39787379Y-110519413D01*
X39787376Y-110519418D01*
X39417224Y-110948998D01*
X39365286Y-111030211D01*
X39312404Y-111110716D01*
X39308766Y-111118590D01*
X39074060Y-111634799D01*
X39047020Y-111727268D01*
X39030898Y-111780000D01*
X36918685Y-111780000D01*
X36607267Y-111728166D01*
X36381791Y-111606506D01*
X36207877Y-111418366D01*
X36098506Y-111170974D01*
X36069939Y-110944843D01*
X36069030Y-110275750D01*
X36365000Y-110275750D01*
X36365000Y-110966310D01*
X36461673Y-111199699D01*
X36640302Y-111378327D01*
X36873691Y-111475000D01*
X37564250Y-111475000D01*
X37723000Y-111316250D01*
X37723000Y-110117000D01*
X37977000Y-110117000D01*
X37977000Y-111316250D01*
X38135750Y-111475000D01*
X38826309Y-111475000D01*
X39059698Y-111378327D01*
X39238327Y-111199699D01*
X39335000Y-110966310D01*
X39335000Y-110275750D01*
X39176250Y-110117000D01*
X37977000Y-110117000D01*
X37723000Y-110117000D01*
X36523750Y-110117000D01*
X36365000Y-110275750D01*
X36069030Y-110275750D01*
X36050093Y-96348127D01*
X36101834Y-96037267D01*
X36223495Y-95811791D01*
X36411635Y-95637876D01*
X36659026Y-95528505D01*
X36928986Y-95494401D01*
X36943702Y-95490000D01*
X51278684Y-95490000D01*
X51118260Y-95730092D01*
X51118260Y-95730092D01*
G37*
X51118260Y-95730092D02*
X51035000Y-96148668D01*
X51035000Y-97231333D01*
X51118260Y-97649909D01*
X51278818Y-97890200D01*
X39779278Y-97890200D01*
X39333396Y-97444319D01*
X39364092Y-97290000D01*
X39248839Y-96710582D01*
X38920625Y-96219375D01*
X38429418Y-95891161D01*
X37996256Y-95805000D01*
X37703744Y-95805000D01*
X37270582Y-95891161D01*
X36779375Y-96219375D01*
X36451161Y-96710582D01*
X36335908Y-97290000D01*
X36451161Y-97869418D01*
X36779375Y-98360625D01*
X37077761Y-98560000D01*
X36779375Y-98759375D01*
X36451161Y-99250582D01*
X36335908Y-99830000D01*
X36451161Y-100409418D01*
X36779375Y-100900625D01*
X37077761Y-101100000D01*
X36779375Y-101299375D01*
X36451161Y-101790582D01*
X36335908Y-102370000D01*
X36451161Y-102949418D01*
X36779375Y-103440625D01*
X37077761Y-103640000D01*
X36779375Y-103839375D01*
X36451161Y-104330582D01*
X36335908Y-104910000D01*
X36451161Y-105489418D01*
X36779375Y-105980625D01*
X37077761Y-106180000D01*
X36779375Y-106379375D01*
X36451161Y-106870582D01*
X36335908Y-107450000D01*
X36451161Y-108029418D01*
X36779375Y-108520625D01*
X36801033Y-108535096D01*
X36640302Y-108601673D01*
X36461673Y-108780301D01*
X36365000Y-109013690D01*
X36365000Y-109704250D01*
X36523750Y-109863000D01*
X37723000Y-109863000D01*
X37723000Y-109843000D01*
X37977000Y-109843000D01*
X37977000Y-109863000D01*
X39176250Y-109863000D01*
X39335000Y-109704250D01*
X39335000Y-109013690D01*
X39238327Y-108780301D01*
X39059698Y-108601673D01*
X38898967Y-108535096D01*
X38920625Y-108520625D01*
X39248839Y-108029418D01*
X39364092Y-107450000D01*
X39248839Y-106870582D01*
X38920625Y-106379375D01*
X38622239Y-106180000D01*
X38920625Y-105980625D01*
X39248839Y-105489418D01*
X39364092Y-104910000D01*
X39248839Y-104330582D01*
X38920625Y-103839375D01*
X38622239Y-103640000D01*
X38920625Y-103440625D01*
X39002348Y-103318318D01*
X39052081Y-103328210D01*
X39144635Y-103309800D01*
X39144640Y-103309800D01*
X39418772Y-103255272D01*
X39729638Y-103047557D01*
X39782069Y-102969090D01*
X41061359Y-101689800D01*
X46262559Y-101689800D01*
X46286690Y-101685000D01*
X46355983Y-101685000D01*
X46420001Y-101658483D01*
X46536691Y-101635272D01*
X46635615Y-101569173D01*
X46699635Y-101542655D01*
X46748635Y-101493655D01*
X46847557Y-101427557D01*
X46913655Y-101328635D01*
X46962655Y-101279635D01*
X46989173Y-101215615D01*
X47055272Y-101116691D01*
X47078483Y-101000001D01*
X47105000Y-100935983D01*
X47105000Y-100866690D01*
X47124273Y-100769800D01*
X63442559Y-100769800D01*
X63466690Y-100765000D01*
X63535983Y-100765000D01*
X63600001Y-100738483D01*
X63716691Y-100715272D01*
X63815615Y-100649173D01*
X63879635Y-100622655D01*
X63928635Y-100573655D01*
X64027557Y-100507557D01*
X64093655Y-100408635D01*
X64142655Y-100359635D01*
X64169173Y-100295615D01*
X64235272Y-100196691D01*
X64258483Y-100080001D01*
X64285000Y-100015983D01*
X64285000Y-99946690D01*
X64308211Y-99830000D01*
X64296237Y-99769800D01*
X68417446Y-99769800D01*
X68510000Y-99788210D01*
X68602554Y-99769800D01*
X68602559Y-99769800D01*
X68876691Y-99715272D01*
X69187557Y-99507557D01*
X69239988Y-99429090D01*
X70138203Y-98530875D01*
X70237956Y-98550717D01*
X73436145Y-101748907D01*
X73436148Y-101748909D01*
X74216145Y-102528907D01*
X74216147Y-102528908D01*
X74888600Y-103201362D01*
X74888601Y-107100631D01*
X74832235Y-107111843D01*
X74622191Y-107252191D01*
X74481843Y-107462235D01*
X74432560Y-107710000D01*
X74432560Y-109410000D01*
X74481843Y-109657765D01*
X74576882Y-109800000D01*
X57850580Y-109800000D01*
X57439973Y-109741197D01*
X57108888Y-109590661D01*
X56833361Y-109353251D01*
X56635544Y-109048056D01*
X56524300Y-108676083D01*
X56508863Y-108468356D01*
X56497851Y-108060918D01*
X56494116Y-108044478D01*
X56476080Y-107801765D01*
X56460526Y-107731019D01*
X56450698Y-107659273D01*
X56448264Y-107650948D01*
X56285787Y-107107663D01*
X56245370Y-107020193D01*
X56206022Y-106932229D01*
X56201348Y-106924922D01*
X55892920Y-106449076D01*
X55829560Y-106376445D01*
X55767124Y-106303082D01*
X55760591Y-106297383D01*
X55760587Y-106297379D01*
X55760582Y-106297376D01*
X55502643Y-106075120D01*
X55569909Y-106061740D01*
X56044577Y-105744577D01*
X56280000Y-105392241D01*
X56515424Y-105744577D01*
X56990092Y-106061740D01*
X57550000Y-106173113D01*
X58109909Y-106061740D01*
X58584577Y-105744577D01*
X58820000Y-105392241D01*
X59055424Y-105744577D01*
X59530092Y-106061740D01*
X60090000Y-106173113D01*
X60649909Y-106061740D01*
X61124577Y-105744577D01*
X61360000Y-105392241D01*
X61595424Y-105744577D01*
X62070092Y-106061740D01*
X62630000Y-106173113D01*
X63189909Y-106061740D01*
X63664577Y-105744577D01*
X63900000Y-105392241D01*
X64135424Y-105744577D01*
X64610092Y-106061740D01*
X65170000Y-106173113D01*
X65729909Y-106061740D01*
X66204577Y-105744577D01*
X66440000Y-105392241D01*
X66675424Y-105744577D01*
X67150092Y-106061740D01*
X67710000Y-106173113D01*
X68269909Y-106061740D01*
X68744577Y-105744577D01*
X68980000Y-105392241D01*
X69215424Y-105744577D01*
X69690092Y-106061740D01*
X70250000Y-106173113D01*
X70809909Y-106061740D01*
X71284577Y-105744577D01*
X71522499Y-105388501D01*
X71865104Y-105814500D01*
X72358181Y-106084367D01*
X72440961Y-106101904D01*
X72663000Y-105979915D01*
X72663000Y-104437000D01*
X72917000Y-104437000D01*
X72917000Y-105979915D01*
X73139039Y-106101904D01*
X73221819Y-106084367D01*
X73714896Y-105814500D01*
X74067166Y-105376483D01*
X74225000Y-104837000D01*
X74225000Y-104437000D01*
X72917000Y-104437000D01*
X72663000Y-104437000D01*
X72643000Y-104437000D01*
X72643000Y-104183000D01*
X72663000Y-104183000D01*
X72663000Y-102640085D01*
X72917000Y-102640085D01*
X72917000Y-104183000D01*
X74225000Y-104183000D01*
X74225000Y-103783000D01*
X74067166Y-103243517D01*
X73714896Y-102805500D01*
X73221819Y-102535633D01*
X73139039Y-102518096D01*
X72917000Y-102640085D01*
X72663000Y-102640085D01*
X72440961Y-102518096D01*
X72358181Y-102535633D01*
X71865104Y-102805500D01*
X71522499Y-103231499D01*
X71284576Y-102875423D01*
X70809908Y-102558260D01*
X70250000Y-102446887D01*
X69690091Y-102558260D01*
X69215423Y-102875424D01*
X68980000Y-103227759D01*
X68744576Y-102875423D01*
X68269908Y-102558260D01*
X67710000Y-102446887D01*
X67150091Y-102558260D01*
X66675423Y-102875424D01*
X66440000Y-103227759D01*
X66204576Y-102875423D01*
X65729908Y-102558260D01*
X65170000Y-102446887D01*
X64610091Y-102558260D01*
X64135423Y-102875424D01*
X63900000Y-103227759D01*
X63664576Y-102875423D01*
X63189908Y-102558260D01*
X62630000Y-102446887D01*
X62070091Y-102558260D01*
X61595423Y-102875424D01*
X61360000Y-103227759D01*
X61124576Y-102875423D01*
X60649908Y-102558260D01*
X60090000Y-102446887D01*
X59530091Y-102558260D01*
X59055423Y-102875424D01*
X58820000Y-103227759D01*
X58584576Y-102875423D01*
X58109908Y-102558260D01*
X57550000Y-102446887D01*
X56990091Y-102558260D01*
X56515423Y-102875424D01*
X56280000Y-103227759D01*
X56044576Y-102875423D01*
X55569908Y-102558260D01*
X55010000Y-102446887D01*
X54450091Y-102558260D01*
X53975423Y-102875424D01*
X53894785Y-102996107D01*
X53868157Y-102862235D01*
X53727809Y-102652191D01*
X53517765Y-102511843D01*
X53270000Y-102462560D01*
X51670000Y-102462560D01*
X51422235Y-102511843D01*
X51212191Y-102652191D01*
X51071843Y-102862235D01*
X51022560Y-103110000D01*
X51022560Y-105440000D01*
X50090074Y-105440000D01*
X50070048Y-105443983D01*
X49801765Y-105463920D01*
X49731019Y-105479474D01*
X49659273Y-105489302D01*
X49650948Y-105491736D01*
X49107663Y-105654213D01*
X49020193Y-105694630D01*
X48932229Y-105733978D01*
X48924922Y-105738652D01*
X48449076Y-106047080D01*
X48376445Y-106110440D01*
X48303082Y-106172876D01*
X48297383Y-106179409D01*
X48297379Y-106179413D01*
X48297376Y-106179418D01*
X47927224Y-106608998D01*
X47875286Y-106690211D01*
X47822404Y-106770716D01*
X47818766Y-106778590D01*
X47584060Y-107294799D01*
X47557020Y-107387268D01*
X47528842Y-107479435D01*
X47527560Y-107488014D01*
X47448408Y-108040706D01*
X47438252Y-108100978D01*
X47448756Y-108458110D01*
X47391197Y-108860027D01*
X47240661Y-109191112D01*
X47003251Y-109466639D01*
X46698056Y-109664456D01*
X46326083Y-109775700D01*
X46134711Y-109789921D01*
X41571642Y-109779848D01*
X41544875Y-109785111D01*
X41291765Y-109803920D01*
X41221019Y-109819474D01*
X41149273Y-109829302D01*
X41140948Y-109831736D01*
X40597663Y-109994213D01*
X40510193Y-110034630D01*
X40422229Y-110073978D01*
X40414922Y-110078652D01*
X39939076Y-110387080D01*
X39866445Y-110450440D01*
X39793082Y-110512876D01*
X39787383Y-110519409D01*
X39787379Y-110519413D01*
X39787376Y-110519418D01*
X39417224Y-110948998D01*
X39365286Y-111030211D01*
X39312404Y-111110716D01*
X39308766Y-111118590D01*
X39074060Y-111634799D01*
X39047020Y-111727268D01*
X39030898Y-111780000D01*
X36918685Y-111780000D01*
X36607267Y-111728166D01*
X36381791Y-111606506D01*
X36207877Y-111418366D01*
X36098506Y-111170974D01*
X36069939Y-110944843D01*
X36069030Y-110275750D01*
X36365000Y-110275750D01*
X36365000Y-110966310D01*
X36461673Y-111199699D01*
X36640302Y-111378327D01*
X36873691Y-111475000D01*
X37564250Y-111475000D01*
X37723000Y-111316250D01*
X37723000Y-110117000D01*
X37977000Y-110117000D01*
X37977000Y-111316250D01*
X38135750Y-111475000D01*
X38826309Y-111475000D01*
X39059698Y-111378327D01*
X39238327Y-111199699D01*
X39335000Y-110966310D01*
X39335000Y-110275750D01*
X39176250Y-110117000D01*
X37977000Y-110117000D01*
X37723000Y-110117000D01*
X36523750Y-110117000D01*
X36365000Y-110275750D01*
X36069030Y-110275750D01*
X36050093Y-96348127D01*
X36101834Y-96037267D01*
X36223495Y-95811791D01*
X36411635Y-95637876D01*
X36659026Y-95528505D01*
X36928986Y-95494401D01*
X36943702Y-95490000D01*
X51278684Y-95490000D01*
X51118260Y-95730092D01*
G04 #@! TD*
M02*
