G04 #@! TF.GenerationSoftware,KiCad,Pcbnew,5.1.4-e60b266~84~ubuntu19.04.1*
G04 #@! TF.CreationDate,2019-08-18T18:54:56+02:00*
G04 #@! TF.ProjectId,ULN2803A_shield,554c4e32-3830-4334-915f-736869656c64,rev?*
G04 #@! TF.SameCoordinates,Original*
G04 #@! TF.FileFunction,Legend,Top*
G04 #@! TF.FilePolarity,Positive*
%FSLAX46Y46*%
G04 Gerber Fmt 4.6, Leading zero omitted, Abs format (unit mm)*
G04 Created by KiCad (PCBNEW 5.1.4-e60b266~84~ubuntu19.04.1) date 2019-08-18 18:54:56*
%MOMM*%
%LPD*%
G04 APERTURE LIST*
%ADD10C,0.300000*%
%ADD11C,0.120000*%
%ADD12C,0.150000*%
G04 APERTURE END LIST*
D10*
X63045714Y-109098571D02*
X63045714Y-107598571D01*
X63760000Y-108098571D02*
X63760000Y-109098571D01*
X63760000Y-108241428D02*
X63831428Y-108170000D01*
X63974285Y-108098571D01*
X64188571Y-108098571D01*
X64331428Y-108170000D01*
X64402857Y-108312857D01*
X64402857Y-109098571D01*
X65760000Y-109098571D02*
X65760000Y-107598571D01*
X65760000Y-109027142D02*
X65617142Y-109098571D01*
X65331428Y-109098571D01*
X65188571Y-109027142D01*
X65117142Y-108955714D01*
X65045714Y-108812857D01*
X65045714Y-108384285D01*
X65117142Y-108241428D01*
X65188571Y-108170000D01*
X65331428Y-108098571D01*
X65617142Y-108098571D01*
X65760000Y-108170000D01*
X67117142Y-108098571D02*
X67117142Y-109098571D01*
X66474285Y-108098571D02*
X66474285Y-108884285D01*
X66545714Y-109027142D01*
X66688571Y-109098571D01*
X66902857Y-109098571D01*
X67045714Y-109027142D01*
X67117142Y-108955714D01*
X68474285Y-109027142D02*
X68331428Y-109098571D01*
X68045714Y-109098571D01*
X67902857Y-109027142D01*
X67831428Y-108955714D01*
X67760000Y-108812857D01*
X67760000Y-108384285D01*
X67831428Y-108241428D01*
X67902857Y-108170000D01*
X68045714Y-108098571D01*
X68331428Y-108098571D01*
X68474285Y-108170000D01*
X68902857Y-108098571D02*
X69474285Y-108098571D01*
X69117142Y-107598571D02*
X69117142Y-108884285D01*
X69188571Y-109027142D01*
X69331428Y-109098571D01*
X69474285Y-109098571D01*
X70188571Y-109098571D02*
X70045714Y-109027142D01*
X69974285Y-108955714D01*
X69902857Y-108812857D01*
X69902857Y-108384285D01*
X69974285Y-108241428D01*
X70045714Y-108170000D01*
X70188571Y-108098571D01*
X70402857Y-108098571D01*
X70545714Y-108170000D01*
X70617142Y-108241428D01*
X70688571Y-108384285D01*
X70688571Y-108812857D01*
X70617142Y-108955714D01*
X70545714Y-109027142D01*
X70402857Y-109098571D01*
X70188571Y-109098571D01*
X71331428Y-109098571D02*
X71331428Y-108098571D01*
X71331428Y-108384285D02*
X71402857Y-108241428D01*
X71474285Y-108170000D01*
X71617142Y-108098571D01*
X71760000Y-108098571D01*
X72617142Y-109598571D02*
X72617142Y-107455714D01*
X41578571Y-96358571D02*
X40435714Y-96787142D01*
X41578571Y-97215714D01*
X42292857Y-96787142D02*
X43435714Y-96787142D01*
X45578571Y-95858571D02*
X45864285Y-95858571D01*
X46007142Y-95930000D01*
X46150000Y-96072857D01*
X46221428Y-96358571D01*
X46221428Y-96858571D01*
X46150000Y-97144285D01*
X46007142Y-97287142D01*
X45864285Y-97358571D01*
X45578571Y-97358571D01*
X45435714Y-97287142D01*
X45292857Y-97144285D01*
X45221428Y-96858571D01*
X45221428Y-96358571D01*
X45292857Y-96072857D01*
X45435714Y-95930000D01*
X45578571Y-95858571D01*
X46864285Y-95858571D02*
X46864285Y-97072857D01*
X46935714Y-97215714D01*
X47007142Y-97287142D01*
X47150000Y-97358571D01*
X47435714Y-97358571D01*
X47578571Y-97287142D01*
X47650000Y-97215714D01*
X47721428Y-97072857D01*
X47721428Y-95858571D01*
X48221428Y-95858571D02*
X49078571Y-95858571D01*
X48650000Y-97358571D02*
X48650000Y-95858571D01*
D11*
X86900000Y-93610000D02*
X86900000Y-94870000D01*
X86900000Y-100430000D02*
X86900000Y-99170000D01*
X90660000Y-93610000D02*
X86900000Y-93610000D01*
X92910000Y-100430000D02*
X86900000Y-100430000D01*
X85840000Y-105850000D02*
X86800000Y-105850000D01*
X85840000Y-105850000D02*
G75*
G03X85840000Y-105850000I-2620000J0D01*
G01*
X51080000Y-101500000D02*
X51080000Y-102870000D01*
X51080000Y-102870000D02*
X74180000Y-102870000D01*
X74180000Y-102870000D02*
X74180000Y-98130000D01*
X74180000Y-98130000D02*
X51080000Y-98130000D01*
X51080000Y-98130000D02*
X51080000Y-99500000D01*
X51080000Y-99500000D02*
G75*
G02X51080000Y-101500000I0J-1000000D01*
G01*
X79800000Y-109890000D02*
X79800000Y-107230000D01*
X77200000Y-109890000D02*
X79800000Y-109890000D01*
X77200000Y-107230000D02*
X79800000Y-107230000D01*
X77200000Y-109890000D02*
X77200000Y-107230000D01*
X75930000Y-109890000D02*
X74600000Y-109890000D01*
X74600000Y-109890000D02*
X74600000Y-108560000D01*
X82120000Y-98040000D02*
X82120000Y-95380000D01*
X79520000Y-98040000D02*
X82120000Y-98040000D01*
X79520000Y-95380000D02*
X82120000Y-95380000D01*
X79520000Y-98040000D02*
X79520000Y-95380000D01*
X78250000Y-98040000D02*
X76920000Y-98040000D01*
X76920000Y-98040000D02*
X76920000Y-96710000D01*
X94950000Y-96020000D02*
X97610000Y-96020000D01*
X94950000Y-96020000D02*
X94950000Y-111320000D01*
X94950000Y-111320000D02*
X97610000Y-111320000D01*
X97610000Y-96020000D02*
X97610000Y-111320000D01*
X97610000Y-93420000D02*
X97610000Y-94750000D01*
X96280000Y-93420000D02*
X97610000Y-93420000D01*
X37860000Y-93390000D02*
X39190000Y-93390000D01*
X39190000Y-93390000D02*
X39190000Y-94720000D01*
X39190000Y-95990000D02*
X39190000Y-111290000D01*
X36530000Y-111290000D02*
X39190000Y-111290000D01*
X36530000Y-95990000D02*
X36530000Y-111290000D01*
X36530000Y-95990000D02*
X39190000Y-95990000D01*
X91790000Y-102797936D02*
X91790000Y-104002064D01*
X93610000Y-102797936D02*
X93610000Y-104002064D01*
X89514564Y-102810000D02*
X88310436Y-102810000D01*
X89514564Y-100990000D02*
X88310436Y-100990000D01*
D12*
X89204761Y-97347619D02*
X89109523Y-97300000D01*
X89014285Y-97204761D01*
X88871428Y-97061904D01*
X88776190Y-97014285D01*
X88680952Y-97014285D01*
X88728571Y-97252380D02*
X88633333Y-97204761D01*
X88538095Y-97109523D01*
X88490476Y-96919047D01*
X88490476Y-96585714D01*
X88538095Y-96395238D01*
X88633333Y-96300000D01*
X88728571Y-96252380D01*
X88919047Y-96252380D01*
X89014285Y-96300000D01*
X89109523Y-96395238D01*
X89157142Y-96585714D01*
X89157142Y-96919047D01*
X89109523Y-97109523D01*
X89014285Y-97204761D01*
X88919047Y-97252380D01*
X88728571Y-97252380D01*
X90109523Y-97252380D02*
X89538095Y-97252380D01*
X89823809Y-97252380D02*
X89823809Y-96252380D01*
X89728571Y-96395238D01*
X89633333Y-96490476D01*
X89538095Y-96538095D01*
X79733333Y-104752380D02*
X79257142Y-104752380D01*
X79257142Y-103752380D01*
X80590476Y-104752380D02*
X80019047Y-104752380D01*
X80304761Y-104752380D02*
X80304761Y-103752380D01*
X80209523Y-103895238D01*
X80114285Y-103990476D01*
X80019047Y-104038095D01*
X50532380Y-101476190D02*
X49532380Y-101476190D01*
X50437142Y-100428571D02*
X50484761Y-100476190D01*
X50532380Y-100619047D01*
X50532380Y-100714285D01*
X50484761Y-100857142D01*
X50389523Y-100952380D01*
X50294285Y-101000000D01*
X50103809Y-101047619D01*
X49960952Y-101047619D01*
X49770476Y-101000000D01*
X49675238Y-100952380D01*
X49580000Y-100857142D01*
X49532380Y-100714285D01*
X49532380Y-100619047D01*
X49580000Y-100476190D01*
X49627619Y-100428571D01*
X50532380Y-99476190D02*
X50532380Y-100047619D01*
X50532380Y-99761904D02*
X49532380Y-99761904D01*
X49675238Y-99857142D01*
X49770476Y-99952380D01*
X49818095Y-100047619D01*
X73052380Y-109393333D02*
X73766666Y-109393333D01*
X73909523Y-109440952D01*
X74004761Y-109536190D01*
X74052380Y-109679047D01*
X74052380Y-109774285D01*
X74052380Y-108917142D02*
X73052380Y-108917142D01*
X73052380Y-108536190D01*
X73100000Y-108440952D01*
X73147619Y-108393333D01*
X73242857Y-108345714D01*
X73385714Y-108345714D01*
X73480952Y-108393333D01*
X73528571Y-108440952D01*
X73576190Y-108536190D01*
X73576190Y-108917142D01*
X74052380Y-107393333D02*
X74052380Y-107964761D01*
X74052380Y-107679047D02*
X73052380Y-107679047D01*
X73195238Y-107774285D01*
X73290476Y-107869523D01*
X73338095Y-107964761D01*
X76372380Y-97448095D02*
X75372380Y-97448095D01*
X75372380Y-97210000D01*
X75420000Y-97067142D01*
X75515238Y-96971904D01*
X75610476Y-96924285D01*
X75800952Y-96876666D01*
X75943809Y-96876666D01*
X76134285Y-96924285D01*
X76229523Y-96971904D01*
X76324761Y-97067142D01*
X76372380Y-97210000D01*
X76372380Y-97448095D01*
X76372380Y-95924285D02*
X76372380Y-96495714D01*
X76372380Y-96210000D02*
X75372380Y-96210000D01*
X75515238Y-96305238D01*
X75610476Y-96400476D01*
X75658095Y-96495714D01*
X95052380Y-104219047D02*
X94576190Y-104552380D01*
X95052380Y-104790476D02*
X94052380Y-104790476D01*
X94052380Y-104409523D01*
X94100000Y-104314285D01*
X94147619Y-104266666D01*
X94242857Y-104219047D01*
X94385714Y-104219047D01*
X94480952Y-104266666D01*
X94528571Y-104314285D01*
X94576190Y-104409523D01*
X94576190Y-104790476D01*
X95052380Y-103266666D02*
X95052380Y-103838095D01*
X95052380Y-103552380D02*
X94052380Y-103552380D01*
X94195238Y-103647619D01*
X94290476Y-103742857D01*
X94338095Y-103838095D01*
X94052380Y-102647619D02*
X94052380Y-102552380D01*
X94100000Y-102457142D01*
X94147619Y-102409523D01*
X94242857Y-102361904D01*
X94433333Y-102314285D01*
X94671428Y-102314285D01*
X94861904Y-102361904D01*
X94957142Y-102409523D01*
X95004761Y-102457142D01*
X95052380Y-102552380D01*
X95052380Y-102647619D01*
X95004761Y-102742857D01*
X94957142Y-102790476D01*
X94861904Y-102838095D01*
X94671428Y-102885714D01*
X94433333Y-102885714D01*
X94242857Y-102838095D01*
X94147619Y-102790476D01*
X94100000Y-102742857D01*
X94052380Y-102647619D01*
X94052380Y-101695238D02*
X94052380Y-101600000D01*
X94100000Y-101504761D01*
X94147619Y-101457142D01*
X94242857Y-101409523D01*
X94433333Y-101361904D01*
X94671428Y-101361904D01*
X94861904Y-101409523D01*
X94957142Y-101457142D01*
X95004761Y-101504761D01*
X95052380Y-101600000D01*
X95052380Y-101695238D01*
X95004761Y-101790476D01*
X94957142Y-101838095D01*
X94861904Y-101885714D01*
X94671428Y-101933333D01*
X94433333Y-101933333D01*
X94242857Y-101885714D01*
X94147619Y-101838095D01*
X94100000Y-101790476D01*
X94052380Y-101695238D01*
X83180952Y-102252380D02*
X82847619Y-101776190D01*
X82609523Y-102252380D02*
X82609523Y-101252380D01*
X82990476Y-101252380D01*
X83085714Y-101300000D01*
X83133333Y-101347619D01*
X83180952Y-101442857D01*
X83180952Y-101585714D01*
X83133333Y-101680952D01*
X83085714Y-101728571D01*
X82990476Y-101776190D01*
X82609523Y-101776190D01*
X84133333Y-102252380D02*
X83561904Y-102252380D01*
X83847619Y-102252380D02*
X83847619Y-101252380D01*
X83752380Y-101395238D01*
X83657142Y-101490476D01*
X83561904Y-101538095D01*
X84752380Y-101252380D02*
X84847619Y-101252380D01*
X84942857Y-101300000D01*
X84990476Y-101347619D01*
X85038095Y-101442857D01*
X85085714Y-101633333D01*
X85085714Y-101871428D01*
X85038095Y-102061904D01*
X84990476Y-102157142D01*
X84942857Y-102204761D01*
X84847619Y-102252380D01*
X84752380Y-102252380D01*
X84657142Y-102204761D01*
X84609523Y-102157142D01*
X84561904Y-102061904D01*
X84514285Y-101871428D01*
X84514285Y-101633333D01*
X84561904Y-101442857D01*
X84609523Y-101347619D01*
X84657142Y-101300000D01*
X84752380Y-101252380D01*
X86038095Y-102252380D02*
X85466666Y-102252380D01*
X85752380Y-102252380D02*
X85752380Y-101252380D01*
X85657142Y-101395238D01*
X85561904Y-101490476D01*
X85466666Y-101538095D01*
M02*
