M48
INCH,TZ
T1C0.0157
T2C0.0315
T3C0.0394
T4C0.0472
%
G90
G05
T1
X18177Y-39665
X19409Y-40394
X19803Y-40197
X19803Y-40630
X24941Y-39303
X26339Y-39469
X27402Y-39354
X27697Y-39354
X27992Y-39354
X32707Y-38703
X34724Y-39094
X35039Y-38858
X35118Y-39213
X35315Y-37283
T2
X20657Y-38067
X20657Y-41067
X21657Y-38067
X21657Y-41067
X22657Y-38067
X22657Y-41067
X23657Y-38067
X23657Y-41067
X24657Y-38067
X24657Y-41067
X25657Y-38067
X25657Y-41067
X26657Y-38067
X26657Y-41067
X27657Y-38067
X27657Y-41067
X28657Y-38067
X28657Y-41067
T3
X29894Y-42740
X30894Y-42740
X37906Y-37303
X37906Y-38303
X37906Y-39303
X37906Y-40303
X37906Y-41303
X37906Y-42303
X37906Y-43303
X30807Y-38075
X31807Y-38075
X14906Y-37291
X14906Y-38291
X14906Y-39291
X14906Y-40291
X14906Y-41291
X14906Y-42291
X14906Y-43291
T4
X32764Y-41673
X34764Y-41673
T0
M30
