G04 #@! TF.GenerationSoftware,KiCad,Pcbnew,5.0.0+dfsg1-2*
G04 #@! TF.CreationDate,2019-03-17T13:20:00+01:00*
G04 #@! TF.ProjectId,ULN2803A_shield,554C4E32383033415F736869656C642E,rev?*
G04 #@! TF.SameCoordinates,Original*
G04 #@! TF.FileFunction,Profile,NP*
%FSLAX46Y46*%
G04 Gerber Fmt 4.6, Leading zero omitted, Abs format (unit mm)*
G04 Created by KiCad (PCBNEW 5.0.0+dfsg1-2) date Sun Mar 17 13:20:00 2019*
%MOMM*%
%LPD*%
G01*
G04 APERTURE LIST*
%ADD10C,0.150000*%
G04 APERTURE END LIST*
D10*
X97260000Y-94780000D02*
X36850000Y-94780000D01*
X98770000Y-96280000D02*
X98770000Y-110990000D01*
X57810000Y-110510000D02*
X92500000Y-110510000D01*
X41640000Y-110490000D02*
X46170000Y-110500000D01*
X48150000Y-108150000D02*
X48160000Y-108490000D01*
X50160000Y-106150000D02*
X53780000Y-106150000D01*
X55800000Y-108520000D02*
X55790000Y-108150000D01*
X57800000Y-110510000D02*
G75*
G02X55800000Y-108510000I0J2000000D01*
G01*
X53790000Y-106150000D02*
G75*
G02X55790000Y-108150000I0J-2000000D01*
G01*
X48150000Y-108150000D02*
G75*
G02X50150000Y-106150000I2000000J0D01*
G01*
X48160000Y-108500000D02*
G75*
G02X46160000Y-110500000I-2000000J0D01*
G01*
X39640000Y-112490000D02*
G75*
G02X41640000Y-110490000I2000000J0D01*
G01*
X39620000Y-112490000D02*
X36870000Y-112490000D01*
X92530000Y-110510000D02*
G75*
G02X94530000Y-112510000I0J-2000000D01*
G01*
X97260000Y-112500000D02*
X94510000Y-112500000D01*
X35360000Y-110990000D02*
X35340000Y-96280000D01*
X36840000Y-94790000D02*
G75*
G03X35340000Y-96290000I0J-1500000D01*
G01*
X98770000Y-96280000D02*
G75*
G03X97270000Y-94780000I-1500000J0D01*
G01*
X97280000Y-112500000D02*
G75*
G03X98780000Y-110989967I0J1500033D01*
G01*
X35360000Y-110990000D02*
G75*
G03X36860000Y-112490000I1500000J0D01*
G01*
M02*
